G04*
G04 #@! TF.GenerationSoftware,Altium Limited,Altium Designer,22.11.1 (43)*
G04*
G04 Layer_Color=8388736*
%FSLAX44Y44*%
%MOMM*%
G71*
G04*
G04 #@! TF.SameCoordinates,30CB15ED-5B5F-4030-944F-8374E8F7CEFA*
G04*
G04*
G04 #@! TF.FilePolarity,Negative*
G04*
G01*
G75*
%ADD29O,0.4096X1.4256*%
%ADD30R,0.9656X0.9081*%
%ADD31R,1.0016X0.9016*%
%ADD32R,2.4776X2.0016*%
%ADD33R,2.9016X1.2016*%
%ADD34R,1.2016X2.6016*%
%ADD35R,3.7016X2.4416*%
%ADD36R,2.5256X3.5216*%
%ADD37R,0.9081X0.9656*%
%ADD38R,1.5866X1.8296*%
%ADD39R,0.9016X1.0016*%
%ADD40R,3.2000X2.3000*%
%ADD41O,0.7316X1.9666*%
%ADD42R,1.2016X1.1016*%
%ADD43R,1.8296X1.5866*%
%ADD44C,1.9016*%
%ADD45R,1.9025X1.9025*%
D29*
X-744410Y-91031D02*
D03*
X-737911D02*
D03*
X-731411D02*
D03*
X-724911D02*
D03*
X-718411D02*
D03*
X-711909D02*
D03*
X-705409D02*
D03*
X-698909D02*
D03*
X-692409D02*
D03*
X-685909D02*
D03*
X-679409D02*
D03*
X-672909D02*
D03*
X-744410Y-19789D02*
D03*
X-737911D02*
D03*
X-731411D02*
D03*
X-724911D02*
D03*
X-718411D02*
D03*
X-711909D02*
D03*
X-705409D02*
D03*
X-698909D02*
D03*
X-692409D02*
D03*
X-685909D02*
D03*
X-679409D02*
D03*
X-672909D02*
D03*
D30*
X-702310Y53896D02*
D03*
Y68964D02*
D03*
D31*
X-657860Y-51450D02*
D03*
Y-37450D02*
D03*
X-760730D02*
D03*
Y-51450D02*
D03*
X-718820Y54430D02*
D03*
Y68430D02*
D03*
X-685800Y54430D02*
D03*
Y68430D02*
D03*
D32*
X-631190Y-78677D02*
D03*
Y-40704D02*
D03*
D33*
X-802383Y-119070D02*
D03*
X-835596D02*
D03*
X-849726Y21590D02*
D03*
X-816514D02*
D03*
D34*
X-797420Y-21100D02*
D03*
X-820420D02*
D03*
X-843420D02*
D03*
D35*
X-820420Y-80500D02*
D03*
D36*
X-820181Y157950D02*
D03*
X-754619D02*
D03*
D37*
X-740496Y70320D02*
D03*
X-755564D02*
D03*
X-735416Y55080D02*
D03*
X-750484D02*
D03*
X-740496Y85560D02*
D03*
X-755564D02*
D03*
D38*
X-782904Y76670D02*
D03*
X-814756D02*
D03*
D39*
X-704200Y-2540D02*
D03*
X-718200D02*
D03*
X-722010Y180810D02*
D03*
X-708010D02*
D03*
D40*
X-708660Y117310D02*
D03*
D41*
X-689610Y144135D02*
D03*
X-702310D02*
D03*
X-715010D02*
D03*
X-727710D02*
D03*
X-689610Y90485D02*
D03*
X-702310D02*
D03*
X-715010D02*
D03*
X-727710D02*
D03*
D42*
X-732359Y198590D02*
D03*
X-697661D02*
D03*
D43*
X-660400Y121704D02*
D03*
Y153556D02*
D03*
D44*
X-581660Y-123190D02*
D03*
Y-97790D02*
D03*
Y-72390D02*
D03*
Y-46990D02*
D03*
Y-21590D02*
D03*
Y3810D02*
D03*
Y29210D02*
D03*
Y54610D02*
D03*
Y80010D02*
D03*
Y105410D02*
D03*
Y130810D02*
D03*
Y156210D02*
D03*
Y181610D02*
D03*
Y207010D02*
D03*
Y232410D02*
D03*
Y257810D02*
D03*
Y283210D02*
D03*
Y308610D02*
D03*
Y334010D02*
D03*
D45*
Y359410D02*
D03*
M02*
