G04*
G04 #@! TF.GenerationSoftware,Altium Limited,Altium Designer,22.11.1 (43)*
G04*
G04 Layer_Physical_Order=2*
G04 Layer_Color=36540*
%FSLAX44Y44*%
%MOMM*%
G71*
G04*
G04 #@! TF.SameCoordinates,30CB15ED-5B5F-4030-944F-8374E8F7CEFA*
G04*
G04*
G04 #@! TF.FilePolarity,Positive*
G04*
G01*
G75*
G04:AMPARAMS|DCode=50|XSize=2mm|YSize=5mm|CornerRadius=0.25mm|HoleSize=0mm|Usage=FLASHONLY|Rotation=90.000|XOffset=0mm|YOffset=0mm|HoleType=Round|Shape=RoundedRectangle|*
%AMROUNDEDRECTD50*
21,1,2.0000,4.5000,0,0,90.0*
21,1,1.5000,5.0000,0,0,90.0*
1,1,0.5000,2.2500,0.7500*
1,1,0.5000,2.2500,-0.7500*
1,1,0.5000,-2.2500,-0.7500*
1,1,0.5000,-2.2500,0.7500*
%
%ADD50ROUNDEDRECTD50*%
%ADD51R,1.5000X1.5000*%
%ADD52C,1.5000*%
%ADD53C,1.8000*%
%ADD54R,1.8009X1.8009*%
%ADD55C,3.8000*%
%ADD56R,1.6000X2.6000*%
%ADD57R,1.5000X1.5000*%
%ADD58C,0.5080*%
%ADD59C,3.0000*%
%ADD60C,0.7620*%
%ADD61C,1.2700*%
%ADD62C,1.0160*%
G36*
X14800Y396710D02*
X16586Y396475D01*
X18250Y395786D01*
X19679Y394689D01*
X20776Y393260D01*
X21465Y391596D01*
X21700Y389810D01*
X21709D01*
Y-190190D01*
X21700D01*
X21465Y-191976D01*
X20776Y-193640D01*
X19679Y-195069D01*
X18250Y-196166D01*
X16586Y-196855D01*
X14800Y-197090D01*
Y-197099D01*
X-965200D01*
Y-197090D01*
X-966986Y-196855D01*
X-968650Y-196166D01*
X-970079Y-195069D01*
X-971176Y-193640D01*
X-971865Y-191976D01*
X-972100Y-190190D01*
X-972109D01*
Y389810D01*
X-972200Y390268D01*
X-972025Y391596D01*
X-971336Y393260D01*
X-970239Y394689D01*
X-968810Y395786D01*
X-967146Y396475D01*
X-965360Y396710D01*
X-965360Y396710D01*
Y396710D01*
X-965200Y396719D01*
X14800D01*
Y396710D01*
D02*
G37*
%LPC*%
G36*
X-41910Y394898D02*
Y388620D01*
X-35631D01*
X-36079Y390291D01*
X-37083Y392029D01*
X-38501Y393447D01*
X-40239Y394451D01*
X-41910Y394898D01*
D02*
G37*
G36*
X-44450D02*
X-46121Y394451D01*
X-47859Y393447D01*
X-49278Y392029D01*
X-50281Y390291D01*
X-50729Y388620D01*
X-44450D01*
Y394898D01*
D02*
G37*
G36*
X-80010D02*
Y388620D01*
X-73731D01*
X-74179Y390291D01*
X-75182Y392029D01*
X-76601Y393447D01*
X-78339Y394451D01*
X-80010Y394898D01*
D02*
G37*
G36*
X-82550D02*
X-84221Y394451D01*
X-85959Y393447D01*
X-87378Y392029D01*
X-88381Y390291D01*
X-88828Y388620D01*
X-82550D01*
Y394898D01*
D02*
G37*
G36*
X-118110D02*
Y388620D01*
X-111832D01*
X-112279Y390291D01*
X-113282Y392029D01*
X-114701Y393447D01*
X-116439Y394451D01*
X-118110Y394898D01*
D02*
G37*
G36*
X-120650D02*
X-122321Y394451D01*
X-124059Y393447D01*
X-125478Y392029D01*
X-126481Y390291D01*
X-126929Y388620D01*
X-120650D01*
Y394898D01*
D02*
G37*
G36*
X-156210D02*
Y388620D01*
X-149931D01*
X-150379Y390291D01*
X-151383Y392029D01*
X-152801Y393447D01*
X-154539Y394451D01*
X-156210Y394898D01*
D02*
G37*
G36*
X-158750D02*
X-160421Y394451D01*
X-162159Y393447D01*
X-163577Y392029D01*
X-164581Y390291D01*
X-165028Y388620D01*
X-158750D01*
Y394898D01*
D02*
G37*
G36*
X-194310D02*
Y388620D01*
X-188032D01*
X-188479Y390291D01*
X-189482Y392029D01*
X-190901Y393447D01*
X-192639Y394451D01*
X-194310Y394898D01*
D02*
G37*
G36*
X-196850D02*
X-198521Y394451D01*
X-200259Y393447D01*
X-201677Y392029D01*
X-202681Y390291D01*
X-203129Y388620D01*
X-196850D01*
Y394898D01*
D02*
G37*
G36*
X-232410D02*
Y388620D01*
X-226131D01*
X-226579Y390291D01*
X-227582Y392029D01*
X-229001Y393447D01*
X-230739Y394451D01*
X-232410Y394898D01*
D02*
G37*
G36*
X-234950D02*
X-236621Y394451D01*
X-238359Y393447D01*
X-239778Y392029D01*
X-240781Y390291D01*
X-241229Y388620D01*
X-234950D01*
Y394898D01*
D02*
G37*
G36*
X-270510D02*
Y388620D01*
X-264231D01*
X-264679Y390291D01*
X-265683Y392029D01*
X-267101Y393447D01*
X-268839Y394451D01*
X-270510Y394898D01*
D02*
G37*
G36*
X-273050D02*
X-274721Y394451D01*
X-276459Y393447D01*
X-277878Y392029D01*
X-278881Y390291D01*
X-279328Y388620D01*
X-273050D01*
Y394898D01*
D02*
G37*
G36*
X-308610D02*
Y388620D01*
X-302332D01*
X-302779Y390291D01*
X-303783Y392029D01*
X-305201Y393447D01*
X-306939Y394451D01*
X-308610Y394898D01*
D02*
G37*
G36*
X-311150D02*
X-312821Y394451D01*
X-314559Y393447D01*
X-315977Y392029D01*
X-316981Y390291D01*
X-317428Y388620D01*
X-311150D01*
Y394898D01*
D02*
G37*
G36*
X-346710D02*
Y388620D01*
X-340432D01*
X-340879Y390291D01*
X-341883Y392029D01*
X-343301Y393447D01*
X-345039Y394451D01*
X-346710Y394898D01*
D02*
G37*
G36*
X-349250D02*
X-350921Y394451D01*
X-352659Y393447D01*
X-354077Y392029D01*
X-355081Y390291D01*
X-355528Y388620D01*
X-349250D01*
Y394898D01*
D02*
G37*
G36*
X-384810D02*
Y388620D01*
X-378531D01*
X-378979Y390291D01*
X-379982Y392029D01*
X-381401Y393447D01*
X-383139Y394451D01*
X-384810Y394898D01*
D02*
G37*
G36*
X-387350D02*
X-389021Y394451D01*
X-390759Y393447D01*
X-392178Y392029D01*
X-393181Y390291D01*
X-393629Y388620D01*
X-387350D01*
Y394898D01*
D02*
G37*
G36*
X-422910D02*
Y388620D01*
X-416632D01*
X-417079Y390291D01*
X-418083Y392029D01*
X-419501Y393447D01*
X-421239Y394451D01*
X-422910Y394898D01*
D02*
G37*
G36*
X-425450D02*
X-427121Y394451D01*
X-428859Y393447D01*
X-430277Y392029D01*
X-431281Y390291D01*
X-431729Y388620D01*
X-425450D01*
Y394898D01*
D02*
G37*
G36*
X-461010D02*
Y388620D01*
X-454731D01*
X-455179Y390291D01*
X-456183Y392029D01*
X-457601Y393447D01*
X-459339Y394451D01*
X-461010Y394898D01*
D02*
G37*
G36*
X-463550D02*
X-465221Y394451D01*
X-466959Y393447D01*
X-468377Y392029D01*
X-469381Y390291D01*
X-469828Y388620D01*
X-463550D01*
Y394898D01*
D02*
G37*
G36*
X-35631Y386080D02*
X-41910D01*
Y379801D01*
X-40239Y380249D01*
X-38501Y381253D01*
X-37083Y382671D01*
X-36079Y384409D01*
X-35631Y386080D01*
D02*
G37*
G36*
X-44450D02*
X-50729D01*
X-50281Y384409D01*
X-49278Y382671D01*
X-47859Y381253D01*
X-46121Y380249D01*
X-44450Y379801D01*
Y386080D01*
D02*
G37*
G36*
X-73731D02*
X-80010D01*
Y379801D01*
X-78339Y380249D01*
X-76601Y381253D01*
X-75182Y382671D01*
X-74179Y384409D01*
X-73731Y386080D01*
D02*
G37*
G36*
X-82550D02*
X-88828D01*
X-88381Y384409D01*
X-87378Y382671D01*
X-85959Y381253D01*
X-84221Y380249D01*
X-82550Y379801D01*
Y386080D01*
D02*
G37*
G36*
X-111832D02*
X-118110D01*
Y379801D01*
X-116439Y380249D01*
X-114701Y381253D01*
X-113282Y382671D01*
X-112279Y384409D01*
X-111832Y386080D01*
D02*
G37*
G36*
X-120650D02*
X-126929D01*
X-126481Y384409D01*
X-125478Y382671D01*
X-124059Y381253D01*
X-122321Y380249D01*
X-120650Y379801D01*
Y386080D01*
D02*
G37*
G36*
X-149931D02*
X-156210D01*
Y379801D01*
X-154539Y380249D01*
X-152801Y381253D01*
X-151383Y382671D01*
X-150379Y384409D01*
X-149931Y386080D01*
D02*
G37*
G36*
X-158750D02*
X-165028D01*
X-164581Y384409D01*
X-163577Y382671D01*
X-162159Y381253D01*
X-160421Y380249D01*
X-158750Y379801D01*
Y386080D01*
D02*
G37*
G36*
X-188032D02*
X-194310D01*
Y379801D01*
X-192639Y380249D01*
X-190901Y381253D01*
X-189482Y382671D01*
X-188479Y384409D01*
X-188032Y386080D01*
D02*
G37*
G36*
X-196850D02*
X-203129D01*
X-202681Y384409D01*
X-201677Y382671D01*
X-200259Y381253D01*
X-198521Y380249D01*
X-196850Y379801D01*
Y386080D01*
D02*
G37*
G36*
X-226131D02*
X-232410D01*
Y379801D01*
X-230739Y380249D01*
X-229001Y381253D01*
X-227582Y382671D01*
X-226579Y384409D01*
X-226131Y386080D01*
D02*
G37*
G36*
X-234950D02*
X-241229D01*
X-240781Y384409D01*
X-239778Y382671D01*
X-238359Y381253D01*
X-236621Y380249D01*
X-234950Y379801D01*
Y386080D01*
D02*
G37*
G36*
X-264231D02*
X-270510D01*
Y379801D01*
X-268839Y380249D01*
X-267101Y381253D01*
X-265683Y382671D01*
X-264679Y384409D01*
X-264231Y386080D01*
D02*
G37*
G36*
X-273050D02*
X-279328D01*
X-278881Y384409D01*
X-277878Y382671D01*
X-276459Y381253D01*
X-274721Y380249D01*
X-273050Y379801D01*
Y386080D01*
D02*
G37*
G36*
X-302332D02*
X-308610D01*
Y379801D01*
X-306939Y380249D01*
X-305201Y381253D01*
X-303783Y382671D01*
X-302779Y384409D01*
X-302332Y386080D01*
D02*
G37*
G36*
X-311150D02*
X-317428D01*
X-316981Y384409D01*
X-315977Y382671D01*
X-314559Y381253D01*
X-312821Y380249D01*
X-311150Y379801D01*
Y386080D01*
D02*
G37*
G36*
X-340432D02*
X-346710D01*
Y379801D01*
X-345039Y380249D01*
X-343301Y381253D01*
X-341883Y382671D01*
X-340879Y384409D01*
X-340432Y386080D01*
D02*
G37*
G36*
X-349250D02*
X-355528D01*
X-355081Y384409D01*
X-354077Y382671D01*
X-352659Y381253D01*
X-350921Y380249D01*
X-349250Y379801D01*
Y386080D01*
D02*
G37*
G36*
X-378531D02*
X-384810D01*
Y379801D01*
X-383139Y380249D01*
X-381401Y381253D01*
X-379982Y382671D01*
X-378979Y384409D01*
X-378531Y386080D01*
D02*
G37*
G36*
X-387350D02*
X-393629D01*
X-393181Y384409D01*
X-392178Y382671D01*
X-390759Y381253D01*
X-389021Y380249D01*
X-387350Y379801D01*
Y386080D01*
D02*
G37*
G36*
X-416632D02*
X-422910D01*
Y379801D01*
X-421239Y380249D01*
X-419501Y381253D01*
X-418083Y382671D01*
X-417079Y384409D01*
X-416632Y386080D01*
D02*
G37*
G36*
X-425450D02*
X-431729D01*
X-431281Y384409D01*
X-430277Y382671D01*
X-428859Y381253D01*
X-427121Y380249D01*
X-425450Y379801D01*
Y386080D01*
D02*
G37*
G36*
X-454731D02*
X-461010D01*
Y379801D01*
X-459339Y380249D01*
X-457601Y381253D01*
X-456183Y382671D01*
X-455179Y384409D01*
X-454731Y386080D01*
D02*
G37*
G36*
X-463550D02*
X-469828D01*
X-469381Y384409D01*
X-468377Y382671D01*
X-466959Y381253D01*
X-465221Y380249D01*
X-463550Y379801D01*
Y386080D01*
D02*
G37*
G36*
X-8382Y384890D02*
X-9090D01*
Y366080D01*
X9720D01*
Y366788D01*
X8948Y370667D01*
X7435Y374321D01*
X5237Y377610D01*
X2440Y380407D01*
X-849Y382605D01*
X-4503Y384118D01*
X-8382Y384890D01*
D02*
G37*
G36*
X-11630D02*
X-12338D01*
X-16217Y384118D01*
X-19871Y382605D01*
X-23160Y380407D01*
X-25957Y377610D01*
X-28155Y374321D01*
X-29668Y370667D01*
X-30440Y366788D01*
Y366080D01*
X-11630D01*
Y384890D01*
D02*
G37*
G36*
X-938382D02*
X-939090D01*
Y366080D01*
X-920280D01*
Y366788D01*
X-921052Y370667D01*
X-922565Y374321D01*
X-924763Y377610D01*
X-927560Y380407D01*
X-930849Y382605D01*
X-934503Y384118D01*
X-938382Y384890D01*
D02*
G37*
G36*
X-941630D02*
X-942338D01*
X-946217Y384118D01*
X-949871Y382605D01*
X-953160Y380407D01*
X-955957Y377610D01*
X-958155Y374321D01*
X-959668Y370667D01*
X-960440Y366788D01*
Y366080D01*
X-941630D01*
Y384890D01*
D02*
G37*
G36*
X-402006Y373490D02*
X-402590D01*
Y360680D01*
X-389780D01*
Y361264D01*
X-390740Y364845D01*
X-392593Y368055D01*
X-395215Y370677D01*
X-398425Y372530D01*
X-402006Y373490D01*
D02*
G37*
G36*
X-405130D02*
X-405714D01*
X-409295Y372530D01*
X-412505Y370677D01*
X-415127Y368055D01*
X-416980Y364845D01*
X-417940Y361264D01*
Y360680D01*
X-405130D01*
Y373490D01*
D02*
G37*
G36*
X-570624Y370446D02*
X-592696D01*
Y348374D01*
X-570624D01*
Y370446D01*
D02*
G37*
G36*
X9720Y363540D02*
X-9090D01*
Y344730D01*
X-8382D01*
X-4503Y345502D01*
X-849Y347015D01*
X2440Y349213D01*
X5237Y352010D01*
X7435Y355299D01*
X8948Y358953D01*
X9720Y362832D01*
Y363540D01*
D02*
G37*
G36*
X-11630D02*
X-30440D01*
Y362832D01*
X-29668Y358953D01*
X-28155Y355299D01*
X-25957Y352010D01*
X-23160Y349213D01*
X-19871Y347015D01*
X-16217Y345502D01*
X-12338Y344730D01*
X-11630D01*
Y363540D01*
D02*
G37*
G36*
X-920280D02*
X-939090D01*
Y344730D01*
X-938382D01*
X-934503Y345502D01*
X-930849Y347015D01*
X-927560Y349213D01*
X-924763Y352010D01*
X-922565Y355299D01*
X-921052Y358953D01*
X-920280Y362832D01*
Y363540D01*
D02*
G37*
G36*
X-941630D02*
X-960440D01*
Y362832D01*
X-959668Y358953D01*
X-958155Y355299D01*
X-955957Y352010D01*
X-953160Y349213D01*
X-949871Y347015D01*
X-946217Y345502D01*
X-942338Y344730D01*
X-941630D01*
Y363540D01*
D02*
G37*
G36*
X-389780Y358140D02*
X-417940D01*
Y357556D01*
X-416980Y353975D01*
X-415127Y350765D01*
X-412505Y348143D01*
X-411123Y347345D01*
Y346075D01*
X-412505Y345277D01*
X-415127Y342655D01*
X-416980Y339445D01*
X-417940Y335864D01*
Y335280D01*
X-403860D01*
X-389780D01*
Y335864D01*
X-390740Y339445D01*
X-392593Y342655D01*
X-395215Y345277D01*
X-396597Y346075D01*
Y347345D01*
X-395215Y348143D01*
X-392593Y350765D01*
X-390740Y353975D01*
X-389780Y357556D01*
Y358140D01*
D02*
G37*
G36*
X-580208Y345042D02*
X-583112D01*
X-585918Y344290D01*
X-588434Y342838D01*
X-590488Y340784D01*
X-591940Y338268D01*
X-592692Y335462D01*
Y332558D01*
X-591940Y329752D01*
X-590488Y327236D01*
X-588434Y325182D01*
X-585918Y323730D01*
X-583112Y322978D01*
X-580208D01*
X-577402Y323730D01*
X-574886Y325182D01*
X-572832Y327236D01*
X-571380Y329752D01*
X-570628Y332558D01*
Y335462D01*
X-571380Y338268D01*
X-572832Y340784D01*
X-574886Y342838D01*
X-577402Y344290D01*
X-580208Y345042D01*
D02*
G37*
G36*
X-127000Y316673D02*
Y309080D01*
X-119407D01*
X-119986Y311241D01*
X-121156Y313269D01*
X-122811Y314924D01*
X-124839Y316094D01*
X-127000Y316673D01*
D02*
G37*
G36*
X-129540D02*
X-131701Y316094D01*
X-133729Y314924D01*
X-135384Y313269D01*
X-136554Y311241D01*
X-137133Y309080D01*
X-129540D01*
Y316673D01*
D02*
G37*
G36*
X-957380Y312439D02*
Y306160D01*
X-951102D01*
X-951549Y307831D01*
X-952552Y309569D01*
X-953971Y310987D01*
X-955709Y311991D01*
X-957380Y312439D01*
D02*
G37*
G36*
X-959920D02*
X-961591Y311991D01*
X-963329Y310987D01*
X-964747Y309569D01*
X-965751Y307831D01*
X-966199Y306160D01*
X-959920D01*
Y312439D01*
D02*
G37*
G36*
X11430Y312348D02*
Y306070D01*
X17708D01*
X17261Y307741D01*
X16257Y309479D01*
X14839Y310898D01*
X13101Y311901D01*
X11430Y312348D01*
D02*
G37*
G36*
X8890D02*
X7219Y311901D01*
X5481Y310898D01*
X4062Y309479D01*
X3059Y307741D01*
X2612Y306070D01*
X8890D01*
Y312348D01*
D02*
G37*
G36*
X-20320D02*
Y306070D01*
X-14042D01*
X-14489Y307741D01*
X-15493Y309479D01*
X-16911Y310898D01*
X-18649Y311901D01*
X-20320Y312348D01*
D02*
G37*
G36*
X-22860D02*
X-24531Y311901D01*
X-26269Y310898D01*
X-27687Y309479D01*
X-28691Y307741D01*
X-29139Y306070D01*
X-22860D01*
Y312348D01*
D02*
G37*
G36*
X-158858Y313652D02*
X-161182D01*
X-163329Y312763D01*
X-164973Y311119D01*
X-165862Y308972D01*
Y306648D01*
X-164973Y304501D01*
X-163329Y302857D01*
X-161182Y301968D01*
X-158858D01*
X-156711Y302857D01*
X-155067Y304501D01*
X-154178Y306648D01*
Y308972D01*
X-155067Y311119D01*
X-156711Y312763D01*
X-158858Y313652D01*
D02*
G37*
G36*
X-119407Y306540D02*
X-127000D01*
Y298947D01*
X-124839Y299526D01*
X-122811Y300696D01*
X-121156Y302351D01*
X-119986Y304379D01*
X-119407Y306540D01*
D02*
G37*
G36*
X-129540D02*
X-137133D01*
X-136554Y304379D01*
X-135384Y302351D01*
X-133729Y300696D01*
X-131701Y299526D01*
X-129540Y298947D01*
Y306540D01*
D02*
G37*
G36*
X-751460Y314460D02*
X-763270D01*
Y297650D01*
X-751460D01*
Y314460D01*
D02*
G37*
G36*
X-765810D02*
X-777620D01*
Y297650D01*
X-765810D01*
Y314460D01*
D02*
G37*
G36*
X-886460D02*
X-898270D01*
Y297650D01*
X-886460D01*
Y314460D01*
D02*
G37*
G36*
X-900810D02*
X-912620D01*
Y297650D01*
X-900810D01*
Y314460D01*
D02*
G37*
G36*
X-389780Y332740D02*
X-403860D01*
X-417940D01*
Y332156D01*
X-416980Y328575D01*
X-415127Y325365D01*
X-412505Y322743D01*
X-409295Y320890D01*
X-407429Y320390D01*
Y319075D01*
X-408118Y318890D01*
X-410634Y317438D01*
X-412688Y315384D01*
X-414140Y312868D01*
X-414892Y310062D01*
Y307158D01*
X-414140Y304352D01*
X-412688Y301836D01*
X-410634Y299782D01*
X-408118Y298330D01*
X-405312Y297578D01*
X-402408D01*
X-399602Y298330D01*
X-397086Y299782D01*
X-395032Y301836D01*
X-393580Y304352D01*
X-392828Y307158D01*
Y310062D01*
X-393580Y312868D01*
X-395032Y315384D01*
X-397086Y317438D01*
X-399602Y318890D01*
X-400291Y319075D01*
Y320390D01*
X-398425Y320890D01*
X-395215Y322743D01*
X-392593Y325365D01*
X-390740Y328575D01*
X-389780Y332156D01*
Y332740D01*
D02*
G37*
G36*
X-580208Y319642D02*
X-583112D01*
X-585918Y318890D01*
X-588434Y317438D01*
X-590488Y315384D01*
X-591940Y312868D01*
X-592692Y310062D01*
Y307158D01*
X-591940Y304352D01*
X-590488Y301836D01*
X-588434Y299782D01*
X-585918Y298330D01*
X-583112Y297578D01*
X-580208D01*
X-577402Y298330D01*
X-574886Y299782D01*
X-572832Y301836D01*
X-571380Y304352D01*
X-570628Y307158D01*
Y310062D01*
X-571380Y312868D01*
X-572832Y315384D01*
X-574886Y317438D01*
X-577402Y318890D01*
X-580208Y319642D01*
D02*
G37*
G36*
X-951102Y303620D02*
X-957380D01*
Y297341D01*
X-955709Y297789D01*
X-953971Y298792D01*
X-952552Y300211D01*
X-951549Y301949D01*
X-951102Y303620D01*
D02*
G37*
G36*
X-959920D02*
X-966199D01*
X-965751Y301949D01*
X-964747Y300211D01*
X-963329Y298792D01*
X-961591Y297789D01*
X-959920Y297341D01*
Y303620D01*
D02*
G37*
G36*
X17708Y303530D02*
X11430D01*
Y297251D01*
X13101Y297699D01*
X14839Y298703D01*
X16257Y300121D01*
X17261Y301859D01*
X17708Y303530D01*
D02*
G37*
G36*
X8890D02*
X2612D01*
X3059Y301859D01*
X4062Y300121D01*
X5481Y298703D01*
X7219Y297699D01*
X8890Y297251D01*
Y303530D01*
D02*
G37*
G36*
X-14042D02*
X-20320D01*
Y297251D01*
X-18649Y297699D01*
X-16911Y298703D01*
X-15493Y300121D01*
X-14489Y301859D01*
X-14042Y303530D01*
D02*
G37*
G36*
X-22860D02*
X-29139D01*
X-28691Y301859D01*
X-27687Y300121D01*
X-26269Y298703D01*
X-24531Y297699D01*
X-22860Y297251D01*
Y303530D01*
D02*
G37*
G36*
X-129540Y296353D02*
X-131701Y295774D01*
X-133729Y294604D01*
X-135384Y292949D01*
X-136484Y291043D01*
X-137160Y290940D01*
X-137836Y291043D01*
X-138936Y292949D01*
X-140591Y294604D01*
X-142619Y295774D01*
X-144780Y296353D01*
Y287490D01*
Y278627D01*
X-142619Y279206D01*
X-140591Y280376D01*
X-138936Y282031D01*
X-137836Y283937D01*
X-137160Y284040D01*
X-136484Y283937D01*
X-135384Y282031D01*
X-133729Y280376D01*
X-131701Y279206D01*
X-129540Y278627D01*
Y287490D01*
Y296353D01*
D02*
G37*
G36*
X-260350D02*
X-262511Y295774D01*
X-264539Y294604D01*
X-266194Y292949D01*
X-267294Y291043D01*
X-267970Y290940D01*
X-268646Y291043D01*
X-269746Y292949D01*
X-271401Y294604D01*
X-273429Y295774D01*
X-275590Y296353D01*
Y287490D01*
Y278627D01*
X-273429Y279206D01*
X-271401Y280376D01*
X-269746Y282031D01*
X-268646Y283937D01*
X-267970Y284040D01*
X-267294Y283937D01*
X-266194Y282031D01*
X-264539Y280376D01*
X-262511Y279206D01*
X-260350Y278627D01*
Y287490D01*
Y296353D01*
D02*
G37*
G36*
X-107950D02*
Y288760D01*
X-100357D01*
X-100936Y290921D01*
X-102106Y292949D01*
X-103761Y294604D01*
X-105789Y295774D01*
X-107950Y296353D01*
D02*
G37*
G36*
X-110490D02*
X-112651Y295774D01*
X-114679Y294604D01*
X-116334Y292949D01*
X-117504Y290921D01*
X-118083Y288760D01*
X-110490D01*
Y296353D01*
D02*
G37*
G36*
X-127000D02*
Y288760D01*
X-119407D01*
X-119986Y290921D01*
X-121156Y292949D01*
X-122811Y294604D01*
X-124839Y295774D01*
X-127000Y296353D01*
D02*
G37*
G36*
X-147320D02*
X-149481Y295774D01*
X-151509Y294604D01*
X-153164Y292949D01*
X-154334Y290921D01*
X-154913Y288760D01*
X-147320D01*
Y296353D01*
D02*
G37*
G36*
X-238760D02*
Y288760D01*
X-231167D01*
X-231746Y290921D01*
X-232916Y292949D01*
X-234571Y294604D01*
X-236599Y295774D01*
X-238760Y296353D01*
D02*
G37*
G36*
X-241300D02*
X-243461Y295774D01*
X-245489Y294604D01*
X-247144Y292949D01*
X-248314Y290921D01*
X-248893Y288760D01*
X-241300D01*
Y296353D01*
D02*
G37*
G36*
X-257810D02*
Y288760D01*
X-250217D01*
X-250796Y290921D01*
X-251966Y292949D01*
X-253621Y294604D01*
X-255649Y295774D01*
X-257810Y296353D01*
D02*
G37*
G36*
X-278130D02*
X-280291Y295774D01*
X-282319Y294604D01*
X-283974Y292949D01*
X-285144Y290921D01*
X-285723Y288760D01*
X-278130D01*
Y296353D01*
D02*
G37*
G36*
X-653140Y307231D02*
X-698140D01*
X-699908Y306879D01*
X-701407Y305877D01*
X-702409Y304378D01*
X-702761Y302610D01*
Y287610D01*
X-702409Y285842D01*
X-701407Y284343D01*
X-699908Y283341D01*
X-698140Y282989D01*
X-653140D01*
X-651372Y283341D01*
X-649873Y284343D01*
X-648871Y285842D01*
X-648519Y287610D01*
Y302610D01*
X-648871Y304378D01*
X-649873Y305877D01*
X-651372Y306879D01*
X-653140Y307231D01*
D02*
G37*
G36*
X-294748Y293332D02*
X-297072D01*
X-299219Y292443D01*
X-300863Y290799D01*
X-301752Y288652D01*
Y286328D01*
X-300863Y284181D01*
X-299219Y282537D01*
X-297072Y281648D01*
X-294748D01*
X-292601Y282537D01*
X-290957Y284181D01*
X-290068Y286328D01*
Y288652D01*
X-290957Y290799D01*
X-292601Y292443D01*
X-294748Y293332D01*
D02*
G37*
G36*
X-313798D02*
X-316122D01*
X-318269Y292443D01*
X-319913Y290799D01*
X-320802Y288652D01*
Y286328D01*
X-319913Y284181D01*
X-318269Y282537D01*
X-316122Y281648D01*
X-313798D01*
X-311651Y282537D01*
X-310007Y284181D01*
X-309118Y286328D01*
Y288652D01*
X-310007Y290799D01*
X-311651Y292443D01*
X-313798Y293332D01*
D02*
G37*
G36*
X-100357Y286220D02*
X-107950D01*
Y278627D01*
X-105789Y279206D01*
X-103761Y280376D01*
X-102106Y282031D01*
X-100936Y284059D01*
X-100357Y286220D01*
D02*
G37*
G36*
X-110490D02*
X-118083D01*
X-117504Y284059D01*
X-116334Y282031D01*
X-114679Y280376D01*
X-112651Y279206D01*
X-110490Y278627D01*
Y286220D01*
D02*
G37*
G36*
X-119407D02*
X-127000D01*
Y278627D01*
X-124839Y279206D01*
X-122811Y280376D01*
X-121156Y282031D01*
X-119986Y284059D01*
X-119407Y286220D01*
D02*
G37*
G36*
X-147320D02*
X-154913D01*
X-154334Y284059D01*
X-153164Y282031D01*
X-151509Y280376D01*
X-149481Y279206D01*
X-147320Y278627D01*
Y286220D01*
D02*
G37*
G36*
X-231167D02*
X-238760D01*
Y278627D01*
X-236599Y279206D01*
X-234571Y280376D01*
X-232916Y282031D01*
X-231746Y284059D01*
X-231167Y286220D01*
D02*
G37*
G36*
X-241300D02*
X-248893D01*
X-248314Y284059D01*
X-247144Y282031D01*
X-245489Y280376D01*
X-243461Y279206D01*
X-241300Y278627D01*
Y286220D01*
D02*
G37*
G36*
X-250217D02*
X-257810D01*
Y278627D01*
X-255649Y279206D01*
X-253621Y280376D01*
X-251966Y282031D01*
X-250796Y284059D01*
X-250217Y286220D01*
D02*
G37*
G36*
X-278130D02*
X-285723D01*
X-285144Y284059D01*
X-283974Y282031D01*
X-282319Y280376D01*
X-280291Y279206D01*
X-278130Y278627D01*
Y286220D01*
D02*
G37*
G36*
X-751460Y295110D02*
X-763270D01*
Y278300D01*
X-751460D01*
Y295110D01*
D02*
G37*
G36*
X-765810D02*
X-777620D01*
Y278300D01*
X-765810D01*
Y295110D01*
D02*
G37*
G36*
X-886460D02*
X-898270D01*
Y278300D01*
X-886460D01*
Y295110D01*
D02*
G37*
G36*
X-900810D02*
X-912620D01*
Y278300D01*
X-900810D01*
Y295110D01*
D02*
G37*
G36*
X-402408Y294242D02*
X-405312D01*
X-408118Y293490D01*
X-410634Y292038D01*
X-412688Y289984D01*
X-414140Y287468D01*
X-414892Y284662D01*
Y281758D01*
X-414140Y278952D01*
X-412688Y276436D01*
X-410634Y274382D01*
X-408118Y272930D01*
X-405312Y272178D01*
X-402408D01*
X-399602Y272930D01*
X-397086Y274382D01*
X-395032Y276436D01*
X-393580Y278952D01*
X-392828Y281758D01*
Y284662D01*
X-393580Y287468D01*
X-395032Y289984D01*
X-397086Y292038D01*
X-399602Y293490D01*
X-402408Y294242D01*
D02*
G37*
G36*
X-580208D02*
X-583112D01*
X-585918Y293490D01*
X-588434Y292038D01*
X-590488Y289984D01*
X-591940Y287468D01*
X-592692Y284662D01*
Y281758D01*
X-591940Y278952D01*
X-590488Y276436D01*
X-588434Y274382D01*
X-585918Y272930D01*
X-583112Y272178D01*
X-580208D01*
X-577402Y272930D01*
X-574886Y274382D01*
X-572832Y276436D01*
X-571380Y278952D01*
X-570628Y281758D01*
Y284662D01*
X-571380Y287468D01*
X-572832Y289984D01*
X-574886Y292038D01*
X-577402Y293490D01*
X-580208Y294242D01*
D02*
G37*
G36*
X-957380Y274338D02*
Y268060D01*
X-951102D01*
X-951549Y269731D01*
X-952552Y271469D01*
X-953971Y272887D01*
X-955709Y273891D01*
X-957380Y274338D01*
D02*
G37*
G36*
X-959920D02*
X-961591Y273891D01*
X-963329Y272887D01*
X-964747Y271469D01*
X-965751Y269731D01*
X-966199Y268060D01*
X-959920D01*
Y274338D01*
D02*
G37*
G36*
X11430Y274249D02*
Y267970D01*
X17708D01*
X17261Y269641D01*
X16257Y271379D01*
X14839Y272798D01*
X13101Y273801D01*
X11430Y274249D01*
D02*
G37*
G36*
X8890D02*
X7219Y273801D01*
X5481Y272798D01*
X4062Y271379D01*
X3059Y269641D01*
X2612Y267970D01*
X8890D01*
Y274249D01*
D02*
G37*
G36*
X-20320D02*
Y267970D01*
X-14042D01*
X-14489Y269641D01*
X-15493Y271379D01*
X-16911Y272798D01*
X-18649Y273801D01*
X-20320Y274249D01*
D02*
G37*
G36*
X-22860D02*
X-24531Y273801D01*
X-26269Y272798D01*
X-27687Y271379D01*
X-28691Y269641D01*
X-29139Y267970D01*
X-22860D01*
Y274249D01*
D02*
G37*
G36*
X-951102Y265520D02*
X-957380D01*
Y259242D01*
X-955709Y259689D01*
X-953971Y260693D01*
X-952552Y262111D01*
X-951549Y263849D01*
X-951102Y265520D01*
D02*
G37*
G36*
X-959920D02*
X-966199D01*
X-965751Y263849D01*
X-964747Y262111D01*
X-963329Y260693D01*
X-961591Y259689D01*
X-959920Y259242D01*
Y265520D01*
D02*
G37*
G36*
X17708Y265430D02*
X11430D01*
Y259151D01*
X13101Y259599D01*
X14839Y260602D01*
X16257Y262021D01*
X17261Y263759D01*
X17708Y265430D01*
D02*
G37*
G36*
X8890D02*
X2612D01*
X3059Y263759D01*
X4062Y262021D01*
X5481Y260602D01*
X7219Y259599D01*
X8890Y259151D01*
Y265430D01*
D02*
G37*
G36*
X-14042D02*
X-20320D01*
Y259151D01*
X-18649Y259599D01*
X-16911Y260602D01*
X-15493Y262021D01*
X-14489Y263759D01*
X-14042Y265430D01*
D02*
G37*
G36*
X-22860D02*
X-29139D01*
X-28691Y263759D01*
X-27687Y262021D01*
X-26269Y260602D01*
X-24531Y259599D01*
X-22860Y259151D01*
Y265430D01*
D02*
G37*
G36*
X-451017Y264122D02*
X-453223D01*
X-455355Y263551D01*
X-457267Y262447D01*
X-458827Y260887D01*
X-459931Y258975D01*
X-460502Y256843D01*
Y254636D01*
X-459931Y252505D01*
X-458827Y250593D01*
X-457267Y249033D01*
X-455355Y247929D01*
X-453223Y247358D01*
X-451017D01*
X-448885Y247929D01*
X-446973Y249033D01*
X-445413Y250593D01*
X-444309Y252505D01*
X-443738Y254636D01*
Y256843D01*
X-444309Y258975D01*
X-445413Y260887D01*
X-446973Y262447D01*
X-448885Y263551D01*
X-451017Y264122D01*
D02*
G37*
G36*
X-402408Y268842D02*
X-405312D01*
X-408118Y268090D01*
X-410634Y266638D01*
X-412688Y264584D01*
X-414140Y262068D01*
X-414892Y259262D01*
Y256358D01*
X-414140Y253552D01*
X-412688Y251036D01*
X-410634Y248982D01*
X-408118Y247530D01*
X-405312Y246778D01*
X-402408D01*
X-399602Y247530D01*
X-397086Y248982D01*
X-395032Y251036D01*
X-393580Y253552D01*
X-392828Y256358D01*
Y259262D01*
X-393580Y262068D01*
X-395032Y264584D01*
X-397086Y266638D01*
X-399602Y268090D01*
X-402408Y268842D01*
D02*
G37*
G36*
X-580208D02*
X-583112D01*
X-585918Y268090D01*
X-588434Y266638D01*
X-590488Y264584D01*
X-591940Y262068D01*
X-592692Y259262D01*
Y256358D01*
X-591940Y253552D01*
X-590488Y251036D01*
X-588434Y248982D01*
X-585918Y247530D01*
X-583112Y246778D01*
X-580208D01*
X-577402Y247530D01*
X-574886Y248982D01*
X-572832Y251036D01*
X-571380Y253552D01*
X-570628Y256358D01*
Y259262D01*
X-571380Y262068D01*
X-572832Y264584D01*
X-574886Y266638D01*
X-577402Y268090D01*
X-580208Y268842D01*
D02*
G37*
G36*
X-301502Y257496D02*
X-303826D01*
X-305974Y256607D01*
X-307617Y254964D01*
X-308506Y252817D01*
Y250492D01*
X-307617Y248345D01*
X-305974Y246702D01*
X-303826Y245812D01*
X-301502D01*
X-299355Y246702D01*
X-297712Y248345D01*
X-296822Y250492D01*
Y252817D01*
X-297712Y254964D01*
X-299355Y256607D01*
X-301502Y257496D01*
D02*
G37*
G36*
X-253077Y256980D02*
X-255401D01*
X-257548Y256090D01*
X-259191Y254447D01*
X-260081Y252300D01*
Y249976D01*
X-259191Y247829D01*
X-257548Y246185D01*
X-255401Y245296D01*
X-253077D01*
X-250930Y246185D01*
X-249286Y247829D01*
X-248397Y249976D01*
Y252300D01*
X-249286Y254447D01*
X-250930Y256090D01*
X-253077Y256980D01*
D02*
G37*
G36*
X-205848Y250152D02*
X-208172D01*
X-210319Y249263D01*
X-211963Y247619D01*
X-212852Y245472D01*
Y243148D01*
X-211963Y241001D01*
X-210319Y239357D01*
X-208172Y238468D01*
X-205848D01*
X-203701Y239357D01*
X-202057Y241001D01*
X-201168Y243148D01*
Y245472D01*
X-202057Y247619D01*
X-203701Y249263D01*
X-205848Y250152D01*
D02*
G37*
G36*
X-865668Y260460D02*
X-866770D01*
Y237650D01*
X-843960D01*
Y238752D01*
X-844885Y243404D01*
X-846701Y247786D01*
X-849336Y251730D01*
X-852690Y255084D01*
X-856634Y257719D01*
X-861016Y259535D01*
X-865668Y260460D01*
D02*
G37*
G36*
X-869310D02*
X-870412D01*
X-875064Y259535D01*
X-879446Y257719D01*
X-883390Y255084D01*
X-886744Y251730D01*
X-889379Y247786D01*
X-891195Y243404D01*
X-892120Y238752D01*
Y237650D01*
X-869310D01*
Y260460D01*
D02*
G37*
G36*
X-238868Y248882D02*
X-241192D01*
X-243339Y247993D01*
X-244983Y246349D01*
X-245872Y244202D01*
Y241878D01*
X-244983Y239731D01*
X-243339Y238087D01*
X-241192Y237198D01*
X-238868D01*
X-236721Y238087D01*
X-235077Y239731D01*
X-234188Y241878D01*
Y244202D01*
X-235077Y246349D01*
X-236721Y247993D01*
X-238868Y248882D01*
D02*
G37*
G36*
X-279508Y257257D02*
X-281832D01*
X-283979Y256367D01*
X-285623Y254724D01*
X-286512Y252577D01*
Y250252D01*
X-285623Y248105D01*
X-283979Y246462D01*
X-281832Y245572D01*
X-279508D01*
X-277361Y246462D01*
X-276542Y245531D01*
X-276733Y245340D01*
X-277622Y243193D01*
Y240869D01*
X-276733Y238722D01*
X-275089Y237079D01*
X-272942Y236189D01*
X-270618D01*
X-268471Y237079D01*
X-266827Y238722D01*
X-265938Y240869D01*
Y243193D01*
X-266827Y245340D01*
X-268471Y246984D01*
X-270618Y247873D01*
X-272942D01*
X-275089Y246984D01*
X-275908Y247915D01*
X-275717Y248105D01*
X-274828Y250252D01*
Y252577D01*
X-275717Y254724D01*
X-277361Y256367D01*
X-279508Y257257D01*
D02*
G37*
G36*
X-653140Y258231D02*
X-698140D01*
X-699908Y257879D01*
X-701407Y256877D01*
X-702409Y255378D01*
X-702761Y253610D01*
Y238610D01*
X-702409Y236842D01*
X-701407Y235343D01*
X-699908Y234341D01*
X-698140Y233989D01*
X-653140D01*
X-651372Y234341D01*
X-649873Y235343D01*
X-648871Y236842D01*
X-648519Y238610D01*
Y253610D01*
X-648871Y255378D01*
X-649873Y256877D01*
X-651372Y257879D01*
X-653140Y258231D01*
D02*
G37*
G36*
X-957380Y236238D02*
Y229960D01*
X-951102D01*
X-951549Y231631D01*
X-952552Y233369D01*
X-953971Y234788D01*
X-955709Y235791D01*
X-957380Y236238D01*
D02*
G37*
G36*
X-959920D02*
X-961591Y235791D01*
X-963329Y234788D01*
X-964747Y233369D01*
X-965751Y231631D01*
X-966199Y229960D01*
X-959920D01*
Y236238D01*
D02*
G37*
G36*
X11430Y236148D02*
Y229870D01*
X17708D01*
X17261Y231541D01*
X16257Y233279D01*
X14839Y234697D01*
X13101Y235701D01*
X11430Y236148D01*
D02*
G37*
G36*
X8890D02*
X7219Y235701D01*
X5481Y234697D01*
X4062Y233279D01*
X3059Y231541D01*
X2612Y229870D01*
X8890D01*
Y236148D01*
D02*
G37*
G36*
X-20320D02*
Y229870D01*
X-14042D01*
X-14489Y231541D01*
X-15493Y233279D01*
X-16911Y234697D01*
X-18649Y235701D01*
X-20320Y236148D01*
D02*
G37*
G36*
X-22860D02*
X-24531Y235701D01*
X-26269Y234697D01*
X-27687Y233279D01*
X-28691Y231541D01*
X-29139Y229870D01*
X-22860D01*
Y236148D01*
D02*
G37*
G36*
X-460775Y237960D02*
X-461010D01*
Y227800D01*
X-450850D01*
Y228035D01*
X-451629Y230942D01*
X-453134Y233548D01*
X-455262Y235676D01*
X-457868Y237181D01*
X-460775Y237960D01*
D02*
G37*
G36*
X-463550D02*
X-463785D01*
X-466692Y237181D01*
X-469298Y235676D01*
X-471426Y233548D01*
X-472931Y230942D01*
X-473710Y228035D01*
Y227800D01*
X-463550D01*
Y237960D01*
D02*
G37*
G36*
X-402408Y243442D02*
X-405312D01*
X-408118Y242690D01*
X-410634Y241238D01*
X-412688Y239184D01*
X-414140Y236668D01*
X-414892Y233862D01*
Y230958D01*
X-414140Y228152D01*
X-412688Y225636D01*
X-410634Y223582D01*
X-408118Y222130D01*
X-405312Y221378D01*
X-402408D01*
X-399602Y222130D01*
X-397086Y223582D01*
X-395032Y225636D01*
X-393580Y228152D01*
X-392828Y230958D01*
Y233862D01*
X-393580Y236668D01*
X-395032Y239184D01*
X-397086Y241238D01*
X-399602Y242690D01*
X-402408Y243442D01*
D02*
G37*
G36*
X-580208D02*
X-583112D01*
X-585918Y242690D01*
X-588434Y241238D01*
X-590488Y239184D01*
X-591940Y236668D01*
X-592692Y233862D01*
Y230958D01*
X-591940Y228152D01*
X-590488Y225636D01*
X-588434Y223582D01*
X-585918Y222130D01*
X-583112Y221378D01*
X-580208D01*
X-577402Y222130D01*
X-574886Y223582D01*
X-572832Y225636D01*
X-571380Y228152D01*
X-570628Y230958D01*
Y233862D01*
X-571380Y236668D01*
X-572832Y239184D01*
X-574886Y241238D01*
X-577402Y242690D01*
X-580208Y243442D01*
D02*
G37*
G36*
X-951102Y227420D02*
X-957380D01*
Y221141D01*
X-955709Y221589D01*
X-953971Y222593D01*
X-952552Y224011D01*
X-951549Y225749D01*
X-951102Y227420D01*
D02*
G37*
G36*
X-959920D02*
X-966199D01*
X-965751Y225749D01*
X-964747Y224011D01*
X-963329Y222593D01*
X-961591Y221589D01*
X-959920Y221141D01*
Y227420D01*
D02*
G37*
G36*
X17708Y227330D02*
X11430D01*
Y221052D01*
X13101Y221499D01*
X14839Y222502D01*
X16257Y223921D01*
X17261Y225659D01*
X17708Y227330D01*
D02*
G37*
G36*
X8890D02*
X2612D01*
X3059Y225659D01*
X4062Y223921D01*
X5481Y222502D01*
X7219Y221499D01*
X8890Y221052D01*
Y227330D01*
D02*
G37*
G36*
X-14042D02*
X-20320D01*
Y221052D01*
X-18649Y221499D01*
X-16911Y222502D01*
X-15493Y223921D01*
X-14489Y225659D01*
X-14042Y227330D01*
D02*
G37*
G36*
X-22860D02*
X-29139D01*
X-28691Y225659D01*
X-27687Y223921D01*
X-26269Y222502D01*
X-24531Y221499D01*
X-22860Y221052D01*
Y227330D01*
D02*
G37*
G36*
X-793969Y257412D02*
X-798111D01*
X-802175Y256604D01*
X-806002Y255018D01*
X-809447Y252717D01*
X-812377Y249787D01*
X-814678Y246342D01*
X-816264Y242515D01*
X-817072Y238451D01*
Y234308D01*
X-816264Y230245D01*
X-814678Y226418D01*
X-812377Y222973D01*
X-809447Y220043D01*
X-806002Y217742D01*
X-802175Y216156D01*
X-798111Y215348D01*
X-793969D01*
X-789905Y216156D01*
X-786078Y217742D01*
X-782633Y220043D01*
X-779703Y222973D01*
X-777402Y226418D01*
X-775816Y230245D01*
X-775008Y234308D01*
Y238451D01*
X-775816Y242515D01*
X-777402Y246342D01*
X-779703Y249787D01*
X-782633Y252717D01*
X-786078Y255018D01*
X-789905Y256604D01*
X-793969Y257412D01*
D02*
G37*
G36*
X-843960Y235110D02*
X-866770D01*
Y212300D01*
X-865668D01*
X-861016Y213225D01*
X-856634Y215041D01*
X-852690Y217676D01*
X-849336Y221030D01*
X-846701Y224974D01*
X-844885Y229356D01*
X-843960Y234008D01*
Y235110D01*
D02*
G37*
G36*
X-869310D02*
X-892120D01*
Y234008D01*
X-891195Y229356D01*
X-889379Y224974D01*
X-886744Y221030D01*
X-883390Y217676D01*
X-879446Y215041D01*
X-875064Y213225D01*
X-870412Y212300D01*
X-869310D01*
Y235110D01*
D02*
G37*
G36*
X-450850Y225260D02*
X-473710D01*
Y225025D01*
X-472931Y222118D01*
X-471426Y219512D01*
X-469748Y217833D01*
X-469439Y217005D01*
X-469748Y216177D01*
X-471426Y214498D01*
X-472931Y211892D01*
X-473710Y208985D01*
Y208750D01*
X-450850D01*
Y208985D01*
X-451629Y211892D01*
X-453134Y214498D01*
X-454812Y216177D01*
X-455121Y217005D01*
X-454812Y217833D01*
X-453134Y219512D01*
X-451629Y222118D01*
X-450850Y225025D01*
Y225260D01*
D02*
G37*
G36*
Y206210D02*
X-461010D01*
Y196050D01*
X-460775D01*
X-457868Y196829D01*
X-455262Y198334D01*
X-453134Y200462D01*
X-451629Y203068D01*
X-450850Y205975D01*
Y206210D01*
D02*
G37*
G36*
X-463550D02*
X-473710D01*
Y205975D01*
X-472931Y203068D01*
X-471426Y200462D01*
X-469298Y198334D01*
X-466692Y196829D01*
X-463785Y196050D01*
X-463550D01*
Y206210D01*
D02*
G37*
G36*
X-402408Y218042D02*
X-405312D01*
X-408118Y217290D01*
X-410634Y215838D01*
X-412688Y213784D01*
X-414140Y211268D01*
X-414892Y208462D01*
Y205558D01*
X-414140Y202752D01*
X-412688Y200236D01*
X-410634Y198182D01*
X-408118Y196730D01*
X-405312Y195978D01*
X-402408D01*
X-399602Y196730D01*
X-397086Y198182D01*
X-395032Y200236D01*
X-393580Y202752D01*
X-392828Y205558D01*
Y208462D01*
X-393580Y211268D01*
X-395032Y213784D01*
X-397086Y215838D01*
X-399602Y217290D01*
X-402408Y218042D01*
D02*
G37*
G36*
X-580208D02*
X-583112D01*
X-585918Y217290D01*
X-588434Y215838D01*
X-590488Y213784D01*
X-591940Y211268D01*
X-592692Y208462D01*
Y205558D01*
X-591940Y202752D01*
X-590488Y200236D01*
X-588434Y198182D01*
X-585918Y196730D01*
X-583112Y195978D01*
X-580208D01*
X-577402Y196730D01*
X-574886Y198182D01*
X-572832Y200236D01*
X-571380Y202752D01*
X-570628Y205558D01*
Y208462D01*
X-571380Y211268D01*
X-572832Y213784D01*
X-574886Y215838D01*
X-577402Y217290D01*
X-580208Y218042D01*
D02*
G37*
G36*
X-179178Y204432D02*
X-181502D01*
X-183649Y203543D01*
X-185293Y201899D01*
X-186182Y199752D01*
Y197428D01*
X-185293Y195281D01*
X-183649Y193637D01*
X-181502Y192748D01*
X-179178D01*
X-177031Y193637D01*
X-175387Y195281D01*
X-174498Y197428D01*
Y199752D01*
X-175387Y201899D01*
X-177031Y203543D01*
X-179178Y204432D01*
D02*
G37*
G36*
X-957380Y198139D02*
Y191860D01*
X-951102D01*
X-951549Y193531D01*
X-952552Y195269D01*
X-953971Y196688D01*
X-955709Y197691D01*
X-957380Y198139D01*
D02*
G37*
G36*
X-959920D02*
X-961591Y197691D01*
X-963329Y196688D01*
X-964747Y195269D01*
X-965751Y193531D01*
X-966199Y191860D01*
X-959920D01*
Y198139D01*
D02*
G37*
G36*
X11430Y198048D02*
Y191770D01*
X17708D01*
X17261Y193441D01*
X16257Y195179D01*
X14839Y196597D01*
X13101Y197601D01*
X11430Y198048D01*
D02*
G37*
G36*
X8890D02*
X7219Y197601D01*
X5481Y196597D01*
X4062Y195179D01*
X3059Y193441D01*
X2612Y191770D01*
X8890D01*
Y198048D01*
D02*
G37*
G36*
X-20320D02*
Y191770D01*
X-14042D01*
X-14489Y193441D01*
X-15493Y195179D01*
X-16911Y196597D01*
X-18649Y197601D01*
X-20320Y198048D01*
D02*
G37*
G36*
X-22860D02*
X-24531Y197601D01*
X-26269Y196597D01*
X-27687Y195179D01*
X-28691Y193441D01*
X-29139Y191770D01*
X-22860D01*
Y198048D01*
D02*
G37*
G36*
X-743117Y207772D02*
X-745323D01*
X-747455Y207201D01*
X-749367Y206097D01*
X-750927Y204537D01*
X-752031Y202625D01*
X-752602Y200494D01*
Y198286D01*
X-752031Y196155D01*
X-750927Y194243D01*
X-749367Y192683D01*
X-747455Y191579D01*
X-745323Y191008D01*
X-743117D01*
X-740985Y191579D01*
X-739073Y192683D01*
X-737513Y194243D01*
X-736409Y196155D01*
X-735838Y198286D01*
Y200494D01*
X-736409Y202625D01*
X-737513Y204537D01*
X-739073Y206097D01*
X-740985Y207201D01*
X-743117Y207772D01*
D02*
G37*
G36*
X-190080Y195097D02*
X-192404D01*
X-194552Y194208D01*
X-196195Y192564D01*
X-197084Y190417D01*
Y188093D01*
X-196195Y185946D01*
X-194552Y184302D01*
X-192404Y183413D01*
X-190080D01*
X-187933Y184302D01*
X-186290Y185946D01*
X-185400Y188093D01*
Y190417D01*
X-186290Y192564D01*
X-187933Y194208D01*
X-190080Y195097D01*
D02*
G37*
G36*
X-460775Y193510D02*
X-461010D01*
Y183350D01*
X-450850D01*
Y183585D01*
X-451629Y186492D01*
X-453134Y189098D01*
X-455262Y191226D01*
X-457868Y192731D01*
X-460775Y193510D01*
D02*
G37*
G36*
X-463550D02*
X-463785D01*
X-466692Y192731D01*
X-469298Y191226D01*
X-471426Y189098D01*
X-472931Y186492D01*
X-473710Y183585D01*
Y183350D01*
X-463550D01*
Y193510D01*
D02*
G37*
G36*
X-951102Y189320D02*
X-957380D01*
Y183041D01*
X-955709Y183489D01*
X-953971Y184492D01*
X-952552Y185911D01*
X-951549Y187649D01*
X-951102Y189320D01*
D02*
G37*
G36*
X-959920D02*
X-966199D01*
X-965751Y187649D01*
X-964747Y185911D01*
X-963329Y184492D01*
X-961591Y183489D01*
X-959920Y183041D01*
Y189320D01*
D02*
G37*
G36*
X17708Y189230D02*
X11430D01*
Y182952D01*
X13101Y183399D01*
X14839Y184403D01*
X16257Y185821D01*
X17261Y187559D01*
X17708Y189230D01*
D02*
G37*
G36*
X8890D02*
X2612D01*
X3059Y187559D01*
X4062Y185821D01*
X5481Y184403D01*
X7219Y183399D01*
X8890Y182952D01*
Y189230D01*
D02*
G37*
G36*
X-14042D02*
X-20320D01*
Y182952D01*
X-18649Y183399D01*
X-16911Y184403D01*
X-15493Y185821D01*
X-14489Y187559D01*
X-14042Y189230D01*
D02*
G37*
G36*
X-22860D02*
X-29139D01*
X-28691Y187559D01*
X-27687Y185821D01*
X-26269Y184403D01*
X-24531Y183399D01*
X-22860Y182952D01*
Y189230D01*
D02*
G37*
G36*
X-696342Y189407D02*
X-698549D01*
X-700681Y188836D01*
X-702592Y187733D01*
X-704153Y186172D01*
X-705256Y184261D01*
X-705827Y182129D01*
Y179922D01*
X-705256Y177790D01*
X-704153Y175879D01*
X-702592Y174318D01*
X-700681Y173214D01*
X-698549Y172643D01*
X-696342D01*
X-694210Y173214D01*
X-692299Y174318D01*
X-690738Y175879D01*
X-689634Y177790D01*
X-689063Y179922D01*
Y182129D01*
X-689634Y184261D01*
X-690738Y186172D01*
X-692299Y187733D01*
X-694210Y188836D01*
X-696342Y189407D01*
D02*
G37*
G36*
X-127845Y185472D02*
X-129635D01*
X-130626Y185275D01*
X-132280Y184589D01*
X-133120Y184028D01*
X-134386Y182762D01*
X-134948Y181922D01*
X-135633Y180268D01*
X-135830Y179277D01*
Y177487D01*
X-135633Y176496D01*
X-134948Y174842D01*
X-134386Y174001D01*
X-133120Y172736D01*
X-132280Y172174D01*
X-130626Y171489D01*
X-130626Y171489D01*
X-129635Y171292D01*
X-127845D01*
X-126854Y171489D01*
X-126854Y171489D01*
X-125200Y172174D01*
X-125200Y172174D01*
X-124360Y172736D01*
X-123094Y174001D01*
X-122532Y174842D01*
X-121847Y176495D01*
X-121847Y176496D01*
X-121650Y177487D01*
Y179277D01*
X-121847Y180268D01*
X-121847Y180268D01*
X-122532Y181922D01*
X-122532Y181922D01*
X-123094Y182762D01*
X-124360Y184028D01*
X-125200Y184589D01*
X-126854Y185275D01*
X-127845Y185472D01*
D02*
G37*
G36*
X-287845D02*
X-289635D01*
X-290626Y185275D01*
X-292280Y184589D01*
X-293120Y184028D01*
X-294386Y182762D01*
X-294947Y181922D01*
X-295632Y180268D01*
X-295830Y179277D01*
Y177487D01*
X-295632Y176496D01*
X-294947Y174842D01*
X-294386Y174001D01*
X-293120Y172736D01*
X-292280Y172174D01*
X-290626Y171489D01*
X-290626Y171489D01*
X-289635Y171292D01*
X-287845D01*
X-286853Y171489D01*
X-286853Y171489D01*
X-285200Y172174D01*
X-285199Y172174D01*
X-284359Y172736D01*
X-283093Y174001D01*
X-282532Y174842D01*
X-281847Y176495D01*
X-281847Y176496D01*
X-281650Y177487D01*
Y179277D01*
X-281847Y180268D01*
X-281847Y180268D01*
X-282532Y181922D01*
X-282532Y181922D01*
X-283093Y182762D01*
X-284359Y184028D01*
X-285199Y184589D01*
X-286853Y185275D01*
X-287845Y185472D01*
D02*
G37*
G36*
X-402408Y192642D02*
X-405312D01*
X-408118Y191890D01*
X-410634Y190438D01*
X-412688Y188384D01*
X-414140Y185868D01*
X-414892Y183062D01*
Y180158D01*
X-414140Y177352D01*
X-412688Y174836D01*
X-410634Y172782D01*
X-408118Y171330D01*
X-405312Y170578D01*
X-402408D01*
X-399602Y171330D01*
X-397086Y172782D01*
X-395032Y174836D01*
X-393580Y177352D01*
X-392828Y180158D01*
Y183062D01*
X-393580Y185868D01*
X-395032Y188384D01*
X-397086Y190438D01*
X-399602Y191890D01*
X-402408Y192642D01*
D02*
G37*
G36*
X-580208D02*
X-583112D01*
X-585918Y191890D01*
X-588434Y190438D01*
X-590488Y188384D01*
X-591940Y185868D01*
X-592692Y183062D01*
Y180158D01*
X-591940Y177352D01*
X-590488Y174836D01*
X-588434Y172782D01*
X-585918Y171330D01*
X-583112Y170578D01*
X-580208D01*
X-577402Y171330D01*
X-574886Y172782D01*
X-572832Y174836D01*
X-571380Y177352D01*
X-570628Y180158D01*
Y183062D01*
X-571380Y185868D01*
X-572832Y188384D01*
X-574886Y190438D01*
X-577402Y191890D01*
X-580208Y192642D01*
D02*
G37*
G36*
X-450850Y180810D02*
X-473710D01*
Y180575D01*
X-472931Y177668D01*
X-471426Y175062D01*
X-469748Y173383D01*
X-469439Y172555D01*
X-469748Y171727D01*
X-471426Y170048D01*
X-472931Y167442D01*
X-473710Y164535D01*
Y164300D01*
X-450850D01*
Y164535D01*
X-451629Y167442D01*
X-453134Y170048D01*
X-454812Y171727D01*
X-455121Y172555D01*
X-454812Y173383D01*
X-453134Y175062D01*
X-451629Y177668D01*
X-450850Y180575D01*
Y180810D01*
D02*
G37*
G36*
X-68595Y173832D02*
X-71105D01*
X-73529Y173182D01*
X-75703Y171928D01*
X-77477Y170153D01*
X-78732Y167979D01*
X-79382Y165555D01*
Y163045D01*
X-78732Y160621D01*
X-77477Y158447D01*
X-75703Y156672D01*
X-73529Y155418D01*
X-71105Y154768D01*
X-68595D01*
X-66171Y155418D01*
X-63997Y156672D01*
X-62222Y158447D01*
X-60968Y160621D01*
X-60318Y163045D01*
Y165555D01*
X-60968Y167979D01*
X-62222Y170153D01*
X-63997Y171928D01*
X-66171Y173182D01*
X-68595Y173832D01*
D02*
G37*
G36*
X-871848D02*
X-890912D01*
Y154768D01*
X-871848D01*
Y173832D01*
D02*
G37*
G36*
X-957380Y160039D02*
Y153760D01*
X-951102D01*
X-951549Y155431D01*
X-952552Y157169D01*
X-953971Y158588D01*
X-955709Y159591D01*
X-957380Y160039D01*
D02*
G37*
G36*
X-959920D02*
X-961591Y159591D01*
X-963329Y158588D01*
X-964747Y157169D01*
X-965751Y155431D01*
X-966199Y153760D01*
X-959920D01*
Y160039D01*
D02*
G37*
G36*
X11430Y159949D02*
Y153670D01*
X17708D01*
X17261Y155341D01*
X16257Y157079D01*
X14839Y158497D01*
X13101Y159501D01*
X11430Y159949D01*
D02*
G37*
G36*
X8890D02*
X7219Y159501D01*
X5481Y158497D01*
X4062Y157079D01*
X3059Y155341D01*
X2612Y153670D01*
X8890D01*
Y159949D01*
D02*
G37*
G36*
X-20320D02*
Y153670D01*
X-14042D01*
X-14489Y155341D01*
X-15493Y157079D01*
X-16911Y158497D01*
X-18649Y159501D01*
X-20320Y159949D01*
D02*
G37*
G36*
X-22860D02*
X-24531Y159501D01*
X-26269Y158497D01*
X-27687Y157079D01*
X-28691Y155341D01*
X-29139Y153670D01*
X-22860D01*
Y159949D01*
D02*
G37*
G36*
X-450850Y161760D02*
X-461010D01*
Y151600D01*
X-460775D01*
X-457868Y152379D01*
X-455262Y153884D01*
X-453134Y156012D01*
X-451629Y158618D01*
X-450850Y161525D01*
Y161760D01*
D02*
G37*
G36*
X-463550D02*
X-473710D01*
Y161525D01*
X-472931Y158618D01*
X-471426Y156012D01*
X-469298Y153884D01*
X-466692Y152379D01*
X-463785Y151600D01*
X-463550D01*
Y161760D01*
D02*
G37*
G36*
X-402408Y167242D02*
X-405312D01*
X-408118Y166490D01*
X-410634Y165038D01*
X-412688Y162984D01*
X-414140Y160468D01*
X-414892Y157662D01*
Y154758D01*
X-414140Y151952D01*
X-412688Y149436D01*
X-410634Y147382D01*
X-408118Y145930D01*
X-405312Y145178D01*
X-402408D01*
X-399602Y145930D01*
X-397086Y147382D01*
X-395032Y149436D01*
X-393580Y151952D01*
X-392828Y154758D01*
Y157662D01*
X-393580Y160468D01*
X-395032Y162984D01*
X-397086Y165038D01*
X-399602Y166490D01*
X-402408Y167242D01*
D02*
G37*
G36*
X-580208D02*
X-583112D01*
X-585918Y166490D01*
X-588434Y165038D01*
X-590488Y162984D01*
X-591940Y160468D01*
X-592692Y157662D01*
Y154758D01*
X-591940Y151952D01*
X-590488Y149436D01*
X-588434Y147382D01*
X-585918Y145930D01*
X-583112Y145178D01*
X-580208D01*
X-577402Y145930D01*
X-574886Y147382D01*
X-572832Y149436D01*
X-571380Y151952D01*
X-570628Y154758D01*
Y157662D01*
X-571380Y160468D01*
X-572832Y162984D01*
X-574886Y165038D01*
X-577402Y166490D01*
X-580208Y167242D01*
D02*
G37*
G36*
X-951102Y151220D02*
X-957380D01*
Y144942D01*
X-955709Y145389D01*
X-953971Y146392D01*
X-952552Y147811D01*
X-951549Y149549D01*
X-951102Y151220D01*
D02*
G37*
G36*
X-959920D02*
X-966199D01*
X-965751Y149549D01*
X-964747Y147811D01*
X-963329Y146392D01*
X-961591Y145389D01*
X-959920Y144942D01*
Y151220D01*
D02*
G37*
G36*
X17708Y151130D02*
X11430D01*
Y144852D01*
X13101Y145299D01*
X14839Y146302D01*
X16257Y147721D01*
X17261Y149459D01*
X17708Y151130D01*
D02*
G37*
G36*
X8890D02*
X2612D01*
X3059Y149459D01*
X4062Y147721D01*
X5481Y146302D01*
X7219Y145299D01*
X8890Y144852D01*
Y151130D01*
D02*
G37*
G36*
X-14042D02*
X-20320D01*
Y144852D01*
X-18649Y145299D01*
X-16911Y146302D01*
X-15493Y147721D01*
X-14489Y149459D01*
X-14042Y151130D01*
D02*
G37*
G36*
X-22860D02*
X-29139D01*
X-28691Y149459D01*
X-27687Y147721D01*
X-26269Y146302D01*
X-24531Y145299D01*
X-22860Y144852D01*
Y151130D01*
D02*
G37*
G36*
X-68194Y151480D02*
X-68580D01*
Y140170D01*
X-57270D01*
Y140556D01*
X-58127Y143756D01*
X-59784Y146624D01*
X-62126Y148967D01*
X-64994Y150623D01*
X-68194Y151480D01*
D02*
G37*
G36*
X-678346Y152362D02*
X-680554D01*
X-682685Y151791D01*
X-684597Y150687D01*
X-686157Y149127D01*
X-687261Y147215D01*
X-687832Y145084D01*
Y142877D01*
X-687261Y140745D01*
X-686157Y138833D01*
X-684597Y137273D01*
X-682685Y136169D01*
X-680554Y135598D01*
X-678346D01*
X-676215Y136169D01*
X-674303Y137273D01*
X-672743Y138833D01*
X-671639Y140745D01*
X-671068Y142877D01*
Y145084D01*
X-671639Y147215D01*
X-672743Y149127D01*
X-674303Y150687D01*
X-676215Y151791D01*
X-678346Y152362D01*
D02*
G37*
G36*
X-880125Y148432D02*
X-882635D01*
X-885059Y147782D01*
X-887233Y146528D01*
X-889007Y144753D01*
X-890262Y142579D01*
X-890912Y140155D01*
Y137645D01*
X-890262Y135221D01*
X-889007Y133047D01*
X-887233Y131272D01*
X-885059Y130018D01*
X-882635Y129368D01*
X-880125D01*
X-877701Y130018D01*
X-875527Y131272D01*
X-873753Y133047D01*
X-872498Y135221D01*
X-871848Y137645D01*
Y140155D01*
X-872498Y142579D01*
X-873753Y144753D01*
X-875527Y146528D01*
X-877701Y147782D01*
X-880125Y148432D01*
D02*
G37*
G36*
X-57270Y137630D02*
X-68580D01*
Y126320D01*
X-68194D01*
X-64994Y127177D01*
X-62126Y128834D01*
X-59784Y131176D01*
X-58127Y134044D01*
X-57270Y137244D01*
Y137630D01*
D02*
G37*
G36*
X-88096Y156650D02*
X-330085D01*
X-331076Y156453D01*
X-332913Y155691D01*
X-333754Y155130D01*
X-335160Y153723D01*
X-335722Y152883D01*
X-336483Y151046D01*
X-336680Y150055D01*
Y138065D01*
X-336483Y137074D01*
X-335722Y135237D01*
X-335160Y134396D01*
X-333754Y132990D01*
X-332913Y132429D01*
X-331076Y131667D01*
X-330085Y131470D01*
X-88096D01*
X-87104Y131667D01*
X-85267Y132429D01*
X-84426Y132990D01*
X-83020Y134396D01*
X-82993Y134437D01*
X-81617Y134210D01*
X-81573Y134044D01*
X-79917Y131176D01*
X-77574Y128834D01*
X-74706Y127177D01*
X-71506Y126320D01*
X-71120D01*
Y138900D01*
Y151480D01*
X-71506D01*
X-74706Y150623D01*
X-77574Y148967D01*
X-79917Y146624D01*
X-80274Y146006D01*
X-81500Y146335D01*
Y150055D01*
X-81697Y151046D01*
X-82459Y152883D01*
X-83020Y153723D01*
X-84426Y155130D01*
X-85267Y155691D01*
X-87104Y156453D01*
X-88096Y156650D01*
D02*
G37*
G36*
X-451017Y142202D02*
X-453223D01*
X-455355Y141631D01*
X-457267Y140527D01*
X-458827Y138967D01*
X-459931Y137055D01*
X-460502Y134923D01*
Y132717D01*
X-459931Y130585D01*
X-458827Y128673D01*
X-457267Y127113D01*
X-455355Y126009D01*
X-453223Y125438D01*
X-451017D01*
X-448885Y126009D01*
X-446973Y127113D01*
X-445413Y128673D01*
X-444309Y130585D01*
X-443738Y132717D01*
Y134923D01*
X-444309Y137055D01*
X-445413Y138967D01*
X-446973Y140527D01*
X-448885Y141631D01*
X-451017Y142202D01*
D02*
G37*
G36*
X-767080Y190970D02*
X-807720D01*
Y124930D01*
X-767080D01*
Y190970D01*
D02*
G37*
G36*
X-402408Y141842D02*
X-405312D01*
X-408118Y141090D01*
X-410634Y139638D01*
X-412688Y137584D01*
X-414140Y135068D01*
X-414892Y132262D01*
Y129358D01*
X-414140Y126552D01*
X-412688Y124036D01*
X-410634Y121982D01*
X-408118Y120530D01*
X-405312Y119778D01*
X-402408D01*
X-399602Y120530D01*
X-397086Y121982D01*
X-395032Y124036D01*
X-393580Y126552D01*
X-392828Y129358D01*
Y132262D01*
X-393580Y135068D01*
X-395032Y137584D01*
X-397086Y139638D01*
X-399602Y141090D01*
X-402408Y141842D01*
D02*
G37*
G36*
X-580208D02*
X-583112D01*
X-585918Y141090D01*
X-588434Y139638D01*
X-590488Y137584D01*
X-591940Y135068D01*
X-592692Y132262D01*
Y129358D01*
X-591940Y126552D01*
X-590488Y124036D01*
X-588434Y121982D01*
X-585918Y120530D01*
X-583112Y119778D01*
X-580208D01*
X-577402Y120530D01*
X-574886Y121982D01*
X-572832Y124036D01*
X-571380Y126552D01*
X-570628Y129358D01*
Y132262D01*
X-571380Y135068D01*
X-572832Y137584D01*
X-574886Y139638D01*
X-577402Y141090D01*
X-580208Y141842D01*
D02*
G37*
G36*
X-957380Y121938D02*
Y115660D01*
X-951102D01*
X-951549Y117331D01*
X-952552Y119069D01*
X-953971Y120487D01*
X-955709Y121491D01*
X-957380Y121938D01*
D02*
G37*
G36*
X-959920D02*
X-961591Y121491D01*
X-963329Y120487D01*
X-964747Y119069D01*
X-965751Y117331D01*
X-966199Y115660D01*
X-959920D01*
Y121938D01*
D02*
G37*
G36*
X11430Y121848D02*
Y115570D01*
X17708D01*
X17261Y117241D01*
X16257Y118979D01*
X14839Y120398D01*
X13101Y121401D01*
X11430Y121848D01*
D02*
G37*
G36*
X8890D02*
X7219Y121401D01*
X5481Y120398D01*
X4062Y118979D01*
X3059Y117241D01*
X2612Y115570D01*
X8890D01*
Y121848D01*
D02*
G37*
G36*
X-951102Y113120D02*
X-957380D01*
Y106841D01*
X-955709Y107289D01*
X-953971Y108293D01*
X-952552Y109711D01*
X-951549Y111449D01*
X-951102Y113120D01*
D02*
G37*
G36*
X-959920D02*
X-966199D01*
X-965751Y111449D01*
X-964747Y109711D01*
X-963329Y108293D01*
X-961591Y107289D01*
X-959920Y106841D01*
Y113120D01*
D02*
G37*
G36*
X17708Y113030D02*
X11430D01*
Y106751D01*
X13101Y107199D01*
X14839Y108202D01*
X16257Y109621D01*
X17261Y111359D01*
X17708Y113030D01*
D02*
G37*
G36*
X8890D02*
X2612D01*
X3059Y111359D01*
X4062Y109621D01*
X5481Y108202D01*
X7219Y107199D01*
X8890Y106751D01*
Y113030D01*
D02*
G37*
G36*
X-68595Y123032D02*
X-71105D01*
X-73529Y122382D01*
X-75703Y121128D01*
X-77477Y119353D01*
X-78732Y117179D01*
X-79382Y114755D01*
Y112245D01*
X-78732Y109821D01*
X-77477Y107647D01*
X-75703Y105872D01*
X-73529Y104618D01*
X-71105Y103968D01*
X-68595D01*
X-66171Y104618D01*
X-63997Y105872D01*
X-62222Y107647D01*
X-60968Y109821D01*
X-60318Y112245D01*
Y114755D01*
X-60968Y117179D01*
X-62222Y119353D01*
X-63997Y121128D01*
X-66171Y122382D01*
X-68595Y123032D01*
D02*
G37*
G36*
X-880125D02*
X-882635D01*
X-885059Y122382D01*
X-887233Y121128D01*
X-889007Y119353D01*
X-890262Y117179D01*
X-890912Y114755D01*
Y112245D01*
X-890262Y109821D01*
X-889007Y107647D01*
X-887233Y105872D01*
X-885059Y104618D01*
X-882635Y103968D01*
X-880125D01*
X-877701Y104618D01*
X-875527Y105872D01*
X-873753Y107647D01*
X-872498Y109821D01*
X-871848Y112245D01*
Y114755D01*
X-872498Y117179D01*
X-873753Y119353D01*
X-875527Y121128D01*
X-877701Y122382D01*
X-880125Y123032D01*
D02*
G37*
G36*
X-402408Y116442D02*
X-405312D01*
X-408118Y115690D01*
X-410634Y114238D01*
X-412688Y112184D01*
X-414140Y109668D01*
X-414892Y106862D01*
Y103958D01*
X-414140Y101152D01*
X-412688Y98636D01*
X-410634Y96582D01*
X-408118Y95130D01*
X-405312Y94378D01*
X-402408D01*
X-399602Y95130D01*
X-397086Y96582D01*
X-395032Y98636D01*
X-393580Y101152D01*
X-392828Y103958D01*
Y106862D01*
X-393580Y109668D01*
X-395032Y112184D01*
X-397086Y114238D01*
X-399602Y115690D01*
X-402408Y116442D01*
D02*
G37*
G36*
X-580208D02*
X-583112D01*
X-585918Y115690D01*
X-588434Y114238D01*
X-590488Y112184D01*
X-591940Y109668D01*
X-592692Y106862D01*
Y103958D01*
X-591940Y101152D01*
X-590488Y98636D01*
X-588434Y96582D01*
X-585918Y95130D01*
X-583112Y94378D01*
X-580208D01*
X-577402Y95130D01*
X-574886Y96582D01*
X-572832Y98636D01*
X-571380Y101152D01*
X-570628Y103958D01*
Y106862D01*
X-571380Y109668D01*
X-572832Y112184D01*
X-574886Y114238D01*
X-577402Y115690D01*
X-580208Y116442D01*
D02*
G37*
G36*
X-68595Y97632D02*
X-71105D01*
X-73529Y96982D01*
X-75703Y95728D01*
X-77477Y93953D01*
X-78732Y91779D01*
X-79382Y89355D01*
Y86845D01*
X-78732Y84421D01*
X-77477Y82247D01*
X-75703Y80472D01*
X-73529Y79218D01*
X-71105Y78568D01*
X-68595D01*
X-66171Y79218D01*
X-63997Y80472D01*
X-62222Y82247D01*
X-60968Y84421D01*
X-60318Y86845D01*
Y89355D01*
X-60968Y91779D01*
X-62222Y93953D01*
X-63997Y95728D01*
X-66171Y96982D01*
X-68595Y97632D01*
D02*
G37*
G36*
X-880125D02*
X-882635D01*
X-885059Y96982D01*
X-887233Y95728D01*
X-889007Y93953D01*
X-890262Y91779D01*
X-890912Y89355D01*
Y86845D01*
X-890262Y84421D01*
X-889007Y82247D01*
X-887233Y80472D01*
X-885059Y79218D01*
X-882635Y78568D01*
X-880125D01*
X-877701Y79218D01*
X-875527Y80472D01*
X-873753Y82247D01*
X-872498Y84421D01*
X-871848Y86845D01*
Y89355D01*
X-872498Y91779D01*
X-873753Y93953D01*
X-875527Y95728D01*
X-877701Y96982D01*
X-880125Y97632D01*
D02*
G37*
G36*
X-957380Y83839D02*
Y77560D01*
X-951102D01*
X-951549Y79231D01*
X-952552Y80969D01*
X-953971Y82388D01*
X-955709Y83391D01*
X-957380Y83839D01*
D02*
G37*
G36*
X-959920D02*
X-961591Y83391D01*
X-963329Y82388D01*
X-964747Y80969D01*
X-965751Y79231D01*
X-966199Y77560D01*
X-959920D01*
Y83839D01*
D02*
G37*
G36*
X11430Y83749D02*
Y77470D01*
X17708D01*
X17261Y79141D01*
X16257Y80879D01*
X14839Y82297D01*
X13101Y83301D01*
X11430Y83749D01*
D02*
G37*
G36*
X8890D02*
X7219Y83301D01*
X5481Y82297D01*
X4062Y80879D01*
X3059Y79141D01*
X2612Y77470D01*
X8890D01*
Y83749D01*
D02*
G37*
G36*
X-402408Y91042D02*
X-405312D01*
X-408118Y90290D01*
X-410634Y88838D01*
X-412688Y86784D01*
X-414140Y84268D01*
X-414892Y81462D01*
Y78558D01*
X-414140Y75752D01*
X-412688Y73236D01*
X-410634Y71182D01*
X-408118Y69730D01*
X-405312Y68978D01*
X-402408D01*
X-399602Y69730D01*
X-397086Y71182D01*
X-395032Y73236D01*
X-393580Y75752D01*
X-392828Y78558D01*
Y81462D01*
X-393580Y84268D01*
X-395032Y86784D01*
X-397086Y88838D01*
X-399602Y90290D01*
X-402408Y91042D01*
D02*
G37*
G36*
X-580208D02*
X-583112D01*
X-585918Y90290D01*
X-588434Y88838D01*
X-590488Y86784D01*
X-591940Y84268D01*
X-592692Y81462D01*
Y78558D01*
X-591940Y75752D01*
X-590488Y73236D01*
X-588434Y71182D01*
X-585918Y69730D01*
X-583112Y68978D01*
X-580208D01*
X-577402Y69730D01*
X-574886Y71182D01*
X-572832Y73236D01*
X-571380Y75752D01*
X-570628Y78558D01*
Y81462D01*
X-571380Y84268D01*
X-572832Y86784D01*
X-574886Y88838D01*
X-577402Y90290D01*
X-580208Y91042D01*
D02*
G37*
G36*
X-951102Y75020D02*
X-957380D01*
Y68741D01*
X-955709Y69189D01*
X-953971Y70192D01*
X-952552Y71611D01*
X-951549Y73349D01*
X-951102Y75020D01*
D02*
G37*
G36*
X-959920D02*
X-966199D01*
X-965751Y73349D01*
X-964747Y71611D01*
X-963329Y70192D01*
X-961591Y69189D01*
X-959920Y68741D01*
Y75020D01*
D02*
G37*
G36*
X17708Y74930D02*
X11430D01*
Y68651D01*
X13101Y69099D01*
X14839Y70103D01*
X16257Y71521D01*
X17261Y73259D01*
X17708Y74930D01*
D02*
G37*
G36*
X8890D02*
X2612D01*
X3059Y73259D01*
X4062Y71521D01*
X5481Y70103D01*
X7219Y69099D01*
X8890Y68651D01*
Y74930D01*
D02*
G37*
G36*
X-809351Y66002D02*
X-811169D01*
X-812850Y65306D01*
X-813435Y64721D01*
X-814020Y65306D01*
X-815701Y66002D01*
X-817519D01*
X-819200Y65306D01*
X-819785Y64721D01*
X-820370Y65306D01*
X-822051Y66002D01*
X-823869D01*
X-825550Y65306D01*
X-826135Y64721D01*
X-826720Y65306D01*
X-828401Y66002D01*
X-830219D01*
X-831900Y65306D01*
X-832485Y64721D01*
X-833070Y65306D01*
X-834751Y66002D01*
X-836569D01*
X-838250Y65306D01*
X-839536Y64020D01*
X-840232Y62339D01*
Y60521D01*
X-839536Y58840D01*
X-838951Y58255D01*
X-839536Y57670D01*
X-840232Y55989D01*
Y54171D01*
X-839536Y52490D01*
X-838250Y51204D01*
X-836569Y50508D01*
X-834751D01*
X-833070Y51204D01*
X-832485Y51789D01*
X-831900Y51204D01*
X-830219Y50508D01*
X-828401D01*
X-826720Y51204D01*
X-826135Y51789D01*
X-825550Y51204D01*
X-823869Y50508D01*
X-822051D01*
X-820370Y51204D01*
X-819785Y51789D01*
X-819200Y51204D01*
X-817519Y50508D01*
X-815701D01*
X-814020Y51204D01*
X-813435Y51789D01*
X-812850Y51204D01*
X-811169Y50508D01*
X-809351D01*
X-807670Y51204D01*
X-806384Y52490D01*
X-805688Y54171D01*
Y55989D01*
X-806384Y57670D01*
X-806969Y58255D01*
X-806384Y58840D01*
X-805688Y60521D01*
Y62339D01*
X-806384Y64020D01*
X-807670Y65306D01*
X-809351Y66002D01*
D02*
G37*
G36*
X-879724Y75280D02*
X-880110D01*
Y63970D01*
X-868800D01*
Y64356D01*
X-869657Y67556D01*
X-871313Y70424D01*
X-873656Y72766D01*
X-876524Y74423D01*
X-879724Y75280D01*
D02*
G37*
G36*
X-882650D02*
X-883036D01*
X-886236Y74423D01*
X-889104Y72766D01*
X-891447Y70424D01*
X-893103Y67556D01*
X-893960Y64356D01*
Y63970D01*
X-882650D01*
Y75280D01*
D02*
G37*
G36*
X-68595Y72232D02*
X-71105D01*
X-73529Y71582D01*
X-75703Y70328D01*
X-77477Y68553D01*
X-78732Y66379D01*
X-79382Y63955D01*
Y61445D01*
X-78732Y59021D01*
X-77477Y56847D01*
X-75703Y55072D01*
X-73529Y53818D01*
X-71105Y53168D01*
X-68595D01*
X-66171Y53818D01*
X-63997Y55072D01*
X-62222Y56847D01*
X-60968Y59021D01*
X-60318Y61445D01*
Y63955D01*
X-60968Y66379D01*
X-62222Y68553D01*
X-63997Y70328D01*
X-66171Y71582D01*
X-68595Y72232D01*
D02*
G37*
G36*
X-868800Y61430D02*
X-880110D01*
Y50120D01*
X-879724D01*
X-876524Y50977D01*
X-873656Y52634D01*
X-871313Y54976D01*
X-869657Y57844D01*
X-868800Y61044D01*
Y61430D01*
D02*
G37*
G36*
X-882650D02*
X-893960D01*
Y61044D01*
X-893103Y57844D01*
X-891447Y54976D01*
X-889104Y52634D01*
X-886236Y50977D01*
X-883036Y50120D01*
X-882650D01*
Y61430D01*
D02*
G37*
G36*
X-687070Y55080D02*
X-687305D01*
X-690212Y54301D01*
X-692818Y52796D01*
X-694946Y50668D01*
X-695350Y49969D01*
X-696609Y49803D01*
X-697163Y50357D01*
X-699075Y51461D01*
X-701207Y52032D01*
X-703413D01*
X-705545Y51461D01*
X-707457Y50357D01*
X-709017Y48797D01*
X-710121Y46885D01*
X-710692Y44753D01*
Y42547D01*
X-710121Y40415D01*
X-709017Y38503D01*
X-707457Y36943D01*
X-705545Y35839D01*
X-703413Y35268D01*
X-701207D01*
X-699075Y35839D01*
X-697163Y36943D01*
X-696609Y37497D01*
X-695350Y37331D01*
X-694946Y36632D01*
X-692818Y34504D01*
X-690212Y32999D01*
X-687305Y32220D01*
X-687070D01*
Y43650D01*
Y55080D01*
D02*
G37*
G36*
X-684295D02*
X-684530D01*
Y44920D01*
X-674370D01*
Y45155D01*
X-675149Y48062D01*
X-676654Y50668D01*
X-678782Y52796D01*
X-681388Y54301D01*
X-684295Y55080D01*
D02*
G37*
G36*
X-749065D02*
X-749300D01*
Y44920D01*
X-739140D01*
Y45155D01*
X-739919Y48062D01*
X-741424Y50668D01*
X-743552Y52796D01*
X-746158Y54301D01*
X-749065Y55080D01*
D02*
G37*
G36*
X-751840D02*
X-752075D01*
X-754982Y54301D01*
X-757588Y52796D01*
X-759716Y50668D01*
X-761221Y48062D01*
X-762000Y45155D01*
Y44920D01*
X-751840D01*
Y55080D01*
D02*
G37*
G36*
X-402408Y65642D02*
X-405312D01*
X-408118Y64890D01*
X-410634Y63438D01*
X-412688Y61384D01*
X-414140Y58868D01*
X-414892Y56062D01*
Y53158D01*
X-414140Y50352D01*
X-412688Y47836D01*
X-410634Y45782D01*
X-408118Y44330D01*
X-405312Y43578D01*
X-402408D01*
X-399602Y44330D01*
X-397086Y45782D01*
X-395032Y47836D01*
X-393580Y50352D01*
X-392828Y53158D01*
Y56062D01*
X-393580Y58868D01*
X-395032Y61384D01*
X-397086Y63438D01*
X-399602Y64890D01*
X-402408Y65642D01*
D02*
G37*
G36*
X-580208D02*
X-583112D01*
X-585918Y64890D01*
X-588434Y63438D01*
X-590488Y61384D01*
X-591940Y58868D01*
X-592692Y56062D01*
Y53158D01*
X-591940Y50352D01*
X-590488Y47836D01*
X-588434Y45782D01*
X-585918Y44330D01*
X-583112Y43578D01*
X-580208D01*
X-577402Y44330D01*
X-574886Y45782D01*
X-572832Y47836D01*
X-571380Y50352D01*
X-570628Y53158D01*
Y56062D01*
X-571380Y58868D01*
X-572832Y61384D01*
X-574886Y63438D01*
X-577402Y64890D01*
X-580208Y65642D01*
D02*
G37*
G36*
X-957380Y45739D02*
Y39460D01*
X-951102D01*
X-951549Y41131D01*
X-952552Y42869D01*
X-953971Y44288D01*
X-955709Y45291D01*
X-957380Y45739D01*
D02*
G37*
G36*
X-959920D02*
X-961591Y45291D01*
X-963329Y44288D01*
X-964747Y42869D01*
X-965751Y41131D01*
X-966199Y39460D01*
X-959920D01*
Y45739D01*
D02*
G37*
G36*
X11430Y45648D02*
Y39370D01*
X17708D01*
X17261Y41041D01*
X16257Y42779D01*
X14839Y44198D01*
X13101Y45201D01*
X11430Y45648D01*
D02*
G37*
G36*
X8890D02*
X7219Y45201D01*
X5481Y44198D01*
X4062Y42779D01*
X3059Y41041D01*
X2612Y39370D01*
X8890D01*
Y45648D01*
D02*
G37*
G36*
X-20320D02*
Y39370D01*
X-14042D01*
X-14489Y41041D01*
X-15493Y42779D01*
X-16911Y44198D01*
X-18649Y45201D01*
X-20320Y45648D01*
D02*
G37*
G36*
X-22860D02*
X-24531Y45201D01*
X-26269Y44198D01*
X-27687Y42779D01*
X-28691Y41041D01*
X-29139Y39370D01*
X-22860D01*
Y45648D01*
D02*
G37*
G36*
X-674370Y42380D02*
X-684530D01*
Y32220D01*
X-684295D01*
X-681388Y32999D01*
X-678782Y34504D01*
X-676654Y36632D01*
X-675149Y39238D01*
X-674370Y42145D01*
Y42380D01*
D02*
G37*
G36*
X-739140D02*
X-749300D01*
Y32220D01*
X-749065D01*
X-746158Y32999D01*
X-743552Y34504D01*
X-741424Y36632D01*
X-739919Y39238D01*
X-739140Y42145D01*
Y42380D01*
D02*
G37*
G36*
X-751840D02*
X-762000D01*
Y42145D01*
X-761221Y39238D01*
X-759716Y36632D01*
X-757588Y34504D01*
X-754982Y32999D01*
X-752075Y32220D01*
X-751840D01*
Y42380D01*
D02*
G37*
G36*
X-951102Y36920D02*
X-957380D01*
Y30642D01*
X-955709Y31089D01*
X-953971Y32092D01*
X-952552Y33511D01*
X-951549Y35249D01*
X-951102Y36920D01*
D02*
G37*
G36*
X-959920D02*
X-966199D01*
X-965751Y35249D01*
X-964747Y33511D01*
X-963329Y32092D01*
X-961591Y31089D01*
X-959920Y30642D01*
Y36920D01*
D02*
G37*
G36*
X17708Y36830D02*
X11430D01*
Y30552D01*
X13101Y30999D01*
X14839Y32002D01*
X16257Y33421D01*
X17261Y35159D01*
X17708Y36830D01*
D02*
G37*
G36*
X8890D02*
X2612D01*
X3059Y35159D01*
X4062Y33421D01*
X5481Y32002D01*
X7219Y30999D01*
X8890Y30552D01*
Y36830D01*
D02*
G37*
G36*
X-14042D02*
X-20320D01*
Y30552D01*
X-18649Y30999D01*
X-16911Y32002D01*
X-15493Y33421D01*
X-14489Y35159D01*
X-14042Y36830D01*
D02*
G37*
G36*
X-22860D02*
X-29139D01*
X-28691Y35159D01*
X-27687Y33421D01*
X-26269Y32002D01*
X-24531Y30999D01*
X-22860Y30552D01*
Y36830D01*
D02*
G37*
G36*
X-60318Y46832D02*
X-79382D01*
Y27768D01*
X-60318D01*
Y46832D01*
D02*
G37*
G36*
X-880125D02*
X-882635D01*
X-885059Y46182D01*
X-887233Y44928D01*
X-889007Y43153D01*
X-890262Y40979D01*
X-890912Y38555D01*
Y36045D01*
X-890262Y33621D01*
X-889007Y31447D01*
X-887233Y29673D01*
X-885059Y28418D01*
X-882635Y27768D01*
X-880125D01*
X-877701Y28418D01*
X-875527Y29673D01*
X-873753Y31447D01*
X-872498Y33621D01*
X-871848Y36045D01*
Y38555D01*
X-872498Y40979D01*
X-873753Y43153D01*
X-875527Y44928D01*
X-877701Y46182D01*
X-880125Y46832D01*
D02*
G37*
G36*
X-402408Y40242D02*
X-405312D01*
X-408118Y39490D01*
X-410634Y38038D01*
X-412688Y35984D01*
X-414140Y33468D01*
X-414892Y30662D01*
Y27758D01*
X-414140Y24952D01*
X-412688Y22436D01*
X-410634Y20382D01*
X-408118Y18930D01*
X-405312Y18178D01*
X-402408D01*
X-399602Y18930D01*
X-397086Y20382D01*
X-395032Y22436D01*
X-393580Y24952D01*
X-392828Y27758D01*
Y30662D01*
X-393580Y33468D01*
X-395032Y35984D01*
X-397086Y38038D01*
X-399602Y39490D01*
X-402408Y40242D01*
D02*
G37*
G36*
X-580208D02*
X-583112D01*
X-585918Y39490D01*
X-588434Y38038D01*
X-590488Y35984D01*
X-591940Y33468D01*
X-592692Y30662D01*
Y27758D01*
X-591940Y24952D01*
X-590488Y22436D01*
X-588434Y20382D01*
X-585918Y18930D01*
X-583112Y18178D01*
X-580208D01*
X-577402Y18930D01*
X-574886Y20382D01*
X-572832Y22436D01*
X-571380Y24952D01*
X-570628Y27758D01*
Y30662D01*
X-571380Y33468D01*
X-572832Y35984D01*
X-574886Y38038D01*
X-577402Y39490D01*
X-580208Y40242D01*
D02*
G37*
G36*
X-707390Y12629D02*
X-709061Y12181D01*
X-710799Y11178D01*
X-712217Y9759D01*
X-713221Y8021D01*
X-713415Y7297D01*
X-714753Y7209D01*
X-714944Y7670D01*
X-716230Y8956D01*
X-717911Y9652D01*
X-719729D01*
X-721410Y8956D01*
X-722696Y7670D01*
X-723392Y5989D01*
Y4171D01*
X-722696Y2490D01*
X-721410Y1204D01*
X-719729Y508D01*
X-717911D01*
X-716230Y1204D01*
X-714944Y2490D01*
X-714753Y2951D01*
X-713415Y2863D01*
X-713221Y2139D01*
X-712217Y401D01*
X-710799Y-1018D01*
X-709061Y-2021D01*
X-707390Y-2468D01*
Y5080D01*
Y12629D01*
D02*
G37*
G36*
X-704850D02*
Y6350D01*
X-698571D01*
X-699019Y8021D01*
X-700023Y9759D01*
X-701441Y11178D01*
X-703179Y12181D01*
X-704850Y12629D01*
D02*
G37*
G36*
X-957380Y7638D02*
Y1360D01*
X-951102D01*
X-951549Y3031D01*
X-952552Y4769D01*
X-953971Y6187D01*
X-955709Y7191D01*
X-957380Y7638D01*
D02*
G37*
G36*
X-959920D02*
X-961591Y7191D01*
X-963329Y6187D01*
X-964747Y4769D01*
X-965751Y3031D01*
X-966199Y1360D01*
X-959920D01*
Y7638D01*
D02*
G37*
G36*
X11430Y7548D02*
Y1270D01*
X17708D01*
X17261Y2941D01*
X16257Y4679D01*
X14839Y6097D01*
X13101Y7101D01*
X11430Y7548D01*
D02*
G37*
G36*
X8890D02*
X7219Y7101D01*
X5481Y6097D01*
X4062Y4679D01*
X3059Y2941D01*
X2612Y1270D01*
X8890D01*
Y7548D01*
D02*
G37*
G36*
X-20320D02*
Y1270D01*
X-14042D01*
X-14489Y2941D01*
X-15493Y4679D01*
X-16911Y6097D01*
X-18649Y7101D01*
X-20320Y7548D01*
D02*
G37*
G36*
X-22860D02*
X-24531Y7101D01*
X-26269Y6097D01*
X-27687Y4679D01*
X-28691Y2941D01*
X-29139Y1270D01*
X-22860D01*
Y7548D01*
D02*
G37*
G36*
X-698571Y3810D02*
X-704850D01*
Y-2468D01*
X-703179Y-2021D01*
X-701441Y-1018D01*
X-700023Y401D01*
X-699019Y2139D01*
X-698571Y3810D01*
D02*
G37*
G36*
X-402408Y14842D02*
X-405312D01*
X-408118Y14090D01*
X-410634Y12638D01*
X-412688Y10584D01*
X-414140Y8068D01*
X-414892Y5262D01*
Y2358D01*
X-414140Y-448D01*
X-412688Y-2964D01*
X-410634Y-5018D01*
X-408118Y-6470D01*
X-405312Y-7222D01*
X-402408D01*
X-399602Y-6470D01*
X-397086Y-5018D01*
X-395032Y-2964D01*
X-393580Y-448D01*
X-392828Y2358D01*
Y5262D01*
X-393580Y8068D01*
X-395032Y10584D01*
X-397086Y12638D01*
X-399602Y14090D01*
X-402408Y14842D01*
D02*
G37*
G36*
X-580208D02*
X-583112D01*
X-585918Y14090D01*
X-588434Y12638D01*
X-590488Y10584D01*
X-591940Y8068D01*
X-592692Y5262D01*
Y2358D01*
X-591940Y-448D01*
X-590488Y-2964D01*
X-588434Y-5018D01*
X-585918Y-6470D01*
X-583112Y-7222D01*
X-580208D01*
X-577402Y-6470D01*
X-574886Y-5018D01*
X-572832Y-2964D01*
X-571380Y-448D01*
X-570628Y2358D01*
Y5262D01*
X-571380Y8068D01*
X-572832Y10584D01*
X-574886Y12638D01*
X-577402Y14090D01*
X-580208Y14842D01*
D02*
G37*
G36*
X-951102Y-1180D02*
X-957380D01*
Y-7459D01*
X-955709Y-7011D01*
X-953971Y-6008D01*
X-952552Y-4589D01*
X-951549Y-2851D01*
X-951102Y-1180D01*
D02*
G37*
G36*
X-959920D02*
X-966199D01*
X-965751Y-2851D01*
X-964747Y-4589D01*
X-963329Y-6008D01*
X-961591Y-7011D01*
X-959920Y-7459D01*
Y-1180D01*
D02*
G37*
G36*
X17708Y-1270D02*
X11430D01*
Y-7548D01*
X13101Y-7101D01*
X14839Y-6097D01*
X16257Y-4679D01*
X17261Y-2941D01*
X17708Y-1270D01*
D02*
G37*
G36*
X8890D02*
X2612D01*
X3059Y-2941D01*
X4062Y-4679D01*
X5481Y-6097D01*
X7219Y-7101D01*
X8890Y-7548D01*
Y-1270D01*
D02*
G37*
G36*
X-14042D02*
X-20320D01*
Y-7548D01*
X-18649Y-7101D01*
X-16911Y-6097D01*
X-15493Y-4679D01*
X-14489Y-2941D01*
X-14042Y-1270D01*
D02*
G37*
G36*
X-22860D02*
X-29139D01*
X-28691Y-2941D01*
X-27687Y-4679D01*
X-26269Y-6097D01*
X-24531Y-7101D01*
X-22860Y-7548D01*
Y-1270D01*
D02*
G37*
G36*
X-623904Y-10668D02*
X-625776D01*
X-627585Y-11153D01*
X-629207Y-12089D01*
X-629285Y-12167D01*
X-629363Y-12089D01*
X-630985Y-11153D01*
X-632794Y-10668D01*
X-634666D01*
X-636475Y-11153D01*
X-638097Y-12089D01*
X-638175Y-12167D01*
X-638253Y-12089D01*
X-639875Y-11153D01*
X-641684Y-10668D01*
X-643556D01*
X-645365Y-11153D01*
X-646987Y-12089D01*
X-647065Y-12167D01*
X-647143Y-12089D01*
X-648765Y-11153D01*
X-650574Y-10668D01*
X-652446D01*
X-654255Y-11153D01*
X-655877Y-12089D01*
X-657201Y-13413D01*
X-658137Y-15035D01*
X-658622Y-16844D01*
Y-18716D01*
X-658137Y-20525D01*
X-657201Y-22147D01*
X-657123Y-22225D01*
X-657201Y-22303D01*
X-658137Y-23925D01*
X-658622Y-25734D01*
Y-27606D01*
X-658137Y-29415D01*
X-657201Y-31037D01*
X-655877Y-32361D01*
X-654255Y-33297D01*
X-652446Y-33782D01*
X-650574D01*
X-648765Y-33297D01*
X-647143Y-32361D01*
X-647065Y-32283D01*
X-646987Y-32361D01*
X-645365Y-33297D01*
X-643556Y-33782D01*
X-641684D01*
X-639875Y-33297D01*
X-638253Y-32361D01*
X-638175Y-32283D01*
X-638097Y-32361D01*
X-636475Y-33297D01*
X-634666Y-33782D01*
X-632794D01*
X-630985Y-33297D01*
X-629363Y-32361D01*
X-629285Y-32283D01*
X-629207Y-32361D01*
X-627585Y-33297D01*
X-625776Y-33782D01*
X-623904D01*
X-622095Y-33297D01*
X-620473Y-32361D01*
X-619149Y-31037D01*
X-618213Y-29415D01*
X-617728Y-27606D01*
Y-25734D01*
X-618213Y-23925D01*
X-619149Y-22303D01*
X-619227Y-22225D01*
X-619149Y-22147D01*
X-618213Y-20525D01*
X-617728Y-18716D01*
Y-16844D01*
X-618213Y-15035D01*
X-619149Y-13413D01*
X-620473Y-12089D01*
X-622095Y-11153D01*
X-623904Y-10668D01*
D02*
G37*
G36*
X-150069Y17140D02*
X-153424D01*
X-156714Y16486D01*
X-159814Y15202D01*
X-162603Y13338D01*
X-164976Y10965D01*
X-166840Y8176D01*
X-168123Y5076D01*
X-168778Y1786D01*
Y-1569D01*
X-168123Y-4860D01*
X-166840Y-7960D01*
X-164976Y-10749D01*
X-162603Y-13122D01*
X-159814Y-14986D01*
X-156714Y-16270D01*
X-153424Y-16924D01*
X-150069D01*
X-146778Y-16270D01*
X-143678Y-14986D01*
X-140889Y-13122D01*
X-138516Y-10749D01*
X-136652Y-7960D01*
X-135368Y-4860D01*
X-134714Y-1569D01*
Y1786D01*
X-135368Y5076D01*
X-136652Y8176D01*
X-138516Y10965D01*
X-140889Y13338D01*
X-143678Y15202D01*
X-146778Y16486D01*
X-150069Y17140D01*
D02*
G37*
G36*
X-301999D02*
X-305354D01*
X-308644Y16486D01*
X-311744Y15202D01*
X-314533Y13338D01*
X-316906Y10965D01*
X-318770Y8176D01*
X-320053Y5076D01*
X-320708Y1786D01*
Y-1569D01*
X-320053Y-4860D01*
X-318770Y-7960D01*
X-316906Y-10749D01*
X-314533Y-13122D01*
X-311744Y-14986D01*
X-308644Y-16270D01*
X-305354Y-16924D01*
X-301999D01*
X-298708Y-16270D01*
X-295608Y-14986D01*
X-292819Y-13122D01*
X-290446Y-10749D01*
X-288582Y-7960D01*
X-287299Y-4860D01*
X-286644Y-1569D01*
Y1786D01*
X-287299Y5076D01*
X-288582Y8176D01*
X-290446Y10965D01*
X-292819Y13338D01*
X-295608Y15202D01*
X-298708Y16486D01*
X-301999Y17140D01*
D02*
G37*
G36*
X-402408Y-10558D02*
X-405312D01*
X-408118Y-11310D01*
X-410634Y-12762D01*
X-412688Y-14816D01*
X-414140Y-17332D01*
X-414892Y-20138D01*
Y-23042D01*
X-414140Y-25848D01*
X-412688Y-28364D01*
X-410634Y-30418D01*
X-408118Y-31870D01*
X-405312Y-32622D01*
X-402408D01*
X-399602Y-31870D01*
X-397086Y-30418D01*
X-395032Y-28364D01*
X-393580Y-25848D01*
X-392828Y-23042D01*
Y-20138D01*
X-393580Y-17332D01*
X-395032Y-14816D01*
X-397086Y-12762D01*
X-399602Y-11310D01*
X-402408Y-10558D01*
D02*
G37*
G36*
X-580208D02*
X-583112D01*
X-585918Y-11310D01*
X-588434Y-12762D01*
X-590488Y-14816D01*
X-591940Y-17332D01*
X-592692Y-20138D01*
Y-23042D01*
X-591940Y-25848D01*
X-590488Y-28364D01*
X-588434Y-30418D01*
X-585918Y-31870D01*
X-583112Y-32622D01*
X-580208D01*
X-577402Y-31870D01*
X-574886Y-30418D01*
X-572832Y-28364D01*
X-571380Y-25848D01*
X-570628Y-23042D01*
Y-20138D01*
X-571380Y-17332D01*
X-572832Y-14816D01*
X-574886Y-12762D01*
X-577402Y-11310D01*
X-580208Y-10558D01*
D02*
G37*
G36*
X-710976Y-24560D02*
X-712795D01*
X-714476Y-25255D01*
X-715762Y-26542D01*
X-716458Y-28222D01*
Y-30041D01*
X-715762Y-31721D01*
X-714476Y-33007D01*
X-712795Y-33703D01*
X-710976D01*
X-709296Y-33007D01*
X-708010Y-31721D01*
X-707314Y-30041D01*
Y-28222D01*
X-708010Y-26542D01*
X-709296Y-25255D01*
X-710976Y-24560D01*
D02*
G37*
G36*
X-957380Y-30461D02*
Y-36740D01*
X-951102D01*
X-951549Y-35069D01*
X-952552Y-33331D01*
X-953971Y-31913D01*
X-955709Y-30909D01*
X-957380Y-30461D01*
D02*
G37*
G36*
X-959920D02*
X-961591Y-30909D01*
X-963329Y-31913D01*
X-964747Y-33331D01*
X-965751Y-35069D01*
X-966199Y-36740D01*
X-959920D01*
Y-30461D01*
D02*
G37*
G36*
X11430Y-30552D02*
Y-36830D01*
X17708D01*
X17261Y-35159D01*
X16257Y-33421D01*
X14839Y-32002D01*
X13101Y-30999D01*
X11430Y-30552D01*
D02*
G37*
G36*
X8890D02*
X7219Y-30999D01*
X5481Y-32002D01*
X4062Y-33421D01*
X3059Y-35159D01*
X2612Y-36830D01*
X8890D01*
Y-30552D01*
D02*
G37*
G36*
X-20320D02*
Y-36830D01*
X-14042D01*
X-14489Y-35159D01*
X-15493Y-33421D01*
X-16911Y-32002D01*
X-18649Y-30999D01*
X-20320Y-30552D01*
D02*
G37*
G36*
X-22860D02*
X-24531Y-30999D01*
X-26269Y-32002D01*
X-27687Y-33421D01*
X-28691Y-35159D01*
X-29139Y-36830D01*
X-22860D01*
Y-30552D01*
D02*
G37*
G36*
X-951102Y-39280D02*
X-957380D01*
Y-45559D01*
X-955709Y-45111D01*
X-953971Y-44107D01*
X-952552Y-42689D01*
X-951549Y-40951D01*
X-951102Y-39280D01*
D02*
G37*
G36*
X-959920D02*
X-966199D01*
X-965751Y-40951D01*
X-964747Y-42689D01*
X-963329Y-44107D01*
X-961591Y-45111D01*
X-959920Y-45559D01*
Y-39280D01*
D02*
G37*
G36*
X17708Y-39370D02*
X11430D01*
Y-45648D01*
X13101Y-45201D01*
X14839Y-44198D01*
X16257Y-42779D01*
X17261Y-41041D01*
X17708Y-39370D01*
D02*
G37*
G36*
X8890D02*
X2612D01*
X3059Y-41041D01*
X4062Y-42779D01*
X5481Y-44198D01*
X7219Y-45201D01*
X8890Y-45648D01*
Y-39370D01*
D02*
G37*
G36*
X-14042D02*
X-20320D01*
Y-45648D01*
X-18649Y-45201D01*
X-16911Y-44198D01*
X-15493Y-42779D01*
X-14489Y-41041D01*
X-14042Y-39370D01*
D02*
G37*
G36*
X-22860D02*
X-29139D01*
X-28691Y-41041D01*
X-27687Y-42779D01*
X-26269Y-44198D01*
X-24531Y-45201D01*
X-22860Y-45648D01*
Y-39370D01*
D02*
G37*
G36*
X-402408Y-35958D02*
X-405312D01*
X-408118Y-36710D01*
X-410634Y-38162D01*
X-412688Y-40216D01*
X-414140Y-42732D01*
X-414892Y-45538D01*
Y-48442D01*
X-414140Y-51248D01*
X-412688Y-53764D01*
X-410634Y-55818D01*
X-408118Y-57270D01*
X-405312Y-58022D01*
X-402408D01*
X-399602Y-57270D01*
X-397086Y-55818D01*
X-395032Y-53764D01*
X-393580Y-51248D01*
X-392828Y-48442D01*
Y-45538D01*
X-393580Y-42732D01*
X-395032Y-40216D01*
X-397086Y-38162D01*
X-399602Y-36710D01*
X-402408Y-35958D01*
D02*
G37*
G36*
X-580208D02*
X-583112D01*
X-585918Y-36710D01*
X-588434Y-38162D01*
X-590488Y-40216D01*
X-591940Y-42732D01*
X-592692Y-45538D01*
Y-48442D01*
X-591940Y-51248D01*
X-590488Y-53764D01*
X-588434Y-55818D01*
X-585918Y-57270D01*
X-583112Y-58022D01*
X-580208D01*
X-577402Y-57270D01*
X-574886Y-55818D01*
X-572832Y-53764D01*
X-571380Y-51248D01*
X-570628Y-48442D01*
Y-45538D01*
X-571380Y-42732D01*
X-572832Y-40216D01*
X-574886Y-38162D01*
X-577402Y-36710D01*
X-580208Y-35958D01*
D02*
G37*
G36*
X-759225Y-50800D02*
X-759460D01*
Y-60960D01*
X-749300D01*
Y-60725D01*
X-750079Y-57818D01*
X-751584Y-55212D01*
X-753712Y-53084D01*
X-756318Y-51579D01*
X-759225Y-50800D01*
D02*
G37*
G36*
X-762000D02*
X-762235D01*
X-765142Y-51579D01*
X-767748Y-53084D01*
X-769876Y-55212D01*
X-771381Y-57818D01*
X-772160Y-60725D01*
Y-60960D01*
X-762000D01*
Y-50800D01*
D02*
G37*
G36*
X-749300Y-63500D02*
X-759460D01*
Y-73660D01*
X-759225D01*
X-756318Y-72881D01*
X-753712Y-71376D01*
X-751584Y-69248D01*
X-750079Y-66642D01*
X-749300Y-63735D01*
Y-63500D01*
D02*
G37*
G36*
X-762000D02*
X-772160D01*
Y-63735D01*
X-771381Y-66642D01*
X-769876Y-69248D01*
X-767748Y-71376D01*
X-765142Y-72881D01*
X-762235Y-73660D01*
X-762000D01*
Y-63500D01*
D02*
G37*
G36*
X-957380Y-68562D02*
Y-74840D01*
X-951102D01*
X-951549Y-73169D01*
X-952552Y-71431D01*
X-953971Y-70012D01*
X-955709Y-69009D01*
X-957380Y-68562D01*
D02*
G37*
G36*
X-959920D02*
X-961591Y-69009D01*
X-963329Y-70012D01*
X-964747Y-71431D01*
X-965751Y-73169D01*
X-966199Y-74840D01*
X-959920D01*
Y-68562D01*
D02*
G37*
G36*
X11430Y-68651D02*
Y-74930D01*
X17708D01*
X17261Y-73259D01*
X16257Y-71521D01*
X14839Y-70103D01*
X13101Y-69099D01*
X11430Y-68651D01*
D02*
G37*
G36*
X8890D02*
X7219Y-69099D01*
X5481Y-70103D01*
X4062Y-71521D01*
X3059Y-73259D01*
X2612Y-74930D01*
X8890D01*
Y-68651D01*
D02*
G37*
G36*
X-20320D02*
Y-74930D01*
X-14042D01*
X-14489Y-73259D01*
X-15493Y-71521D01*
X-16911Y-70103D01*
X-18649Y-69099D01*
X-20320Y-68651D01*
D02*
G37*
G36*
X-22860D02*
X-24531Y-69099D01*
X-26269Y-70103D01*
X-27687Y-71521D01*
X-28691Y-73259D01*
X-29139Y-74930D01*
X-22860D01*
Y-68651D01*
D02*
G37*
G36*
X-238927Y-60998D02*
X-241133D01*
X-243265Y-61569D01*
X-245177Y-62673D01*
X-246737Y-64233D01*
X-247841Y-66145D01*
X-248412Y-68277D01*
Y-70483D01*
X-247841Y-72615D01*
X-246737Y-74527D01*
X-245177Y-76087D01*
X-243265Y-77191D01*
X-241133Y-77762D01*
X-238927D01*
X-236795Y-77191D01*
X-234883Y-76087D01*
X-233323Y-74527D01*
X-232219Y-72615D01*
X-231648Y-70483D01*
Y-68277D01*
X-232219Y-66145D01*
X-233323Y-64233D01*
X-234883Y-62673D01*
X-236795Y-61569D01*
X-238927Y-60998D01*
D02*
G37*
G36*
X-264326D02*
X-266534D01*
X-268665Y-61569D01*
X-270577Y-62673D01*
X-272137Y-64233D01*
X-273241Y-66145D01*
X-273812Y-68277D01*
Y-70483D01*
X-273241Y-72615D01*
X-272137Y-74527D01*
X-270577Y-76087D01*
X-268665Y-77191D01*
X-266534Y-77762D01*
X-264326D01*
X-262195Y-77191D01*
X-260283Y-76087D01*
X-258723Y-74527D01*
X-257619Y-72615D01*
X-257048Y-70483D01*
Y-68277D01*
X-257619Y-66145D01*
X-258723Y-64233D01*
X-260283Y-62673D01*
X-262195Y-61569D01*
X-264326Y-60998D01*
D02*
G37*
G36*
X-402408Y-61358D02*
X-405312D01*
X-408118Y-62110D01*
X-410634Y-63562D01*
X-412688Y-65616D01*
X-414140Y-68132D01*
X-414892Y-70938D01*
Y-73842D01*
X-414140Y-76648D01*
X-412688Y-79164D01*
X-410634Y-81218D01*
X-408118Y-82670D01*
X-405312Y-83422D01*
X-402408D01*
X-399602Y-82670D01*
X-397086Y-81218D01*
X-395032Y-79164D01*
X-393580Y-76648D01*
X-392828Y-73842D01*
Y-70938D01*
X-393580Y-68132D01*
X-395032Y-65616D01*
X-397086Y-63562D01*
X-399602Y-62110D01*
X-402408Y-61358D01*
D02*
G37*
G36*
X-951102Y-77380D02*
X-957380D01*
Y-83659D01*
X-955709Y-83211D01*
X-953971Y-82207D01*
X-952552Y-80789D01*
X-951549Y-79051D01*
X-951102Y-77380D01*
D02*
G37*
G36*
X-959920D02*
X-966199D01*
X-965751Y-79051D01*
X-964747Y-80789D01*
X-963329Y-82207D01*
X-961591Y-83211D01*
X-959920Y-83659D01*
Y-77380D01*
D02*
G37*
G36*
X17708Y-77470D02*
X11430D01*
Y-83749D01*
X13101Y-83301D01*
X14839Y-82297D01*
X16257Y-80879D01*
X17261Y-79141D01*
X17708Y-77470D01*
D02*
G37*
G36*
X8890D02*
X2612D01*
X3059Y-79141D01*
X4062Y-80879D01*
X5481Y-82297D01*
X7219Y-83301D01*
X8890Y-83749D01*
Y-77470D01*
D02*
G37*
G36*
X-14042D02*
X-20320D01*
Y-83749D01*
X-18649Y-83301D01*
X-16911Y-82297D01*
X-15493Y-80879D01*
X-14489Y-79141D01*
X-14042Y-77470D01*
D02*
G37*
G36*
X-22860D02*
X-29139D01*
X-28691Y-79141D01*
X-27687Y-80879D01*
X-26269Y-82297D01*
X-24531Y-83301D01*
X-22860Y-83749D01*
Y-77470D01*
D02*
G37*
G36*
X-580208Y-61358D02*
X-583112D01*
X-585918Y-62110D01*
X-588434Y-63562D01*
X-590488Y-65616D01*
X-591940Y-68132D01*
X-592692Y-70938D01*
Y-73842D01*
X-591940Y-76648D01*
X-590488Y-79164D01*
X-588434Y-81218D01*
X-585918Y-82670D01*
X-585229Y-82855D01*
Y-84170D01*
X-587095Y-84670D01*
X-590305Y-86523D01*
X-592927Y-89145D01*
X-594780Y-92355D01*
X-595740Y-95936D01*
Y-96520D01*
X-581660D01*
X-567580D01*
Y-95936D01*
X-568540Y-92355D01*
X-570393Y-89145D01*
X-573015Y-86523D01*
X-576225Y-84670D01*
X-578091Y-84170D01*
Y-82855D01*
X-577402Y-82670D01*
X-574886Y-81218D01*
X-572832Y-79164D01*
X-571380Y-76648D01*
X-570628Y-73842D01*
Y-70938D01*
X-571380Y-68132D01*
X-572832Y-65616D01*
X-574886Y-63562D01*
X-577402Y-62110D01*
X-580208Y-61358D01*
D02*
G37*
G36*
X-402408Y-86758D02*
X-405312D01*
X-408118Y-87510D01*
X-410634Y-88962D01*
X-412688Y-91016D01*
X-414140Y-93532D01*
X-414892Y-96338D01*
Y-99242D01*
X-414140Y-102048D01*
X-412688Y-104564D01*
X-410634Y-106618D01*
X-408118Y-108070D01*
X-405312Y-108822D01*
X-402408D01*
X-399602Y-108070D01*
X-397086Y-106618D01*
X-395032Y-104564D01*
X-393580Y-102048D01*
X-392828Y-99242D01*
Y-96338D01*
X-393580Y-93532D01*
X-395032Y-91016D01*
X-397086Y-88962D01*
X-399602Y-87510D01*
X-402408Y-86758D01*
D02*
G37*
G36*
X-441431Y-100655D02*
X-441665D01*
Y-110815D01*
X-431505D01*
Y-110580D01*
X-432284Y-107673D01*
X-433789Y-105067D01*
X-435917Y-102939D01*
X-438523Y-101434D01*
X-441431Y-100655D01*
D02*
G37*
G36*
X-444205D02*
X-444440D01*
X-447347Y-101434D01*
X-449953Y-102939D01*
X-452082Y-105067D01*
X-453586Y-107673D01*
X-454365Y-110580D01*
Y-110815D01*
X-444205D01*
Y-100655D01*
D02*
G37*
G36*
X-957380Y-106662D02*
Y-112940D01*
X-951102D01*
X-951549Y-111269D01*
X-952552Y-109531D01*
X-953971Y-108112D01*
X-955709Y-107109D01*
X-957380Y-106662D01*
D02*
G37*
G36*
X-959920D02*
X-961591Y-107109D01*
X-963329Y-108112D01*
X-964747Y-109531D01*
X-965751Y-111269D01*
X-966199Y-112940D01*
X-959920D01*
Y-106662D01*
D02*
G37*
G36*
X11430Y-106751D02*
Y-113030D01*
X17708D01*
X17261Y-111359D01*
X16257Y-109621D01*
X14839Y-108202D01*
X13101Y-107199D01*
X11430Y-106751D01*
D02*
G37*
G36*
X8890D02*
X7219Y-107199D01*
X5481Y-108202D01*
X4062Y-109621D01*
X3059Y-111359D01*
X2612Y-113030D01*
X8890D01*
Y-106751D01*
D02*
G37*
G36*
X-20320D02*
Y-113030D01*
X-14042D01*
X-14489Y-111359D01*
X-15493Y-109621D01*
X-16911Y-108202D01*
X-18649Y-107199D01*
X-20320Y-106751D01*
D02*
G37*
G36*
X-22860D02*
X-24531Y-107199D01*
X-26269Y-108202D01*
X-27687Y-109621D01*
X-28691Y-111359D01*
X-29139Y-113030D01*
X-22860D01*
Y-106751D01*
D02*
G37*
G36*
X-289174Y-105060D02*
X-289560D01*
Y-116370D01*
X-278250D01*
Y-115984D01*
X-279107Y-112784D01*
X-280763Y-109916D01*
X-283106Y-107573D01*
X-285974Y-105917D01*
X-289174Y-105060D01*
D02*
G37*
G36*
X-292100D02*
X-292486D01*
X-295686Y-105917D01*
X-298554Y-107573D01*
X-300896Y-109916D01*
X-302553Y-112784D01*
X-303410Y-115984D01*
Y-116370D01*
X-292100D01*
Y-105060D01*
D02*
G37*
G36*
X-951102Y-115480D02*
X-957380D01*
Y-121758D01*
X-955709Y-121311D01*
X-953971Y-120308D01*
X-952552Y-118889D01*
X-951549Y-117151D01*
X-951102Y-115480D01*
D02*
G37*
G36*
X-959920D02*
X-966199D01*
X-965751Y-117151D01*
X-964747Y-118889D01*
X-963329Y-120308D01*
X-961591Y-121311D01*
X-959920Y-121758D01*
Y-115480D01*
D02*
G37*
G36*
X17708Y-115570D02*
X11430D01*
Y-121848D01*
X13101Y-121401D01*
X14839Y-120398D01*
X16257Y-118979D01*
X17261Y-117241D01*
X17708Y-115570D01*
D02*
G37*
G36*
X8890D02*
X2612D01*
X3059Y-117241D01*
X4062Y-118979D01*
X5481Y-120398D01*
X7219Y-121401D01*
X8890Y-121848D01*
Y-115570D01*
D02*
G37*
G36*
X-14042D02*
X-20320D01*
Y-121848D01*
X-18649Y-121401D01*
X-16911Y-120398D01*
X-15493Y-118979D01*
X-14489Y-117241D01*
X-14042Y-115570D01*
D02*
G37*
G36*
X-22860D02*
X-29139D01*
X-28691Y-117241D01*
X-27687Y-118979D01*
X-26269Y-120398D01*
X-24531Y-121401D01*
X-22860Y-121848D01*
Y-115570D01*
D02*
G37*
G36*
X-431505Y-113355D02*
X-441665D01*
Y-123515D01*
X-441431D01*
X-438523Y-122736D01*
X-435917Y-121231D01*
X-433789Y-119103D01*
X-432284Y-116497D01*
X-431505Y-113590D01*
Y-113355D01*
D02*
G37*
G36*
X-444205D02*
X-454365D01*
Y-113590D01*
X-453586Y-116497D01*
X-452082Y-119103D01*
X-449953Y-121231D01*
X-447347Y-122736D01*
X-444440Y-123515D01*
X-444205D01*
Y-113355D01*
D02*
G37*
G36*
X-823161Y-124658D02*
X-824979D01*
X-826660Y-125354D01*
X-827880Y-126574D01*
X-829100Y-125354D01*
X-830781Y-124658D01*
X-832599D01*
X-834280Y-125354D01*
X-835500Y-126574D01*
X-836720Y-125354D01*
X-838401Y-124658D01*
X-840219D01*
X-841900Y-125354D01*
X-843120Y-126574D01*
X-844340Y-125354D01*
X-846021Y-124658D01*
X-847839D01*
X-849520Y-125354D01*
X-850806Y-126640D01*
X-851502Y-128321D01*
Y-130139D01*
X-850806Y-131820D01*
X-850221Y-132405D01*
X-850806Y-132990D01*
X-851502Y-134671D01*
Y-136489D01*
X-850806Y-138170D01*
X-849520Y-139456D01*
X-847839Y-140152D01*
X-846021D01*
X-844340Y-139456D01*
X-843120Y-138236D01*
X-841900Y-139456D01*
X-840219Y-140152D01*
X-838401D01*
X-836720Y-139456D01*
X-835500Y-138236D01*
X-834280Y-139456D01*
X-832599Y-140152D01*
X-830781D01*
X-829100Y-139456D01*
X-827880Y-138236D01*
X-826660Y-139456D01*
X-824979Y-140152D01*
X-823161D01*
X-821480Y-139456D01*
X-820194Y-138170D01*
X-819498Y-136489D01*
Y-134671D01*
X-820194Y-132990D01*
X-820779Y-132405D01*
X-820194Y-131820D01*
X-819498Y-130139D01*
Y-128321D01*
X-820194Y-126640D01*
X-821480Y-125354D01*
X-823161Y-124658D01*
D02*
G37*
G36*
X-137175Y-108108D02*
X-139685D01*
X-142109Y-108758D01*
X-144283Y-110013D01*
X-146058Y-111787D01*
X-147312Y-113961D01*
X-147962Y-116385D01*
Y-118895D01*
X-147312Y-121319D01*
X-146058Y-123493D01*
X-144283Y-125267D01*
X-142109Y-126522D01*
X-139685Y-127172D01*
X-137175D01*
X-134751Y-126522D01*
X-132577Y-125267D01*
X-130802Y-123493D01*
X-129548Y-121319D01*
X-128898Y-118895D01*
Y-116385D01*
X-129548Y-113961D01*
X-130802Y-111787D01*
X-132577Y-110013D01*
X-134751Y-108758D01*
X-137175Y-108108D01*
D02*
G37*
G36*
X-162575D02*
X-165085D01*
X-167509Y-108758D01*
X-169683Y-110013D01*
X-171458Y-111787D01*
X-172712Y-113961D01*
X-173362Y-116385D01*
Y-118895D01*
X-172712Y-121319D01*
X-171458Y-123493D01*
X-169683Y-125267D01*
X-167509Y-126522D01*
X-165085Y-127172D01*
X-162575D01*
X-160151Y-126522D01*
X-157977Y-125267D01*
X-156202Y-123493D01*
X-154948Y-121319D01*
X-154298Y-118895D01*
Y-116385D01*
X-154948Y-113961D01*
X-156202Y-111787D01*
X-157977Y-110013D01*
X-160151Y-108758D01*
X-162575Y-108108D01*
D02*
G37*
G36*
X-187975D02*
X-190485D01*
X-192909Y-108758D01*
X-195083Y-110013D01*
X-196857Y-111787D01*
X-198112Y-113961D01*
X-198762Y-116385D01*
Y-118895D01*
X-198112Y-121319D01*
X-196857Y-123493D01*
X-195083Y-125267D01*
X-192909Y-126522D01*
X-190485Y-127172D01*
X-187975D01*
X-185551Y-126522D01*
X-183377Y-125267D01*
X-181602Y-123493D01*
X-180348Y-121319D01*
X-179698Y-118895D01*
Y-116385D01*
X-180348Y-113961D01*
X-181602Y-111787D01*
X-183377Y-110013D01*
X-185551Y-108758D01*
X-187975Y-108108D01*
D02*
G37*
G36*
X-213375D02*
X-215885D01*
X-218309Y-108758D01*
X-220483Y-110013D01*
X-222257Y-111787D01*
X-223512Y-113961D01*
X-224162Y-116385D01*
Y-118895D01*
X-223512Y-121319D01*
X-222257Y-123493D01*
X-220483Y-125267D01*
X-218309Y-126522D01*
X-215885Y-127172D01*
X-213375D01*
X-210951Y-126522D01*
X-208777Y-125267D01*
X-207003Y-123493D01*
X-205748Y-121319D01*
X-205098Y-118895D01*
Y-116385D01*
X-205748Y-113961D01*
X-207003Y-111787D01*
X-208777Y-110013D01*
X-210951Y-108758D01*
X-213375Y-108108D01*
D02*
G37*
G36*
X-238775D02*
X-241285D01*
X-243709Y-108758D01*
X-245883Y-110013D01*
X-247658Y-111787D01*
X-248912Y-113961D01*
X-249562Y-116385D01*
Y-118895D01*
X-248912Y-121319D01*
X-247658Y-123493D01*
X-245883Y-125267D01*
X-243709Y-126522D01*
X-241285Y-127172D01*
X-238775D01*
X-236351Y-126522D01*
X-234177Y-125267D01*
X-232402Y-123493D01*
X-231148Y-121319D01*
X-230498Y-118895D01*
Y-116385D01*
X-231148Y-113961D01*
X-232402Y-111787D01*
X-234177Y-110013D01*
X-236351Y-108758D01*
X-238775Y-108108D01*
D02*
G37*
G36*
X-264175D02*
X-266685D01*
X-269109Y-108758D01*
X-271283Y-110013D01*
X-273057Y-111787D01*
X-274312Y-113961D01*
X-274962Y-116385D01*
Y-118895D01*
X-274312Y-121319D01*
X-273057Y-123493D01*
X-271283Y-125267D01*
X-269109Y-126522D01*
X-266685Y-127172D01*
X-264175D01*
X-261751Y-126522D01*
X-259577Y-125267D01*
X-257803Y-123493D01*
X-256548Y-121319D01*
X-255898Y-118895D01*
Y-116385D01*
X-256548Y-113961D01*
X-257803Y-111787D01*
X-259577Y-110013D01*
X-261751Y-108758D01*
X-264175Y-108108D01*
D02*
G37*
G36*
X-306698D02*
X-325762D01*
Y-127172D01*
X-306698D01*
Y-108108D01*
D02*
G37*
G36*
X-278250Y-118910D02*
X-289560D01*
Y-130220D01*
X-289174D01*
X-285974Y-129363D01*
X-283106Y-127706D01*
X-280763Y-125364D01*
X-279107Y-122496D01*
X-278250Y-119296D01*
Y-118910D01*
D02*
G37*
G36*
X-292100D02*
X-303410D01*
Y-119296D01*
X-302553Y-122496D01*
X-300896Y-125364D01*
X-298554Y-127706D01*
X-295686Y-129363D01*
X-292486Y-130220D01*
X-292100D01*
Y-118910D01*
D02*
G37*
G36*
X-402408Y-112158D02*
X-405312D01*
X-408118Y-112910D01*
X-410634Y-114362D01*
X-412688Y-116416D01*
X-414140Y-118932D01*
X-414892Y-121738D01*
Y-124642D01*
X-414140Y-127448D01*
X-412688Y-129964D01*
X-410634Y-132018D01*
X-408118Y-133470D01*
X-405312Y-134222D01*
X-402408D01*
X-399602Y-133470D01*
X-397086Y-132018D01*
X-395032Y-129964D01*
X-393580Y-127448D01*
X-392828Y-124642D01*
Y-121738D01*
X-393580Y-118932D01*
X-395032Y-116416D01*
X-397086Y-114362D01*
X-399602Y-112910D01*
X-402408Y-112158D01*
D02*
G37*
G36*
X-567580Y-99060D02*
X-581660D01*
X-595740D01*
Y-99644D01*
X-594780Y-103225D01*
X-592927Y-106435D01*
X-590305Y-109057D01*
X-587095Y-110910D01*
X-585229Y-111410D01*
Y-112725D01*
X-585918Y-112910D01*
X-588434Y-114362D01*
X-590488Y-116416D01*
X-591940Y-118932D01*
X-592692Y-121738D01*
Y-124642D01*
X-591940Y-127448D01*
X-590488Y-129964D01*
X-588434Y-132018D01*
X-585918Y-133470D01*
X-583112Y-134222D01*
X-580208D01*
X-577402Y-133470D01*
X-574886Y-132018D01*
X-572832Y-129964D01*
X-571380Y-127448D01*
X-570628Y-124642D01*
Y-121738D01*
X-571380Y-118932D01*
X-572832Y-116416D01*
X-574886Y-114362D01*
X-577402Y-112910D01*
X-578091Y-112725D01*
Y-111410D01*
X-576225Y-110910D01*
X-573015Y-109057D01*
X-570393Y-106435D01*
X-568540Y-103225D01*
X-567580Y-99644D01*
Y-99060D01*
D02*
G37*
G36*
X-8382Y-145110D02*
X-9090D01*
Y-163920D01*
X9720D01*
Y-163212D01*
X8948Y-159333D01*
X7435Y-155679D01*
X5237Y-152390D01*
X2440Y-149593D01*
X-849Y-147395D01*
X-4503Y-145882D01*
X-8382Y-145110D01*
D02*
G37*
G36*
X-11630D02*
X-12338D01*
X-16217Y-145882D01*
X-19871Y-147395D01*
X-23160Y-149593D01*
X-25957Y-152390D01*
X-28155Y-155679D01*
X-29668Y-159333D01*
X-30440Y-163212D01*
Y-163920D01*
X-11630D01*
Y-145110D01*
D02*
G37*
G36*
X-938382D02*
X-939090D01*
Y-163920D01*
X-920280D01*
Y-163212D01*
X-921052Y-159333D01*
X-922565Y-155679D01*
X-924763Y-152390D01*
X-927560Y-149593D01*
X-930849Y-147395D01*
X-934503Y-145882D01*
X-938382Y-145110D01*
D02*
G37*
G36*
X-941630D02*
X-942338D01*
X-946217Y-145882D01*
X-949871Y-147395D01*
X-953160Y-149593D01*
X-955957Y-152390D01*
X-958155Y-155679D01*
X-959668Y-159333D01*
X-960440Y-163212D01*
Y-163920D01*
X-941630D01*
Y-145110D01*
D02*
G37*
G36*
X9720Y-166460D02*
X-9090D01*
Y-185270D01*
X-8382D01*
X-4503Y-184498D01*
X-849Y-182985D01*
X2440Y-180787D01*
X5237Y-177990D01*
X7435Y-174701D01*
X8948Y-171047D01*
X9720Y-167168D01*
Y-166460D01*
D02*
G37*
G36*
X-11630D02*
X-30440D01*
Y-167168D01*
X-29668Y-171047D01*
X-28155Y-174701D01*
X-25957Y-177990D01*
X-23160Y-180787D01*
X-19871Y-182985D01*
X-16217Y-184498D01*
X-12338Y-185270D01*
X-11630D01*
Y-166460D01*
D02*
G37*
G36*
X-920280D02*
X-939090D01*
Y-185270D01*
X-938382D01*
X-934503Y-184498D01*
X-930849Y-182985D01*
X-927560Y-180787D01*
X-924763Y-177990D01*
X-922565Y-174701D01*
X-921052Y-171047D01*
X-920280Y-167168D01*
Y-166460D01*
D02*
G37*
G36*
X-941630D02*
X-960440D01*
Y-167168D01*
X-959668Y-171047D01*
X-958155Y-174701D01*
X-955957Y-177990D01*
X-953160Y-180787D01*
X-949871Y-182985D01*
X-946217Y-184498D01*
X-942338Y-185270D01*
X-941630D01*
Y-166460D01*
D02*
G37*
%LPD*%
D50*
X-675640Y246110D02*
D03*
Y295110D02*
D03*
D51*
X-316230Y-117640D02*
D03*
D52*
X-138430D02*
D03*
X-163830D02*
D03*
X-189230D02*
D03*
X-214630D02*
D03*
X-240030D02*
D03*
X-265430D02*
D03*
X-290830D02*
D03*
X-881380Y138900D02*
D03*
Y113500D02*
D03*
Y88100D02*
D03*
Y62700D02*
D03*
Y37300D02*
D03*
X-69850Y62700D02*
D03*
Y88100D02*
D03*
Y113500D02*
D03*
Y138900D02*
D03*
Y164300D02*
D03*
D53*
X-581660Y-123190D02*
D03*
Y-97790D02*
D03*
Y-72390D02*
D03*
Y-46990D02*
D03*
Y-21590D02*
D03*
Y3810D02*
D03*
Y29210D02*
D03*
Y54610D02*
D03*
Y80010D02*
D03*
Y105410D02*
D03*
Y130810D02*
D03*
Y156210D02*
D03*
Y181610D02*
D03*
Y207010D02*
D03*
Y232410D02*
D03*
Y257810D02*
D03*
Y283210D02*
D03*
Y308610D02*
D03*
Y334010D02*
D03*
X-403860Y-97790D02*
D03*
Y-72390D02*
D03*
Y-46990D02*
D03*
Y-21590D02*
D03*
Y3810D02*
D03*
Y29210D02*
D03*
Y54610D02*
D03*
Y80010D02*
D03*
Y105410D02*
D03*
Y130810D02*
D03*
Y156210D02*
D03*
Y181610D02*
D03*
Y207010D02*
D03*
Y232410D02*
D03*
Y257810D02*
D03*
Y283210D02*
D03*
Y308610D02*
D03*
Y334010D02*
D03*
Y-123190D02*
D03*
Y359410D02*
D03*
D54*
X-581660D02*
D03*
D55*
X-868040Y236380D02*
D03*
X-796040D02*
D03*
D56*
X-899540Y296380D02*
D03*
X-764540D02*
D03*
D57*
X-881380Y164300D02*
D03*
X-69850Y37300D02*
D03*
D58*
X-157480Y387350D02*
D03*
X-119380D02*
D03*
X-81280D02*
D03*
X-43180D02*
D03*
X-386080D02*
D03*
X-347980D02*
D03*
X-462280D02*
D03*
X-424180D02*
D03*
X-271780D02*
D03*
X-233680D02*
D03*
X-195580D02*
D03*
X-309880D02*
D03*
X-958650Y90D02*
D03*
Y-38010D02*
D03*
Y-76110D02*
D03*
Y-114210D02*
D03*
Y228690D02*
D03*
Y190590D02*
D03*
Y304890D02*
D03*
Y266790D02*
D03*
Y114390D02*
D03*
Y76290D02*
D03*
Y38190D02*
D03*
Y152490D02*
D03*
X-21590Y0D02*
D03*
Y-38100D02*
D03*
Y-76200D02*
D03*
Y-114300D02*
D03*
Y228600D02*
D03*
Y190500D02*
D03*
Y304800D02*
D03*
Y266700D02*
D03*
Y38100D02*
D03*
Y152400D02*
D03*
X10160D02*
D03*
Y38100D02*
D03*
Y76200D02*
D03*
Y114300D02*
D03*
Y266700D02*
D03*
Y304800D02*
D03*
Y190500D02*
D03*
Y228600D02*
D03*
Y-114300D02*
D03*
Y-76200D02*
D03*
Y-38100D02*
D03*
Y0D02*
D03*
X-711886Y-29132D02*
D03*
X-706120Y5080D02*
D03*
X-718820D02*
D03*
X-691896Y-81788D02*
D03*
X-686562D02*
D03*
X-730898D02*
D03*
X-725564D02*
D03*
X-805020Y-129230D02*
D03*
X-797400D02*
D03*
X-805020Y-135580D02*
D03*
X-789780Y-129230D02*
D03*
X-797400Y-135580D02*
D03*
X-789780D02*
D03*
X-846930Y-129230D02*
D03*
Y-135580D02*
D03*
X-835660Y55080D02*
D03*
Y61430D02*
D03*
X-829310Y55080D02*
D03*
X-839310Y-129230D02*
D03*
Y-135580D02*
D03*
X-822960Y55080D02*
D03*
Y61430D02*
D03*
X-831690Y-129230D02*
D03*
Y-135580D02*
D03*
X-816610Y55080D02*
D03*
Y61430D02*
D03*
X-824070Y-135580D02*
D03*
X-812640D02*
D03*
X-824070Y-129230D02*
D03*
X-812640D02*
D03*
X-798830Y10160D02*
D03*
X-792480D02*
D03*
X-798830Y17780D02*
D03*
X-792480D02*
D03*
X-798830Y25400D02*
D03*
X-792480D02*
D03*
X-810260Y55080D02*
D03*
Y61430D02*
D03*
X-829310D02*
D03*
X-788539Y64168D02*
D03*
X-782908Y64115D02*
D03*
X-720090Y108420D02*
D03*
X-708660D02*
D03*
X-697230D02*
D03*
X-720090Y117310D02*
D03*
X-708660D02*
D03*
X-697230D02*
D03*
X-720090Y126200D02*
D03*
X-708660D02*
D03*
X-697230D02*
D03*
X-137160Y198590D02*
D03*
X-127635D02*
D03*
X-108585D02*
D03*
X-165735D02*
D03*
X-156210D02*
D03*
X-118110D02*
D03*
X-146685D02*
D03*
X-777277Y64090D02*
D03*
D59*
X-303676Y108D02*
D03*
X-151746D02*
D03*
X-940360Y-165190D02*
D03*
Y364810D02*
D03*
X-10360Y-165190D02*
D03*
Y364810D02*
D03*
D60*
X-648970Y-74930D02*
D03*
X-646430Y-62230D02*
D03*
X-657860D02*
D03*
X-191242Y189255D02*
D03*
X-314960Y287490D02*
D03*
X-302664Y251654D02*
D03*
X-295910Y287490D02*
D03*
X-280670Y251415D02*
D03*
X-276860Y287490D02*
D03*
X-271780Y242031D02*
D03*
X-259080Y287490D02*
D03*
X-254239Y251138D02*
D03*
X-180340Y198590D02*
D03*
X-240030Y243040D02*
D03*
X-207010Y244310D02*
D03*
X-240030Y287490D02*
D03*
X-109220D02*
D03*
X-146050D02*
D03*
X-128270D02*
D03*
X-160020Y307810D02*
D03*
X-128270D02*
D03*
D61*
X-760730Y-62230D02*
D03*
X-744220Y199390D02*
D03*
X-462280Y163030D02*
D03*
Y182080D02*
D03*
X-452120Y133820D02*
D03*
X-750570Y43650D02*
D03*
X-702310D02*
D03*
X-685800D02*
D03*
X-697445Y181025D02*
D03*
X-462280Y207480D02*
D03*
X-442935Y-112085D02*
D03*
X-265430Y-69380D02*
D03*
X-240030D02*
D03*
X-462280Y226530D02*
D03*
X-452120Y255740D02*
D03*
X-679450Y143980D02*
D03*
D62*
X-651510Y-26670D02*
D03*
Y-17780D02*
D03*
X-633730D02*
D03*
X-624840D02*
D03*
X-642620D02*
D03*
X-624840Y-26670D02*
D03*
X-633730D02*
D03*
X-642620D02*
D03*
M02*
