G04*
G04 #@! TF.GenerationSoftware,Altium Limited,Altium Designer,22.11.1 (43)*
G04*
G04 Layer_Color=32896*
%FSLAX44Y44*%
%MOMM*%
G71*
G04*
G04 #@! TF.SameCoordinates,30CB15ED-5B5F-4030-944F-8374E8F7CEFA*
G04*
G04*
G04 #@! TF.FilePolarity,Positive*
G04*
G01*
G75*
%ADD11C,0.2540*%
%ADD12C,0.1524*%
%ADD13C,0.2000*%
%ADD67C,0.2032*%
%ADD68C,0.1000*%
G36*
X-202184Y277585D02*
X-204216D01*
Y278601D01*
Y279617D01*
X-202184D01*
Y277585D01*
D02*
G37*
G36*
X-209804D02*
X-211836D01*
Y278601D01*
Y279617D01*
X-209804D01*
Y277585D01*
D02*
G37*
G36*
X-202819Y274156D02*
X-211201D01*
Y275426D01*
X-202819D01*
Y274156D01*
D02*
G37*
D11*
X-457842Y178078D02*
G03*
X-454744Y174980I3098J0D01*
G01*
Y189176D02*
G03*
X-457842Y186078I0J-3098D01*
G01*
X-432985Y175038D02*
G03*
X-429887Y178136I0J3098D01*
G01*
Y186136D02*
G03*
X-432985Y189234I-3098J0D01*
G01*
X-273439Y258195D02*
G03*
X-270341Y261293I0J3098D01*
G01*
X-284537D02*
G03*
X-281439Y258195I3098J0D01*
G01*
X-270399Y283052D02*
G03*
X-273497Y286150I-3098J0D01*
G01*
X-281497D02*
G03*
X-284595Y283052I0J-3098D01*
G01*
X-254706Y258195D02*
G03*
X-251608Y261293I0J3098D01*
G01*
X-265805D02*
G03*
X-262706Y258195I3098J0D01*
G01*
X-251666Y283052D02*
G03*
X-254765Y286150I-3098J0D01*
G01*
X-262764D02*
G03*
X-265863Y283052I0J-3098D01*
G01*
X-235974Y258195D02*
G03*
X-232876Y261293I0J3098D01*
G01*
X-247072D02*
G03*
X-243974Y258195I3098J0D01*
G01*
X-232934Y283052D02*
G03*
X-236032Y286150I-3098J0D01*
G01*
X-244032D02*
G03*
X-247130Y283052I0J-3098D01*
G01*
X-124214Y258195D02*
G03*
X-121116Y261293I0J3098D01*
G01*
X-135312D02*
G03*
X-132214Y258195I3098J0D01*
G01*
X-121174Y283052D02*
G03*
X-124272Y286150I-3098J0D01*
G01*
X-132272D02*
G03*
X-135370Y283052I0J-3098D01*
G01*
X-105164Y258195D02*
G03*
X-102066Y261293I0J3098D01*
G01*
X-116262D02*
G03*
X-113164Y258195I3098J0D01*
G01*
X-102124Y283052D02*
G03*
X-105222Y286150I-3098J0D01*
G01*
X-113222D02*
G03*
X-116320Y283052I0J-3098D01*
G01*
X-450315Y-127246D02*
G03*
X-447217Y-130344I3098J0D01*
G01*
Y-116148D02*
G03*
X-450315Y-119246I0J-3098D01*
G01*
X-425458Y-130286D02*
G03*
X-422360Y-127188I0J3098D01*
G01*
Y-119188D02*
G03*
X-425458Y-116090I-3098J0D01*
G01*
X-457842Y203478D02*
G03*
X-454744Y200380I3098J0D01*
G01*
Y214576D02*
G03*
X-457842Y211478I0J-3098D01*
G01*
X-432985Y200438D02*
G03*
X-429887Y203536I0J3098D01*
G01*
Y211536D02*
G03*
X-432985Y214634I-3098J0D01*
G01*
X-310904Y258195D02*
G03*
X-307806Y261293I0J3098D01*
G01*
X-322002D02*
G03*
X-318904Y258195I3098J0D01*
G01*
X-307864Y283052D02*
G03*
X-310962Y286150I-3098J0D01*
G01*
X-318962D02*
G03*
X-322060Y283052I0J-3098D01*
G01*
X-292171Y258195D02*
G03*
X-289073Y261293I0J3098D01*
G01*
X-303270D02*
G03*
X-300171Y258195I3098J0D01*
G01*
X-289131Y283052D02*
G03*
X-292230Y286150I-3098J0D01*
G01*
X-300229D02*
G03*
X-303328Y283052I0J-3098D01*
G01*
X-440986Y175038D02*
X-432986D01*
X-429888Y178136D02*
Y186136D01*
X-440986Y189234D02*
X-432986D01*
X-454745Y174980D02*
X-446745D01*
X-454745Y189176D02*
X-446745D01*
X-457842Y178078D02*
Y186078D01*
X-317157Y179586D02*
X-270157D01*
X-317218Y179647D02*
X-317157Y179586D01*
X-317218Y179647D02*
Y233200D01*
X-149156Y178585D02*
X-101216D01*
Y232199D01*
X-260157Y178585D02*
X-158156D01*
X-281497Y286150D02*
X-273497D01*
X-270399Y275053D02*
Y283052D01*
X-284595Y275053D02*
Y283052D01*
X-270341Y261294D02*
Y269294D01*
X-281439Y258195D02*
X-273439D01*
X-284537Y261294D02*
Y269294D01*
X-262765Y286150D02*
X-254765D01*
X-251666Y275053D02*
Y283052D01*
X-265863Y275053D02*
Y283052D01*
X-251608Y261294D02*
Y269294D01*
X-262706Y258195D02*
X-254706D01*
X-265804Y261294D02*
Y269294D01*
X-244032Y286150D02*
X-236032D01*
X-232934Y275053D02*
Y283052D01*
X-247130Y275053D02*
Y283052D01*
X-232876Y261294D02*
Y269294D01*
X-243974Y258195D02*
X-235974D01*
X-247072Y261294D02*
Y269294D01*
X-132273Y286150D02*
X-124272D01*
X-121174Y275053D02*
Y283052D01*
X-135370Y275053D02*
Y283052D01*
X-121116Y261294D02*
Y269294D01*
X-132214Y258195D02*
X-124214D01*
X-135312Y261294D02*
Y269294D01*
X-113223Y286150D02*
X-105222D01*
X-102124Y275053D02*
Y283052D01*
X-116320Y275053D02*
Y283052D01*
X-102066Y261294D02*
Y269294D01*
X-113164Y258195D02*
X-105164D01*
X-116262Y261294D02*
Y269294D01*
X-422360Y-127188D02*
Y-119187D01*
X-433458Y-130286D02*
X-425458D01*
X-433458Y-116090D02*
X-425458D01*
X-447216Y-130344D02*
X-439216D01*
X-450315Y-127246D02*
Y-119246D01*
X-447216Y-116148D02*
X-439216D01*
X-440986Y200438D02*
X-432986D01*
X-429888Y203536D02*
Y211536D01*
X-440986Y214634D02*
X-432986D01*
X-454745Y200380D02*
X-446745D01*
X-454745Y214576D02*
X-446745D01*
X-457842Y203477D02*
Y211478D01*
X-318962Y286150D02*
X-310962D01*
X-307864Y275053D02*
Y283052D01*
X-322060Y275053D02*
Y283052D01*
X-307806Y261294D02*
Y269294D01*
X-318904Y258195D02*
X-310904D01*
X-322002Y261294D02*
Y269294D01*
X-300230Y286150D02*
X-292230D01*
X-289131Y275053D02*
Y283052D01*
X-303328Y275053D02*
Y283052D01*
X-289073Y261294D02*
Y269294D01*
X-300171Y258195D02*
X-292171D01*
X-303269Y261294D02*
Y269294D01*
X13970Y332889D02*
X10638D01*
X12304D01*
Y322892D01*
X13970D01*
X10638D01*
X5639Y332889D02*
X2307D01*
X3973D01*
Y322892D01*
X5639D01*
X2307D01*
X-9356Y331223D02*
X-7690Y332889D01*
X-4357D01*
X-2691Y331223D01*
Y324558D01*
X-4357Y322892D01*
X-7690D01*
X-9356Y324558D01*
X-22685Y322892D02*
Y329557D01*
X-26017Y332889D01*
X-29349Y329557D01*
Y322892D01*
Y327891D01*
X-22685D01*
X-39346Y332889D02*
Y322892D01*
X-34348D01*
X-32682Y324558D01*
Y327891D01*
X-34348Y329557D01*
X-39346D01*
X-49343Y332889D02*
Y322892D01*
X-44345D01*
X-42678Y324558D01*
Y327891D01*
X-44345Y329557D01*
X-49343D01*
X-52675D02*
Y322892D01*
Y326224D01*
X-54341Y327891D01*
X-56007Y329557D01*
X-57674D01*
X-67670Y322892D02*
X-64338D01*
X-62672Y324558D01*
Y327891D01*
X-64338Y329557D01*
X-67670D01*
X-69337Y327891D01*
Y326224D01*
X-62672D01*
X-72669Y322892D02*
X-77667D01*
X-79333Y324558D01*
X-77667Y326224D01*
X-74335D01*
X-72669Y327891D01*
X-74335Y329557D01*
X-79333D01*
X-82666Y322892D02*
X-87664D01*
X-89330Y324558D01*
X-87664Y326224D01*
X-84332D01*
X-82666Y327891D01*
X-84332Y329557D01*
X-89330D01*
X-2691Y313131D02*
X-1025Y314797D01*
X2307D01*
X3973Y313131D01*
Y311465D01*
X2307Y309798D01*
X-1025D01*
X-2691Y308132D01*
Y306466D01*
X-1025Y304800D01*
X2307D01*
X3973Y306466D01*
X-11022Y304800D02*
X-7690D01*
X-6024Y306466D01*
Y309798D01*
X-7690Y311465D01*
X-11022D01*
X-12688Y309798D01*
Y308132D01*
X-6024D01*
X-16020Y304800D02*
X-19353D01*
X-17687D01*
Y314797D01*
X-16020D01*
X-29349Y304800D02*
X-26017D01*
X-24351Y306466D01*
Y309798D01*
X-26017Y311465D01*
X-29349D01*
X-31016Y309798D01*
Y308132D01*
X-24351D01*
X-41012Y311465D02*
X-36014D01*
X-34348Y309798D01*
Y306466D01*
X-36014Y304800D01*
X-41012D01*
X-46011Y313131D02*
Y311465D01*
X-44345D01*
X-47677D01*
X-46011D01*
Y306466D01*
X-47677Y304800D01*
X-62672Y311465D02*
X-64338D01*
Y309798D01*
X-62672D01*
Y311465D01*
Y306466D02*
X-64338D01*
Y304800D01*
X-62672D01*
Y306466D01*
X-692150Y-83740D02*
X-695536Y-90512D01*
X-698921Y-83740D01*
X-709078Y-90512D02*
X-702307D01*
X-709078Y-83740D01*
Y-82048D01*
X-707385Y-80355D01*
X-703999D01*
X-702307Y-82048D01*
X-712463Y-90512D02*
Y-88819D01*
X-714156D01*
Y-90512D01*
X-712463D01*
X-720927Y-82048D02*
X-722620Y-80355D01*
X-726006D01*
X-727699Y-82048D01*
Y-88819D01*
X-726006Y-90512D01*
X-722620D01*
X-720927Y-88819D01*
Y-82048D01*
X-731084D02*
X-732777Y-80355D01*
X-736162D01*
X-737855Y-82048D01*
Y-88819D01*
X-736162Y-90512D01*
X-732777D01*
X-731084Y-88819D01*
Y-82048D01*
X-698921Y-108796D02*
X-692150D01*
X-698921Y-102024D01*
Y-100332D01*
X-697228Y-98639D01*
X-693843D01*
X-692150Y-100332D01*
X-702307D02*
X-703999Y-98639D01*
X-707385D01*
X-709078Y-100332D01*
Y-107103D01*
X-707385Y-108796D01*
X-703999D01*
X-702307Y-107103D01*
Y-100332D01*
X-719235Y-108796D02*
X-712463D01*
X-719235Y-102024D01*
Y-100332D01*
X-717542Y-98639D01*
X-714156D01*
X-712463Y-100332D01*
X-722620D02*
X-724313Y-98639D01*
X-727699D01*
X-729391Y-100332D01*
Y-102024D01*
X-727699Y-103717D01*
X-726006D01*
X-727699D01*
X-729391Y-105410D01*
Y-107103D01*
X-727699Y-108796D01*
X-724313D01*
X-722620Y-107103D01*
X-732777Y-108796D02*
X-739548Y-102024D01*
X-742934Y-100332D02*
X-744626Y-98639D01*
X-748012D01*
X-749705Y-100332D01*
Y-102024D01*
X-748012Y-103717D01*
X-746319D01*
X-748012D01*
X-749705Y-105410D01*
Y-107103D01*
X-748012Y-108796D01*
X-744626D01*
X-742934Y-107103D01*
X-753090Y-108796D02*
X-759862Y-102024D01*
X-763247Y-100332D02*
X-764940Y-98639D01*
X-768325D01*
X-770018Y-100332D01*
Y-102024D01*
X-768325Y-103717D01*
X-766633D01*
X-768325D01*
X-770018Y-105410D01*
Y-107103D01*
X-768325Y-108796D01*
X-764940D01*
X-763247Y-107103D01*
X-692150Y-116923D02*
Y-127080D01*
X-697228D01*
X-698921Y-125387D01*
Y-118616D01*
X-697228Y-116923D01*
X-692150D01*
X-707385Y-127080D02*
X-703999D01*
X-702307Y-125387D01*
Y-122001D01*
X-703999Y-120309D01*
X-707385D01*
X-709078Y-122001D01*
Y-123694D01*
X-702307D01*
X-712463Y-127080D02*
X-717542D01*
X-719235Y-125387D01*
X-717542Y-123694D01*
X-714156D01*
X-712463Y-122001D01*
X-714156Y-120309D01*
X-719235D01*
X-722620Y-127080D02*
X-726006D01*
X-724313D01*
Y-120309D01*
X-722620D01*
X-734470Y-130465D02*
X-736162D01*
X-737855Y-128772D01*
Y-120309D01*
X-732777D01*
X-731084Y-122001D01*
Y-125387D01*
X-732777Y-127080D01*
X-737855D01*
X-741241D02*
Y-120309D01*
X-746319D01*
X-748012Y-122001D01*
Y-127080D01*
X-756476D02*
X-753090D01*
X-751398Y-125387D01*
Y-122001D01*
X-753090Y-120309D01*
X-756476D01*
X-758169Y-122001D01*
Y-123694D01*
X-751398D01*
X-768325Y-116923D02*
Y-127080D01*
X-763247D01*
X-761554Y-125387D01*
Y-122001D01*
X-763247Y-120309D01*
X-768325D01*
X-781868Y-116923D02*
Y-127080D01*
X-786946D01*
X-788639Y-125387D01*
Y-123694D01*
Y-122001D01*
X-786946Y-120309D01*
X-781868D01*
X-792025D02*
Y-125387D01*
X-793717Y-127080D01*
X-798796D01*
Y-128772D01*
X-797103Y-130465D01*
X-795410D01*
X-798796Y-127080D02*
Y-120309D01*
X-819109Y-118616D02*
X-817416Y-116923D01*
X-814031D01*
X-812338Y-118616D01*
Y-120309D01*
X-814031Y-122001D01*
X-817416D01*
X-819109Y-123694D01*
Y-125387D01*
X-817416Y-127080D01*
X-814031D01*
X-812338Y-125387D01*
X-824187Y-120309D02*
X-827573D01*
X-829266Y-122001D01*
Y-127080D01*
X-824187D01*
X-822495Y-125387D01*
X-824187Y-123694D01*
X-829266D01*
X-832651Y-127080D02*
Y-120309D01*
X-837730D01*
X-839423Y-122001D01*
Y-127080D01*
X-849579Y-116923D02*
Y-127080D01*
X-844501D01*
X-842808Y-125387D01*
Y-122001D01*
X-844501Y-120309D01*
X-849579D01*
X-852965Y-127080D02*
Y-120309D01*
X-854658D01*
X-856350Y-122001D01*
Y-127080D01*
Y-122001D01*
X-858043Y-120309D01*
X-859736Y-122001D01*
Y-127080D01*
X-864814Y-120309D02*
X-868200D01*
X-869893Y-122001D01*
Y-127080D01*
X-864814D01*
X-863121Y-125387D01*
X-864814Y-123694D01*
X-869893D01*
X-873278Y-127080D02*
Y-120309D01*
X-878357D01*
X-880049Y-122001D01*
Y-127080D01*
X-86360Y311994D02*
X-88053Y313687D01*
X-91438D01*
X-93131Y311994D01*
Y305223D01*
X-91438Y303530D01*
X-88053D01*
X-86360Y305223D01*
Y311994D01*
X-96517Y310301D02*
X-103288Y303530D01*
X-99902Y306916D01*
X-103288Y310301D01*
X-96517Y303530D01*
X-106673Y313687D02*
X-113445D01*
Y311994D01*
X-106673Y305223D01*
Y303530D01*
X-116830Y311994D02*
X-118523Y313687D01*
X-121909D01*
X-123601Y311994D01*
Y310301D01*
X-121909Y308608D01*
X-123601Y306916D01*
Y305223D01*
X-121909Y303530D01*
X-118523D01*
X-116830Y305223D01*
Y306916D01*
X-118523Y308608D01*
X-116830Y310301D01*
Y311994D01*
X-118523Y308608D02*
X-121909D01*
X-193040Y311994D02*
X-194733Y313687D01*
X-198118D01*
X-199811Y311994D01*
Y305223D01*
X-198118Y303530D01*
X-194733D01*
X-193040Y305223D01*
Y311994D01*
X-203197Y310301D02*
X-209968Y303530D01*
X-206582Y306916D01*
X-209968Y310301D01*
X-203197Y303530D01*
X-213353Y313687D02*
X-220125D01*
Y311994D01*
X-213353Y305223D01*
Y303530D01*
X-223510D02*
Y310301D01*
X-226896Y313687D01*
X-230281Y310301D01*
Y303530D01*
Y308608D01*
X-223510D01*
X-465989Y-119858D02*
X-464323Y-118192D01*
X-460990D01*
X-459324Y-119858D01*
Y-126522D01*
X-460990Y-128188D01*
X-464323D01*
X-465989Y-126522D01*
X-469321Y-128188D02*
X-472653D01*
X-470987D01*
Y-118192D01*
X-469321Y-119858D01*
X-477652Y-118192D02*
X-484316D01*
Y-119858D01*
X-477652Y-126522D01*
Y-128188D01*
X-75489Y230258D02*
Y221928D01*
X-77155Y220262D01*
X-80488D01*
X-82154Y221928D01*
Y230258D01*
X-92151D02*
X-88818Y228592D01*
X-85486Y225260D01*
Y221928D01*
X-87152Y220262D01*
X-90485D01*
X-92151Y221928D01*
Y223594D01*
X-90485Y225260D01*
X-85486D01*
X-151048Y340119D02*
X-141052D01*
Y345118D01*
X-142718Y346784D01*
X-146050D01*
X-147716Y345118D01*
Y340119D01*
Y343452D02*
X-151048Y346784D01*
Y350116D02*
Y353448D01*
Y351782D01*
X-141052D01*
X-142718Y350116D01*
X-141052Y365111D02*
X-142718Y361779D01*
X-146050Y358447D01*
X-149382D01*
X-151048Y360113D01*
Y363445D01*
X-149382Y365111D01*
X-147716D01*
X-146050Y363445D01*
Y358447D01*
X-196768Y340119D02*
X-186772D01*
Y345118D01*
X-188438Y346784D01*
X-191770D01*
X-193436Y345118D01*
Y340119D01*
Y343452D02*
X-196768Y346784D01*
Y350116D02*
Y353448D01*
Y351782D01*
X-186772D01*
X-188438Y350116D01*
X-196768Y363445D02*
X-186772D01*
X-191770Y358447D01*
Y365111D01*
X-180258Y340119D02*
X-170262D01*
Y345118D01*
X-171928Y346784D01*
X-175260D01*
X-176926Y345118D01*
Y340119D01*
Y343452D02*
X-180258Y346784D01*
Y350116D02*
Y353448D01*
Y351782D01*
X-170262D01*
X-171928Y350116D01*
X-170262Y365111D02*
Y358447D01*
X-175260D01*
X-173594Y361779D01*
Y363445D01*
X-175260Y365111D01*
X-178592D01*
X-180258Y363445D01*
Y360113D01*
X-178592Y358447D01*
X-226264Y-69298D02*
Y-59302D01*
X-231262D01*
X-232929Y-60968D01*
Y-64300D01*
X-231262Y-65966D01*
X-226264D01*
X-229596D02*
X-232929Y-69298D01*
X-236261D02*
X-239593D01*
X-237927D01*
Y-59302D01*
X-236261Y-60968D01*
X-244592D02*
X-246258Y-59302D01*
X-249590D01*
X-251256Y-60968D01*
Y-62634D01*
X-249590Y-64300D01*
X-247924D01*
X-249590D01*
X-251256Y-65966D01*
Y-67632D01*
X-249590Y-69298D01*
X-246258D01*
X-244592Y-67632D01*
X-255474Y-69298D02*
Y-59302D01*
X-260472D01*
X-262139Y-60968D01*
Y-64300D01*
X-260472Y-65966D01*
X-255474D01*
X-258806D02*
X-262139Y-69298D01*
X-265471D02*
X-268803D01*
X-267137D01*
Y-59302D01*
X-265471Y-60968D01*
X-280466Y-69298D02*
X-273801D01*
X-280466Y-62634D01*
Y-60968D01*
X-278800Y-59302D01*
X-275468D01*
X-273801Y-60968D01*
X-132284Y319322D02*
Y329318D01*
X-137282D01*
X-138948Y327652D01*
Y324320D01*
X-137282Y322654D01*
X-132284D01*
X-135616D02*
X-138948Y319322D01*
X-142281D02*
X-145613D01*
X-143947D01*
Y329318D01*
X-142281Y327652D01*
X-150611D02*
X-152278Y329318D01*
X-155610D01*
X-157276Y327652D01*
Y320988D01*
X-155610Y319322D01*
X-152278D01*
X-150611Y320988D01*
Y327652D01*
X-166929Y319322D02*
Y329318D01*
X-171928D01*
X-173594Y327652D01*
Y324320D01*
X-171928Y322654D01*
X-166929D01*
X-170262D02*
X-173594Y319322D01*
X-176926Y320988D02*
X-178592Y319322D01*
X-181924D01*
X-183591Y320988D01*
Y327652D01*
X-181924Y329318D01*
X-178592D01*
X-176926Y327652D01*
Y325986D01*
X-178592Y324320D01*
X-183591D01*
X-227248Y340119D02*
X-217252D01*
Y345118D01*
X-218918Y346784D01*
X-222250D01*
X-223916Y345118D01*
Y340119D01*
Y343452D02*
X-227248Y346784D01*
Y350116D02*
Y353448D01*
Y351782D01*
X-217252D01*
X-218918Y350116D01*
X-227248Y358447D02*
Y361779D01*
Y360113D01*
X-217252D01*
X-218918Y358447D01*
X-467919Y158032D02*
Y168028D01*
X-472918D01*
X-474584Y166362D01*
Y163030D01*
X-472918Y161364D01*
X-467919D01*
X-471252D02*
X-474584Y158032D01*
X-477916Y168028D02*
X-484581D01*
Y166362D01*
X-477916Y159698D01*
Y158032D01*
X-467919Y221532D02*
Y231528D01*
X-472918D01*
X-474584Y229862D01*
Y226530D01*
X-472918Y224864D01*
X-467919D01*
X-471252D02*
X-474584Y221532D01*
X-484581Y231528D02*
X-481248Y229862D01*
X-477916Y226530D01*
Y223198D01*
X-479582Y221532D01*
X-482915D01*
X-484581Y223198D01*
Y224864D01*
X-482915Y226530D01*
X-477916D01*
X-467919Y140252D02*
Y150248D01*
X-472918D01*
X-474584Y148582D01*
Y145250D01*
X-472918Y143584D01*
X-467919D01*
X-471252D02*
X-474584Y140252D01*
X-484581Y150248D02*
X-477916D01*
Y145250D01*
X-481248Y146916D01*
X-482915D01*
X-484581Y145250D01*
Y141918D01*
X-482915Y140252D01*
X-479582D01*
X-477916Y141918D01*
X-467919Y239312D02*
Y249308D01*
X-472918D01*
X-474584Y247642D01*
Y244310D01*
X-472918Y242644D01*
X-467919D01*
X-471252D02*
X-474584Y239312D01*
X-477916Y247642D02*
X-479582Y249308D01*
X-482915D01*
X-484581Y247642D01*
Y245976D01*
X-482915Y244310D01*
X-484581Y242644D01*
Y240978D01*
X-482915Y239312D01*
X-479582D01*
X-477916Y240978D01*
Y242644D01*
X-479582Y244310D01*
X-477916Y245976D01*
Y247642D01*
X-479582Y244310D02*
X-482915D01*
X-202012Y340119D02*
X-212008D01*
Y345118D01*
X-210342Y346784D01*
X-203678D01*
X-202012Y345118D01*
Y340119D01*
X-212008Y356781D02*
Y350116D01*
X-205344Y356781D01*
X-203678D01*
X-202012Y355115D01*
Y351782D01*
X-203678Y350116D01*
X-105888Y346784D02*
X-104222Y345118D01*
Y341786D01*
X-105888Y340119D01*
X-112552D01*
X-114218Y341786D01*
Y345118D01*
X-112552Y346784D01*
X-114218Y350116D02*
Y353448D01*
Y351782D01*
X-104222D01*
X-105888Y350116D01*
X-104222Y365111D02*
X-105888Y361779D01*
X-109220Y358447D01*
X-112552D01*
X-114218Y360113D01*
Y363445D01*
X-112552Y365111D01*
X-110886D01*
X-109220Y363445D01*
Y358447D01*
X-124938Y346784D02*
X-123272Y345118D01*
Y341786D01*
X-124938Y340119D01*
X-131602D01*
X-133268Y341786D01*
Y345118D01*
X-131602Y346784D01*
X-133268Y350116D02*
Y353448D01*
Y351782D01*
X-123272D01*
X-124938Y350116D01*
X-123272Y365111D02*
Y358447D01*
X-128270D01*
X-126604Y361779D01*
Y363445D01*
X-128270Y365111D01*
X-131602D01*
X-133268Y363445D01*
Y360113D01*
X-131602Y358447D01*
X-236698Y346784D02*
X-235032Y345118D01*
Y341786D01*
X-236698Y340119D01*
X-243362D01*
X-245028Y341786D01*
Y345118D01*
X-243362Y346784D01*
X-245028Y350116D02*
Y353448D01*
Y351782D01*
X-235032D01*
X-236698Y350116D01*
X-245028Y363445D02*
X-235032D01*
X-240030Y358447D01*
Y365111D01*
X-255430Y346784D02*
X-253764Y345118D01*
Y341786D01*
X-255430Y340119D01*
X-262095D01*
X-263761Y341786D01*
Y345118D01*
X-262095Y346784D01*
X-263761Y350116D02*
Y353448D01*
Y351782D01*
X-253764D01*
X-255430Y350116D01*
Y358447D02*
X-253764Y360113D01*
Y363445D01*
X-255430Y365111D01*
X-257096D01*
X-258762Y363445D01*
Y361779D01*
Y363445D01*
X-260429Y365111D01*
X-262095D01*
X-263761Y363445D01*
Y360113D01*
X-262095Y358447D01*
X-273528Y346784D02*
X-271862Y345118D01*
Y341786D01*
X-273528Y340119D01*
X-280192D01*
X-281858Y341786D01*
Y345118D01*
X-280192Y346784D01*
X-281858Y350116D02*
Y353448D01*
Y351782D01*
X-271862D01*
X-273528Y350116D01*
X-281858Y365111D02*
Y358447D01*
X-275194Y365111D01*
X-273528D01*
X-271862Y363445D01*
Y360113D01*
X-273528Y358447D01*
X-292578Y346784D02*
X-290912Y345118D01*
Y341786D01*
X-292578Y340119D01*
X-299242D01*
X-300908Y341786D01*
Y345118D01*
X-299242Y346784D01*
X-300908Y350116D02*
Y353448D01*
Y351782D01*
X-290912D01*
X-292578Y350116D01*
X-300908Y358447D02*
Y361779D01*
Y360113D01*
X-290912D01*
X-292578Y358447D01*
X-311628Y346784D02*
X-309962Y345118D01*
Y341786D01*
X-311628Y340119D01*
X-318292D01*
X-319958Y341786D01*
Y345118D01*
X-318292Y346784D01*
X-319958Y350116D02*
Y353448D01*
Y351782D01*
X-309962D01*
X-311628Y350116D01*
Y358447D02*
X-309962Y360113D01*
Y363445D01*
X-311628Y365111D01*
X-318292D01*
X-319958Y363445D01*
Y360113D01*
X-318292Y358447D01*
X-311628D01*
X-474584Y185412D02*
X-472918Y187078D01*
X-469585D01*
X-467919Y185412D01*
Y178748D01*
X-469585Y177082D01*
X-472918D01*
X-474584Y178748D01*
X-477916D02*
X-479582Y177082D01*
X-482915D01*
X-484581Y178748D01*
Y185412D01*
X-482915Y187078D01*
X-479582D01*
X-477916Y185412D01*
Y183746D01*
X-479582Y182080D01*
X-484581D01*
X-474584Y210812D02*
X-472918Y212478D01*
X-469585D01*
X-467919Y210812D01*
Y204148D01*
X-469585Y202482D01*
X-472918D01*
X-474584Y204148D01*
X-477916Y210812D02*
X-479582Y212478D01*
X-482915D01*
X-484581Y210812D01*
Y209146D01*
X-482915Y207480D01*
X-484581Y205814D01*
Y204148D01*
X-482915Y202482D01*
X-479582D01*
X-477916Y204148D01*
Y205814D01*
X-479582Y207480D01*
X-477916Y209146D01*
Y210812D01*
X-479582Y207480D02*
X-482915D01*
D12*
X-458351Y138644D02*
X-448762D01*
X-458351D02*
Y151856D01*
X-448762D01*
X-440238Y138644D02*
X-430649D01*
Y151856D01*
X-440238D02*
X-430649D01*
X-440238Y169636D02*
X-430649D01*
Y156424D02*
Y169636D01*
X-440238Y156424D02*
X-430649D01*
X-458351Y169636D02*
X-448762D01*
X-458351Y156424D02*
Y169636D01*
Y156424D02*
X-448762D01*
X-272036Y-84168D02*
Y-74579D01*
X-258824D01*
Y-84168D02*
Y-74579D01*
X-272036Y-102281D02*
Y-92692D01*
Y-102281D02*
X-258824D01*
Y-92692D01*
X-246636Y-84168D02*
Y-74579D01*
X-233424D01*
Y-84168D02*
Y-74579D01*
X-246636Y-102281D02*
Y-92692D01*
Y-102281D02*
X-233424D01*
Y-92692D01*
X-198376Y276512D02*
Y286101D01*
X-185164D01*
Y276512D02*
Y286101D01*
X-198376Y258399D02*
Y267988D01*
Y258399D02*
X-185164D01*
Y267988D01*
X-228856Y276512D02*
Y286101D01*
X-215644D01*
Y276512D02*
Y286101D01*
X-228856Y258399D02*
Y267988D01*
Y258399D02*
X-215644D01*
Y267988D01*
X-170998Y314416D02*
X-161409D01*
Y301204D02*
Y314416D01*
X-170998Y301204D02*
X-161409D01*
X-189111Y314416D02*
X-179522D01*
X-189111Y301204D02*
Y314416D01*
Y301204D02*
X-179522D01*
X-181866Y276512D02*
Y286101D01*
X-168654D01*
Y276512D02*
Y286101D01*
X-181866Y258399D02*
Y267988D01*
Y258399D02*
X-168654D01*
Y267988D01*
X-139444Y258399D02*
Y267988D01*
X-152656Y258399D02*
X-139444D01*
X-152656D02*
Y267988D01*
X-139444Y276512D02*
Y286101D01*
X-152656D02*
X-139444D01*
X-152656Y276512D02*
Y286101D01*
X-140518Y314416D02*
X-130929D01*
Y301204D02*
Y314416D01*
X-140518Y301204D02*
X-130929D01*
X-158631Y314416D02*
X-149042D01*
X-158631Y301204D02*
Y314416D01*
Y301204D02*
X-149042D01*
X-440238Y233136D02*
X-430649D01*
Y219924D02*
Y233136D01*
X-440238Y219924D02*
X-430649D01*
X-458351Y233136D02*
X-448762D01*
X-458351Y219924D02*
Y233136D01*
Y219924D02*
X-448762D01*
X-458351Y237704D02*
X-448762D01*
X-458351D02*
Y250916D01*
X-448762D01*
X-440238Y237704D02*
X-430649D01*
Y250916D01*
X-440238D02*
X-430649D01*
X-310134Y191224D02*
X-313466D01*
X-311800D01*
Y201221D01*
X-310134Y199555D01*
X-105664Y191275D02*
X-107330Y189609D01*
X-110662D01*
X-112329Y191275D01*
Y192941D01*
X-110662Y194608D01*
X-108996D01*
X-110662D01*
X-112329Y196274D01*
Y197940D01*
X-110662Y199606D01*
X-107330D01*
X-105664Y197940D01*
X-115661Y191275D02*
X-117327Y189609D01*
X-120659D01*
X-122325Y191275D01*
Y197940D01*
X-120659Y199606D01*
X-117327D01*
X-115661Y197940D01*
Y191275D01*
D13*
X-325120Y335280D02*
X-99060D01*
X-325120Y369570D02*
X-99060D01*
Y335280D02*
Y369570D01*
X-325120Y335280D02*
Y369570D01*
X-313690Y295910D02*
Y334010D01*
D67*
X-416560Y372110D02*
X-416560Y-135890D01*
X-416560Y372110D02*
X-391160D01*
Y-135890D02*
Y372110D01*
X-416560Y-135890D02*
X-391160D01*
X-594360Y372110D02*
X-594360Y-135890D01*
X-594360Y372110D02*
X-568960D01*
Y-135890D02*
Y372110D01*
X-594360Y-135890D02*
X-568960D01*
D68*
X-211328Y265647D02*
X-210312D01*
X-211328D02*
Y278855D01*
X-202692D02*
X-202692Y278857D01*
Y265648D02*
Y278857D01*
X-203749Y265648D02*
X-202692D01*
M02*
