G04*
G04 #@! TF.GenerationSoftware,Altium Limited,Altium Designer,22.11.1 (43)*
G04*
G04 Layer_Physical_Order=4*
G04 Layer_Color=16711680*
%FSLAX44Y44*%
%MOMM*%
G71*
G04*
G04 #@! TF.SameCoordinates,30CB15ED-5B5F-4030-944F-8374E8F7CEFA*
G04*
G04*
G04 #@! TF.FilePolarity,Positive*
G04*
G01*
G75*
%ADD11C,0.2540*%
%ADD15R,0.8640X0.8065*%
%ADD16R,0.9000X0.8000*%
%ADD22R,0.8065X0.8640*%
%ADD24R,0.8000X0.9000*%
%ADD46C,0.6350*%
%ADD48C,0.3810*%
G04:AMPARAMS|DCode=50|XSize=2mm|YSize=5mm|CornerRadius=0.25mm|HoleSize=0mm|Usage=FLASHONLY|Rotation=90.000|XOffset=0mm|YOffset=0mm|HoleType=Round|Shape=RoundedRectangle|*
%AMROUNDEDRECTD50*
21,1,2.0000,4.5000,0,0,90.0*
21,1,1.5000,5.0000,0,0,90.0*
1,1,0.5000,2.2500,0.7500*
1,1,0.5000,2.2500,-0.7500*
1,1,0.5000,-2.2500,-0.7500*
1,1,0.5000,-2.2500,0.7500*
%
%ADD50ROUNDEDRECTD50*%
%ADD51R,1.5000X1.5000*%
%ADD52C,1.5000*%
%ADD53C,1.8000*%
%ADD54R,1.8009X1.8009*%
%ADD55C,3.8000*%
%ADD56R,1.6000X2.6000*%
%ADD57R,1.5000X1.5000*%
%ADD58C,0.5080*%
%ADD59C,3.0000*%
%ADD60C,0.7620*%
%ADD61C,1.2700*%
%ADD62C,1.0160*%
%ADD63R,0.3505X3.0000*%
%ADD64R,0.4826X0.6096*%
%ADD65C,0.7620*%
G36*
X14800Y396710D02*
X16586Y396475D01*
X18250Y395786D01*
X19679Y394689D01*
X20776Y393260D01*
X21465Y391596D01*
X21700Y389810D01*
X21709D01*
Y-190190D01*
X21700D01*
X21465Y-191976D01*
X20776Y-193640D01*
X19679Y-195069D01*
X18250Y-196166D01*
X16586Y-196855D01*
X14800Y-197090D01*
Y-197099D01*
X-965200D01*
Y-197090D01*
X-966986Y-196855D01*
X-968650Y-196166D01*
X-970079Y-195069D01*
X-971176Y-193640D01*
X-971865Y-191976D01*
X-972100Y-190190D01*
X-972109D01*
Y389810D01*
X-972200Y390268D01*
X-972025Y391596D01*
X-971336Y393260D01*
X-970239Y394689D01*
X-968810Y395786D01*
X-967146Y396475D01*
X-965360Y396710D01*
X-965360Y396710D01*
Y396710D01*
X-965200Y396719D01*
X14800D01*
Y396710D01*
D02*
G37*
%LPC*%
G36*
X-41910Y394898D02*
Y388620D01*
X-35631D01*
X-36079Y390291D01*
X-37083Y392029D01*
X-38501Y393447D01*
X-40239Y394451D01*
X-41910Y394898D01*
D02*
G37*
G36*
X-44450D02*
X-46121Y394451D01*
X-47859Y393447D01*
X-49278Y392029D01*
X-50281Y390291D01*
X-50729Y388620D01*
X-44450D01*
Y394898D01*
D02*
G37*
G36*
X-80010D02*
Y388620D01*
X-73731D01*
X-74179Y390291D01*
X-75182Y392029D01*
X-76601Y393447D01*
X-78339Y394451D01*
X-80010Y394898D01*
D02*
G37*
G36*
X-82550D02*
X-84221Y394451D01*
X-85959Y393447D01*
X-87378Y392029D01*
X-88381Y390291D01*
X-88828Y388620D01*
X-82550D01*
Y394898D01*
D02*
G37*
G36*
X-118110D02*
Y388620D01*
X-111832D01*
X-112279Y390291D01*
X-113282Y392029D01*
X-114701Y393447D01*
X-116439Y394451D01*
X-118110Y394898D01*
D02*
G37*
G36*
X-120650D02*
X-122321Y394451D01*
X-124059Y393447D01*
X-125478Y392029D01*
X-126481Y390291D01*
X-126929Y388620D01*
X-120650D01*
Y394898D01*
D02*
G37*
G36*
X-156210D02*
Y388620D01*
X-149931D01*
X-150379Y390291D01*
X-151383Y392029D01*
X-152801Y393447D01*
X-154539Y394451D01*
X-156210Y394898D01*
D02*
G37*
G36*
X-158750D02*
X-160421Y394451D01*
X-162159Y393447D01*
X-163577Y392029D01*
X-164581Y390291D01*
X-165028Y388620D01*
X-158750D01*
Y394898D01*
D02*
G37*
G36*
X-194310D02*
Y388620D01*
X-188032D01*
X-188479Y390291D01*
X-189482Y392029D01*
X-190901Y393447D01*
X-192639Y394451D01*
X-194310Y394898D01*
D02*
G37*
G36*
X-196850D02*
X-198521Y394451D01*
X-200259Y393447D01*
X-201677Y392029D01*
X-202681Y390291D01*
X-203129Y388620D01*
X-196850D01*
Y394898D01*
D02*
G37*
G36*
X-232410D02*
Y388620D01*
X-226131D01*
X-226579Y390291D01*
X-227582Y392029D01*
X-229001Y393447D01*
X-230739Y394451D01*
X-232410Y394898D01*
D02*
G37*
G36*
X-234950D02*
X-236621Y394451D01*
X-238359Y393447D01*
X-239778Y392029D01*
X-240781Y390291D01*
X-241229Y388620D01*
X-234950D01*
Y394898D01*
D02*
G37*
G36*
X-270510D02*
Y388620D01*
X-264231D01*
X-264679Y390291D01*
X-265683Y392029D01*
X-267101Y393447D01*
X-268839Y394451D01*
X-270510Y394898D01*
D02*
G37*
G36*
X-273050D02*
X-274721Y394451D01*
X-276459Y393447D01*
X-277878Y392029D01*
X-278881Y390291D01*
X-279328Y388620D01*
X-273050D01*
Y394898D01*
D02*
G37*
G36*
X-308610D02*
Y388620D01*
X-302332D01*
X-302779Y390291D01*
X-303783Y392029D01*
X-305201Y393447D01*
X-306939Y394451D01*
X-308610Y394898D01*
D02*
G37*
G36*
X-311150D02*
X-312821Y394451D01*
X-314559Y393447D01*
X-315977Y392029D01*
X-316981Y390291D01*
X-317428Y388620D01*
X-311150D01*
Y394898D01*
D02*
G37*
G36*
X-346710D02*
Y388620D01*
X-340432D01*
X-340879Y390291D01*
X-341883Y392029D01*
X-343301Y393447D01*
X-345039Y394451D01*
X-346710Y394898D01*
D02*
G37*
G36*
X-349250D02*
X-350921Y394451D01*
X-352659Y393447D01*
X-354077Y392029D01*
X-355081Y390291D01*
X-355528Y388620D01*
X-349250D01*
Y394898D01*
D02*
G37*
G36*
X-384810D02*
Y388620D01*
X-378531D01*
X-378979Y390291D01*
X-379982Y392029D01*
X-381401Y393447D01*
X-383139Y394451D01*
X-384810Y394898D01*
D02*
G37*
G36*
X-387350D02*
X-389021Y394451D01*
X-390759Y393447D01*
X-392178Y392029D01*
X-393181Y390291D01*
X-393629Y388620D01*
X-387350D01*
Y394898D01*
D02*
G37*
G36*
X-422910D02*
Y388620D01*
X-416632D01*
X-417079Y390291D01*
X-418083Y392029D01*
X-419501Y393447D01*
X-421239Y394451D01*
X-422910Y394898D01*
D02*
G37*
G36*
X-425450D02*
X-427121Y394451D01*
X-428859Y393447D01*
X-430277Y392029D01*
X-431281Y390291D01*
X-431729Y388620D01*
X-425450D01*
Y394898D01*
D02*
G37*
G36*
X-461010D02*
Y388620D01*
X-454731D01*
X-455179Y390291D01*
X-456183Y392029D01*
X-457601Y393447D01*
X-459339Y394451D01*
X-461010Y394898D01*
D02*
G37*
G36*
X-463550D02*
X-465221Y394451D01*
X-466959Y393447D01*
X-468377Y392029D01*
X-469381Y390291D01*
X-469828Y388620D01*
X-463550D01*
Y394898D01*
D02*
G37*
G36*
X-35631Y386080D02*
X-41910D01*
Y379801D01*
X-40239Y380249D01*
X-38501Y381253D01*
X-37083Y382671D01*
X-36079Y384409D01*
X-35631Y386080D01*
D02*
G37*
G36*
X-44450D02*
X-50729D01*
X-50281Y384409D01*
X-49278Y382671D01*
X-47859Y381253D01*
X-46121Y380249D01*
X-44450Y379801D01*
Y386080D01*
D02*
G37*
G36*
X-73731D02*
X-80010D01*
Y379801D01*
X-78339Y380249D01*
X-76601Y381253D01*
X-75182Y382671D01*
X-74179Y384409D01*
X-73731Y386080D01*
D02*
G37*
G36*
X-82550D02*
X-88828D01*
X-88381Y384409D01*
X-87378Y382671D01*
X-85959Y381253D01*
X-84221Y380249D01*
X-82550Y379801D01*
Y386080D01*
D02*
G37*
G36*
X-111832D02*
X-118110D01*
Y379801D01*
X-116439Y380249D01*
X-114701Y381253D01*
X-113282Y382671D01*
X-112279Y384409D01*
X-111832Y386080D01*
D02*
G37*
G36*
X-120650D02*
X-126929D01*
X-126481Y384409D01*
X-125478Y382671D01*
X-124059Y381253D01*
X-122321Y380249D01*
X-120650Y379801D01*
Y386080D01*
D02*
G37*
G36*
X-149931D02*
X-156210D01*
Y379801D01*
X-154539Y380249D01*
X-152801Y381253D01*
X-151383Y382671D01*
X-150379Y384409D01*
X-149931Y386080D01*
D02*
G37*
G36*
X-158750D02*
X-165028D01*
X-164581Y384409D01*
X-163577Y382671D01*
X-162159Y381253D01*
X-160421Y380249D01*
X-158750Y379801D01*
Y386080D01*
D02*
G37*
G36*
X-188032D02*
X-194310D01*
Y379801D01*
X-192639Y380249D01*
X-190901Y381253D01*
X-189482Y382671D01*
X-188479Y384409D01*
X-188032Y386080D01*
D02*
G37*
G36*
X-196850D02*
X-203129D01*
X-202681Y384409D01*
X-201677Y382671D01*
X-200259Y381253D01*
X-198521Y380249D01*
X-196850Y379801D01*
Y386080D01*
D02*
G37*
G36*
X-226131D02*
X-232410D01*
Y379801D01*
X-230739Y380249D01*
X-229001Y381253D01*
X-227582Y382671D01*
X-226579Y384409D01*
X-226131Y386080D01*
D02*
G37*
G36*
X-234950D02*
X-241229D01*
X-240781Y384409D01*
X-239778Y382671D01*
X-238359Y381253D01*
X-236621Y380249D01*
X-234950Y379801D01*
Y386080D01*
D02*
G37*
G36*
X-264231D02*
X-270510D01*
Y379801D01*
X-268839Y380249D01*
X-267101Y381253D01*
X-265683Y382671D01*
X-264679Y384409D01*
X-264231Y386080D01*
D02*
G37*
G36*
X-273050D02*
X-279328D01*
X-278881Y384409D01*
X-277878Y382671D01*
X-276459Y381253D01*
X-274721Y380249D01*
X-273050Y379801D01*
Y386080D01*
D02*
G37*
G36*
X-302332D02*
X-308610D01*
Y379801D01*
X-306939Y380249D01*
X-305201Y381253D01*
X-303783Y382671D01*
X-302779Y384409D01*
X-302332Y386080D01*
D02*
G37*
G36*
X-311150D02*
X-317428D01*
X-316981Y384409D01*
X-315977Y382671D01*
X-314559Y381253D01*
X-312821Y380249D01*
X-311150Y379801D01*
Y386080D01*
D02*
G37*
G36*
X-340432D02*
X-346710D01*
Y379801D01*
X-345039Y380249D01*
X-343301Y381253D01*
X-341883Y382671D01*
X-340879Y384409D01*
X-340432Y386080D01*
D02*
G37*
G36*
X-349250D02*
X-355528D01*
X-355081Y384409D01*
X-354077Y382671D01*
X-352659Y381253D01*
X-350921Y380249D01*
X-349250Y379801D01*
Y386080D01*
D02*
G37*
G36*
X-378531D02*
X-384810D01*
Y379801D01*
X-383139Y380249D01*
X-381401Y381253D01*
X-379982Y382671D01*
X-378979Y384409D01*
X-378531Y386080D01*
D02*
G37*
G36*
X-387350D02*
X-393629D01*
X-393181Y384409D01*
X-392178Y382671D01*
X-390759Y381253D01*
X-389021Y380249D01*
X-387350Y379801D01*
Y386080D01*
D02*
G37*
G36*
X-416632D02*
X-422910D01*
Y379801D01*
X-421239Y380249D01*
X-419501Y381253D01*
X-418083Y382671D01*
X-417079Y384409D01*
X-416632Y386080D01*
D02*
G37*
G36*
X-425450D02*
X-431729D01*
X-431281Y384409D01*
X-430277Y382671D01*
X-428859Y381253D01*
X-427121Y380249D01*
X-425450Y379801D01*
Y386080D01*
D02*
G37*
G36*
X-454731D02*
X-461010D01*
Y379801D01*
X-459339Y380249D01*
X-457601Y381253D01*
X-456183Y382671D01*
X-455179Y384409D01*
X-454731Y386080D01*
D02*
G37*
G36*
X-463550D02*
X-469828D01*
X-469381Y384409D01*
X-468377Y382671D01*
X-466959Y381253D01*
X-465221Y380249D01*
X-463550Y379801D01*
Y386080D01*
D02*
G37*
G36*
X-8382Y384890D02*
X-9090D01*
Y366080D01*
X9720D01*
Y366788D01*
X8948Y370667D01*
X7435Y374321D01*
X5237Y377610D01*
X2440Y380407D01*
X-849Y382605D01*
X-4503Y384118D01*
X-8382Y384890D01*
D02*
G37*
G36*
X-11630D02*
X-12338D01*
X-16217Y384118D01*
X-19871Y382605D01*
X-23160Y380407D01*
X-25957Y377610D01*
X-28155Y374321D01*
X-29668Y370667D01*
X-30440Y366788D01*
Y366080D01*
X-11630D01*
Y384890D01*
D02*
G37*
G36*
X-938382D02*
X-939090D01*
Y366080D01*
X-920280D01*
Y366788D01*
X-921052Y370667D01*
X-922565Y374321D01*
X-924763Y377610D01*
X-927560Y380407D01*
X-930849Y382605D01*
X-934503Y384118D01*
X-938382Y384890D01*
D02*
G37*
G36*
X-941630D02*
X-942338D01*
X-946217Y384118D01*
X-949871Y382605D01*
X-953160Y380407D01*
X-955957Y377610D01*
X-958155Y374321D01*
X-959668Y370667D01*
X-960440Y366788D01*
Y366080D01*
X-941630D01*
Y384890D01*
D02*
G37*
G36*
X-402006Y373490D02*
X-402590D01*
Y360680D01*
X-389780D01*
Y361264D01*
X-390740Y364845D01*
X-392593Y368055D01*
X-395215Y370677D01*
X-398425Y372530D01*
X-402006Y373490D01*
D02*
G37*
G36*
X-405130D02*
X-405714D01*
X-409295Y372530D01*
X-412505Y370677D01*
X-415127Y368055D01*
X-416980Y364845D01*
X-417940Y361264D01*
Y360680D01*
X-405130D01*
Y373490D01*
D02*
G37*
G36*
X-570624Y370446D02*
X-592696D01*
Y348374D01*
X-570624D01*
Y370446D01*
D02*
G37*
G36*
X-637540Y346939D02*
X-637540Y346939D01*
X-896620D01*
X-896620Y346939D01*
X-898652Y346535D01*
X-900374Y345384D01*
X-932124Y313634D01*
X-933275Y311912D01*
X-933679Y309880D01*
X-933679Y309880D01*
Y132550D01*
X-933679Y132550D01*
X-933275Y130518D01*
X-932124Y128796D01*
X-913074Y109746D01*
X-911352Y108595D01*
X-909320Y108191D01*
X-891519D01*
X-891431Y108183D01*
X-890881Y108101D01*
X-890379Y107988D01*
X-889923Y107849D01*
X-889511Y107686D01*
X-889139Y107499D01*
X-888802Y107290D01*
X-888497Y107057D01*
X-888144Y106730D01*
X-888005Y106645D01*
X-887233Y105872D01*
X-885059Y104618D01*
X-882635Y103968D01*
X-880125D01*
X-877701Y104618D01*
X-875527Y105872D01*
X-873753Y107647D01*
X-872498Y109821D01*
X-871848Y112245D01*
Y114755D01*
X-872498Y117179D01*
X-873753Y119353D01*
X-875527Y121128D01*
X-877701Y122382D01*
X-880125Y123032D01*
X-882635D01*
X-885059Y122382D01*
X-887233Y121128D01*
X-888005Y120355D01*
X-888144Y120270D01*
X-888497Y119943D01*
X-888802Y119710D01*
X-889139Y119501D01*
X-889511Y119314D01*
X-889923Y119151D01*
X-890379Y119012D01*
X-890881Y118899D01*
X-891431Y118816D01*
X-891519Y118809D01*
X-907121D01*
X-923061Y134749D01*
Y307681D01*
X-894421Y336321D01*
X-639739D01*
X-622529Y319111D01*
Y264160D01*
X-622529Y264160D01*
X-622125Y262128D01*
X-620974Y260406D01*
X-594068Y233500D01*
X-594068Y233500D01*
X-592692Y232581D01*
Y230958D01*
X-591940Y228152D01*
X-590488Y225636D01*
X-588434Y223582D01*
X-585918Y222130D01*
X-583112Y221378D01*
X-580208D01*
X-577402Y222130D01*
X-574886Y223582D01*
X-572832Y225636D01*
X-571380Y228152D01*
X-570628Y230958D01*
Y233862D01*
X-571380Y236668D01*
X-572832Y239184D01*
X-574886Y241238D01*
X-577402Y242690D01*
X-580208Y243442D01*
X-583112D01*
X-585918Y242690D01*
X-587260Y241915D01*
X-587625Y242159D01*
X-587732Y242180D01*
X-611911Y266359D01*
Y321310D01*
X-612315Y323342D01*
X-613466Y325064D01*
X-613466Y325064D01*
X-633786Y345384D01*
X-635508Y346535D01*
X-637540Y346939D01*
D02*
G37*
G36*
X9720Y363540D02*
X-9090D01*
Y344730D01*
X-8382D01*
X-4503Y345502D01*
X-849Y347015D01*
X2440Y349213D01*
X5237Y352010D01*
X7435Y355299D01*
X8948Y358953D01*
X9720Y362832D01*
Y363540D01*
D02*
G37*
G36*
X-11630D02*
X-30440D01*
Y362832D01*
X-29668Y358953D01*
X-28155Y355299D01*
X-25957Y352010D01*
X-23160Y349213D01*
X-19871Y347015D01*
X-16217Y345502D01*
X-12338Y344730D01*
X-11630D01*
Y363540D01*
D02*
G37*
G36*
X-920280D02*
X-939090D01*
Y344730D01*
X-938382D01*
X-934503Y345502D01*
X-930849Y347015D01*
X-927560Y349213D01*
X-924763Y352010D01*
X-922565Y355299D01*
X-921052Y358953D01*
X-920280Y362832D01*
Y363540D01*
D02*
G37*
G36*
X-941630D02*
X-960440D01*
Y362832D01*
X-959668Y358953D01*
X-958155Y355299D01*
X-955957Y352010D01*
X-953160Y349213D01*
X-949871Y347015D01*
X-946217Y345502D01*
X-942338Y344730D01*
X-941630D01*
Y363540D01*
D02*
G37*
G36*
X-389780Y358140D02*
X-417940D01*
Y357556D01*
X-416980Y353975D01*
X-415127Y350765D01*
X-412505Y348143D01*
X-411123Y347345D01*
Y346075D01*
X-412505Y345277D01*
X-415127Y342655D01*
X-416980Y339445D01*
X-417940Y335864D01*
Y335280D01*
X-403860D01*
X-389780D01*
Y335864D01*
X-390740Y339445D01*
X-392593Y342655D01*
X-395215Y345277D01*
X-396597Y346075D01*
Y347345D01*
X-395215Y348143D01*
X-392593Y350765D01*
X-390740Y353975D01*
X-389780Y357556D01*
Y358140D01*
D02*
G37*
G36*
X-580208Y345042D02*
X-583112D01*
X-585918Y344290D01*
X-588434Y342838D01*
X-590488Y340784D01*
X-591940Y338268D01*
X-592692Y335462D01*
Y332558D01*
X-591940Y329752D01*
X-590488Y327236D01*
X-588434Y325182D01*
X-585918Y323730D01*
X-583112Y322978D01*
X-580208D01*
X-577402Y323730D01*
X-574886Y325182D01*
X-572832Y327236D01*
X-571380Y329752D01*
X-570628Y332558D01*
Y335462D01*
X-571380Y338268D01*
X-572832Y340784D01*
X-574886Y342838D01*
X-577402Y344290D01*
X-580208Y345042D01*
D02*
G37*
G36*
X-959920Y312439D02*
X-961591Y311991D01*
X-963329Y310987D01*
X-964747Y309569D01*
X-965751Y307831D01*
X-966199Y306160D01*
X-959920D01*
Y312439D01*
D02*
G37*
G36*
X11430Y312348D02*
Y306070D01*
X17708D01*
X17261Y307741D01*
X16257Y309479D01*
X14839Y310898D01*
X13101Y311901D01*
X11430Y312348D01*
D02*
G37*
G36*
X8890D02*
X7219Y311901D01*
X5481Y310898D01*
X4062Y309479D01*
X3059Y307741D01*
X2612Y306070D01*
X8890D01*
Y312348D01*
D02*
G37*
G36*
X-20320D02*
Y306070D01*
X-14042D01*
X-14489Y307741D01*
X-15493Y309479D01*
X-16911Y310898D01*
X-18649Y311901D01*
X-20320Y312348D01*
D02*
G37*
G36*
X-22860D02*
X-24531Y311901D01*
X-26269Y310898D01*
X-27687Y309479D01*
X-28691Y307741D01*
X-29139Y306070D01*
X-22860D01*
Y312348D01*
D02*
G37*
G36*
X-128134Y317210D02*
X-135976D01*
Y307810D01*
Y298410D01*
X-128134D01*
Y298920D01*
X-127100D01*
X-124839Y299526D01*
X-122811Y300696D01*
X-121156Y302351D01*
X-119986Y304379D01*
X-119407Y306540D01*
X-128270D01*
Y309080D01*
X-119407D01*
X-119986Y311241D01*
X-121156Y313269D01*
X-122811Y314924D01*
X-124839Y316094D01*
X-127100Y316700D01*
X-128134D01*
Y317210D01*
D02*
G37*
G36*
X-181610Y322582D02*
X-181610Y322582D01*
X-372110D01*
X-372903Y322424D01*
X-373575Y321975D01*
X-373575Y321975D01*
X-387545Y308005D01*
X-387994Y307333D01*
X-388152Y306540D01*
X-388152Y306540D01*
Y-100742D01*
X-395828Y-108418D01*
X-397665D01*
X-398005Y-107148D01*
X-397086Y-106618D01*
X-395032Y-104564D01*
X-393580Y-102048D01*
X-392828Y-99242D01*
Y-96338D01*
X-393580Y-93532D01*
X-395032Y-91016D01*
X-397086Y-88962D01*
X-399602Y-87510D01*
X-402408Y-86758D01*
X-405312D01*
X-408118Y-87510D01*
X-410634Y-88962D01*
X-412688Y-91016D01*
X-414140Y-93532D01*
X-414892Y-96338D01*
Y-99242D01*
X-414140Y-102048D01*
X-412688Y-104564D01*
X-410634Y-106618D01*
X-409715Y-107148D01*
X-410055Y-108418D01*
X-427990D01*
X-428783Y-108576D01*
X-429455Y-109025D01*
X-429455Y-109025D01*
X-430364Y-109934D01*
X-431780Y-109554D01*
X-432284Y-107673D01*
X-433789Y-105067D01*
X-435917Y-102939D01*
X-438523Y-101434D01*
X-441431Y-100655D01*
X-441665D01*
Y-112085D01*
X-442935D01*
Y-112371D01*
X-439760D01*
X-439756Y-113577D01*
X-439572Y-116620D01*
X-438490D01*
X-438732Y-116892D01*
X-438948Y-117209D01*
X-439138Y-117572D01*
X-439303Y-117981D01*
X-439443Y-118436D01*
X-439453Y-118482D01*
X-439380Y-118657D01*
X-439291Y-118721D01*
X-439508D01*
X-439557Y-118936D01*
X-439646Y-119482D01*
X-439710Y-120074D01*
X-439760Y-121394D01*
X-446110D01*
X-446123Y-120711D01*
X-446225Y-119482D01*
X-446314Y-118936D01*
X-446363Y-118721D01*
X-447230D01*
X-447017Y-118657D01*
X-446827Y-118467D01*
X-446659Y-118149D01*
X-446588Y-117931D01*
X-446733Y-117572D01*
X-446923Y-117209D01*
X-447139Y-116892D01*
X-447380Y-116620D01*
X-446316D01*
X-446289Y-116434D01*
X-446155Y-114656D01*
X-446130Y-113355D01*
X-454365D01*
Y-113590D01*
X-453586Y-116497D01*
X-452341Y-118655D01*
Y-121920D01*
X-443260D01*
Y-124460D01*
X-452341D01*
Y-131910D01*
X-469488Y-149058D01*
X-810672D01*
X-818348Y-141382D01*
X-818348Y-128270D01*
X-818506Y-127477D01*
X-818955Y-126805D01*
X-818955Y-126805D01*
X-821495Y-124265D01*
X-822167Y-123816D01*
X-822960Y-123658D01*
X-822960Y-123658D01*
X-848360Y-123658D01*
X-848360Y-123658D01*
X-849153Y-123816D01*
X-849825Y-124265D01*
X-849825Y-124265D01*
X-852365Y-126805D01*
X-852365Y-126805D01*
X-852814Y-127477D01*
X-852972Y-128270D01*
X-852972Y-128270D01*
X-852972Y-158750D01*
X-852972Y-158750D01*
X-852814Y-159543D01*
X-852365Y-160215D01*
X-852365Y-160215D01*
X-824425Y-188155D01*
X-824425Y-188155D01*
X-823753Y-188604D01*
X-822960Y-188762D01*
X-822960Y-188762D01*
X-394970Y-188762D01*
X-394177Y-188604D01*
X-393505Y-188155D01*
X-393505Y-188155D01*
X-335085Y-129735D01*
X-334636Y-129063D01*
X-334478Y-128270D01*
X-334478Y-128270D01*
Y131962D01*
X-334478Y131963D01*
X-334014Y132351D01*
X-333208Y132626D01*
X-332913Y132429D01*
X-331076Y131667D01*
X-330085Y131470D01*
X-88096D01*
X-87104Y131667D01*
X-85267Y132429D01*
X-84426Y132990D01*
X-83020Y134396D01*
X-82993Y134437D01*
X-81617Y134210D01*
X-81573Y134044D01*
X-79917Y131176D01*
X-77574Y128834D01*
X-74706Y127177D01*
X-71506Y126320D01*
X-71120D01*
Y138900D01*
Y151480D01*
X-71506D01*
X-74706Y150623D01*
X-77574Y148967D01*
X-79917Y146624D01*
X-80274Y146006D01*
X-81500Y146335D01*
Y150055D01*
X-81697Y151046D01*
X-82459Y152883D01*
X-83020Y153723D01*
X-84426Y155130D01*
X-85267Y155691D01*
X-87104Y156453D01*
X-88096Y156650D01*
X-330085D01*
X-331076Y156453D01*
X-332913Y155691D01*
X-333208Y155494D01*
X-334478Y156157D01*
Y179821D01*
X-314220Y200080D01*
X-311511D01*
Y220160D01*
X-308971D01*
Y200080D01*
X-303408D01*
Y203148D01*
X-280517D01*
X-280369Y202407D01*
X-279920Y201735D01*
X-279248Y201286D01*
X-278455Y201128D01*
X-273294D01*
X-273109Y201165D01*
X-272921Y201162D01*
X-271651Y201395D01*
X-271447Y201475D01*
X-271231Y201518D01*
X-271074Y201623D01*
X-270899Y201692D01*
X-270742Y201845D01*
X-270559Y201967D01*
X-270454Y202124D01*
X-270319Y202255D01*
X-270232Y202457D01*
X-270110Y202640D01*
X-270073Y202824D01*
X-269998Y202997D01*
X-269996Y203148D01*
X-268072D01*
Y200100D01*
X-262509D01*
Y220180D01*
X-259969D01*
Y200100D01*
X-254407D01*
Y200100D01*
X-254071D01*
Y200100D01*
X-248508D01*
Y220180D01*
X-245968D01*
Y200100D01*
X-240406D01*
Y200100D01*
X-240073D01*
Y200100D01*
X-234511D01*
Y220180D01*
X-231971D01*
Y200100D01*
X-227510D01*
Y220180D01*
X-224970D01*
Y200100D01*
X-219408D01*
Y202868D01*
X-217170D01*
X-216377Y203026D01*
X-216194Y203148D01*
X-212072D01*
Y200100D01*
X-206510D01*
Y220180D01*
X-203970D01*
Y200100D01*
X-199510D01*
Y220180D01*
X-196970D01*
Y200100D01*
X-195255D01*
Y194097D01*
X-195268Y193972D01*
X-195302Y193764D01*
X-195339Y193603D01*
X-195374Y193488D01*
X-195402Y193420D01*
X-195408Y193409D01*
X-195457Y193353D01*
X-195529Y193230D01*
X-196195Y192564D01*
X-197084Y190417D01*
Y188093D01*
X-196195Y185946D01*
X-194552Y184302D01*
X-192404Y183413D01*
X-190080D01*
X-187933Y184302D01*
X-186290Y185946D01*
X-185400Y188093D01*
Y190417D01*
X-186290Y192564D01*
X-186953Y193227D01*
X-187024Y193349D01*
X-187073Y193405D01*
X-187080Y193417D01*
X-187107Y193485D01*
X-187143Y193600D01*
X-187180Y193762D01*
X-187209Y193944D01*
X-187227Y194155D01*
Y196631D01*
X-185957Y196884D01*
X-185293Y195281D01*
X-183649Y193637D01*
X-181502Y192748D01*
X-179178D01*
X-177031Y193637D01*
X-175387Y195281D01*
X-174498Y197428D01*
Y199752D01*
X-173325Y200100D01*
X-171509D01*
Y220180D01*
Y240260D01*
X-173225D01*
Y243601D01*
Y257750D01*
X-173200Y258024D01*
X-173135Y258421D01*
X-173073Y258652D01*
X-168908D01*
Y268709D01*
X-168117Y268867D01*
X-167445Y269316D01*
X-166996Y269988D01*
X-166838Y270781D01*
Y301458D01*
X-161662D01*
Y301647D01*
X-161182Y301968D01*
X-158858D01*
X-158378Y301647D01*
Y301458D01*
X-146359D01*
Y298410D01*
X-138516D01*
Y307810D01*
Y317210D01*
X-146359D01*
Y314162D01*
X-158378D01*
Y313973D01*
X-158858Y313652D01*
X-161182D01*
X-161662Y313973D01*
Y314162D01*
X-172332D01*
X-180145Y321975D01*
X-180817Y322424D01*
X-181610Y322582D01*
D02*
G37*
G36*
X-751460Y314460D02*
X-763270D01*
Y297650D01*
X-751460D01*
Y314460D01*
D02*
G37*
G36*
X-765810D02*
X-777620D01*
Y297650D01*
X-765810D01*
Y314460D01*
D02*
G37*
G36*
X-886460D02*
X-898270D01*
Y297650D01*
X-886460D01*
Y314460D01*
D02*
G37*
G36*
X-900810D02*
X-912620D01*
Y297650D01*
X-900810D01*
Y314460D01*
D02*
G37*
G36*
X-389780Y332740D02*
X-403860D01*
X-417940D01*
Y332156D01*
X-416980Y328575D01*
X-415127Y325365D01*
X-412505Y322743D01*
X-409295Y320890D01*
X-407429Y320390D01*
Y319075D01*
X-408118Y318890D01*
X-410634Y317438D01*
X-412688Y315384D01*
X-414140Y312868D01*
X-414892Y310062D01*
Y307158D01*
X-414140Y304352D01*
X-412688Y301836D01*
X-410634Y299782D01*
X-408118Y298330D01*
X-405312Y297578D01*
X-402408D01*
X-399602Y298330D01*
X-397086Y299782D01*
X-395032Y301836D01*
X-393580Y304352D01*
X-392828Y307158D01*
Y310062D01*
X-393580Y312868D01*
X-395032Y315384D01*
X-397086Y317438D01*
X-399602Y318890D01*
X-400291Y319075D01*
Y320390D01*
X-398425Y320890D01*
X-395215Y322743D01*
X-392593Y325365D01*
X-390740Y328575D01*
X-389780Y332156D01*
Y332740D01*
D02*
G37*
G36*
X-580208Y319642D02*
X-583112D01*
X-585918Y318890D01*
X-588434Y317438D01*
X-590488Y315384D01*
X-591940Y312868D01*
X-592692Y310062D01*
Y307158D01*
X-591940Y304352D01*
X-590488Y301836D01*
X-588434Y299782D01*
X-585918Y298330D01*
X-583112Y297578D01*
X-580208D01*
X-577402Y298330D01*
X-574886Y299782D01*
X-572832Y301836D01*
X-571380Y304352D01*
X-570628Y307158D01*
Y310062D01*
X-571380Y312868D01*
X-572832Y315384D01*
X-574886Y317438D01*
X-577402Y318890D01*
X-580208Y319642D01*
D02*
G37*
G36*
X-959920Y303620D02*
X-966199D01*
X-965751Y301949D01*
X-964747Y300211D01*
X-963329Y298792D01*
X-961591Y297789D01*
X-959920Y297341D01*
Y303620D01*
D02*
G37*
G36*
X17708Y303530D02*
X11430D01*
Y297251D01*
X13101Y297699D01*
X14839Y298703D01*
X16257Y300121D01*
X17261Y301859D01*
X17708Y303530D01*
D02*
G37*
G36*
X8890D02*
X2612D01*
X3059Y301859D01*
X4062Y300121D01*
X5481Y298703D01*
X7219Y297699D01*
X8890Y297251D01*
Y303530D01*
D02*
G37*
G36*
X-14042D02*
X-20320D01*
Y297251D01*
X-18649Y297699D01*
X-16911Y298703D01*
X-15493Y300121D01*
X-14489Y301859D01*
X-14042Y303530D01*
D02*
G37*
G36*
X-22860D02*
X-29139D01*
X-28691Y301859D01*
X-27687Y300121D01*
X-26269Y298703D01*
X-24531Y297699D01*
X-22860Y297251D01*
Y303530D01*
D02*
G37*
G36*
X-107950Y296353D02*
Y287490D01*
X-110490D01*
Y296353D01*
X-112651Y295774D01*
X-114679Y294604D01*
X-116334Y292949D01*
X-117504Y290921D01*
X-118110Y288660D01*
Y288330D01*
X-119380D01*
Y288660D01*
X-119986Y290921D01*
X-121156Y292949D01*
X-122811Y294604D01*
X-124839Y295774D01*
X-127000Y296353D01*
Y287490D01*
X-129540D01*
Y296353D01*
X-131701Y295774D01*
X-133729Y294604D01*
X-135384Y292949D01*
X-136484Y291043D01*
X-137160Y290940D01*
X-137836Y291043D01*
X-138936Y292949D01*
X-140591Y294604D01*
X-142619Y295774D01*
X-144780Y296353D01*
Y287490D01*
X-144145D01*
X-144127Y286780D01*
X-144073Y286145D01*
X-143983Y285585D01*
X-143857Y285100D01*
X-143727Y284769D01*
X-143383D01*
X-143528Y284606D01*
X-143591Y284513D01*
X-143497Y284353D01*
X-143263Y284091D01*
X-142993Y283904D01*
X-142687Y283792D01*
X-142346Y283755D01*
X-143931D01*
X-143954Y283680D01*
X-144023Y283379D01*
X-144076Y283052D01*
X-144115Y282697D01*
X-144145Y281904D01*
X-147955D01*
X-147963Y282314D01*
X-148024Y283052D01*
X-148077Y283379D01*
X-148146Y283680D01*
X-148169Y283755D01*
X-149754D01*
X-149413Y283792D01*
X-149107Y283904D01*
X-148837Y284091D01*
X-148603Y284353D01*
X-148509Y284513D01*
X-148572Y284606D01*
X-148717Y284769D01*
X-148373D01*
X-148243Y285100D01*
X-148117Y285585D01*
X-148027Y286145D01*
X-147973Y286780D01*
X-147955Y287490D01*
X-147320D01*
Y296353D01*
X-149481Y295774D01*
X-151509Y294604D01*
X-153164Y292949D01*
X-154334Y290921D01*
X-154877Y288896D01*
X-155450D01*
Y281054D01*
X-146050D01*
Y278514D01*
X-155450D01*
Y270671D01*
X-152402D01*
Y258652D01*
X-149067D01*
X-149055Y258603D01*
X-149000Y258236D01*
X-148985Y258055D01*
Y257201D01*
X-148679Y255665D01*
X-147809Y254362D01*
X-139254Y245807D01*
Y240260D01*
X-140970D01*
Y220180D01*
Y200100D01*
X-135407D01*
Y203148D01*
X-124455D01*
Y203163D01*
X-121072D01*
Y200125D01*
X-115509D01*
Y220205D01*
Y240285D01*
X-117225D01*
Y245868D01*
X-108013Y255080D01*
X-107143Y256383D01*
X-106837Y257919D01*
Y258783D01*
X-106827Y258912D01*
X-106784Y259218D01*
X-102688D01*
Y270170D01*
X-99640D01*
Y277980D01*
X-109220D01*
Y280520D01*
X-99640D01*
Y288330D01*
X-100330D01*
Y288660D01*
X-100936Y290921D01*
X-102106Y292949D01*
X-103761Y294604D01*
X-105789Y295774D01*
X-107950Y296353D01*
D02*
G37*
G36*
X-653140Y307231D02*
X-698140D01*
X-699908Y306879D01*
X-701407Y305877D01*
X-702409Y304378D01*
X-702761Y302610D01*
Y287610D01*
X-702409Y285842D01*
X-701407Y284343D01*
X-699908Y283341D01*
X-698140Y282989D01*
X-653140D01*
X-651372Y283341D01*
X-649873Y284343D01*
X-648871Y285842D01*
X-648519Y287610D01*
Y302610D01*
X-648871Y304378D01*
X-649873Y305877D01*
X-651372Y306879D01*
X-653140Y307231D01*
D02*
G37*
G36*
X-751460Y295110D02*
X-763270D01*
Y278300D01*
X-751460D01*
Y295110D01*
D02*
G37*
G36*
X-765810D02*
X-777620D01*
Y278300D01*
X-765810D01*
Y295110D01*
D02*
G37*
G36*
X-886460D02*
X-898270D01*
Y278300D01*
X-886460D01*
Y295110D01*
D02*
G37*
G36*
X-900810D02*
X-912620D01*
Y278300D01*
X-900810D01*
Y295110D01*
D02*
G37*
G36*
X-402408Y294242D02*
X-405312D01*
X-408118Y293490D01*
X-410634Y292038D01*
X-412688Y289984D01*
X-414140Y287468D01*
X-414892Y284662D01*
Y281758D01*
X-414140Y278952D01*
X-412688Y276436D01*
X-410634Y274382D01*
X-408118Y272930D01*
X-405312Y272178D01*
X-402408D01*
X-399602Y272930D01*
X-397086Y274382D01*
X-395032Y276436D01*
X-393580Y278952D01*
X-392828Y281758D01*
Y284662D01*
X-393580Y287468D01*
X-395032Y289984D01*
X-397086Y292038D01*
X-399602Y293490D01*
X-402408Y294242D01*
D02*
G37*
G36*
X-628650Y363449D02*
X-628650Y363449D01*
X-902970D01*
X-905002Y363045D01*
X-906724Y361894D01*
X-949904Y318714D01*
X-951055Y316992D01*
X-951459Y314960D01*
X-951459Y314960D01*
Y310209D01*
X-952009Y309887D01*
X-952729Y309745D01*
X-953971Y310987D01*
X-955709Y311991D01*
X-957380Y312439D01*
Y304890D01*
Y297341D01*
X-955709Y297789D01*
X-953971Y298792D01*
X-952729Y300035D01*
X-952009Y299893D01*
X-951459Y299571D01*
Y272109D01*
X-952009Y271787D01*
X-952729Y271645D01*
X-953971Y272887D01*
X-955709Y273891D01*
X-957380Y274338D01*
Y266790D01*
Y259242D01*
X-955709Y259689D01*
X-953971Y260693D01*
X-952729Y261935D01*
X-952009Y261793D01*
X-951459Y261471D01*
Y234009D01*
X-952009Y233687D01*
X-952729Y233545D01*
X-953971Y234788D01*
X-955709Y235791D01*
X-957380Y236238D01*
Y228690D01*
Y221141D01*
X-955709Y221589D01*
X-953971Y222593D01*
X-952729Y223835D01*
X-952009Y223693D01*
X-951459Y223371D01*
Y195909D01*
X-952009Y195587D01*
X-952729Y195445D01*
X-953971Y196688D01*
X-955709Y197691D01*
X-957380Y198139D01*
Y190590D01*
Y183041D01*
X-955709Y183489D01*
X-953971Y184492D01*
X-952729Y185735D01*
X-952009Y185593D01*
X-951459Y185271D01*
Y157809D01*
X-952009Y157487D01*
X-952729Y157345D01*
X-953971Y158588D01*
X-955709Y159591D01*
X-957380Y160039D01*
Y152490D01*
Y144942D01*
X-955709Y145389D01*
X-953971Y146392D01*
X-952729Y147635D01*
X-952009Y147493D01*
X-951459Y147171D01*
Y127470D01*
X-951459Y127470D01*
X-951055Y125438D01*
X-949904Y123716D01*
X-910534Y84346D01*
X-908812Y83195D01*
X-906780Y82791D01*
X-906780Y82791D01*
X-891519D01*
X-891431Y82783D01*
X-890881Y82701D01*
X-890379Y82588D01*
X-889923Y82449D01*
X-889511Y82286D01*
X-889139Y82099D01*
X-888802Y81890D01*
X-888497Y81657D01*
X-888144Y81330D01*
X-888005Y81245D01*
X-887233Y80472D01*
X-885059Y79218D01*
X-882635Y78568D01*
X-880125D01*
X-877701Y79218D01*
X-875527Y80472D01*
X-873753Y82247D01*
X-872498Y84421D01*
X-871848Y86845D01*
Y89355D01*
X-872498Y91779D01*
X-873753Y93953D01*
X-875527Y95728D01*
X-877701Y96982D01*
X-880125Y97632D01*
X-882635D01*
X-885059Y96982D01*
X-887233Y95728D01*
X-888005Y94955D01*
X-888144Y94870D01*
X-888497Y94543D01*
X-888802Y94310D01*
X-889139Y94101D01*
X-889511Y93914D01*
X-889923Y93751D01*
X-890379Y93612D01*
X-890881Y93499D01*
X-891431Y93417D01*
X-891519Y93409D01*
X-904581D01*
X-940841Y129669D01*
Y312761D01*
X-900771Y352831D01*
X-630849D01*
X-607289Y329271D01*
Y278802D01*
X-607289Y278802D01*
X-606885Y276770D01*
X-605734Y275048D01*
X-594268Y263582D01*
X-594037Y263290D01*
X-593685Y262758D01*
X-593390Y262214D01*
X-593149Y261656D01*
X-592959Y261079D01*
X-592820Y260480D01*
X-592732Y259853D01*
X-592695Y259195D01*
X-592713Y258426D01*
X-592692Y258302D01*
Y256358D01*
X-591940Y253552D01*
X-590488Y251036D01*
X-588434Y248982D01*
X-585918Y247530D01*
X-583112Y246778D01*
X-580208D01*
X-577402Y247530D01*
X-574886Y248982D01*
X-572832Y251036D01*
X-571380Y253552D01*
X-570628Y256358D01*
Y259262D01*
X-571380Y262068D01*
X-572832Y264584D01*
X-574886Y266638D01*
X-577402Y268090D01*
X-580208Y268842D01*
X-581026D01*
X-581117Y268867D01*
X-581912Y268928D01*
X-582606Y269030D01*
X-583269Y269177D01*
X-583903Y269369D01*
X-584512Y269605D01*
X-585096Y269886D01*
X-585661Y270213D01*
X-586207Y270589D01*
X-586472Y270803D01*
X-588793Y273123D01*
X-588013Y274139D01*
X-585918Y272930D01*
X-583112Y272178D01*
X-580208D01*
X-577402Y272930D01*
X-574886Y274382D01*
X-572832Y276436D01*
X-571380Y278952D01*
X-570628Y281758D01*
Y284662D01*
X-571380Y287468D01*
X-572832Y289984D01*
X-574886Y292038D01*
X-577402Y293490D01*
X-580208Y294242D01*
X-583112D01*
X-585918Y293490D01*
X-588434Y292038D01*
X-590488Y289984D01*
X-591940Y287468D01*
X-592692Y284662D01*
Y281758D01*
X-591940Y278952D01*
X-590731Y276857D01*
X-591747Y276077D01*
X-596671Y281001D01*
Y331470D01*
X-597075Y333502D01*
X-598226Y335224D01*
X-598226Y335224D01*
X-624896Y361894D01*
X-626618Y363045D01*
X-628650Y363449D01*
D02*
G37*
G36*
X-959920Y274338D02*
X-961591Y273891D01*
X-963329Y272887D01*
X-964747Y271469D01*
X-965751Y269731D01*
X-966199Y268060D01*
X-959920D01*
Y274338D01*
D02*
G37*
G36*
X11430Y274249D02*
Y267970D01*
X17708D01*
X17261Y269641D01*
X16257Y271379D01*
X14839Y272798D01*
X13101Y273801D01*
X11430Y274249D01*
D02*
G37*
G36*
X8890D02*
X7219Y273801D01*
X5481Y272798D01*
X4062Y271379D01*
X3059Y269641D01*
X2612Y267970D01*
X8890D01*
Y274249D01*
D02*
G37*
G36*
X-20320D02*
Y267970D01*
X-14042D01*
X-14489Y269641D01*
X-15493Y271379D01*
X-16911Y272798D01*
X-18649Y273801D01*
X-20320Y274249D01*
D02*
G37*
G36*
X-22860D02*
X-24531Y273801D01*
X-26269Y272798D01*
X-27687Y271379D01*
X-28691Y269641D01*
X-29139Y267970D01*
X-22860D01*
Y274249D01*
D02*
G37*
G36*
X-959920Y265520D02*
X-966199D01*
X-965751Y263849D01*
X-964747Y262111D01*
X-963329Y260693D01*
X-961591Y259689D01*
X-959920Y259242D01*
Y265520D01*
D02*
G37*
G36*
X17708Y265430D02*
X11430D01*
Y259151D01*
X13101Y259599D01*
X14839Y260602D01*
X16257Y262021D01*
X17261Y263759D01*
X17708Y265430D01*
D02*
G37*
G36*
X8890D02*
X2612D01*
X3059Y263759D01*
X4062Y262021D01*
X5481Y260602D01*
X7219Y259599D01*
X8890Y259151D01*
Y265430D01*
D02*
G37*
G36*
X-14042D02*
X-20320D01*
Y259151D01*
X-18649Y259599D01*
X-16911Y260602D01*
X-15493Y262021D01*
X-14489Y263759D01*
X-14042Y265430D01*
D02*
G37*
G36*
X-22860D02*
X-29139D01*
X-28691Y263759D01*
X-27687Y262021D01*
X-26269Y260602D01*
X-24531Y259599D01*
X-22860Y259151D01*
Y265430D01*
D02*
G37*
G36*
X-402408Y268842D02*
X-405312D01*
X-408118Y268090D01*
X-410634Y266638D01*
X-412688Y264584D01*
X-414140Y262068D01*
X-414892Y259262D01*
Y256358D01*
X-414140Y253552D01*
X-412688Y251036D01*
X-410634Y248982D01*
X-408118Y247530D01*
X-405312Y246778D01*
X-402408D01*
X-399602Y247530D01*
X-397086Y248982D01*
X-395032Y251036D01*
X-393580Y253552D01*
X-392828Y256358D01*
Y259262D01*
X-393580Y262068D01*
X-395032Y264584D01*
X-397086Y266638D01*
X-399602Y268090D01*
X-402408Y268842D01*
D02*
G37*
G36*
X-865668Y260460D02*
X-866770D01*
Y237650D01*
X-843960D01*
Y238752D01*
X-844885Y243404D01*
X-846701Y247786D01*
X-849336Y251730D01*
X-852690Y255084D01*
X-856634Y257719D01*
X-861016Y259535D01*
X-865668Y260460D01*
D02*
G37*
G36*
X-869310D02*
X-870412D01*
X-875064Y259535D01*
X-879446Y257719D01*
X-883390Y255084D01*
X-886744Y251730D01*
X-889379Y247786D01*
X-891195Y243404D01*
X-892120Y238752D01*
Y237650D01*
X-869310D01*
Y260460D01*
D02*
G37*
G36*
X-451017Y264122D02*
X-453223D01*
X-455355Y263551D01*
X-457267Y262447D01*
X-458827Y260887D01*
X-459931Y258975D01*
X-460502Y256843D01*
Y254636D01*
X-459931Y252505D01*
X-458827Y250593D01*
X-458149Y249915D01*
X-458098Y249829D01*
Y248646D01*
X-458107Y248600D01*
X-458105Y248589D01*
X-458107Y248578D01*
X-458098Y248534D01*
Y238557D01*
X-459193Y237536D01*
X-460775Y237960D01*
X-461010D01*
Y229729D01*
X-457749Y229977D01*
X-457750Y230980D01*
X-457478Y230739D01*
X-457160Y230523D01*
X-456797Y230333D01*
X-456600Y230254D01*
X-456597Y230255D01*
X-456285Y230421D01*
X-456098Y230609D01*
X-456035Y230820D01*
Y230060D01*
X-455933Y230029D01*
X-455433Y229915D01*
X-454887Y229826D01*
X-454295Y229762D01*
X-453304Y229724D01*
Y235930D01*
X-455701D01*
X-457014Y236688D01*
X-456674Y237958D01*
X-445969D01*
Y248553D01*
X-445960Y248600D01*
X-445965Y248626D01*
X-445961Y248653D01*
X-445969Y248692D01*
Y250037D01*
X-445413Y250593D01*
X-444309Y252505D01*
X-443738Y254636D01*
Y256843D01*
X-444309Y258975D01*
X-445413Y260887D01*
X-446973Y262447D01*
X-448885Y263551D01*
X-451017Y264122D01*
D02*
G37*
G36*
X-653140Y258231D02*
X-698140D01*
X-699908Y257879D01*
X-701407Y256877D01*
X-702409Y255378D01*
X-702761Y253610D01*
Y238610D01*
X-702409Y236842D01*
X-701407Y235343D01*
X-699908Y234341D01*
X-698140Y233989D01*
X-653140D01*
X-651372Y234341D01*
X-649873Y235343D01*
X-648871Y236842D01*
X-648519Y238610D01*
Y253610D01*
X-648871Y255378D01*
X-649873Y256877D01*
X-651372Y257879D01*
X-653140Y258231D01*
D02*
G37*
G36*
X-959920Y236238D02*
X-961591Y235791D01*
X-963329Y234788D01*
X-964747Y233369D01*
X-965751Y231631D01*
X-966199Y229960D01*
X-959920D01*
Y236238D01*
D02*
G37*
G36*
X11430Y236148D02*
Y229870D01*
X17708D01*
X17261Y231541D01*
X16257Y233279D01*
X14839Y234697D01*
X13101Y235701D01*
X11430Y236148D01*
D02*
G37*
G36*
X8890D02*
X7219Y235701D01*
X5481Y234697D01*
X4062Y233279D01*
X3059Y231541D01*
X2612Y229870D01*
X8890D01*
Y236148D01*
D02*
G37*
G36*
X-20320D02*
Y229870D01*
X-14042D01*
X-14489Y231541D01*
X-15493Y233279D01*
X-16911Y234697D01*
X-18649Y235701D01*
X-20320Y236148D01*
D02*
G37*
G36*
X-22860D02*
X-24531Y235701D01*
X-26269Y234697D01*
X-27687Y233279D01*
X-28691Y231541D01*
X-29139Y229870D01*
X-22860D01*
Y236148D01*
D02*
G37*
G36*
X-463550Y237960D02*
X-463785D01*
X-466692Y237181D01*
X-469298Y235676D01*
X-471426Y233548D01*
X-472931Y230942D01*
X-473710Y228035D01*
Y227800D01*
X-463550D01*
Y237960D01*
D02*
G37*
G36*
X-430902Y250662D02*
X-443031D01*
Y237958D01*
X-443031D01*
X-442898Y237428D01*
Y237191D01*
X-442921Y235930D01*
X-450764D01*
Y226530D01*
X-452971D01*
X-452967Y223362D01*
X-453650Y223349D01*
X-454879Y223247D01*
X-455425Y223158D01*
X-455925Y223044D01*
X-456035Y223010D01*
Y222240D01*
X-456098Y222453D01*
X-456285Y222644D01*
X-456597Y222812D01*
X-456602Y222814D01*
X-456788Y222739D01*
X-457151Y222548D01*
X-457469Y222332D01*
X-457740Y222090D01*
X-457742Y223103D01*
X-458281Y223182D01*
X-460028Y223317D01*
X-462273Y223362D01*
Y226530D01*
X-462280D01*
Y225260D01*
X-473710D01*
Y225025D01*
X-472931Y222118D01*
X-471426Y219512D01*
X-469748Y217833D01*
X-469439Y217005D01*
X-469748Y216177D01*
X-471426Y214498D01*
X-472931Y211892D01*
X-473710Y208985D01*
Y208750D01*
X-462280D01*
Y207480D01*
X-461262D01*
Y210662D01*
X-460056Y210675D01*
X-457749Y210831D01*
X-457750Y211930D01*
X-457478Y211689D01*
X-457160Y211473D01*
X-456797Y211283D01*
X-456388Y211118D01*
X-456195Y211059D01*
X-455928Y211125D01*
X-455484Y211293D01*
X-455166Y211486D01*
X-454976Y211705D01*
X-454912Y211950D01*
Y210780D01*
X-454887Y210776D01*
X-454295Y210713D01*
X-452975Y210662D01*
X-452967Y204312D01*
X-453650Y204299D01*
X-454879Y204197D01*
X-454912Y204192D01*
Y203011D01*
X-454976Y203258D01*
X-455166Y203479D01*
X-455484Y203674D01*
X-455928Y203843D01*
X-456196Y203910D01*
X-456380Y203854D01*
X-456788Y203689D01*
X-457151Y203498D01*
X-457469Y203281D01*
X-457740Y203040D01*
X-457742Y204164D01*
X-458023Y204195D01*
X-460056Y204299D01*
X-461010Y204309D01*
Y196050D01*
X-460775D01*
X-457868Y196829D01*
X-456013Y197900D01*
X-452212D01*
Y207480D01*
X-449673D01*
Y197900D01*
X-441862D01*
Y200948D01*
X-433019D01*
X-432972Y200939D01*
X-432947Y200944D01*
X-432921Y200939D01*
X-432572Y200948D01*
X-430910D01*
Y200989D01*
X-428328Y201054D01*
X-416008D01*
X-415872Y201042D01*
X-415186Y200938D01*
X-414553Y200797D01*
X-413974Y200620D01*
X-413447Y200411D01*
X-412968Y200171D01*
X-412531Y199899D01*
X-412133Y199596D01*
X-411696Y199190D01*
X-411557Y199105D01*
X-410634Y198182D01*
X-408118Y196730D01*
X-405312Y195978D01*
X-402408D01*
X-399602Y196730D01*
X-397086Y198182D01*
X-395032Y200236D01*
X-393580Y202752D01*
X-392828Y205558D01*
Y208462D01*
X-393580Y211268D01*
X-395032Y213784D01*
X-397086Y215838D01*
X-399602Y217290D01*
X-402408Y218042D01*
X-405312D01*
X-408118Y217290D01*
X-410634Y215838D01*
X-411557Y214915D01*
X-411696Y214830D01*
X-412133Y214424D01*
X-412531Y214121D01*
X-412967Y213849D01*
X-413447Y213609D01*
X-413975Y213400D01*
X-414553Y213223D01*
X-415186Y213082D01*
X-415872Y212978D01*
X-416008Y212966D01*
X-428494D01*
X-430039Y213065D01*
X-430758Y213152D01*
X-430910Y213179D01*
Y214012D01*
X-430943D01*
X-430985Y216025D01*
Y220178D01*
X-430902D01*
Y222188D01*
X-430893Y222234D01*
X-430893Y222237D01*
X-430893Y222240D01*
X-430902Y222287D01*
Y230773D01*
X-430893Y230820D01*
X-430898Y230846D01*
X-430893Y230872D01*
X-430902Y231214D01*
Y232882D01*
X-430944D01*
X-430985Y234510D01*
Y237178D01*
X-430924Y237490D01*
X-430902Y237958D01*
X-430902D01*
Y250662D01*
D02*
G37*
G36*
X-100406Y240285D02*
X-105969D01*
Y221475D01*
X-100406D01*
Y240285D01*
D02*
G37*
G36*
X-402408Y243442D02*
X-405312D01*
X-408118Y242690D01*
X-410634Y241238D01*
X-412688Y239184D01*
X-414140Y236668D01*
X-414892Y233862D01*
Y230958D01*
X-414140Y228152D01*
X-412688Y225636D01*
X-410634Y223582D01*
X-408118Y222130D01*
X-405312Y221378D01*
X-402408D01*
X-399602Y222130D01*
X-397086Y223582D01*
X-395032Y225636D01*
X-393580Y228152D01*
X-392828Y230958D01*
Y233862D01*
X-393580Y236668D01*
X-395032Y239184D01*
X-397086Y241238D01*
X-399602Y242690D01*
X-402408Y243442D01*
D02*
G37*
G36*
X-959920Y227420D02*
X-966199D01*
X-965751Y225749D01*
X-964747Y224011D01*
X-963329Y222593D01*
X-961591Y221589D01*
X-959920Y221141D01*
Y227420D01*
D02*
G37*
G36*
X17708Y227330D02*
X11430D01*
Y221052D01*
X13101Y221499D01*
X14839Y222502D01*
X16257Y223921D01*
X17261Y225659D01*
X17708Y227330D01*
D02*
G37*
G36*
X8890D02*
X2612D01*
X3059Y225659D01*
X4062Y223921D01*
X5481Y222502D01*
X7219Y221499D01*
X8890Y221052D01*
Y227330D01*
D02*
G37*
G36*
X-14042D02*
X-20320D01*
Y221052D01*
X-18649Y221499D01*
X-16911Y222502D01*
X-15493Y223921D01*
X-14489Y225659D01*
X-14042Y227330D01*
D02*
G37*
G36*
X-22860D02*
X-29139D01*
X-28691Y225659D01*
X-27687Y223921D01*
X-26269Y222502D01*
X-24531Y221499D01*
X-22860Y221052D01*
Y227330D01*
D02*
G37*
G36*
X-793969Y257412D02*
X-798111D01*
X-802175Y256604D01*
X-806002Y255018D01*
X-809447Y252717D01*
X-812377Y249787D01*
X-814678Y246342D01*
X-816264Y242515D01*
X-817072Y238451D01*
Y234308D01*
X-816264Y230245D01*
X-814678Y226418D01*
X-812377Y222973D01*
X-809447Y220043D01*
X-806002Y217742D01*
X-802175Y216156D01*
X-798111Y215348D01*
X-793969D01*
X-789905Y216156D01*
X-786078Y217742D01*
X-782633Y220043D01*
X-779703Y222973D01*
X-777402Y226418D01*
X-775816Y230245D01*
X-775008Y234308D01*
Y238451D01*
X-775816Y242515D01*
X-777402Y246342D01*
X-779703Y249787D01*
X-782633Y252717D01*
X-786078Y255018D01*
X-789905Y256604D01*
X-793969Y257412D01*
D02*
G37*
G36*
X-843960Y235110D02*
X-866770D01*
Y212300D01*
X-865668D01*
X-861016Y213225D01*
X-856634Y215041D01*
X-852690Y217676D01*
X-849336Y221030D01*
X-846701Y224974D01*
X-844885Y229356D01*
X-843960Y234008D01*
Y235110D01*
D02*
G37*
G36*
X-869310D02*
X-892120D01*
Y234008D01*
X-891195Y229356D01*
X-889379Y224974D01*
X-886744Y221030D01*
X-883390Y217676D01*
X-879446Y215041D01*
X-875064Y213225D01*
X-870412Y212300D01*
X-869310D01*
Y235110D01*
D02*
G37*
G36*
X-100406Y218935D02*
X-105969D01*
Y200125D01*
X-100406D01*
Y218935D01*
D02*
G37*
G36*
X-108509Y240285D02*
X-112969D01*
Y220205D01*
Y200125D01*
X-108509D01*
Y220205D01*
Y240285D01*
D02*
G37*
G36*
X-143510Y240260D02*
X-147970D01*
Y220180D01*
Y200100D01*
X-143510D01*
Y220180D01*
Y240260D01*
D02*
G37*
G36*
X-150510D02*
X-154971D01*
Y220180D01*
Y200100D01*
X-150510D01*
Y220180D01*
Y240260D01*
D02*
G37*
G36*
X-157510D02*
X-161971D01*
Y220180D01*
Y200100D01*
X-157510D01*
Y220180D01*
Y240260D01*
D02*
G37*
G36*
X-164511D02*
X-168969D01*
Y220180D01*
Y200100D01*
X-164511D01*
Y220180D01*
Y240260D01*
D02*
G37*
G36*
X-463550Y206210D02*
X-473710D01*
Y205975D01*
X-472931Y203068D01*
X-471426Y200462D01*
X-469298Y198334D01*
X-466692Y196829D01*
X-463785Y196050D01*
X-463550D01*
Y206210D01*
D02*
G37*
G36*
X-580208Y218042D02*
X-583112D01*
X-585918Y217290D01*
X-588434Y215838D01*
X-590488Y213784D01*
X-591940Y211268D01*
X-592692Y208462D01*
Y205558D01*
X-591940Y202752D01*
X-590488Y200236D01*
X-588434Y198182D01*
X-585918Y196730D01*
X-583112Y195978D01*
X-580208D01*
X-577402Y196730D01*
X-574886Y198182D01*
X-572832Y200236D01*
X-571380Y202752D01*
X-570628Y205558D01*
Y208462D01*
X-571380Y211268D01*
X-572832Y213784D01*
X-574886Y215838D01*
X-577402Y217290D01*
X-580208Y218042D01*
D02*
G37*
G36*
X-959920Y198139D02*
X-961591Y197691D01*
X-963329Y196688D01*
X-964747Y195269D01*
X-965751Y193531D01*
X-966199Y191860D01*
X-959920D01*
Y198139D01*
D02*
G37*
G36*
X11430Y198048D02*
Y191770D01*
X17708D01*
X17261Y193441D01*
X16257Y195179D01*
X14839Y196597D01*
X13101Y197601D01*
X11430Y198048D01*
D02*
G37*
G36*
X8890D02*
X7219Y197601D01*
X5481Y196597D01*
X4062Y195179D01*
X3059Y193441D01*
X2612Y191770D01*
X8890D01*
Y198048D01*
D02*
G37*
G36*
X-20320D02*
Y191770D01*
X-14042D01*
X-14489Y193441D01*
X-15493Y195179D01*
X-16911Y196597D01*
X-18649Y197601D01*
X-20320Y198048D01*
D02*
G37*
G36*
X-22860D02*
X-24531Y197601D01*
X-26269Y196597D01*
X-27687Y195179D01*
X-28691Y193441D01*
X-29139Y191770D01*
X-22860D01*
Y198048D01*
D02*
G37*
G36*
X-743117Y207772D02*
X-745323D01*
X-747455Y207201D01*
X-749367Y206097D01*
X-750927Y204537D01*
X-752031Y202625D01*
X-752602Y200494D01*
Y198286D01*
X-752031Y196155D01*
X-750927Y194243D01*
X-749367Y192683D01*
X-747455Y191579D01*
X-745323Y191008D01*
X-743117D01*
X-740985Y191579D01*
X-739073Y192683D01*
X-737513Y194243D01*
X-736409Y196155D01*
X-735838Y198286D01*
Y200494D01*
X-736409Y202625D01*
X-737513Y204537D01*
X-739073Y206097D01*
X-740985Y207201D01*
X-743117Y207772D01*
D02*
G37*
G36*
X-463550Y193510D02*
X-463785D01*
X-466692Y192731D01*
X-469298Y191226D01*
X-471426Y189098D01*
X-472931Y186492D01*
X-473710Y183585D01*
Y183350D01*
X-463550D01*
Y193510D01*
D02*
G37*
G36*
X-959920Y189320D02*
X-966199D01*
X-965751Y187649D01*
X-964747Y185911D01*
X-963329Y184492D01*
X-961591Y183489D01*
X-959920Y183041D01*
Y189320D01*
D02*
G37*
G36*
X17708Y189230D02*
X11430D01*
Y182952D01*
X13101Y183399D01*
X14839Y184403D01*
X16257Y185821D01*
X17261Y187559D01*
X17708Y189230D01*
D02*
G37*
G36*
X8890D02*
X2612D01*
X3059Y187559D01*
X4062Y185821D01*
X5481Y184403D01*
X7219Y183399D01*
X8890Y182952D01*
Y189230D01*
D02*
G37*
G36*
X-14042D02*
X-20320D01*
Y182952D01*
X-18649Y183399D01*
X-16911Y184403D01*
X-15493Y185821D01*
X-14489Y187559D01*
X-14042Y189230D01*
D02*
G37*
G36*
X-22860D02*
X-29139D01*
X-28691Y187559D01*
X-27687Y185821D01*
X-26269Y184403D01*
X-24531Y183399D01*
X-22860Y182952D01*
Y189230D01*
D02*
G37*
G36*
X-460775Y193510D02*
X-461010D01*
Y185264D01*
X-460056Y185275D01*
X-457749Y185431D01*
X-457750Y186530D01*
X-457478Y186289D01*
X-457160Y186073D01*
X-456797Y185883D01*
X-456388Y185718D01*
X-456195Y185659D01*
X-455928Y185725D01*
X-455484Y185893D01*
X-455166Y186086D01*
X-454976Y186305D01*
X-454912Y186549D01*
Y185380D01*
X-454887Y185376D01*
X-454295Y185312D01*
X-452975Y185262D01*
X-452967Y178912D01*
X-453650Y178899D01*
X-454879Y178797D01*
X-454912Y178792D01*
Y177610D01*
X-454976Y177858D01*
X-455166Y178079D01*
X-455484Y178274D01*
X-455928Y178443D01*
X-456196Y178510D01*
X-456380Y178454D01*
X-456788Y178289D01*
X-457151Y178098D01*
X-457469Y177882D01*
X-457740Y177640D01*
X-457742Y178764D01*
X-458023Y178795D01*
X-460056Y178899D01*
X-461262Y178912D01*
Y182080D01*
X-462280D01*
Y180810D01*
X-473710D01*
Y180575D01*
X-472931Y177668D01*
X-471426Y175062D01*
X-469748Y173383D01*
X-469439Y172555D01*
X-469748Y171727D01*
X-471426Y170048D01*
X-472931Y167442D01*
X-473710Y164535D01*
Y164300D01*
X-462280D01*
Y163030D01*
X-462273D01*
Y166212D01*
X-461088Y166223D01*
X-457749Y166477D01*
X-457750Y167480D01*
X-457478Y167239D01*
X-457160Y167023D01*
X-456797Y166833D01*
X-456600Y166754D01*
X-456597Y166755D01*
X-456285Y166921D01*
X-456098Y167109D01*
X-456035Y167320D01*
Y166560D01*
X-455933Y166529D01*
X-455433Y166415D01*
X-454887Y166326D01*
X-454295Y166262D01*
X-452975Y166212D01*
X-452971Y163030D01*
X-450764D01*
Y153630D01*
X-443833D01*
X-442957Y152360D01*
X-443031Y151602D01*
X-443031D01*
Y149586D01*
X-443040Y149540D01*
X-443031Y149493D01*
Y138898D01*
X-430902D01*
Y149493D01*
X-430893Y149540D01*
X-430897Y149562D01*
X-430893Y149585D01*
X-430902Y149986D01*
Y151602D01*
X-430938D01*
X-430985Y153786D01*
Y156678D01*
X-430902D01*
Y158688D01*
X-430893Y158734D01*
X-430893Y158737D01*
X-430893Y158740D01*
X-430902Y158787D01*
Y167273D01*
X-430893Y167320D01*
X-430897Y167342D01*
X-430893Y167365D01*
X-430902Y167766D01*
Y169382D01*
X-430938D01*
X-430985Y171566D01*
Y175548D01*
X-430910D01*
Y175589D01*
X-428328Y175653D01*
X-416008D01*
X-415872Y175642D01*
X-415186Y175538D01*
X-414553Y175397D01*
X-413974Y175221D01*
X-413447Y175011D01*
X-412968Y174771D01*
X-412531Y174499D01*
X-412133Y174196D01*
X-411696Y173790D01*
X-411557Y173705D01*
X-410634Y172782D01*
X-408118Y171330D01*
X-405312Y170578D01*
X-402408D01*
X-399602Y171330D01*
X-397086Y172782D01*
X-395032Y174836D01*
X-393580Y177352D01*
X-392828Y180158D01*
Y183062D01*
X-393580Y185868D01*
X-395032Y188384D01*
X-397086Y190438D01*
X-399602Y191890D01*
X-402408Y192642D01*
X-405312D01*
X-408118Y191890D01*
X-410634Y190438D01*
X-411557Y189515D01*
X-411696Y189430D01*
X-412133Y189024D01*
X-412531Y188721D01*
X-412967Y188449D01*
X-413447Y188209D01*
X-413975Y187999D01*
X-414553Y187823D01*
X-415186Y187682D01*
X-415872Y187578D01*
X-416008Y187567D01*
X-428494D01*
X-430039Y187665D01*
X-430758Y187752D01*
X-430910Y187779D01*
Y188612D01*
X-432840D01*
X-432866Y188619D01*
X-432911Y188612D01*
X-432926D01*
X-432972Y188621D01*
X-433019Y188612D01*
X-436177D01*
X-436752Y188726D01*
X-437327Y188612D01*
X-441862D01*
Y191660D01*
X-449673D01*
Y182080D01*
X-452212D01*
Y191660D01*
X-456013D01*
X-457868Y192731D01*
X-460775Y193510D01*
D02*
G37*
G36*
X-127845Y185472D02*
X-129635D01*
X-130626Y185275D01*
X-132280Y184589D01*
X-133120Y184028D01*
X-134386Y182762D01*
X-134948Y181922D01*
X-135633Y180268D01*
X-135830Y179277D01*
Y177487D01*
X-135633Y176496D01*
X-134948Y174842D01*
X-134386Y174001D01*
X-133120Y172736D01*
X-132280Y172174D01*
X-130626Y171489D01*
X-130626Y171489D01*
X-129635Y171292D01*
X-127845D01*
X-126854Y171489D01*
X-126854Y171489D01*
X-125200Y172174D01*
X-125200Y172174D01*
X-124360Y172736D01*
X-123094Y174001D01*
X-122532Y174842D01*
X-121847Y176495D01*
X-121847Y176496D01*
X-121650Y177487D01*
Y179277D01*
X-121847Y180268D01*
X-121847Y180268D01*
X-122532Y181922D01*
X-122532Y181922D01*
X-123094Y182762D01*
X-124360Y184028D01*
X-125200Y184589D01*
X-126854Y185275D01*
X-127845Y185472D01*
D02*
G37*
G36*
X-287845D02*
X-289635D01*
X-290626Y185275D01*
X-292280Y184589D01*
X-293120Y184028D01*
X-294386Y182762D01*
X-294947Y181922D01*
X-295632Y180268D01*
X-295830Y179277D01*
Y177487D01*
X-295632Y176496D01*
X-294947Y174842D01*
X-294386Y174001D01*
X-293120Y172736D01*
X-292280Y172174D01*
X-290626Y171489D01*
X-290626Y171489D01*
X-289635Y171292D01*
X-287845D01*
X-286853Y171489D01*
X-286853Y171489D01*
X-285200Y172174D01*
X-285199Y172174D01*
X-284359Y172736D01*
X-283093Y174001D01*
X-282532Y174842D01*
X-281847Y176495D01*
X-281847Y176496D01*
X-281650Y177487D01*
Y179277D01*
X-281847Y180268D01*
X-281847Y180268D01*
X-282532Y181922D01*
X-282532Y181922D01*
X-283093Y182762D01*
X-284359Y184028D01*
X-285199Y184589D01*
X-286853Y185275D01*
X-287845Y185472D01*
D02*
G37*
G36*
X-580208Y192642D02*
X-583112D01*
X-585918Y191890D01*
X-588434Y190438D01*
X-590488Y188384D01*
X-591940Y185868D01*
X-592692Y183062D01*
Y180158D01*
X-591940Y177352D01*
X-590488Y174836D01*
X-588434Y172782D01*
X-585918Y171330D01*
X-583112Y170578D01*
X-580208D01*
X-577402Y171330D01*
X-574886Y172782D01*
X-572832Y174836D01*
X-571380Y177352D01*
X-570628Y180158D01*
Y183062D01*
X-571380Y185868D01*
X-572832Y188384D01*
X-574886Y190438D01*
X-577402Y191890D01*
X-580208Y192642D01*
D02*
G37*
G36*
X-453304Y159855D02*
X-453650Y159849D01*
X-454879Y159747D01*
X-455425Y159658D01*
X-455925Y159544D01*
X-456035Y159510D01*
Y158740D01*
X-456098Y158954D01*
X-456285Y159144D01*
X-456597Y159312D01*
X-456602Y159314D01*
X-456788Y159239D01*
X-457151Y159048D01*
X-457469Y158832D01*
X-457740Y158590D01*
X-457742Y159603D01*
X-458281Y159682D01*
X-460028Y159817D01*
X-461010Y159837D01*
Y151600D01*
X-460775D01*
X-459193Y152024D01*
X-458098Y151003D01*
Y141026D01*
X-458107Y140982D01*
X-458105Y140971D01*
X-458107Y140960D01*
X-458098Y140914D01*
Y139731D01*
X-458149Y139645D01*
X-458827Y138967D01*
X-459931Y137055D01*
X-460502Y134923D01*
Y132717D01*
X-459931Y130585D01*
X-458827Y128673D01*
X-457267Y127113D01*
X-455355Y126009D01*
X-453223Y125438D01*
X-451017D01*
X-448885Y126009D01*
X-446973Y127113D01*
X-445413Y128673D01*
X-444309Y130585D01*
X-443738Y132717D01*
Y134923D01*
X-444309Y137055D01*
X-445413Y138967D01*
X-445969Y139523D01*
Y140869D01*
X-445961Y140907D01*
X-445965Y140934D01*
X-445960Y140960D01*
X-445969Y141007D01*
Y151602D01*
X-456674D01*
X-457014Y152872D01*
X-455701Y153630D01*
X-453304D01*
Y159855D01*
D02*
G37*
G36*
X-68595Y173832D02*
X-71105D01*
X-73529Y173182D01*
X-75703Y171928D01*
X-77477Y170153D01*
X-78732Y167979D01*
X-79382Y165555D01*
Y163045D01*
X-78732Y160621D01*
X-77477Y158447D01*
X-75703Y156672D01*
X-73529Y155418D01*
X-71105Y154768D01*
X-68595D01*
X-66171Y155418D01*
X-63997Y156672D01*
X-62222Y158447D01*
X-60968Y160621D01*
X-60318Y163045D01*
Y165555D01*
X-60968Y167979D01*
X-62222Y170153D01*
X-63997Y171928D01*
X-66171Y173182D01*
X-68595Y173832D01*
D02*
G37*
G36*
X-871848D02*
X-890912D01*
Y154768D01*
X-871848D01*
Y173832D01*
D02*
G37*
G36*
X-959920Y160039D02*
X-961591Y159591D01*
X-963329Y158588D01*
X-964747Y157169D01*
X-965751Y155431D01*
X-966199Y153760D01*
X-959920D01*
Y160039D01*
D02*
G37*
G36*
X11430Y159949D02*
Y153670D01*
X17708D01*
X17261Y155341D01*
X16257Y157079D01*
X14839Y158497D01*
X13101Y159501D01*
X11430Y159949D01*
D02*
G37*
G36*
X8890D02*
X7219Y159501D01*
X5481Y158497D01*
X4062Y157079D01*
X3059Y155341D01*
X2612Y153670D01*
X8890D01*
Y159949D01*
D02*
G37*
G36*
X-20320D02*
Y153670D01*
X-14042D01*
X-14489Y155341D01*
X-15493Y157079D01*
X-16911Y158497D01*
X-18649Y159501D01*
X-20320Y159949D01*
D02*
G37*
G36*
X-22860D02*
X-24531Y159501D01*
X-26269Y158497D01*
X-27687Y157079D01*
X-28691Y155341D01*
X-29139Y153670D01*
X-22860D01*
Y159949D01*
D02*
G37*
G36*
X-463550Y161760D02*
X-473710D01*
Y161525D01*
X-472931Y158618D01*
X-471426Y156012D01*
X-469298Y153884D01*
X-466692Y152379D01*
X-463785Y151600D01*
X-463550D01*
Y161760D01*
D02*
G37*
G36*
X-402408Y167242D02*
X-405312D01*
X-408118Y166490D01*
X-410634Y165038D01*
X-412688Y162984D01*
X-414140Y160468D01*
X-414892Y157662D01*
Y154758D01*
X-414140Y151952D01*
X-412688Y149436D01*
X-410634Y147382D01*
X-408118Y145930D01*
X-405312Y145178D01*
X-402408D01*
X-399602Y145930D01*
X-397086Y147382D01*
X-395032Y149436D01*
X-393580Y151952D01*
X-392828Y154758D01*
Y157662D01*
X-393580Y160468D01*
X-395032Y162984D01*
X-397086Y165038D01*
X-399602Y166490D01*
X-402408Y167242D01*
D02*
G37*
G36*
X-580208D02*
X-583112D01*
X-585918Y166490D01*
X-588434Y165038D01*
X-590488Y162984D01*
X-591940Y160468D01*
X-592692Y157662D01*
Y154758D01*
X-591940Y151952D01*
X-590488Y149436D01*
X-588434Y147382D01*
X-585918Y145930D01*
X-583112Y145178D01*
X-580208D01*
X-577402Y145930D01*
X-574886Y147382D01*
X-572832Y149436D01*
X-571380Y151952D01*
X-570628Y154758D01*
Y157662D01*
X-571380Y160468D01*
X-572832Y162984D01*
X-574886Y165038D01*
X-577402Y166490D01*
X-580208Y167242D01*
D02*
G37*
G36*
X-959920Y151220D02*
X-966199D01*
X-965751Y149549D01*
X-964747Y147811D01*
X-963329Y146392D01*
X-961591Y145389D01*
X-959920Y144942D01*
Y151220D01*
D02*
G37*
G36*
X17708Y151130D02*
X11430D01*
Y144852D01*
X13101Y145299D01*
X14839Y146302D01*
X16257Y147721D01*
X17261Y149459D01*
X17708Y151130D01*
D02*
G37*
G36*
X8890D02*
X2612D01*
X3059Y149459D01*
X4062Y147721D01*
X5481Y146302D01*
X7219Y145299D01*
X8890Y144852D01*
Y151130D01*
D02*
G37*
G36*
X-14042D02*
X-20320D01*
Y144852D01*
X-18649Y145299D01*
X-16911Y146302D01*
X-15493Y147721D01*
X-14489Y149459D01*
X-14042Y151130D01*
D02*
G37*
G36*
X-22860D02*
X-29139D01*
X-28691Y149459D01*
X-27687Y147721D01*
X-26269Y146302D01*
X-24531Y145299D01*
X-22860Y144852D01*
Y151130D01*
D02*
G37*
G36*
X-68194Y151480D02*
X-68580D01*
Y140170D01*
X-57270D01*
Y140556D01*
X-58127Y143756D01*
X-59784Y146624D01*
X-62126Y148967D01*
X-64994Y150623D01*
X-68194Y151480D01*
D02*
G37*
G36*
X-696342Y189407D02*
X-698549D01*
X-700681Y188836D01*
X-702592Y187733D01*
X-704153Y186172D01*
X-705256Y184261D01*
X-705827Y182129D01*
Y179922D01*
X-705256Y177790D01*
X-704153Y175879D01*
X-702592Y174318D01*
X-700681Y173214D01*
X-698549Y172643D01*
X-697642D01*
X-697505Y172607D01*
X-697275Y172594D01*
X-697146Y172569D01*
X-696965Y172513D01*
X-696736Y172415D01*
X-696461Y172270D01*
X-696147Y172072D01*
X-695817Y171835D01*
X-695463Y171535D01*
X-684759Y160831D01*
Y151973D01*
X-684793Y151655D01*
X-684863Y151229D01*
X-684945Y150867D01*
X-685037Y150569D01*
X-685130Y150338D01*
X-685218Y150171D01*
X-685292Y150062D01*
X-685444Y149890D01*
X-685516Y149768D01*
X-686157Y149127D01*
X-687261Y147215D01*
X-687832Y145084D01*
Y142877D01*
X-687261Y140745D01*
X-686157Y138833D01*
X-684597Y137273D01*
X-682685Y136169D01*
X-680554Y135598D01*
X-678346D01*
X-676215Y136169D01*
X-674303Y137273D01*
X-672743Y138833D01*
X-671639Y140745D01*
X-671068Y142877D01*
Y145084D01*
X-671639Y147215D01*
X-672743Y149127D01*
X-673384Y149768D01*
X-673456Y149890D01*
X-673608Y150062D01*
X-673682Y150171D01*
X-673770Y150338D01*
X-673864Y150570D01*
X-673955Y150867D01*
X-674037Y151229D01*
X-674103Y151629D01*
X-674141Y152093D01*
Y163030D01*
X-674545Y165062D01*
X-675696Y166784D01*
X-688039Y179127D01*
X-688240Y179377D01*
X-688492Y179727D01*
X-688690Y180042D01*
X-688835Y180316D01*
X-688933Y180546D01*
X-688989Y180726D01*
X-689014Y180855D01*
X-689027Y181085D01*
X-689063Y181222D01*
Y182129D01*
X-689634Y184261D01*
X-690738Y186172D01*
X-692299Y187733D01*
X-694210Y188836D01*
X-696342Y189407D01*
D02*
G37*
G36*
X-880125Y148432D02*
X-882635D01*
X-885059Y147782D01*
X-887233Y146528D01*
X-889007Y144753D01*
X-890262Y142579D01*
X-890912Y140155D01*
Y137645D01*
X-890262Y135221D01*
X-889007Y133047D01*
X-887233Y131272D01*
X-885059Y130018D01*
X-882635Y129368D01*
X-880125D01*
X-877701Y130018D01*
X-875527Y131272D01*
X-873753Y133047D01*
X-872498Y135221D01*
X-871848Y137645D01*
Y140155D01*
X-872498Y142579D01*
X-873753Y144753D01*
X-875527Y146528D01*
X-877701Y147782D01*
X-880125Y148432D01*
D02*
G37*
G36*
X-57270Y137630D02*
X-68580D01*
Y126320D01*
X-68194D01*
X-64994Y127177D01*
X-62126Y128834D01*
X-59784Y131176D01*
X-58127Y134044D01*
X-57270Y137244D01*
Y137630D01*
D02*
G37*
G36*
X-767080Y190970D02*
X-807720D01*
Y124930D01*
X-767080D01*
Y190970D01*
D02*
G37*
G36*
X-402408Y141842D02*
X-405312D01*
X-408118Y141090D01*
X-410634Y139638D01*
X-412688Y137584D01*
X-414140Y135068D01*
X-414892Y132262D01*
Y129358D01*
X-414140Y126552D01*
X-412688Y124036D01*
X-410634Y121982D01*
X-408118Y120530D01*
X-405312Y119778D01*
X-402408D01*
X-399602Y120530D01*
X-397086Y121982D01*
X-395032Y124036D01*
X-393580Y126552D01*
X-392828Y129358D01*
Y132262D01*
X-393580Y135068D01*
X-395032Y137584D01*
X-397086Y139638D01*
X-399602Y141090D01*
X-402408Y141842D01*
D02*
G37*
G36*
X-580208D02*
X-583112D01*
X-585918Y141090D01*
X-588434Y139638D01*
X-590488Y137584D01*
X-591940Y135068D01*
X-592692Y132262D01*
Y129358D01*
X-591940Y126552D01*
X-590488Y124036D01*
X-588434Y121982D01*
X-585918Y120530D01*
X-583112Y119778D01*
X-580208D01*
X-577402Y120530D01*
X-574886Y121982D01*
X-572832Y124036D01*
X-571380Y126552D01*
X-570628Y129358D01*
Y132262D01*
X-571380Y135068D01*
X-572832Y137584D01*
X-574886Y139638D01*
X-577402Y141090D01*
X-580208Y141842D01*
D02*
G37*
G36*
X-957380Y121938D02*
Y115660D01*
X-951102D01*
X-951549Y117331D01*
X-952552Y119069D01*
X-953971Y120487D01*
X-955709Y121491D01*
X-957380Y121938D01*
D02*
G37*
G36*
X-959920D02*
X-961591Y121491D01*
X-963329Y120487D01*
X-964747Y119069D01*
X-965751Y117331D01*
X-966199Y115660D01*
X-959920D01*
Y121938D01*
D02*
G37*
G36*
X11430Y121848D02*
Y115570D01*
X17708D01*
X17261Y117241D01*
X16257Y118979D01*
X14839Y120398D01*
X13101Y121401D01*
X11430Y121848D01*
D02*
G37*
G36*
X8890D02*
X7219Y121401D01*
X5481Y120398D01*
X4062Y118979D01*
X3059Y117241D01*
X2612Y115570D01*
X8890D01*
Y121848D01*
D02*
G37*
G36*
X-951102Y113120D02*
X-957380D01*
Y106841D01*
X-955709Y107289D01*
X-953971Y108293D01*
X-952552Y109711D01*
X-951549Y111449D01*
X-951102Y113120D01*
D02*
G37*
G36*
X-959920D02*
X-966199D01*
X-965751Y111449D01*
X-964747Y109711D01*
X-963329Y108293D01*
X-961591Y107289D01*
X-959920Y106841D01*
Y113120D01*
D02*
G37*
G36*
X17708Y113030D02*
X11430D01*
Y106751D01*
X13101Y107199D01*
X14839Y108202D01*
X16257Y109621D01*
X17261Y111359D01*
X17708Y113030D01*
D02*
G37*
G36*
X8890D02*
X2612D01*
X3059Y111359D01*
X4062Y109621D01*
X5481Y108202D01*
X7219Y107199D01*
X8890Y106751D01*
Y113030D01*
D02*
G37*
G36*
X-68595Y123032D02*
X-71105D01*
X-73529Y122382D01*
X-75703Y121128D01*
X-77477Y119353D01*
X-78732Y117179D01*
X-79382Y114755D01*
Y112245D01*
X-78732Y109821D01*
X-77477Y107647D01*
X-75703Y105872D01*
X-73529Y104618D01*
X-71105Y103968D01*
X-68595D01*
X-66171Y104618D01*
X-63997Y105872D01*
X-62222Y107647D01*
X-60968Y109821D01*
X-60318Y112245D01*
Y114755D01*
X-60968Y117179D01*
X-62222Y119353D01*
X-63997Y121128D01*
X-66171Y122382D01*
X-68595Y123032D01*
D02*
G37*
G36*
X-402408Y116442D02*
X-405312D01*
X-408118Y115690D01*
X-410634Y114238D01*
X-412688Y112184D01*
X-414140Y109668D01*
X-414892Y106862D01*
Y103958D01*
X-414140Y101152D01*
X-412688Y98636D01*
X-410634Y96582D01*
X-408118Y95130D01*
X-405312Y94378D01*
X-402408D01*
X-399602Y95130D01*
X-397086Y96582D01*
X-395032Y98636D01*
X-393580Y101152D01*
X-392828Y103958D01*
Y106862D01*
X-393580Y109668D01*
X-395032Y112184D01*
X-397086Y114238D01*
X-399602Y115690D01*
X-402408Y116442D01*
D02*
G37*
G36*
X-68595Y97632D02*
X-71105D01*
X-73529Y96982D01*
X-75703Y95728D01*
X-77477Y93953D01*
X-78732Y91779D01*
X-79382Y89355D01*
Y86845D01*
X-78732Y84421D01*
X-77477Y82247D01*
X-75703Y80472D01*
X-73529Y79218D01*
X-71105Y78568D01*
X-68595D01*
X-66171Y79218D01*
X-63997Y80472D01*
X-62222Y82247D01*
X-60968Y84421D01*
X-60318Y86845D01*
Y89355D01*
X-60968Y91779D01*
X-62222Y93953D01*
X-63997Y95728D01*
X-66171Y96982D01*
X-68595Y97632D01*
D02*
G37*
G36*
X-957380Y83839D02*
Y77560D01*
X-951102D01*
X-951549Y79231D01*
X-952552Y80969D01*
X-953971Y82388D01*
X-955709Y83391D01*
X-957380Y83839D01*
D02*
G37*
G36*
X-959920D02*
X-961591Y83391D01*
X-963329Y82388D01*
X-964747Y80969D01*
X-965751Y79231D01*
X-966199Y77560D01*
X-959920D01*
Y83839D01*
D02*
G37*
G36*
X11430Y83749D02*
Y77470D01*
X17708D01*
X17261Y79141D01*
X16257Y80879D01*
X14839Y82297D01*
X13101Y83301D01*
X11430Y83749D01*
D02*
G37*
G36*
X8890D02*
X7219Y83301D01*
X5481Y82297D01*
X4062Y80879D01*
X3059Y79141D01*
X2612Y77470D01*
X8890D01*
Y83749D01*
D02*
G37*
G36*
X-402408Y91042D02*
X-405312D01*
X-408118Y90290D01*
X-410634Y88838D01*
X-412688Y86784D01*
X-414140Y84268D01*
X-414892Y81462D01*
Y78558D01*
X-414140Y75752D01*
X-412688Y73236D01*
X-410634Y71182D01*
X-408118Y69730D01*
X-405312Y68978D01*
X-402408D01*
X-399602Y69730D01*
X-397086Y71182D01*
X-395032Y73236D01*
X-393580Y75752D01*
X-392828Y78558D01*
Y81462D01*
X-393580Y84268D01*
X-395032Y86784D01*
X-397086Y88838D01*
X-399602Y90290D01*
X-402408Y91042D01*
D02*
G37*
G36*
X-580208D02*
X-583112D01*
X-585918Y90290D01*
X-588434Y88838D01*
X-590488Y86784D01*
X-591940Y84268D01*
X-592692Y81462D01*
Y78558D01*
X-591940Y75752D01*
X-590488Y73236D01*
X-588434Y71182D01*
X-585918Y69730D01*
X-583112Y68978D01*
X-580208D01*
X-577402Y69730D01*
X-574886Y71182D01*
X-572832Y73236D01*
X-571380Y75752D01*
X-570628Y78558D01*
Y81462D01*
X-571380Y84268D01*
X-572832Y86784D01*
X-574886Y88838D01*
X-577402Y90290D01*
X-580208Y91042D01*
D02*
G37*
G36*
X-951102Y75020D02*
X-957380D01*
Y68741D01*
X-955709Y69189D01*
X-953971Y70192D01*
X-952552Y71611D01*
X-951549Y73349D01*
X-951102Y75020D01*
D02*
G37*
G36*
X-959920D02*
X-966199D01*
X-965751Y73349D01*
X-964747Y71611D01*
X-963329Y70192D01*
X-961591Y69189D01*
X-959920Y68741D01*
Y75020D01*
D02*
G37*
G36*
X17708Y74930D02*
X11430D01*
Y68651D01*
X13101Y69099D01*
X14839Y70103D01*
X16257Y71521D01*
X17261Y73259D01*
X17708Y74930D01*
D02*
G37*
G36*
X8890D02*
X2612D01*
X3059Y73259D01*
X4062Y71521D01*
X5481Y70103D01*
X7219Y69099D01*
X8890Y68651D01*
Y74930D01*
D02*
G37*
G36*
X-809351Y66002D02*
X-811169D01*
X-812850Y65306D01*
X-813435Y64721D01*
X-814020Y65306D01*
X-815701Y66002D01*
X-817519D01*
X-819200Y65306D01*
X-819785Y64721D01*
X-820370Y65306D01*
X-822051Y66002D01*
X-823869D01*
X-825550Y65306D01*
X-826135Y64721D01*
X-826720Y65306D01*
X-828401Y66002D01*
X-830219D01*
X-831900Y65306D01*
X-832485Y64721D01*
X-833070Y65306D01*
X-834751Y66002D01*
X-836569D01*
X-838250Y65306D01*
X-839536Y64020D01*
X-840232Y62339D01*
Y60521D01*
X-839536Y58840D01*
X-838951Y58255D01*
X-839536Y57670D01*
X-840232Y55989D01*
Y54171D01*
X-839536Y52490D01*
X-838250Y51204D01*
X-836569Y50508D01*
X-834751D01*
X-833070Y51204D01*
X-832485Y51789D01*
X-831900Y51204D01*
X-830219Y50508D01*
X-828401D01*
X-826720Y51204D01*
X-826135Y51789D01*
X-825550Y51204D01*
X-823869Y50508D01*
X-822051D01*
X-820370Y51204D01*
X-819785Y51789D01*
X-819200Y51204D01*
X-817519Y50508D01*
X-815701D01*
X-814020Y51204D01*
X-813435Y51789D01*
X-812850Y51204D01*
X-811169Y50508D01*
X-809351D01*
X-807670Y51204D01*
X-806384Y52490D01*
X-805688Y54171D01*
Y55989D01*
X-806384Y57670D01*
X-806969Y58255D01*
X-806384Y58840D01*
X-805688Y60521D01*
Y62339D01*
X-806384Y64020D01*
X-807670Y65306D01*
X-809351Y66002D01*
D02*
G37*
G36*
X-879724Y75280D02*
X-880110D01*
Y63970D01*
X-868800D01*
Y64356D01*
X-869657Y67556D01*
X-871313Y70424D01*
X-873656Y72766D01*
X-876524Y74423D01*
X-879724Y75280D01*
D02*
G37*
G36*
X-882650D02*
X-883036D01*
X-886236Y74423D01*
X-889104Y72766D01*
X-891447Y70424D01*
X-893103Y67556D01*
X-893960Y64356D01*
Y63970D01*
X-882650D01*
Y75280D01*
D02*
G37*
G36*
X-68595Y72232D02*
X-71105D01*
X-73529Y71582D01*
X-75703Y70328D01*
X-77477Y68553D01*
X-78732Y66379D01*
X-79382Y63955D01*
Y61445D01*
X-78732Y59021D01*
X-77477Y56847D01*
X-75703Y55072D01*
X-73529Y53818D01*
X-71105Y53168D01*
X-68595D01*
X-66171Y53818D01*
X-63997Y55072D01*
X-62222Y56847D01*
X-60968Y59021D01*
X-60318Y61445D01*
Y63955D01*
X-60968Y66379D01*
X-62222Y68553D01*
X-63997Y70328D01*
X-66171Y71582D01*
X-68595Y72232D01*
D02*
G37*
G36*
X-868800Y61430D02*
X-880110D01*
Y50120D01*
X-879724D01*
X-876524Y50977D01*
X-873656Y52634D01*
X-871313Y54976D01*
X-869657Y57844D01*
X-868800Y61044D01*
Y61430D01*
D02*
G37*
G36*
X-882650D02*
X-893960D01*
Y61044D01*
X-893103Y57844D01*
X-891447Y54976D01*
X-889104Y52634D01*
X-886236Y50977D01*
X-883036Y50120D01*
X-882650D01*
Y61430D01*
D02*
G37*
G36*
X-687070Y55080D02*
X-687305D01*
X-690212Y54301D01*
X-692818Y52796D01*
X-694946Y50668D01*
X-695350Y49969D01*
X-696609Y49803D01*
X-697163Y50357D01*
X-699075Y51461D01*
X-701207Y52032D01*
X-703413D01*
X-705545Y51461D01*
X-707457Y50357D01*
X-709017Y48797D01*
X-710121Y46885D01*
X-710692Y44753D01*
Y42547D01*
X-710121Y40415D01*
X-709017Y38503D01*
X-707457Y36943D01*
X-705545Y35839D01*
X-703413Y35268D01*
X-701207D01*
X-699075Y35839D01*
X-697163Y36943D01*
X-696609Y37497D01*
X-695350Y37331D01*
X-694946Y36632D01*
X-692818Y34504D01*
X-690212Y32999D01*
X-687305Y32220D01*
X-687070D01*
Y43650D01*
Y55080D01*
D02*
G37*
G36*
X-684295D02*
X-684530D01*
Y44920D01*
X-674370D01*
Y45155D01*
X-675149Y48062D01*
X-676654Y50668D01*
X-678782Y52796D01*
X-681388Y54301D01*
X-684295Y55080D01*
D02*
G37*
G36*
X-749065D02*
X-749300D01*
Y44920D01*
X-739140D01*
Y45155D01*
X-739919Y48062D01*
X-741424Y50668D01*
X-743552Y52796D01*
X-746158Y54301D01*
X-749065Y55080D01*
D02*
G37*
G36*
X-751840D02*
X-752075D01*
X-754982Y54301D01*
X-757588Y52796D01*
X-759716Y50668D01*
X-761221Y48062D01*
X-762000Y45155D01*
Y44920D01*
X-751840D01*
Y55080D01*
D02*
G37*
G36*
X-402408Y65642D02*
X-405312D01*
X-408118Y64890D01*
X-410634Y63438D01*
X-412688Y61384D01*
X-414140Y58868D01*
X-414892Y56062D01*
Y53158D01*
X-414140Y50352D01*
X-412688Y47836D01*
X-410634Y45782D01*
X-408118Y44330D01*
X-405312Y43578D01*
X-402408D01*
X-399602Y44330D01*
X-397086Y45782D01*
X-395032Y47836D01*
X-393580Y50352D01*
X-392828Y53158D01*
Y56062D01*
X-393580Y58868D01*
X-395032Y61384D01*
X-397086Y63438D01*
X-399602Y64890D01*
X-402408Y65642D01*
D02*
G37*
G36*
X-580208D02*
X-583112D01*
X-585918Y64890D01*
X-588434Y63438D01*
X-590488Y61384D01*
X-591940Y58868D01*
X-592692Y56062D01*
Y53158D01*
X-591940Y50352D01*
X-590488Y47836D01*
X-588434Y45782D01*
X-585918Y44330D01*
X-583112Y43578D01*
X-580208D01*
X-577402Y44330D01*
X-574886Y45782D01*
X-572832Y47836D01*
X-571380Y50352D01*
X-570628Y53158D01*
Y56062D01*
X-571380Y58868D01*
X-572832Y61384D01*
X-574886Y63438D01*
X-577402Y64890D01*
X-580208Y65642D01*
D02*
G37*
G36*
X-957380Y45739D02*
Y39460D01*
X-951102D01*
X-951549Y41131D01*
X-952552Y42869D01*
X-953971Y44288D01*
X-955709Y45291D01*
X-957380Y45739D01*
D02*
G37*
G36*
X-959920D02*
X-961591Y45291D01*
X-963329Y44288D01*
X-964747Y42869D01*
X-965751Y41131D01*
X-966199Y39460D01*
X-959920D01*
Y45739D01*
D02*
G37*
G36*
X11430Y45648D02*
Y39370D01*
X17708D01*
X17261Y41041D01*
X16257Y42779D01*
X14839Y44198D01*
X13101Y45201D01*
X11430Y45648D01*
D02*
G37*
G36*
X8890D02*
X7219Y45201D01*
X5481Y44198D01*
X4062Y42779D01*
X3059Y41041D01*
X2612Y39370D01*
X8890D01*
Y45648D01*
D02*
G37*
G36*
X-20320D02*
Y39370D01*
X-14042D01*
X-14489Y41041D01*
X-15493Y42779D01*
X-16911Y44198D01*
X-18649Y45201D01*
X-20320Y45648D01*
D02*
G37*
G36*
X-22860D02*
X-24531Y45201D01*
X-26269Y44198D01*
X-27687Y42779D01*
X-28691Y41041D01*
X-29139Y39370D01*
X-22860D01*
Y45648D01*
D02*
G37*
G36*
X-674370Y42380D02*
X-684530D01*
Y32220D01*
X-684295D01*
X-681388Y32999D01*
X-678782Y34504D01*
X-676654Y36632D01*
X-675149Y39238D01*
X-674370Y42145D01*
Y42380D01*
D02*
G37*
G36*
X-739140D02*
X-749300D01*
Y32220D01*
X-749065D01*
X-746158Y32999D01*
X-743552Y34504D01*
X-741424Y36632D01*
X-739919Y39238D01*
X-739140Y42145D01*
Y42380D01*
D02*
G37*
G36*
X-751840D02*
X-762000D01*
Y42145D01*
X-761221Y39238D01*
X-759716Y36632D01*
X-757588Y34504D01*
X-754982Y32999D01*
X-752075Y32220D01*
X-751840D01*
Y42380D01*
D02*
G37*
G36*
X-951102Y36920D02*
X-957380D01*
Y30642D01*
X-955709Y31089D01*
X-953971Y32092D01*
X-952552Y33511D01*
X-951549Y35249D01*
X-951102Y36920D01*
D02*
G37*
G36*
X-959920D02*
X-966199D01*
X-965751Y35249D01*
X-964747Y33511D01*
X-963329Y32092D01*
X-961591Y31089D01*
X-959920Y30642D01*
Y36920D01*
D02*
G37*
G36*
X17708Y36830D02*
X11430D01*
Y30552D01*
X13101Y30999D01*
X14839Y32002D01*
X16257Y33421D01*
X17261Y35159D01*
X17708Y36830D01*
D02*
G37*
G36*
X8890D02*
X2612D01*
X3059Y35159D01*
X4062Y33421D01*
X5481Y32002D01*
X7219Y30999D01*
X8890Y30552D01*
Y36830D01*
D02*
G37*
G36*
X-14042D02*
X-20320D01*
Y30552D01*
X-18649Y30999D01*
X-16911Y32002D01*
X-15493Y33421D01*
X-14489Y35159D01*
X-14042Y36830D01*
D02*
G37*
G36*
X-22860D02*
X-29139D01*
X-28691Y35159D01*
X-27687Y33421D01*
X-26269Y32002D01*
X-24531Y30999D01*
X-22860Y30552D01*
Y36830D01*
D02*
G37*
G36*
X-60318Y46832D02*
X-79382D01*
Y27768D01*
X-60318D01*
Y46832D01*
D02*
G37*
G36*
X-880125D02*
X-882635D01*
X-885059Y46182D01*
X-887233Y44928D01*
X-889007Y43153D01*
X-890262Y40979D01*
X-890912Y38555D01*
Y36045D01*
X-890262Y33621D01*
X-889007Y31447D01*
X-887233Y29673D01*
X-885059Y28418D01*
X-882635Y27768D01*
X-880125D01*
X-877701Y28418D01*
X-875527Y29673D01*
X-873753Y31447D01*
X-872498Y33621D01*
X-871848Y36045D01*
Y38555D01*
X-872498Y40979D01*
X-873753Y43153D01*
X-875527Y44928D01*
X-877701Y46182D01*
X-880125Y46832D01*
D02*
G37*
G36*
X-402408Y40242D02*
X-405312D01*
X-408118Y39490D01*
X-410634Y38038D01*
X-412688Y35984D01*
X-414140Y33468D01*
X-414892Y30662D01*
Y27758D01*
X-414140Y24952D01*
X-412688Y22436D01*
X-410634Y20382D01*
X-408118Y18930D01*
X-405312Y18178D01*
X-402408D01*
X-399602Y18930D01*
X-397086Y20382D01*
X-395032Y22436D01*
X-393580Y24952D01*
X-392828Y27758D01*
Y30662D01*
X-393580Y33468D01*
X-395032Y35984D01*
X-397086Y38038D01*
X-399602Y39490D01*
X-402408Y40242D01*
D02*
G37*
G36*
X-580208D02*
X-583112D01*
X-585918Y39490D01*
X-588434Y38038D01*
X-590488Y35984D01*
X-591940Y33468D01*
X-592692Y30662D01*
Y27758D01*
X-591940Y24952D01*
X-590488Y22436D01*
X-588434Y20382D01*
X-585918Y18930D01*
X-583112Y18178D01*
X-580208D01*
X-577402Y18930D01*
X-574886Y20382D01*
X-572832Y22436D01*
X-571380Y24952D01*
X-570628Y27758D01*
Y30662D01*
X-571380Y33468D01*
X-572832Y35984D01*
X-574886Y38038D01*
X-577402Y39490D01*
X-580208Y40242D01*
D02*
G37*
G36*
X-707390Y12629D02*
X-709061Y12181D01*
X-710799Y11178D01*
X-712217Y9759D01*
X-713221Y8021D01*
X-713415Y7297D01*
X-714753Y7209D01*
X-714944Y7670D01*
X-716230Y8956D01*
X-717911Y9652D01*
X-719729D01*
X-721410Y8956D01*
X-722696Y7670D01*
X-723392Y5989D01*
Y4171D01*
X-722696Y2490D01*
X-721410Y1204D01*
X-719729Y508D01*
X-717911D01*
X-716230Y1204D01*
X-714944Y2490D01*
X-714753Y2951D01*
X-713415Y2863D01*
X-713221Y2139D01*
X-712217Y401D01*
X-710799Y-1018D01*
X-709061Y-2021D01*
X-707390Y-2468D01*
Y5080D01*
Y12629D01*
D02*
G37*
G36*
X-704850D02*
Y6350D01*
X-698571D01*
X-699019Y8021D01*
X-700023Y9759D01*
X-701441Y11178D01*
X-703179Y12181D01*
X-704850Y12629D01*
D02*
G37*
G36*
X-957380Y7638D02*
Y1360D01*
X-951102D01*
X-951549Y3031D01*
X-952552Y4769D01*
X-953971Y6187D01*
X-955709Y7191D01*
X-957380Y7638D01*
D02*
G37*
G36*
X-959920D02*
X-961591Y7191D01*
X-963329Y6187D01*
X-964747Y4769D01*
X-965751Y3031D01*
X-966199Y1360D01*
X-959920D01*
Y7638D01*
D02*
G37*
G36*
X11430Y7548D02*
Y1270D01*
X17708D01*
X17261Y2941D01*
X16257Y4679D01*
X14839Y6097D01*
X13101Y7101D01*
X11430Y7548D01*
D02*
G37*
G36*
X8890D02*
X7219Y7101D01*
X5481Y6097D01*
X4062Y4679D01*
X3059Y2941D01*
X2612Y1270D01*
X8890D01*
Y7548D01*
D02*
G37*
G36*
X-20320D02*
Y1270D01*
X-14042D01*
X-14489Y2941D01*
X-15493Y4679D01*
X-16911Y6097D01*
X-18649Y7101D01*
X-20320Y7548D01*
D02*
G37*
G36*
X-22860D02*
X-24531Y7101D01*
X-26269Y6097D01*
X-27687Y4679D01*
X-28691Y2941D01*
X-29139Y1270D01*
X-22860D01*
Y7548D01*
D02*
G37*
G36*
X-698571Y3810D02*
X-704850D01*
Y-2468D01*
X-703179Y-2021D01*
X-701441Y-1018D01*
X-700023Y401D01*
X-699019Y2139D01*
X-698571Y3810D01*
D02*
G37*
G36*
X-402408Y14842D02*
X-405312D01*
X-408118Y14090D01*
X-410634Y12638D01*
X-412688Y10584D01*
X-414140Y8068D01*
X-414892Y5262D01*
Y2358D01*
X-414140Y-448D01*
X-412688Y-2964D01*
X-410634Y-5018D01*
X-408118Y-6470D01*
X-405312Y-7222D01*
X-402408D01*
X-399602Y-6470D01*
X-397086Y-5018D01*
X-395032Y-2964D01*
X-393580Y-448D01*
X-392828Y2358D01*
Y5262D01*
X-393580Y8068D01*
X-395032Y10584D01*
X-397086Y12638D01*
X-399602Y14090D01*
X-402408Y14842D01*
D02*
G37*
G36*
X-580208D02*
X-583112D01*
X-585918Y14090D01*
X-588434Y12638D01*
X-590488Y10584D01*
X-591940Y8068D01*
X-592692Y5262D01*
Y2358D01*
X-591940Y-448D01*
X-590488Y-2964D01*
X-588434Y-5018D01*
X-585918Y-6470D01*
X-583112Y-7222D01*
X-580208D01*
X-577402Y-6470D01*
X-574886Y-5018D01*
X-572832Y-2964D01*
X-571380Y-448D01*
X-570628Y2358D01*
Y5262D01*
X-571380Y8068D01*
X-572832Y10584D01*
X-574886Y12638D01*
X-577402Y14090D01*
X-580208Y14842D01*
D02*
G37*
G36*
X-951102Y-1180D02*
X-957380D01*
Y-7459D01*
X-955709Y-7011D01*
X-953971Y-6008D01*
X-952552Y-4589D01*
X-951549Y-2851D01*
X-951102Y-1180D01*
D02*
G37*
G36*
X-959920D02*
X-966199D01*
X-965751Y-2851D01*
X-964747Y-4589D01*
X-963329Y-6008D01*
X-961591Y-7011D01*
X-959920Y-7459D01*
Y-1180D01*
D02*
G37*
G36*
X17708Y-1270D02*
X11430D01*
Y-7548D01*
X13101Y-7101D01*
X14839Y-6097D01*
X16257Y-4679D01*
X17261Y-2941D01*
X17708Y-1270D01*
D02*
G37*
G36*
X8890D02*
X2612D01*
X3059Y-2941D01*
X4062Y-4679D01*
X5481Y-6097D01*
X7219Y-7101D01*
X8890Y-7548D01*
Y-1270D01*
D02*
G37*
G36*
X-14042D02*
X-20320D01*
Y-7548D01*
X-18649Y-7101D01*
X-16911Y-6097D01*
X-15493Y-4679D01*
X-14489Y-2941D01*
X-14042Y-1270D01*
D02*
G37*
G36*
X-22860D02*
X-29139D01*
X-28691Y-2941D01*
X-27687Y-4679D01*
X-26269Y-6097D01*
X-24531Y-7101D01*
X-22860Y-7548D01*
Y-1270D01*
D02*
G37*
G36*
X-623904Y-10668D02*
X-625776D01*
X-627585Y-11153D01*
X-629207Y-12089D01*
X-629285Y-12167D01*
X-629363Y-12089D01*
X-630985Y-11153D01*
X-632794Y-10668D01*
X-634666D01*
X-636475Y-11153D01*
X-638097Y-12089D01*
X-638175Y-12167D01*
X-638253Y-12089D01*
X-639875Y-11153D01*
X-641684Y-10668D01*
X-643556D01*
X-645365Y-11153D01*
X-646987Y-12089D01*
X-647065Y-12167D01*
X-647143Y-12089D01*
X-648765Y-11153D01*
X-650574Y-10668D01*
X-652446D01*
X-654255Y-11153D01*
X-655877Y-12089D01*
X-657201Y-13413D01*
X-658137Y-15035D01*
X-658622Y-16844D01*
Y-18716D01*
X-658137Y-20525D01*
X-657201Y-22147D01*
X-657123Y-22225D01*
X-657201Y-22303D01*
X-658137Y-23925D01*
X-658622Y-25734D01*
Y-27606D01*
X-658137Y-29415D01*
X-657201Y-31037D01*
X-655877Y-32361D01*
X-654255Y-33297D01*
X-652446Y-33782D01*
X-650574D01*
X-648765Y-33297D01*
X-647143Y-32361D01*
X-647065Y-32283D01*
X-646987Y-32361D01*
X-645365Y-33297D01*
X-643556Y-33782D01*
X-641684D01*
X-639875Y-33297D01*
X-638253Y-32361D01*
X-638175Y-32283D01*
X-638097Y-32361D01*
X-636475Y-33297D01*
X-634666Y-33782D01*
X-632794D01*
X-630985Y-33297D01*
X-629363Y-32361D01*
X-629285Y-32283D01*
X-629207Y-32361D01*
X-627585Y-33297D01*
X-625776Y-33782D01*
X-623904D01*
X-622095Y-33297D01*
X-620473Y-32361D01*
X-619149Y-31037D01*
X-618213Y-29415D01*
X-617728Y-27606D01*
Y-25734D01*
X-618213Y-23925D01*
X-619149Y-22303D01*
X-619227Y-22225D01*
X-619149Y-22147D01*
X-618213Y-20525D01*
X-617728Y-18716D01*
Y-16844D01*
X-618213Y-15035D01*
X-619149Y-13413D01*
X-620473Y-12089D01*
X-622095Y-11153D01*
X-623904Y-10668D01*
D02*
G37*
G36*
X-150069Y17140D02*
X-153424D01*
X-156714Y16486D01*
X-159814Y15202D01*
X-162603Y13338D01*
X-164976Y10965D01*
X-166840Y8176D01*
X-168123Y5076D01*
X-168778Y1786D01*
Y-1569D01*
X-168123Y-4860D01*
X-166840Y-7960D01*
X-164976Y-10749D01*
X-162603Y-13122D01*
X-159814Y-14986D01*
X-156714Y-16270D01*
X-153424Y-16924D01*
X-150069D01*
X-146778Y-16270D01*
X-143678Y-14986D01*
X-140889Y-13122D01*
X-138516Y-10749D01*
X-136652Y-7960D01*
X-135368Y-4860D01*
X-134714Y-1569D01*
Y1786D01*
X-135368Y5076D01*
X-136652Y8176D01*
X-138516Y10965D01*
X-140889Y13338D01*
X-143678Y15202D01*
X-146778Y16486D01*
X-150069Y17140D01*
D02*
G37*
G36*
X-301999D02*
X-305354D01*
X-308644Y16486D01*
X-311744Y15202D01*
X-314533Y13338D01*
X-316906Y10965D01*
X-318770Y8176D01*
X-320053Y5076D01*
X-320708Y1786D01*
Y-1569D01*
X-320053Y-4860D01*
X-318770Y-7960D01*
X-316906Y-10749D01*
X-314533Y-13122D01*
X-311744Y-14986D01*
X-308644Y-16270D01*
X-305354Y-16924D01*
X-301999D01*
X-298708Y-16270D01*
X-295608Y-14986D01*
X-292819Y-13122D01*
X-290446Y-10749D01*
X-288582Y-7960D01*
X-287299Y-4860D01*
X-286644Y-1569D01*
Y1786D01*
X-287299Y5076D01*
X-288582Y8176D01*
X-290446Y10965D01*
X-292819Y13338D01*
X-295608Y15202D01*
X-298708Y16486D01*
X-301999Y17140D01*
D02*
G37*
G36*
X-402408Y-10558D02*
X-405312D01*
X-408118Y-11310D01*
X-410634Y-12762D01*
X-412688Y-14816D01*
X-414140Y-17332D01*
X-414892Y-20138D01*
Y-23042D01*
X-414140Y-25848D01*
X-412688Y-28364D01*
X-410634Y-30418D01*
X-408118Y-31870D01*
X-405312Y-32622D01*
X-402408D01*
X-399602Y-31870D01*
X-397086Y-30418D01*
X-395032Y-28364D01*
X-393580Y-25848D01*
X-392828Y-23042D01*
Y-20138D01*
X-393580Y-17332D01*
X-395032Y-14816D01*
X-397086Y-12762D01*
X-399602Y-11310D01*
X-402408Y-10558D01*
D02*
G37*
G36*
X-580208D02*
X-583112D01*
X-585918Y-11310D01*
X-588434Y-12762D01*
X-590488Y-14816D01*
X-591940Y-17332D01*
X-592692Y-20138D01*
Y-23042D01*
X-591940Y-25848D01*
X-590488Y-28364D01*
X-588434Y-30418D01*
X-585918Y-31870D01*
X-583112Y-32622D01*
X-580208D01*
X-577402Y-31870D01*
X-574886Y-30418D01*
X-572832Y-28364D01*
X-571380Y-25848D01*
X-570628Y-23042D01*
Y-20138D01*
X-571380Y-17332D01*
X-572832Y-14816D01*
X-574886Y-12762D01*
X-577402Y-11310D01*
X-580208Y-10558D01*
D02*
G37*
G36*
Y116442D02*
X-583112D01*
X-585918Y115690D01*
X-588434Y114238D01*
X-590488Y112184D01*
X-591940Y109668D01*
X-592692Y106862D01*
Y105524D01*
X-592731Y105331D01*
X-592738Y104028D01*
X-592875Y101735D01*
X-592996Y100802D01*
X-593152Y99966D01*
X-593336Y99254D01*
X-593540Y98668D01*
X-593753Y98211D01*
X-593959Y97881D01*
X-594006Y97825D01*
X-713780Y-21949D01*
X-714510Y-23041D01*
X-714766Y-24330D01*
Y-25546D01*
X-715762Y-26542D01*
X-716458Y-28222D01*
Y-30041D01*
X-715762Y-31721D01*
X-714476Y-33007D01*
X-712795Y-33703D01*
X-710976D01*
X-709296Y-33007D01*
X-708010Y-31721D01*
X-707314Y-30041D01*
Y-28222D01*
X-708010Y-26542D01*
X-708015Y-26536D01*
X-708033Y-26282D01*
Y-25724D01*
X-589245Y93064D01*
X-589189Y93111D01*
X-588859Y93317D01*
X-588402Y93530D01*
X-587816Y93734D01*
X-587104Y93918D01*
X-586268Y94074D01*
X-585336Y94195D01*
X-583042Y94332D01*
X-581739Y94339D01*
X-581546Y94378D01*
X-580208D01*
X-577402Y95130D01*
X-574886Y96582D01*
X-572832Y98636D01*
X-571380Y101152D01*
X-570628Y103958D01*
Y106862D01*
X-571380Y109668D01*
X-572832Y112184D01*
X-574886Y114238D01*
X-577402Y115690D01*
X-580208Y116442D01*
D02*
G37*
G36*
X-957380Y-30461D02*
Y-36740D01*
X-951102D01*
X-951549Y-35069D01*
X-952552Y-33331D01*
X-953971Y-31913D01*
X-955709Y-30909D01*
X-957380Y-30461D01*
D02*
G37*
G36*
X-959920D02*
X-961591Y-30909D01*
X-963329Y-31913D01*
X-964747Y-33331D01*
X-965751Y-35069D01*
X-966199Y-36740D01*
X-959920D01*
Y-30461D01*
D02*
G37*
G36*
X11430Y-30552D02*
Y-36830D01*
X17708D01*
X17261Y-35159D01*
X16257Y-33421D01*
X14839Y-32002D01*
X13101Y-30999D01*
X11430Y-30552D01*
D02*
G37*
G36*
X8890D02*
X7219Y-30999D01*
X5481Y-32002D01*
X4062Y-33421D01*
X3059Y-35159D01*
X2612Y-36830D01*
X8890D01*
Y-30552D01*
D02*
G37*
G36*
X-20320D02*
Y-36830D01*
X-14042D01*
X-14489Y-35159D01*
X-15493Y-33421D01*
X-16911Y-32002D01*
X-18649Y-30999D01*
X-20320Y-30552D01*
D02*
G37*
G36*
X-22860D02*
X-24531Y-30999D01*
X-26269Y-32002D01*
X-27687Y-33421D01*
X-28691Y-35159D01*
X-29139Y-36830D01*
X-22860D01*
Y-30552D01*
D02*
G37*
G36*
X-951102Y-39280D02*
X-957380D01*
Y-45559D01*
X-955709Y-45111D01*
X-953971Y-44107D01*
X-952552Y-42689D01*
X-951549Y-40951D01*
X-951102Y-39280D01*
D02*
G37*
G36*
X-959920D02*
X-966199D01*
X-965751Y-40951D01*
X-964747Y-42689D01*
X-963329Y-44107D01*
X-961591Y-45111D01*
X-959920Y-45559D01*
Y-39280D01*
D02*
G37*
G36*
X17708Y-39370D02*
X11430D01*
Y-45648D01*
X13101Y-45201D01*
X14839Y-44198D01*
X16257Y-42779D01*
X17261Y-41041D01*
X17708Y-39370D01*
D02*
G37*
G36*
X8890D02*
X2612D01*
X3059Y-41041D01*
X4062Y-42779D01*
X5481Y-44198D01*
X7219Y-45201D01*
X8890Y-45648D01*
Y-39370D01*
D02*
G37*
G36*
X-14042D02*
X-20320D01*
Y-45648D01*
X-18649Y-45201D01*
X-16911Y-44198D01*
X-15493Y-42779D01*
X-14489Y-41041D01*
X-14042Y-39370D01*
D02*
G37*
G36*
X-22860D02*
X-29139D01*
X-28691Y-41041D01*
X-27687Y-42779D01*
X-26269Y-44198D01*
X-24531Y-45201D01*
X-22860Y-45648D01*
Y-39370D01*
D02*
G37*
G36*
X-402408Y-35958D02*
X-405312D01*
X-408118Y-36710D01*
X-410634Y-38162D01*
X-412688Y-40216D01*
X-414140Y-42732D01*
X-414892Y-45538D01*
Y-48442D01*
X-414140Y-51248D01*
X-412688Y-53764D01*
X-410634Y-55818D01*
X-408118Y-57270D01*
X-405312Y-58022D01*
X-402408D01*
X-399602Y-57270D01*
X-397086Y-55818D01*
X-395032Y-53764D01*
X-393580Y-51248D01*
X-392828Y-48442D01*
Y-45538D01*
X-393580Y-42732D01*
X-395032Y-40216D01*
X-397086Y-38162D01*
X-399602Y-36710D01*
X-402408Y-35958D01*
D02*
G37*
G36*
X-580208D02*
X-583112D01*
X-585918Y-36710D01*
X-588434Y-38162D01*
X-590488Y-40216D01*
X-591940Y-42732D01*
X-592692Y-45538D01*
Y-48442D01*
X-591940Y-51248D01*
X-590488Y-53764D01*
X-588434Y-55818D01*
X-585918Y-57270D01*
X-583112Y-58022D01*
X-580208D01*
X-577402Y-57270D01*
X-574886Y-55818D01*
X-572832Y-53764D01*
X-571380Y-51248D01*
X-570628Y-48442D01*
Y-45538D01*
X-571380Y-42732D01*
X-572832Y-40216D01*
X-574886Y-38162D01*
X-577402Y-36710D01*
X-580208Y-35958D01*
D02*
G37*
G36*
X-759225Y-50800D02*
X-759460D01*
Y-60960D01*
X-749300D01*
Y-60725D01*
X-750079Y-57818D01*
X-751584Y-55212D01*
X-753712Y-53084D01*
X-756318Y-51579D01*
X-759225Y-50800D01*
D02*
G37*
G36*
X-762000D02*
X-762235D01*
X-765142Y-51579D01*
X-767748Y-53084D01*
X-769876Y-55212D01*
X-771381Y-57818D01*
X-772160Y-60725D01*
Y-60960D01*
X-762000D01*
Y-50800D01*
D02*
G37*
G36*
X-749300Y-63500D02*
X-759460D01*
Y-73660D01*
X-759225D01*
X-756318Y-72881D01*
X-753712Y-71376D01*
X-751584Y-69248D01*
X-750079Y-66642D01*
X-749300Y-63735D01*
Y-63500D01*
D02*
G37*
G36*
X-762000D02*
X-772160D01*
Y-63735D01*
X-771381Y-66642D01*
X-769876Y-69248D01*
X-767748Y-71376D01*
X-765142Y-72881D01*
X-762235Y-73660D01*
X-762000D01*
Y-63500D01*
D02*
G37*
G36*
X-957380Y-68562D02*
Y-74840D01*
X-951102D01*
X-951549Y-73169D01*
X-952552Y-71431D01*
X-953971Y-70012D01*
X-955709Y-69009D01*
X-957380Y-68562D01*
D02*
G37*
G36*
X-959920D02*
X-961591Y-69009D01*
X-963329Y-70012D01*
X-964747Y-71431D01*
X-965751Y-73169D01*
X-966199Y-74840D01*
X-959920D01*
Y-68562D01*
D02*
G37*
G36*
X11430Y-68651D02*
Y-74930D01*
X17708D01*
X17261Y-73259D01*
X16257Y-71521D01*
X14839Y-70103D01*
X13101Y-69099D01*
X11430Y-68651D01*
D02*
G37*
G36*
X8890D02*
X7219Y-69099D01*
X5481Y-70103D01*
X4062Y-71521D01*
X3059Y-73259D01*
X2612Y-74930D01*
X8890D01*
Y-68651D01*
D02*
G37*
G36*
X-20320D02*
Y-74930D01*
X-14042D01*
X-14489Y-73259D01*
X-15493Y-71521D01*
X-16911Y-70103D01*
X-18649Y-69099D01*
X-20320Y-68651D01*
D02*
G37*
G36*
X-22860D02*
X-24531Y-69099D01*
X-26269Y-70103D01*
X-27687Y-71521D01*
X-28691Y-73259D01*
X-29139Y-74930D01*
X-22860D01*
Y-68651D01*
D02*
G37*
G36*
X-402408Y-61358D02*
X-405312D01*
X-408118Y-62110D01*
X-410634Y-63562D01*
X-412688Y-65616D01*
X-414140Y-68132D01*
X-414892Y-70938D01*
Y-73842D01*
X-414140Y-76648D01*
X-412688Y-79164D01*
X-410634Y-81218D01*
X-408118Y-82670D01*
X-405312Y-83422D01*
X-402408D01*
X-399602Y-82670D01*
X-397086Y-81218D01*
X-395032Y-79164D01*
X-393580Y-76648D01*
X-392828Y-73842D01*
Y-70938D01*
X-393580Y-68132D01*
X-395032Y-65616D01*
X-397086Y-63562D01*
X-399602Y-62110D01*
X-402408Y-61358D01*
D02*
G37*
G36*
X-951102Y-77380D02*
X-957380D01*
Y-83659D01*
X-955709Y-83211D01*
X-953971Y-82207D01*
X-952552Y-80789D01*
X-951549Y-79051D01*
X-951102Y-77380D01*
D02*
G37*
G36*
X-959920D02*
X-966199D01*
X-965751Y-79051D01*
X-964747Y-80789D01*
X-963329Y-82207D01*
X-961591Y-83211D01*
X-959920Y-83659D01*
Y-77380D01*
D02*
G37*
G36*
X17708Y-77470D02*
X11430D01*
Y-83749D01*
X13101Y-83301D01*
X14839Y-82297D01*
X16257Y-80879D01*
X17261Y-79141D01*
X17708Y-77470D01*
D02*
G37*
G36*
X8890D02*
X2612D01*
X3059Y-79141D01*
X4062Y-80879D01*
X5481Y-82297D01*
X7219Y-83301D01*
X8890Y-83749D01*
Y-77470D01*
D02*
G37*
G36*
X-14042D02*
X-20320D01*
Y-83749D01*
X-18649Y-83301D01*
X-16911Y-82297D01*
X-15493Y-80879D01*
X-14489Y-79141D01*
X-14042Y-77470D01*
D02*
G37*
G36*
X-22860D02*
X-29139D01*
X-28691Y-79141D01*
X-27687Y-80879D01*
X-26269Y-82297D01*
X-24531Y-83301D01*
X-22860Y-83749D01*
Y-77470D01*
D02*
G37*
G36*
X-238927Y-60998D02*
X-241133D01*
X-243265Y-61569D01*
X-245177Y-62673D01*
X-246737Y-64233D01*
X-247841Y-66145D01*
X-248412Y-68277D01*
Y-70483D01*
X-247841Y-72615D01*
X-246737Y-74527D01*
X-246382Y-74882D01*
Y-76848D01*
X-246391Y-76894D01*
X-246382Y-76941D01*
Y-86961D01*
X-233678D01*
Y-76941D01*
X-233669Y-76894D01*
X-233678Y-76848D01*
Y-74882D01*
X-233323Y-74527D01*
X-232219Y-72615D01*
X-231648Y-70483D01*
Y-68277D01*
X-232219Y-66145D01*
X-233323Y-64233D01*
X-234883Y-62673D01*
X-236795Y-61569D01*
X-238927Y-60998D01*
D02*
G37*
G36*
X-264326D02*
X-266534D01*
X-268665Y-61569D01*
X-270577Y-62673D01*
X-272137Y-64233D01*
X-273241Y-66145D01*
X-273812Y-68277D01*
Y-70483D01*
X-273241Y-72615D01*
X-272137Y-74527D01*
X-271782Y-74882D01*
Y-76848D01*
X-271791Y-76894D01*
X-271782Y-76941D01*
Y-86961D01*
X-259078D01*
Y-76941D01*
X-259069Y-76894D01*
X-259078Y-76848D01*
Y-74882D01*
X-258723Y-74527D01*
X-257619Y-72615D01*
X-257048Y-70483D01*
Y-68277D01*
X-257619Y-66145D01*
X-258723Y-64233D01*
X-260283Y-62673D01*
X-262195Y-61569D01*
X-264326Y-60998D01*
D02*
G37*
G36*
X-580208Y-61358D02*
X-583112D01*
X-585918Y-62110D01*
X-588434Y-63562D01*
X-590488Y-65616D01*
X-591940Y-68132D01*
X-592692Y-70938D01*
Y-73842D01*
X-591940Y-76648D01*
X-590488Y-79164D01*
X-588434Y-81218D01*
X-585918Y-82670D01*
X-585229Y-82855D01*
Y-84170D01*
X-587095Y-84670D01*
X-590305Y-86523D01*
X-592927Y-89145D01*
X-594780Y-92355D01*
X-595740Y-95936D01*
Y-96520D01*
X-581660D01*
X-567580D01*
Y-95936D01*
X-568540Y-92355D01*
X-570393Y-89145D01*
X-573015Y-86523D01*
X-576225Y-84670D01*
X-578091Y-84170D01*
Y-82855D01*
X-577402Y-82670D01*
X-574886Y-81218D01*
X-572832Y-79164D01*
X-571380Y-76648D01*
X-570628Y-73842D01*
Y-70938D01*
X-571380Y-68132D01*
X-572832Y-65616D01*
X-574886Y-63562D01*
X-577402Y-62110D01*
X-580208Y-61358D01*
D02*
G37*
G36*
X-444205Y-100655D02*
X-444440D01*
X-447347Y-101434D01*
X-449953Y-102939D01*
X-452082Y-105067D01*
X-453586Y-107673D01*
X-454365Y-110580D01*
Y-110815D01*
X-444205D01*
Y-100655D01*
D02*
G37*
G36*
X-957380Y-106662D02*
Y-112940D01*
X-951102D01*
X-951549Y-111269D01*
X-952552Y-109531D01*
X-953971Y-108112D01*
X-955709Y-107109D01*
X-957380Y-106662D01*
D02*
G37*
G36*
X-959920D02*
X-961591Y-107109D01*
X-963329Y-108112D01*
X-964747Y-109531D01*
X-965751Y-111269D01*
X-966199Y-112940D01*
X-959920D01*
Y-106662D01*
D02*
G37*
G36*
X11430Y-106751D02*
Y-113030D01*
X17708D01*
X17261Y-111359D01*
X16257Y-109621D01*
X14839Y-108202D01*
X13101Y-107199D01*
X11430Y-106751D01*
D02*
G37*
G36*
X8890D02*
X7219Y-107199D01*
X5481Y-108202D01*
X4062Y-109621D01*
X3059Y-111359D01*
X2612Y-113030D01*
X8890D01*
Y-106751D01*
D02*
G37*
G36*
X-20320D02*
Y-113030D01*
X-14042D01*
X-14489Y-111359D01*
X-15493Y-109621D01*
X-16911Y-108202D01*
X-18649Y-107199D01*
X-20320Y-106751D01*
D02*
G37*
G36*
X-22860D02*
X-24531Y-107199D01*
X-26269Y-108202D01*
X-27687Y-109621D01*
X-28691Y-111359D01*
X-29139Y-113030D01*
X-22860D01*
Y-106751D01*
D02*
G37*
G36*
X-289174Y-105060D02*
X-289560D01*
Y-116370D01*
X-278250D01*
Y-115984D01*
X-279107Y-112784D01*
X-280763Y-109916D01*
X-283106Y-107573D01*
X-285974Y-105917D01*
X-289174Y-105060D01*
D02*
G37*
G36*
X-292100D02*
X-292486D01*
X-295686Y-105917D01*
X-298554Y-107573D01*
X-300896Y-109916D01*
X-302553Y-112784D01*
X-303410Y-115984D01*
Y-116370D01*
X-292100D01*
Y-105060D01*
D02*
G37*
G36*
X-951102Y-115480D02*
X-957380D01*
Y-121758D01*
X-955709Y-121311D01*
X-953971Y-120308D01*
X-952552Y-118889D01*
X-951549Y-117151D01*
X-951102Y-115480D01*
D02*
G37*
G36*
X-959920D02*
X-966199D01*
X-965751Y-117151D01*
X-964747Y-118889D01*
X-963329Y-120308D01*
X-961591Y-121311D01*
X-959920Y-121758D01*
Y-115480D01*
D02*
G37*
G36*
X17708Y-115570D02*
X11430D01*
Y-121848D01*
X13101Y-121401D01*
X14839Y-120398D01*
X16257Y-118979D01*
X17261Y-117241D01*
X17708Y-115570D01*
D02*
G37*
G36*
X8890D02*
X2612D01*
X3059Y-117241D01*
X4062Y-118979D01*
X5481Y-120398D01*
X7219Y-121401D01*
X8890Y-121848D01*
Y-115570D01*
D02*
G37*
G36*
X-14042D02*
X-20320D01*
Y-121848D01*
X-18649Y-121401D01*
X-16911Y-120398D01*
X-15493Y-118979D01*
X-14489Y-117241D01*
X-14042Y-115570D01*
D02*
G37*
G36*
X-22860D02*
X-29139D01*
X-28691Y-117241D01*
X-27687Y-118979D01*
X-26269Y-120398D01*
X-24531Y-121401D01*
X-22860Y-121848D01*
Y-115570D01*
D02*
G37*
G36*
X-137175Y-108108D02*
X-139685D01*
X-142109Y-108758D01*
X-144283Y-110013D01*
X-146058Y-111787D01*
X-147312Y-113961D01*
X-147962Y-116385D01*
Y-118895D01*
X-147312Y-121319D01*
X-146058Y-123493D01*
X-144283Y-125267D01*
X-142109Y-126522D01*
X-139685Y-127172D01*
X-137175D01*
X-134751Y-126522D01*
X-132577Y-125267D01*
X-130802Y-123493D01*
X-129548Y-121319D01*
X-128898Y-118895D01*
Y-116385D01*
X-129548Y-113961D01*
X-130802Y-111787D01*
X-132577Y-110013D01*
X-134751Y-108758D01*
X-137175Y-108108D01*
D02*
G37*
G36*
X-162575D02*
X-165085D01*
X-167509Y-108758D01*
X-169683Y-110013D01*
X-171458Y-111787D01*
X-172712Y-113961D01*
X-173362Y-116385D01*
Y-118895D01*
X-172712Y-121319D01*
X-171458Y-123493D01*
X-169683Y-125267D01*
X-167509Y-126522D01*
X-165085Y-127172D01*
X-162575D01*
X-160151Y-126522D01*
X-157977Y-125267D01*
X-156202Y-123493D01*
X-154948Y-121319D01*
X-154298Y-118895D01*
Y-116385D01*
X-154948Y-113961D01*
X-156202Y-111787D01*
X-157977Y-110013D01*
X-160151Y-108758D01*
X-162575Y-108108D01*
D02*
G37*
G36*
X-187975D02*
X-190485D01*
X-192909Y-108758D01*
X-195083Y-110013D01*
X-196857Y-111787D01*
X-198112Y-113961D01*
X-198762Y-116385D01*
Y-118895D01*
X-198112Y-121319D01*
X-196857Y-123493D01*
X-195083Y-125267D01*
X-192909Y-126522D01*
X-190485Y-127172D01*
X-187975D01*
X-185551Y-126522D01*
X-183377Y-125267D01*
X-181602Y-123493D01*
X-180348Y-121319D01*
X-179698Y-118895D01*
Y-116385D01*
X-180348Y-113961D01*
X-181602Y-111787D01*
X-183377Y-110013D01*
X-185551Y-108758D01*
X-187975Y-108108D01*
D02*
G37*
G36*
X-213375D02*
X-215885D01*
X-218309Y-108758D01*
X-220483Y-110013D01*
X-222257Y-111787D01*
X-223512Y-113961D01*
X-224162Y-116385D01*
Y-118895D01*
X-223512Y-121319D01*
X-222257Y-123493D01*
X-220483Y-125267D01*
X-218309Y-126522D01*
X-215885Y-127172D01*
X-213375D01*
X-210951Y-126522D01*
X-208777Y-125267D01*
X-207003Y-123493D01*
X-205748Y-121319D01*
X-205098Y-118895D01*
Y-116385D01*
X-205748Y-113961D01*
X-207003Y-111787D01*
X-208777Y-110013D01*
X-210951Y-108758D01*
X-213375Y-108108D01*
D02*
G37*
G36*
X-233678Y-89899D02*
X-246382D01*
Y-99919D01*
X-246391Y-99965D01*
X-246382Y-100012D01*
Y-100139D01*
X-246383Y-100149D01*
X-246382Y-100153D01*
Y-102028D01*
X-246179D01*
X-245986Y-105093D01*
Y-108305D01*
X-246025Y-108679D01*
X-246107Y-109205D01*
X-246207Y-109658D01*
X-246319Y-110035D01*
X-246437Y-110334D01*
X-246550Y-110556D01*
X-246651Y-110707D01*
X-246834Y-110913D01*
X-246903Y-111033D01*
X-247658Y-111787D01*
X-248912Y-113961D01*
X-249562Y-116385D01*
Y-118895D01*
X-248912Y-121319D01*
X-247658Y-123493D01*
X-245883Y-125267D01*
X-243709Y-126522D01*
X-241285Y-127172D01*
X-238775D01*
X-236351Y-126522D01*
X-234177Y-125267D01*
X-232402Y-123493D01*
X-231148Y-121319D01*
X-230498Y-118895D01*
Y-116385D01*
X-231148Y-113961D01*
X-232402Y-111787D01*
X-233157Y-111033D01*
X-233226Y-110913D01*
X-233409Y-110707D01*
X-233510Y-110556D01*
X-233624Y-110334D01*
X-233741Y-110035D01*
X-233853Y-109658D01*
X-233953Y-109205D01*
X-234031Y-108703D01*
X-234074Y-108170D01*
Y-102858D01*
X-234072Y-102790D01*
X-234025Y-102028D01*
X-233678D01*
Y-100153D01*
X-233677Y-100149D01*
X-233678Y-100139D01*
Y-100012D01*
X-233669Y-99965D01*
X-233678Y-99919D01*
Y-89899D01*
D02*
G37*
G36*
X-259078D02*
X-271782D01*
Y-99919D01*
X-271791Y-99965D01*
X-271782Y-100012D01*
Y-100139D01*
X-271783Y-100149D01*
X-271782Y-100153D01*
Y-102028D01*
X-271579D01*
X-271387Y-105093D01*
Y-108305D01*
X-271425Y-108679D01*
X-271507Y-109205D01*
X-271607Y-109658D01*
X-271719Y-110035D01*
X-271836Y-110334D01*
X-271950Y-110556D01*
X-272051Y-110707D01*
X-272234Y-110913D01*
X-272303Y-111033D01*
X-273057Y-111787D01*
X-274312Y-113961D01*
X-274962Y-116385D01*
Y-118895D01*
X-274312Y-121319D01*
X-273057Y-123493D01*
X-271283Y-125267D01*
X-269109Y-126522D01*
X-266685Y-127172D01*
X-264175D01*
X-261751Y-126522D01*
X-259577Y-125267D01*
X-257803Y-123493D01*
X-256548Y-121319D01*
X-255898Y-118895D01*
Y-116385D01*
X-256548Y-113961D01*
X-257803Y-111787D01*
X-258557Y-111033D01*
X-258626Y-110913D01*
X-258809Y-110707D01*
X-258910Y-110556D01*
X-259024Y-110334D01*
X-259141Y-110035D01*
X-259253Y-109658D01*
X-259353Y-109205D01*
X-259431Y-108703D01*
X-259473Y-108170D01*
Y-102858D01*
X-259473Y-102790D01*
X-259424Y-102028D01*
X-259078D01*
Y-100153D01*
X-259077Y-100149D01*
X-259078Y-100139D01*
Y-100012D01*
X-259069Y-99965D01*
X-259078Y-99919D01*
Y-89899D01*
D02*
G37*
G36*
X-306698Y-108108D02*
X-325762D01*
Y-127172D01*
X-306698D01*
Y-108108D01*
D02*
G37*
G36*
X-278250Y-118910D02*
X-289560D01*
Y-130220D01*
X-289174D01*
X-285974Y-129363D01*
X-283106Y-127706D01*
X-280763Y-125364D01*
X-279107Y-122496D01*
X-278250Y-119296D01*
Y-118910D01*
D02*
G37*
G36*
X-292100D02*
X-303410D01*
Y-119296D01*
X-302553Y-122496D01*
X-300896Y-125364D01*
X-298554Y-127706D01*
X-295686Y-129363D01*
X-292486Y-130220D01*
X-292100D01*
Y-118910D01*
D02*
G37*
G36*
X-567580Y-99060D02*
X-581660D01*
X-595740D01*
Y-99644D01*
X-594780Y-103225D01*
X-592927Y-106435D01*
X-590305Y-109057D01*
X-587095Y-110910D01*
X-585229Y-111410D01*
Y-112725D01*
X-585918Y-112910D01*
X-588434Y-114362D01*
X-590488Y-116416D01*
X-591940Y-118932D01*
X-592692Y-121738D01*
Y-124642D01*
X-591940Y-127448D01*
X-590488Y-129964D01*
X-588434Y-132018D01*
X-585918Y-133470D01*
X-583112Y-134222D01*
X-580208D01*
X-577402Y-133470D01*
X-574886Y-132018D01*
X-572832Y-129964D01*
X-571380Y-127448D01*
X-570628Y-124642D01*
Y-121738D01*
X-571380Y-118932D01*
X-572832Y-116416D01*
X-574886Y-114362D01*
X-577402Y-112910D01*
X-578091Y-112725D01*
Y-111410D01*
X-576225Y-110910D01*
X-573015Y-109057D01*
X-570393Y-106435D01*
X-568540Y-103225D01*
X-567580Y-99644D01*
Y-99060D01*
D02*
G37*
G36*
X-8382Y-145110D02*
X-9090D01*
Y-163920D01*
X9720D01*
Y-163212D01*
X8948Y-159333D01*
X7435Y-155679D01*
X5237Y-152390D01*
X2440Y-149593D01*
X-849Y-147395D01*
X-4503Y-145882D01*
X-8382Y-145110D01*
D02*
G37*
G36*
X-11630D02*
X-12338D01*
X-16217Y-145882D01*
X-19871Y-147395D01*
X-23160Y-149593D01*
X-25957Y-152390D01*
X-28155Y-155679D01*
X-29668Y-159333D01*
X-30440Y-163212D01*
Y-163920D01*
X-11630D01*
Y-145110D01*
D02*
G37*
G36*
X-938382D02*
X-939090D01*
Y-163920D01*
X-920280D01*
Y-163212D01*
X-921052Y-159333D01*
X-922565Y-155679D01*
X-924763Y-152390D01*
X-927560Y-149593D01*
X-930849Y-147395D01*
X-934503Y-145882D01*
X-938382Y-145110D01*
D02*
G37*
G36*
X-941630D02*
X-942338D01*
X-946217Y-145882D01*
X-949871Y-147395D01*
X-953160Y-149593D01*
X-955957Y-152390D01*
X-958155Y-155679D01*
X-959668Y-159333D01*
X-960440Y-163212D01*
Y-163920D01*
X-941630D01*
Y-145110D01*
D02*
G37*
G36*
X9720Y-166460D02*
X-9090D01*
Y-185270D01*
X-8382D01*
X-4503Y-184498D01*
X-849Y-182985D01*
X2440Y-180787D01*
X5237Y-177990D01*
X7435Y-174701D01*
X8948Y-171047D01*
X9720Y-167168D01*
Y-166460D01*
D02*
G37*
G36*
X-11630D02*
X-30440D01*
Y-167168D01*
X-29668Y-171047D01*
X-28155Y-174701D01*
X-25957Y-177990D01*
X-23160Y-180787D01*
X-19871Y-182985D01*
X-16217Y-184498D01*
X-12338Y-185270D01*
X-11630D01*
Y-166460D01*
D02*
G37*
G36*
X-920280D02*
X-939090D01*
Y-185270D01*
X-938382D01*
X-934503Y-184498D01*
X-930849Y-182985D01*
X-927560Y-180787D01*
X-924763Y-177990D01*
X-922565Y-174701D01*
X-921052Y-171047D01*
X-920280Y-167168D01*
Y-166460D01*
D02*
G37*
G36*
X-941630D02*
X-960440D01*
Y-167168D01*
X-959668Y-171047D01*
X-958155Y-174701D01*
X-955957Y-177990D01*
X-953160Y-180787D01*
X-949871Y-182985D01*
X-946217Y-184498D01*
X-942338Y-185270D01*
X-941630D01*
Y-166460D01*
D02*
G37*
%LPD*%
G36*
X-886736Y108250D02*
X-887161Y108644D01*
X-887625Y108997D01*
X-888125Y109308D01*
X-888662Y109578D01*
X-889238Y109806D01*
X-889850Y109993D01*
X-890500Y110138D01*
X-891188Y110242D01*
X-891913Y110304D01*
X-892675Y110325D01*
Y116675D01*
X-891913Y116696D01*
X-891188Y116758D01*
X-890500Y116862D01*
X-889850Y117007D01*
X-889238Y117194D01*
X-888662Y117422D01*
X-888125Y117692D01*
X-887625Y118003D01*
X-887161Y118356D01*
X-886736Y118750D01*
Y108250D01*
D02*
G37*
G36*
X-133237Y311258D02*
X-133121Y310934D01*
X-132929Y310648D01*
X-132661Y310401D01*
X-132315Y310191D01*
X-131892Y310020D01*
X-131796Y309994D01*
X-131562Y310088D01*
X-131344Y310203D01*
X-131154Y310332D01*
X-130991Y310477D01*
Y309820D01*
X-130817Y309791D01*
X-130164Y309734D01*
X-129434Y309715D01*
Y305905D01*
X-130164Y305886D01*
X-130817Y305829D01*
X-130991Y305800D01*
Y305143D01*
X-131154Y305288D01*
X-131344Y305417D01*
X-131562Y305532D01*
X-131796Y305626D01*
X-131892Y305600D01*
X-132315Y305429D01*
X-132661Y305219D01*
X-132929Y304972D01*
X-133121Y304686D01*
X-133237Y304362D01*
X-133275Y304000D01*
Y305883D01*
X-133856Y305905D01*
Y309715D01*
X-133446Y309723D01*
X-133275Y309737D01*
Y311620D01*
X-133237Y311258D01*
D02*
G37*
G36*
X-156285Y309929D02*
X-156209Y309905D01*
X-155909Y309837D01*
X-155582Y309784D01*
X-155227Y309746D01*
X-154434Y309715D01*
Y305905D01*
X-154844Y305897D01*
X-155582Y305836D01*
X-155909Y305783D01*
X-156209Y305714D01*
X-156285Y305691D01*
Y304000D01*
X-156323Y304362D01*
X-156439Y304686D01*
X-156631Y304972D01*
X-156899Y305219D01*
X-157078Y305327D01*
X-157136Y305288D01*
X-157299Y305143D01*
Y305451D01*
X-157668Y305600D01*
X-158167Y305734D01*
X-158743Y305829D01*
X-159396Y305886D01*
X-160020Y305902D01*
X-160644Y305886D01*
X-161297Y305829D01*
X-161873Y305734D01*
X-162372Y305600D01*
X-162741Y305451D01*
Y305143D01*
X-162904Y305288D01*
X-162962Y305327D01*
X-163141Y305219D01*
X-163409Y304972D01*
X-163601Y304686D01*
X-163717Y304362D01*
X-163755Y304000D01*
Y305691D01*
X-163831Y305714D01*
X-164131Y305783D01*
X-164458Y305836D01*
X-165196Y305897D01*
X-165606Y305905D01*
Y309715D01*
X-164813Y309746D01*
X-164458Y309784D01*
X-164131Y309837D01*
X-163831Y309905D01*
X-163755Y309929D01*
Y311620D01*
X-163717Y311258D01*
X-163601Y310934D01*
X-163409Y310648D01*
X-163141Y310401D01*
X-162962Y310293D01*
X-162904Y310332D01*
X-162741Y310477D01*
Y310169D01*
X-162372Y310020D01*
X-161873Y309886D01*
X-161297Y309791D01*
X-160644Y309734D01*
X-160020Y309718D01*
X-159396Y309734D01*
X-158743Y309791D01*
X-158167Y309886D01*
X-157668Y310020D01*
X-157299Y310169D01*
Y310477D01*
X-157136Y310332D01*
X-157078Y310293D01*
X-156899Y310401D01*
X-156631Y310648D01*
X-156439Y310934D01*
X-156323Y311258D01*
X-156285Y311620D01*
Y309929D01*
D02*
G37*
G36*
X-238106Y286300D02*
X-238049Y285647D01*
X-237953Y285071D01*
X-237873Y284769D01*
X-237363D01*
X-237508Y284606D01*
X-237637Y284415D01*
X-237705Y284287D01*
X-237649Y284149D01*
X-237439Y283804D01*
X-237192Y283535D01*
X-236906Y283343D01*
X-236582Y283228D01*
X-236220Y283189D01*
X-238034D01*
X-238056Y283052D01*
X-238095Y282697D01*
X-238125Y281904D01*
X-241935D01*
X-241943Y282314D01*
X-242004Y283052D01*
X-242026Y283189D01*
X-243840D01*
X-243478Y283228D01*
X-243154Y283343D01*
X-242868Y283535D01*
X-242621Y283804D01*
X-242411Y284149D01*
X-242355Y284287D01*
X-242423Y284415D01*
X-242552Y284606D01*
X-242697Y284769D01*
X-242187D01*
X-242106Y285071D01*
X-242011Y285647D01*
X-241954Y286300D01*
X-241935Y287030D01*
X-238125D01*
X-238106Y286300D01*
D02*
G37*
G36*
X-292780Y261272D02*
X-293103Y261157D01*
X-293389Y260965D01*
X-293637Y260696D01*
X-293846Y260351D01*
X-294018Y259928D01*
X-294151Y259429D01*
X-294246Y258853D01*
X-294303Y258200D01*
X-294322Y257470D01*
X-298132D01*
X-298151Y258200D01*
X-298209Y258853D01*
X-298304Y259429D01*
X-298437Y259928D01*
X-298609Y260351D01*
X-298818Y260696D01*
X-299066Y260965D01*
X-299352Y261157D01*
X-299676Y261272D01*
X-300037Y261311D01*
X-292418D01*
X-292780Y261272D01*
D02*
G37*
G36*
X-311360D02*
X-311683Y261157D01*
X-311969Y260965D01*
X-312217Y260696D01*
X-312426Y260351D01*
X-312598Y259928D01*
X-312731Y259429D01*
X-312826Y258853D01*
X-312883Y258200D01*
X-312903Y257470D01*
X-316713D01*
X-316732Y258200D01*
X-316789Y258853D01*
X-316884Y259429D01*
X-317017Y259928D01*
X-317189Y260351D01*
X-317398Y260696D01*
X-317646Y260965D01*
X-317932Y261157D01*
X-318256Y261272D01*
X-318618Y261311D01*
X-310998D01*
X-311360Y261272D01*
D02*
G37*
G36*
X-173791Y260705D02*
X-174114Y260588D01*
X-174400Y260395D01*
X-174648Y260126D01*
X-174857Y259780D01*
X-175029Y259358D01*
X-175162Y258859D01*
X-175257Y258284D01*
X-175315Y257633D01*
X-175334Y256905D01*
X-179144D01*
X-179148Y257628D01*
X-179342Y260372D01*
X-179403Y260562D01*
X-179472Y260676D01*
X-179550Y260714D01*
X-173429Y260745D01*
X-173791Y260705D01*
D02*
G37*
G36*
X-187480Y260714D02*
X-187833Y260676D01*
X-188148Y260562D01*
X-188426Y260372D01*
X-188667Y260105D01*
X-188871Y259762D01*
X-189037Y259343D01*
X-189167Y258848D01*
X-189260Y258276D01*
X-189316Y257628D01*
X-189334Y256905D01*
X-193144D01*
X-193163Y257633D01*
X-193220Y258285D01*
X-193316Y258860D01*
X-193449Y259359D01*
X-193620Y259781D01*
X-193830Y260127D01*
X-194078Y260396D01*
X-194363Y260589D01*
X-194687Y260705D01*
X-195049Y260745D01*
X-187480Y260714D01*
D02*
G37*
G36*
X-298835Y251724D02*
X-298778Y251507D01*
X-298692Y251280D01*
X-298577Y251043D01*
X-298434Y250797D01*
X-298262Y250541D01*
X-298061Y250275D01*
X-297575Y249713D01*
X-297289Y249418D01*
X-299724Y246465D01*
X-300020Y246749D01*
X-300586Y247220D01*
X-300857Y247407D01*
X-301120Y247563D01*
X-301374Y247686D01*
X-301621Y247778D01*
X-301859Y247838D01*
X-302090Y247865D01*
X-302312Y247861D01*
X-298864Y251931D01*
X-298835Y251724D01*
D02*
G37*
G36*
X-279361Y247836D02*
X-279546Y247747D01*
X-279711Y247622D01*
X-279858Y247461D01*
X-279984Y247265D01*
X-280091Y247033D01*
X-280179Y246764D01*
X-280247Y246460D01*
X-280296Y246120D01*
X-280325Y245745D01*
X-280335Y245333D01*
X-284145Y245657D01*
X-284210Y250006D01*
X-279361Y247836D01*
D02*
G37*
G36*
X-173791Y312691D02*
Y301458D01*
X-168910D01*
Y270781D01*
X-181612D01*
Y260869D01*
X-181617Y260851D01*
X-181612Y260815D01*
Y260752D01*
X-181621Y260704D01*
X-181612Y260659D01*
Y258652D01*
X-181297D01*
X-181253Y258023D01*
Y247471D01*
X-181302Y247030D01*
X-181406Y246485D01*
X-181549Y245964D01*
X-181733Y245463D01*
X-181957Y244979D01*
X-182224Y244509D01*
X-182536Y244050D01*
X-182813Y243704D01*
X-185955Y240562D01*
X-187225Y241088D01*
Y257759D01*
X-187202Y258021D01*
X-187138Y258418D01*
X-187077Y258652D01*
X-185418D01*
Y260660D01*
X-185409Y260706D01*
X-185418Y260754D01*
Y270781D01*
X-198122D01*
Y258652D01*
X-195405D01*
X-195343Y258422D01*
X-195277Y258024D01*
X-195253Y257751D01*
Y237212D01*
X-205814D01*
X-205848Y238468D01*
X-203701Y239357D01*
X-202057Y241001D01*
X-201168Y243148D01*
Y245472D01*
X-202057Y247619D01*
X-203701Y249263D01*
X-205848Y250152D01*
X-208172D01*
X-210319Y249263D01*
X-211963Y247619D01*
X-212852Y245472D01*
Y244532D01*
X-212888Y244395D01*
X-212892Y244321D01*
X-212896Y244308D01*
X-212925Y244241D01*
X-212981Y244135D01*
X-213069Y243994D01*
X-213178Y243844D01*
X-213314Y243682D01*
X-213828Y243169D01*
X-215098Y243695D01*
Y253612D01*
X-212502Y256208D01*
X-204470D01*
X-203677Y256366D01*
X-203005Y256815D01*
X-203005Y256815D01*
X-201735Y258085D01*
X-201286Y258757D01*
X-201128Y259550D01*
X-201128Y259550D01*
X-201128Y269710D01*
X-201128Y269710D01*
X-201286Y270503D01*
X-201735Y271175D01*
X-203005Y272445D01*
X-203677Y272894D01*
X-204470Y273052D01*
X-204470Y273052D01*
X-232297Y273052D01*
X-233498Y273218D01*
X-233498Y274322D01*
Y285282D01*
X-233498D01*
X-234191Y286320D01*
X-234188Y286328D01*
Y288652D01*
X-235077Y290799D01*
X-236721Y292443D01*
X-238868Y293332D01*
X-241192D01*
X-243339Y292443D01*
X-244983Y290799D01*
X-245872Y288652D01*
Y286328D01*
X-245869Y286320D01*
X-246562Y285282D01*
X-246562D01*
X-246562Y273708D01*
X-246567Y273202D01*
X-246922Y272098D01*
X-247845Y271175D01*
X-248294Y270503D01*
X-248452Y269710D01*
X-248452Y269710D01*
X-248452Y259550D01*
X-248294Y258757D01*
X-247845Y258085D01*
X-247845Y258085D01*
X-246575Y256815D01*
X-245903Y256366D01*
X-245110Y256208D01*
X-245110Y256208D01*
X-225648D01*
X-223052Y253612D01*
Y237212D01*
X-237025D01*
Y203200D01*
X-243454D01*
Y237212D01*
X-251023D01*
Y203200D01*
X-257454D01*
Y237212D01*
X-272024D01*
Y203432D01*
X-273294Y203200D01*
X-278455D01*
Y219026D01*
X-278226Y220180D01*
Y245961D01*
X-278208Y246086D01*
X-278202Y246114D01*
X-277361Y246462D01*
X-275717Y248105D01*
X-274828Y250252D01*
Y252577D01*
X-275717Y254724D01*
X-277361Y256367D01*
X-279508Y257257D01*
X-281832D01*
X-283979Y256367D01*
X-285623Y254724D01*
X-286014Y253780D01*
X-287259Y253532D01*
X-291675Y257948D01*
X-291149Y259218D01*
X-289695D01*
Y271282D01*
X-302759D01*
Y259218D01*
X-300724D01*
X-300566Y258339D01*
X-301043Y257910D01*
X-301600Y257496D01*
X-303826D01*
X-305974Y256607D01*
X-307617Y254964D01*
X-308506Y252817D01*
Y250492D01*
X-307617Y248345D01*
X-305974Y246702D01*
X-303826Y245812D01*
X-302401D01*
X-302272Y245789D01*
X-302221Y245790D01*
X-302189Y245779D01*
X-302101Y245736D01*
X-301975Y245662D01*
X-301840Y245568D01*
X-301660Y245418D01*
X-300372Y244130D01*
Y240802D01*
X-301642Y240277D01*
X-310793Y249428D01*
Y258319D01*
X-310769Y258593D01*
X-310704Y258991D01*
X-310643Y259218D01*
X-308428D01*
Y271282D01*
X-321492D01*
Y259218D01*
X-318972D01*
X-318912Y258992D01*
X-318846Y258593D01*
X-318822Y258318D01*
Y247765D01*
X-318516Y246229D01*
X-317646Y244927D01*
X-311084Y238365D01*
X-311570Y237192D01*
X-314025D01*
Y203200D01*
X-314030D01*
X-336550Y180680D01*
Y150707D01*
X-336680Y150055D01*
Y138065D01*
X-336550Y137413D01*
Y-128270D01*
X-394970Y-186690D01*
X-822960Y-186690D01*
X-850900Y-158750D01*
X-850900Y-128270D01*
X-848360Y-125730D01*
X-822960Y-125730D01*
X-820420Y-128270D01*
X-820420Y-142240D01*
X-811530Y-151130D01*
X-468630D01*
X-447222Y-129722D01*
X-437229D01*
Y-119728D01*
X-427990Y-110490D01*
X-394970D01*
X-386080Y-101600D01*
Y306540D01*
X-372110Y320510D01*
X-181610D01*
X-173791Y312691D01*
D02*
G37*
G36*
X-207048Y240500D02*
X-207266Y240487D01*
X-207492Y240444D01*
X-207727Y240371D01*
X-207971Y240267D01*
X-208223Y240134D01*
X-208484Y239970D01*
X-208753Y239776D01*
X-209031Y239552D01*
X-209613Y239013D01*
X-212307Y241707D01*
X-212022Y242003D01*
X-211544Y242567D01*
X-211350Y242836D01*
X-211186Y243097D01*
X-211053Y243349D01*
X-210949Y243593D01*
X-210876Y243828D01*
X-210833Y244054D01*
X-210820Y244272D01*
X-207048Y240500D01*
D02*
G37*
G36*
X-175334Y243601D02*
X-179144Y235192D01*
X-179171Y235889D01*
X-179251Y236456D01*
X-179386Y236893D01*
X-179575Y237200D01*
X-179817Y237376D01*
X-180114Y237423D01*
X-180464Y237339D01*
X-180868Y237126D01*
X-181326Y236782D01*
X-181838Y236308D01*
Y241696D01*
X-181326Y242246D01*
X-180868Y242819D01*
X-180464Y243413D01*
X-180114Y244030D01*
X-179817Y244669D01*
X-179575Y245331D01*
X-179386Y246015D01*
X-179251Y246721D01*
X-179171Y247450D01*
X-179144Y248200D01*
X-175334Y243601D01*
D02*
G37*
G36*
X-204470Y270980D02*
X-203200Y269710D01*
X-203200Y259550D01*
X-204470Y258280D01*
X-213360D01*
X-217170Y254470D01*
Y204940D01*
X-220980D01*
Y254470D01*
X-224790Y258280D01*
X-245110D01*
X-246380Y259550D01*
X-246380Y269710D01*
X-245110Y270980D01*
X-204470Y270980D01*
D02*
G37*
G36*
X-189336Y194840D02*
X-189328Y194430D01*
X-189267Y193692D01*
X-189214Y193365D01*
X-189145Y193064D01*
X-189062Y192792D01*
X-188963Y192546D01*
X-188848Y192328D01*
X-188719Y192138D01*
X-188574Y191975D01*
X-193908Y191977D01*
X-193763Y192140D01*
X-193634Y192330D01*
X-193519Y192548D01*
X-193420Y192794D01*
X-193336Y193067D01*
X-193268Y193367D01*
X-193214Y193694D01*
X-193176Y194049D01*
X-193146Y194841D01*
X-189336Y194840D01*
D02*
G37*
%LPC*%
G36*
X-257918Y293332D02*
X-260242D01*
X-262389Y292443D01*
X-264033Y290799D01*
X-264922Y288652D01*
Y286328D01*
X-264797Y286027D01*
X-265294Y285282D01*
X-265294D01*
Y273218D01*
X-252230D01*
Y285282D01*
X-252539D01*
X-253238Y286328D01*
Y288652D01*
X-254127Y290799D01*
X-255771Y292443D01*
X-257918Y293332D01*
D02*
G37*
G36*
X-275698D02*
X-278022D01*
X-280169Y292443D01*
X-281813Y290799D01*
X-282702Y288652D01*
Y286328D01*
X-283401Y285282D01*
X-284027D01*
Y273218D01*
X-270963D01*
Y285282D01*
X-270963D01*
X-271264Y285733D01*
X-271018Y286328D01*
Y288652D01*
X-271907Y290799D01*
X-273551Y292443D01*
X-275698Y293332D01*
D02*
G37*
G36*
X-294748D02*
X-297072D01*
X-299219Y292443D01*
X-300863Y290799D01*
X-301752Y288652D01*
Y286328D01*
X-302451Y285282D01*
X-302759D01*
Y273218D01*
X-289695D01*
Y285282D01*
X-289695D01*
X-290193Y286027D01*
X-290068Y286328D01*
Y288652D01*
X-290957Y290799D01*
X-292601Y292443D01*
X-294748Y293332D01*
D02*
G37*
G36*
X-313798D02*
X-316122D01*
X-318269Y292443D01*
X-319913Y290799D01*
X-320802Y288652D01*
Y286328D01*
X-320799Y286320D01*
X-321492Y285282D01*
X-321492D01*
Y273218D01*
X-308428D01*
Y285282D01*
X-308428D01*
X-309121Y286320D01*
X-309118Y286328D01*
Y288652D01*
X-310007Y290799D01*
X-311651Y292443D01*
X-313798Y293332D01*
D02*
G37*
%LPD*%
G36*
X-256997Y286300D02*
X-256940Y285647D01*
X-256845Y285071D01*
X-256789Y284862D01*
X-256302Y284883D01*
X-256438Y284717D01*
X-256559Y284524D01*
X-256632Y284375D01*
X-256540Y284149D01*
X-256330Y283804D01*
X-256083Y283535D01*
X-255797Y283343D01*
X-255473Y283228D01*
X-255111Y283189D01*
X-256946D01*
X-256952Y283151D01*
X-257009Y282412D01*
X-257016Y282001D01*
X-260826Y281818D01*
X-260834Y282227D01*
X-260899Y282963D01*
X-260938Y283189D01*
X-262731D01*
X-262369Y283228D01*
X-262045Y283343D01*
X-261760Y283535D01*
X-261512Y283804D01*
X-261303Y284149D01*
X-261280Y284205D01*
X-261341Y284314D01*
X-261478Y284501D01*
X-261631Y284660D01*
X-261101Y284683D01*
X-260998Y285071D01*
X-260902Y285647D01*
X-260845Y286300D01*
X-260826Y287030D01*
X-257016D01*
X-256997Y286300D01*
D02*
G37*
G36*
X-275254D02*
X-275196Y285647D01*
X-275101Y285071D01*
X-274976Y284602D01*
X-274429Y284556D01*
X-274589Y284402D01*
X-274733Y284220D01*
X-274786Y284132D01*
X-274587Y283804D01*
X-274339Y283535D01*
X-274053Y283343D01*
X-273729Y283228D01*
X-273368Y283189D01*
X-275141D01*
X-275197Y282883D01*
X-275239Y282530D01*
X-275264Y282150D01*
X-275273Y281740D01*
X-279083Y282109D01*
X-279089Y282521D01*
X-279137Y283189D01*
X-280987D01*
X-280625Y283228D01*
X-280302Y283343D01*
X-280016Y283535D01*
X-279768Y283804D01*
X-279559Y284149D01*
X-279429Y284468D01*
X-279506Y284640D01*
X-279619Y284834D01*
X-279744Y285001D01*
X-279283Y284962D01*
X-279254Y285071D01*
X-279159Y285647D01*
X-279102Y286300D01*
X-279083Y287030D01*
X-275273D01*
X-275254Y286300D01*
D02*
G37*
G36*
X-294145D02*
X-294088Y285647D01*
X-293992Y285071D01*
X-293888Y284683D01*
X-293359Y284660D01*
X-293512Y284501D01*
X-293648Y284314D01*
X-293710Y284205D01*
X-293687Y284149D01*
X-293478Y283804D01*
X-293230Y283535D01*
X-292945Y283343D01*
X-292621Y283228D01*
X-292259Y283189D01*
X-294052D01*
X-294091Y282963D01*
X-294132Y282609D01*
X-294164Y281818D01*
X-297974Y282001D01*
X-297981Y282412D01*
X-298038Y283151D01*
X-298044Y283189D01*
X-299879D01*
X-299517Y283228D01*
X-299193Y283343D01*
X-298907Y283535D01*
X-298659Y283804D01*
X-298450Y284149D01*
X-298358Y284375D01*
X-298431Y284524D01*
X-298552Y284717D01*
X-298688Y284883D01*
X-298201Y284862D01*
X-298145Y285071D01*
X-298050Y285647D01*
X-297993Y286300D01*
X-297974Y287030D01*
X-294164D01*
X-294145Y286300D01*
D02*
G37*
G36*
X-313036D02*
X-312979Y285647D01*
X-312883Y285071D01*
X-312803Y284769D01*
X-312293D01*
X-312438Y284606D01*
X-312567Y284415D01*
X-312635Y284287D01*
X-312579Y284149D01*
X-312369Y283804D01*
X-312122Y283535D01*
X-311836Y283343D01*
X-311512Y283228D01*
X-311150Y283189D01*
X-312964D01*
X-312986Y283052D01*
X-313025Y282697D01*
X-313055Y281904D01*
X-316865D01*
X-316873Y282314D01*
X-316934Y283052D01*
X-316956Y283189D01*
X-318770D01*
X-318408Y283228D01*
X-318084Y283343D01*
X-317799Y283535D01*
X-317551Y283804D01*
X-317341Y284149D01*
X-317285Y284287D01*
X-317353Y284415D01*
X-317482Y284606D01*
X-317627Y284769D01*
X-317117D01*
X-317036Y285071D01*
X-316941Y285647D01*
X-316884Y286300D01*
X-316865Y287030D01*
X-313055D01*
X-313036Y286300D01*
D02*
G37*
G36*
X-107296D02*
X-107239Y285647D01*
X-107143Y285071D01*
X-107063Y284769D01*
X-106553D01*
X-106698Y284606D01*
X-106827Y284415D01*
X-106895Y284287D01*
X-106839Y284149D01*
X-106629Y283804D01*
X-106382Y283535D01*
X-106096Y283343D01*
X-105772Y283228D01*
X-105410Y283189D01*
X-107224D01*
X-107246Y283052D01*
X-107284Y282697D01*
X-107315Y281904D01*
X-111125D01*
X-111133Y282314D01*
X-111194Y283052D01*
X-111216Y283189D01*
X-113030D01*
X-112668Y283228D01*
X-112344Y283343D01*
X-112058Y283535D01*
X-111811Y283804D01*
X-111601Y284149D01*
X-111545Y284287D01*
X-111613Y284415D01*
X-111742Y284606D01*
X-111887Y284769D01*
X-111377D01*
X-111297Y285071D01*
X-111201Y285647D01*
X-111144Y286300D01*
X-111125Y287030D01*
X-107315D01*
X-107296Y286300D01*
D02*
G37*
G36*
X-126346D02*
X-126289Y285647D01*
X-126194Y285071D01*
X-126113Y284769D01*
X-125603D01*
X-125748Y284606D01*
X-125877Y284415D01*
X-125945Y284287D01*
X-125889Y284149D01*
X-125679Y283804D01*
X-125431Y283535D01*
X-125146Y283343D01*
X-124822Y283228D01*
X-124460Y283189D01*
X-126274D01*
X-126296Y283052D01*
X-126334Y282697D01*
X-126365Y281904D01*
X-130175D01*
X-130183Y282314D01*
X-130244Y283052D01*
X-130266Y283189D01*
X-132080D01*
X-131718Y283228D01*
X-131394Y283343D01*
X-131108Y283535D01*
X-130861Y283804D01*
X-130651Y284149D01*
X-130595Y284287D01*
X-130663Y284415D01*
X-130792Y284606D01*
X-130937Y284769D01*
X-130427D01*
X-130346Y285071D01*
X-130251Y285647D01*
X-130194Y286300D01*
X-130175Y287030D01*
X-126365D01*
X-126346Y286300D01*
D02*
G37*
G36*
X-107767Y261276D02*
X-108014Y261173D01*
X-108232Y261002D01*
X-108422Y260765D01*
X-108582Y260459D01*
X-108713Y260086D01*
X-108815Y259646D01*
X-108888Y259138D01*
X-108932Y258562D01*
X-108946Y257919D01*
X-112756D01*
X-112766Y258557D01*
X-112840Y259633D01*
X-112906Y260070D01*
X-112990Y260440D01*
X-113092Y260742D01*
X-113214Y260978D01*
X-113354Y261146D01*
X-113512Y261247D01*
X-113689Y261280D01*
X-107490Y261311D01*
X-107767Y261276D01*
D02*
G37*
G36*
X-124807Y261272D02*
X-125131Y261157D01*
X-125416Y260965D01*
X-125664Y260696D01*
X-125873Y260351D01*
X-126045Y259928D01*
X-126178Y259429D01*
X-126274Y258853D01*
X-126331Y258200D01*
X-126350Y257470D01*
X-130160D01*
X-130179Y258200D01*
X-130236Y258853D01*
X-130331Y259429D01*
X-130465Y259928D01*
X-130636Y260351D01*
X-130846Y260696D01*
X-131093Y260965D01*
X-131379Y261157D01*
X-131703Y261272D01*
X-132065Y261311D01*
X-124445D01*
X-124807Y261272D01*
D02*
G37*
G36*
X-141760Y260714D02*
X-142008Y260679D01*
X-142230Y260574D01*
X-142426Y260398D01*
X-142596Y260152D01*
X-142739Y259836D01*
X-142857Y259450D01*
X-142948Y258993D01*
X-143014Y258466D01*
X-143053Y257868D01*
X-143066Y257201D01*
X-146876D01*
X-146892Y257873D01*
X-146940Y258474D01*
X-147021Y259005D01*
X-147133Y259466D01*
X-147278Y259855D01*
X-147455Y260174D01*
X-147664Y260423D01*
X-147905Y260601D01*
X-148179Y260708D01*
X-148484Y260745D01*
X-141760Y260714D01*
D02*
G37*
G36*
X-588093Y269448D02*
X-587445Y268926D01*
X-586769Y268461D01*
X-586067Y268053D01*
X-585336Y267702D01*
X-584579Y267408D01*
X-583794Y267171D01*
X-582981Y266991D01*
X-582142Y266868D01*
X-581275Y266802D01*
X-590642Y258375D01*
X-590621Y259228D01*
X-590668Y260056D01*
X-590781Y260860D01*
X-590962Y261639D01*
X-591210Y262392D01*
X-591525Y263121D01*
X-591908Y263826D01*
X-592357Y264505D01*
X-592874Y265160D01*
X-593458Y265790D01*
X-588714Y270026D01*
X-588093Y269448D01*
D02*
G37*
G36*
X-886736Y82850D02*
X-887161Y83244D01*
X-887625Y83597D01*
X-888125Y83908D01*
X-888662Y84178D01*
X-889238Y84406D01*
X-889850Y84593D01*
X-890500Y84738D01*
X-891188Y84842D01*
X-891913Y84904D01*
X-892675Y84925D01*
Y91275D01*
X-891913Y91296D01*
X-891188Y91358D01*
X-890500Y91462D01*
X-889850Y91607D01*
X-889238Y91794D01*
X-888662Y92022D01*
X-888125Y92292D01*
X-887625Y92603D01*
X-887161Y92956D01*
X-886736Y93350D01*
Y82850D01*
D02*
G37*
G36*
X-448893Y253743D02*
X-448708Y251228D01*
X-447644Y251236D01*
X-447883Y250963D01*
X-448097Y250644D01*
X-448286Y250281D01*
X-448449Y249871D01*
X-448560Y249505D01*
X-448475Y249171D01*
X-448345Y248854D01*
X-448197Y248663D01*
X-448032Y248600D01*
X-448751D01*
X-448789Y248369D01*
X-448852Y247777D01*
X-448902Y246456D01*
X-455252Y246406D01*
X-455265Y247089D01*
X-455367Y248318D01*
X-455414Y248600D01*
X-456035D01*
X-455887Y248663D01*
X-455753Y248854D01*
X-455636Y249171D01*
X-455584Y249399D01*
X-455713Y249817D01*
X-455880Y250225D01*
X-456072Y250588D01*
X-456290Y250904D01*
X-456534Y251175D01*
X-455366Y251183D01*
X-455322Y251711D01*
X-455252Y254950D01*
X-448902D01*
X-448893Y253743D01*
D02*
G37*
G36*
X-432965Y230820D02*
X-440968D01*
X-440927Y230886D01*
X-440890Y231084D01*
X-440858Y231414D01*
X-440787Y233199D01*
X-440752Y237428D01*
X-433132D01*
X-432965Y230820D01*
D02*
G37*
G36*
X-432996Y222164D02*
X-433025Y221936D01*
X-433050Y221555D01*
X-433095Y217782D01*
X-432972Y211950D01*
X-440911D01*
X-440881Y212026D01*
X-440854Y212254D01*
X-440830Y212635D01*
X-440792Y216027D01*
X-440968Y222240D01*
X-432965D01*
X-432996Y222164D01*
D02*
G37*
G36*
X-432896Y211735D02*
X-432668Y211543D01*
X-432287Y211374D01*
X-431753Y211227D01*
X-431068Y211102D01*
X-430229Y211001D01*
X-428096Y210865D01*
X-425353Y210820D01*
Y203200D01*
X-432972Y203011D01*
Y211950D01*
X-432896Y211735D01*
D02*
G37*
G36*
X-410287Y200710D02*
X-410798Y201183D01*
X-411353Y201606D01*
X-411954Y201980D01*
X-412599Y202304D01*
X-413289Y202577D01*
X-414024Y202802D01*
X-414804Y202976D01*
X-415629Y203100D01*
X-416499Y203175D01*
X-417414Y203200D01*
Y210820D01*
X-416499Y210845D01*
X-415629Y210920D01*
X-414804Y211044D01*
X-414024Y211218D01*
X-413289Y211443D01*
X-412599Y211716D01*
X-411954Y212040D01*
X-411353Y212414D01*
X-410798Y212837D01*
X-410287Y213310D01*
Y200710D01*
D02*
G37*
G36*
Y175310D02*
X-410798Y175783D01*
X-411353Y176206D01*
X-411954Y176580D01*
X-412599Y176904D01*
X-413289Y177178D01*
X-414024Y177402D01*
X-414804Y177576D01*
X-415629Y177700D01*
X-416499Y177775D01*
X-417414Y177800D01*
Y185420D01*
X-416499Y185445D01*
X-415629Y185520D01*
X-414804Y185644D01*
X-414024Y185818D01*
X-413289Y186042D01*
X-412599Y186316D01*
X-411954Y186640D01*
X-411353Y187014D01*
X-410798Y187437D01*
X-410287Y187910D01*
Y175310D01*
D02*
G37*
G36*
X-432896Y186335D02*
X-432668Y186143D01*
X-432287Y185973D01*
X-431753Y185827D01*
X-431068Y185702D01*
X-430229Y185601D01*
X-428096Y185465D01*
X-425353Y185420D01*
Y177800D01*
X-432972Y177610D01*
X-433003Y177534D01*
X-433030Y177306D01*
X-433054Y176925D01*
X-433095Y173262D01*
X-432965Y167320D01*
X-440968D01*
X-440927Y167396D01*
X-440890Y167624D01*
X-440858Y168005D01*
X-440773Y170997D01*
X-440911Y177610D01*
X-432972D01*
Y186549D01*
X-432896Y186335D01*
D02*
G37*
G36*
X-432996Y158664D02*
X-433025Y158436D01*
X-433050Y158055D01*
X-433086Y155046D01*
X-432965Y149540D01*
X-440968D01*
X-440927Y149616D01*
X-440890Y149844D01*
X-440858Y150225D01*
X-440792Y152540D01*
X-440968Y158740D01*
X-432965D01*
X-432996Y158664D01*
D02*
G37*
G36*
X-448902Y143104D02*
X-448889Y142421D01*
X-448789Y141191D01*
X-448751Y140960D01*
X-448032D01*
X-448197Y140897D01*
X-448345Y140706D01*
X-448475Y140389D01*
X-448560Y140055D01*
X-448449Y139689D01*
X-448286Y139279D01*
X-448097Y138916D01*
X-447883Y138597D01*
X-447644Y138324D01*
X-448783Y138332D01*
X-448867Y136896D01*
X-448902Y134610D01*
X-455252D01*
X-455260Y135817D01*
X-455430Y138377D01*
X-456534Y138385D01*
X-456290Y138656D01*
X-456072Y138972D01*
X-455880Y139335D01*
X-455713Y139743D01*
X-455584Y140161D01*
X-455636Y140389D01*
X-455753Y140706D01*
X-455887Y140897D01*
X-456035Y140960D01*
X-455414D01*
X-455367Y141243D01*
X-455303Y141834D01*
X-455252Y143154D01*
X-448902Y143104D01*
D02*
G37*
G36*
X-691074Y180599D02*
X-691002Y180222D01*
X-690880Y179830D01*
X-690708Y179424D01*
X-690485Y179004D01*
X-690212Y178570D01*
X-689889Y178121D01*
X-689515Y177657D01*
X-688618Y176688D01*
X-693108Y172198D01*
X-693600Y172672D01*
X-694541Y173469D01*
X-694989Y173792D01*
X-695424Y174065D01*
X-695844Y174288D01*
X-696250Y174460D01*
X-696642Y174582D01*
X-697019Y174654D01*
X-697382Y174676D01*
X-691096Y180962D01*
X-691074Y180599D01*
D02*
G37*
G36*
X-676262Y152606D02*
X-676161Y151377D01*
X-676072Y150831D01*
X-675958Y150331D01*
X-675818Y149876D01*
X-675653Y149467D01*
X-675462Y149104D01*
X-675246Y148787D01*
X-675005Y148515D01*
X-683895Y148515D01*
X-683654Y148787D01*
X-683438Y149104D01*
X-683247Y149467D01*
X-683082Y149876D01*
X-682943Y150331D01*
X-682828Y150831D01*
X-682739Y151377D01*
X-682676Y151969D01*
X-682625Y153289D01*
X-676275Y153289D01*
X-676262Y152606D01*
D02*
G37*
G36*
X-581750Y96410D02*
X-583109Y96403D01*
X-585530Y96258D01*
X-586592Y96122D01*
X-587554Y95941D01*
X-588418Y95718D01*
X-589182Y95452D01*
X-589847Y95142D01*
X-590414Y94789D01*
X-590881Y94393D01*
X-592677Y96189D01*
X-592281Y96656D01*
X-591928Y97223D01*
X-591618Y97888D01*
X-591352Y98652D01*
X-591129Y99516D01*
X-590948Y100478D01*
X-590812Y101540D01*
X-590667Y103961D01*
X-590660Y105320D01*
X-581750Y96410D01*
D02*
G37*
G36*
X-710130Y-25772D02*
X-710126Y-26049D01*
X-710076Y-26766D01*
X-710046Y-26967D01*
X-709965Y-27313D01*
X-709915Y-27458D01*
X-709857Y-27584D01*
X-709794Y-27691D01*
X-713284Y-27011D01*
X-713167Y-26920D01*
X-713063Y-26809D01*
X-712971Y-26677D01*
X-712891Y-26525D01*
X-712823Y-26354D01*
X-712768Y-26162D01*
X-712725Y-25949D01*
X-712694Y-25717D01*
X-712676Y-25464D01*
X-712670Y-25192D01*
X-710130Y-25772D01*
D02*
G37*
G36*
X-236844Y-71751D02*
X-236681Y-73915D01*
X-235585D01*
X-235826Y-74187D01*
X-236042Y-74504D01*
X-236233Y-74867D01*
X-236398Y-75276D01*
X-236507Y-75631D01*
X-236454Y-75879D01*
X-236309Y-76323D01*
X-236142Y-76641D01*
X-235952Y-76831D01*
X-235740Y-76894D01*
X-236753D01*
X-236804Y-77369D01*
X-236855Y-78689D01*
X-243205D01*
X-243218Y-78006D01*
X-243310Y-76894D01*
X-244320D01*
X-244108Y-76831D01*
X-243918Y-76641D01*
X-243751Y-76323D01*
X-243606Y-75879D01*
X-243553Y-75631D01*
X-243662Y-75276D01*
X-243827Y-74867D01*
X-244018Y-74504D01*
X-244234Y-74187D01*
X-244475Y-73915D01*
X-243331D01*
X-243250Y-72831D01*
X-243205Y-70545D01*
X-236855D01*
X-236844Y-71751D01*
D02*
G37*
G36*
X-262244D02*
X-262081Y-73915D01*
X-260985D01*
X-261226Y-74187D01*
X-261442Y-74504D01*
X-261633Y-74867D01*
X-261798Y-75276D01*
X-261907Y-75631D01*
X-261854Y-75879D01*
X-261709Y-76323D01*
X-261542Y-76641D01*
X-261352Y-76831D01*
X-261140Y-76894D01*
X-262153D01*
X-262204Y-77369D01*
X-262255Y-78689D01*
X-268605D01*
X-268618Y-78006D01*
X-268710Y-76894D01*
X-269720D01*
X-269508Y-76831D01*
X-269318Y-76641D01*
X-269151Y-76323D01*
X-269006Y-75879D01*
X-268953Y-75631D01*
X-269062Y-75276D01*
X-269227Y-74867D01*
X-269418Y-74504D01*
X-269634Y-74187D01*
X-269875Y-73915D01*
X-268731D01*
X-268650Y-72831D01*
X-268605Y-70545D01*
X-262255D01*
X-262244Y-71751D01*
D02*
G37*
G36*
X-235832Y-100042D02*
X-235913Y-100270D01*
X-235985Y-100651D01*
X-236047Y-101185D01*
X-236143Y-102709D01*
X-236212Y-107105D01*
X-236206Y-107491D01*
X-236090Y-108945D01*
X-235990Y-109589D01*
X-235860Y-110177D01*
X-235702Y-110710D01*
X-235514Y-111187D01*
X-235298Y-111608D01*
X-235054Y-111974D01*
X-234780Y-112284D01*
X-245280D01*
X-245006Y-111974D01*
X-244762Y-111608D01*
X-244546Y-111187D01*
X-244358Y-110710D01*
X-244200Y-110177D01*
X-244070Y-109589D01*
X-243970Y-108945D01*
X-243898Y-108246D01*
X-243843Y-106755D01*
X-243845Y-106138D01*
X-244228Y-100042D01*
X-244320Y-99965D01*
X-235740D01*
X-235832Y-100042D01*
D02*
G37*
G36*
X-261232D02*
X-261313Y-100270D01*
X-261385Y-100651D01*
X-261447Y-101185D01*
X-261543Y-102709D01*
X-261612Y-107105D01*
X-261606Y-107491D01*
X-261490Y-108945D01*
X-261390Y-109589D01*
X-261260Y-110177D01*
X-261102Y-110710D01*
X-260914Y-111187D01*
X-260698Y-111608D01*
X-260454Y-111974D01*
X-260180Y-112284D01*
X-270680D01*
X-270406Y-111974D01*
X-270162Y-111608D01*
X-269946Y-111187D01*
X-269758Y-110710D01*
X-269600Y-110177D01*
X-269470Y-109589D01*
X-269370Y-108945D01*
X-269298Y-108246D01*
X-269243Y-106755D01*
X-269245Y-106138D01*
X-269628Y-100042D01*
X-269720Y-99965D01*
X-261140D01*
X-261232Y-100042D01*
D02*
G37*
D11*
X-711886Y-29132D02*
X-711400Y-28646D01*
Y-24330D02*
X-581660Y105410D01*
X-711400Y-28646D02*
Y-24330D01*
D15*
X-265430Y-80896D02*
D03*
Y-95964D02*
D03*
X-240030Y-80896D02*
D03*
Y-95964D02*
D03*
X-191770Y279784D02*
D03*
Y264716D02*
D03*
X-222250Y279784D02*
D03*
Y264716D02*
D03*
X-175260Y279784D02*
D03*
Y264716D02*
D03*
X-146050D02*
D03*
Y279784D02*
D03*
D16*
X-277495Y279250D02*
D03*
Y265250D02*
D03*
X-258762Y279250D02*
D03*
Y265250D02*
D03*
X-240030Y279250D02*
D03*
Y265250D02*
D03*
X-128270Y279250D02*
D03*
Y265250D02*
D03*
X-109220Y279250D02*
D03*
Y265250D02*
D03*
X-314960Y279250D02*
D03*
Y265250D02*
D03*
X-296227Y279250D02*
D03*
Y265250D02*
D03*
D22*
X-452034Y145250D02*
D03*
X-436966D02*
D03*
Y163030D02*
D03*
X-452034D02*
D03*
X-167726Y307810D02*
D03*
X-182794D02*
D03*
X-137246D02*
D03*
X-152314D02*
D03*
X-436966Y226530D02*
D03*
X-452034D02*
D03*
Y244310D02*
D03*
X-436966D02*
D03*
D24*
X-436942Y182080D02*
D03*
X-450942D02*
D03*
X-429260Y-123190D02*
D03*
X-443260D02*
D03*
X-436942Y207480D02*
D03*
X-450942D02*
D03*
D46*
X-637540Y341630D02*
X-617220Y321310D01*
Y264160D02*
Y321310D01*
X-896620Y341630D02*
X-637540D01*
X-601980Y278802D02*
Y331470D01*
X-902970Y358140D02*
X-628650D01*
X-601980Y331470D01*
X-617220Y264160D02*
X-590314Y237254D01*
X-601980Y278802D02*
X-580988Y257810D01*
X-928370Y309880D02*
X-896620Y341630D01*
X-946150Y314960D02*
X-902970Y358140D01*
X-589657Y237254D02*
X-584813Y232410D01*
X-581660D01*
X-590314Y237254D02*
X-589657D01*
X-928370Y132550D02*
Y309880D01*
X-946150Y127470D02*
Y314960D01*
X-928370Y132550D02*
X-909320Y113500D01*
X-452115Y133820D02*
X-452077Y133858D01*
Y145201D02*
X-452034Y145245D01*
X-452077Y133858D02*
Y145201D01*
X-462273Y163037D02*
X-452040D01*
X-462273Y182087D02*
X-450949D01*
X-452101Y255740D02*
X-452077Y255716D01*
Y244372D02*
Y255716D01*
X-462273Y226537D02*
X-452040D01*
X-462273Y207487D02*
X-450949D01*
X-452077Y244372D02*
X-452034Y244329D01*
X-265430Y-80896D02*
Y-69380D01*
X-679450Y143980D02*
Y163030D01*
Y143980D02*
X-679450Y143980D01*
X-240030Y-80896D02*
Y-69380D01*
X-946150Y127470D02*
X-906780Y88100D01*
X-909320Y113500D02*
X-881380D01*
X-906780Y88100D02*
X-881380D01*
X-697445Y181025D02*
X-679450Y163030D01*
X-443260Y-123190D02*
X-442935Y-122865D01*
Y-112085D01*
D48*
X-282240Y220180D02*
Y248814D01*
X-280670Y250383D01*
Y251415D01*
X-275240Y220180D02*
Y238572D01*
X-271780Y242031D01*
X-274900Y257319D02*
X-271780Y254199D01*
Y242031D02*
Y254199D01*
X-258762Y256693D02*
X-254239Y251138D01*
Y220180D02*
Y251138D01*
X-277495Y279250D02*
X-277178Y279568D01*
X-277495Y265250D02*
X-276995D01*
X-277178Y279568D02*
Y287173D01*
X-276860Y287490D01*
X-276995Y265250D02*
X-274900Y263155D01*
Y257319D02*
Y263155D01*
X-259080Y287490D02*
X-258921Y287331D01*
Y279409D02*
Y287331D01*
X-258762Y256693D02*
Y265250D01*
X-191242Y189255D02*
X-191241Y189257D01*
X-180340Y198590D02*
Y199621D01*
X-177391Y202570D01*
X-191241Y189257D02*
Y220178D01*
X-177391Y202570D02*
Y220028D01*
X-177239Y220180D01*
X-191241Y220178D02*
X-191239Y220180D01*
X-240241D02*
X-240135Y220285D01*
X-128255Y220195D02*
X-128239Y220180D01*
X-212240D02*
X-212087Y220332D01*
X-184239Y220180D02*
Y236601D01*
X-212087Y220332D02*
Y239233D01*
X-240135Y220285D02*
Y242935D01*
X-177239Y220180D02*
Y243601D01*
X-184239Y236601D02*
X-177239Y243601D01*
X-212087Y239233D02*
X-207010Y244310D01*
X-191239Y220180D02*
Y264186D01*
X-240135Y242935D02*
X-240030Y243040D01*
X-191770Y264716D02*
X-191239Y264186D01*
X-240030Y279250D02*
Y287490D01*
X-135240Y220180D02*
Y247470D01*
X-121239Y220195D02*
Y247531D01*
X-128255Y220195D02*
Y265235D01*
X-144971Y257201D02*
X-135240Y247470D01*
X-121239Y247531D02*
X-110851Y257919D01*
X-177239Y243601D02*
Y262738D01*
X-128270Y265250D02*
X-128255Y265235D01*
X-144971Y257201D02*
Y263637D01*
X-110851Y257919D02*
Y263602D01*
X-177239Y262738D02*
X-175260Y264716D01*
X-146050D02*
X-144971Y263637D01*
X-110851Y263602D02*
X-109220Y265233D01*
X-167726Y307810D02*
X-152314D01*
X-146050Y281140D02*
Y287490D01*
X-137246Y307810D02*
X-128270D01*
Y279250D02*
Y287490D01*
X-109220Y279250D02*
Y287490D01*
X-314808Y247765D02*
Y265097D01*
Y247765D02*
X-303240Y236198D01*
Y220180D02*
Y236198D01*
X-302664Y251654D02*
X-302220D01*
X-296358Y245793D01*
Y233275D02*
Y245793D01*
X-296227Y256823D02*
X-289240Y249835D01*
Y220180D02*
Y249835D01*
X-314960Y279250D02*
Y287490D01*
X-296227Y256823D02*
Y265250D01*
X-296069Y279409D02*
Y287331D01*
X-295910Y287490D01*
D50*
X-675640Y246110D02*
D03*
Y295110D02*
D03*
D51*
X-316230Y-117640D02*
D03*
D52*
X-138430D02*
D03*
X-163830D02*
D03*
X-189230D02*
D03*
X-214630D02*
D03*
X-240030D02*
D03*
X-265430D02*
D03*
X-290830D02*
D03*
X-881380Y138900D02*
D03*
Y113500D02*
D03*
Y88100D02*
D03*
Y62700D02*
D03*
Y37300D02*
D03*
X-69850Y62700D02*
D03*
Y88100D02*
D03*
Y113500D02*
D03*
Y138900D02*
D03*
Y164300D02*
D03*
D53*
X-581660Y-123190D02*
D03*
Y-97790D02*
D03*
Y-72390D02*
D03*
Y-46990D02*
D03*
Y-21590D02*
D03*
Y3810D02*
D03*
Y29210D02*
D03*
Y54610D02*
D03*
Y80010D02*
D03*
Y105410D02*
D03*
Y130810D02*
D03*
Y156210D02*
D03*
Y181610D02*
D03*
Y207010D02*
D03*
Y232410D02*
D03*
Y257810D02*
D03*
Y283210D02*
D03*
Y308610D02*
D03*
Y334010D02*
D03*
X-403860Y-97790D02*
D03*
Y-72390D02*
D03*
Y-46990D02*
D03*
Y-21590D02*
D03*
Y3810D02*
D03*
Y29210D02*
D03*
Y54610D02*
D03*
Y80010D02*
D03*
Y105410D02*
D03*
Y130810D02*
D03*
Y156210D02*
D03*
Y181610D02*
D03*
Y207010D02*
D03*
Y232410D02*
D03*
Y257810D02*
D03*
Y283210D02*
D03*
Y308610D02*
D03*
Y334010D02*
D03*
Y-123190D02*
D03*
Y359410D02*
D03*
D54*
X-581660D02*
D03*
D55*
X-868040Y236380D02*
D03*
X-796040D02*
D03*
D56*
X-899540Y296380D02*
D03*
X-764540D02*
D03*
D57*
X-881380Y164300D02*
D03*
X-69850Y37300D02*
D03*
D58*
X-157480Y387350D02*
D03*
X-119380D02*
D03*
X-81280D02*
D03*
X-43180D02*
D03*
X-386080D02*
D03*
X-347980D02*
D03*
X-462280D02*
D03*
X-424180D02*
D03*
X-271780D02*
D03*
X-233680D02*
D03*
X-195580D02*
D03*
X-309880D02*
D03*
X-958650Y90D02*
D03*
Y-38010D02*
D03*
Y-76110D02*
D03*
Y-114210D02*
D03*
Y228690D02*
D03*
Y190590D02*
D03*
Y304890D02*
D03*
Y266790D02*
D03*
Y114390D02*
D03*
Y76290D02*
D03*
Y38190D02*
D03*
Y152490D02*
D03*
X-21590Y0D02*
D03*
Y-38100D02*
D03*
Y-76200D02*
D03*
Y-114300D02*
D03*
Y228600D02*
D03*
Y190500D02*
D03*
Y304800D02*
D03*
Y266700D02*
D03*
Y38100D02*
D03*
Y152400D02*
D03*
X10160D02*
D03*
Y38100D02*
D03*
Y76200D02*
D03*
Y114300D02*
D03*
Y266700D02*
D03*
Y304800D02*
D03*
Y190500D02*
D03*
Y228600D02*
D03*
Y-114300D02*
D03*
Y-76200D02*
D03*
Y-38100D02*
D03*
Y0D02*
D03*
X-711886Y-29132D02*
D03*
X-706120Y5080D02*
D03*
X-718820D02*
D03*
X-691896Y-81788D02*
D03*
X-686562D02*
D03*
X-730898D02*
D03*
X-725564D02*
D03*
X-805020Y-129230D02*
D03*
X-797400D02*
D03*
X-805020Y-135580D02*
D03*
X-789780Y-129230D02*
D03*
X-797400Y-135580D02*
D03*
X-789780D02*
D03*
X-846930Y-129230D02*
D03*
Y-135580D02*
D03*
X-835660Y55080D02*
D03*
Y61430D02*
D03*
X-829310Y55080D02*
D03*
X-839310Y-129230D02*
D03*
Y-135580D02*
D03*
X-822960Y55080D02*
D03*
Y61430D02*
D03*
X-831690Y-129230D02*
D03*
Y-135580D02*
D03*
X-816610Y55080D02*
D03*
Y61430D02*
D03*
X-824070Y-135580D02*
D03*
X-812640D02*
D03*
X-824070Y-129230D02*
D03*
X-812640D02*
D03*
X-798830Y10160D02*
D03*
X-792480D02*
D03*
X-798830Y17780D02*
D03*
X-792480D02*
D03*
X-798830Y25400D02*
D03*
X-792480D02*
D03*
X-810260Y55080D02*
D03*
Y61430D02*
D03*
X-829310D02*
D03*
X-788539Y64168D02*
D03*
X-782908Y64115D02*
D03*
X-720090Y108420D02*
D03*
X-708660D02*
D03*
X-697230D02*
D03*
X-720090Y117310D02*
D03*
X-708660D02*
D03*
X-697230D02*
D03*
X-720090Y126200D02*
D03*
X-708660D02*
D03*
X-697230D02*
D03*
X-137160Y198590D02*
D03*
X-127635D02*
D03*
X-108585D02*
D03*
X-165735D02*
D03*
X-156210D02*
D03*
X-118110D02*
D03*
X-146685D02*
D03*
X-777277Y64090D02*
D03*
D59*
X-303676Y108D02*
D03*
X-151746D02*
D03*
X-940360Y-165190D02*
D03*
Y364810D02*
D03*
X-10360Y-165190D02*
D03*
Y364810D02*
D03*
D60*
X-648970Y-74930D02*
D03*
X-646430Y-62230D02*
D03*
X-657860D02*
D03*
X-191242Y189255D02*
D03*
X-314960Y287490D02*
D03*
X-302664Y251654D02*
D03*
X-295910Y287490D02*
D03*
X-280670Y251415D02*
D03*
X-276860Y287490D02*
D03*
X-271780Y242031D02*
D03*
X-259080Y287490D02*
D03*
X-254239Y251138D02*
D03*
X-180340Y198590D02*
D03*
X-240030Y243040D02*
D03*
X-207010Y244310D02*
D03*
X-240030Y287490D02*
D03*
X-109220D02*
D03*
X-146050D02*
D03*
X-128270D02*
D03*
X-160020Y307810D02*
D03*
X-128270D02*
D03*
D61*
X-760730Y-62230D02*
D03*
X-744220Y199390D02*
D03*
X-462280Y163030D02*
D03*
Y182080D02*
D03*
X-452120Y133820D02*
D03*
X-750570Y43650D02*
D03*
X-702310D02*
D03*
X-685800D02*
D03*
X-697445Y181025D02*
D03*
X-462280Y207480D02*
D03*
X-442935Y-112085D02*
D03*
X-265430Y-69380D02*
D03*
X-240030D02*
D03*
X-462280Y226530D02*
D03*
X-452120Y255740D02*
D03*
X-679450Y143980D02*
D03*
D62*
X-651510Y-26670D02*
D03*
Y-17780D02*
D03*
X-633730D02*
D03*
X-624840D02*
D03*
X-642620D02*
D03*
X-624840Y-26670D02*
D03*
X-633730D02*
D03*
X-642620D02*
D03*
D63*
X-107239Y220205D02*
D03*
X-114239D02*
D03*
X-121239Y220195D02*
D03*
X-128239Y220180D02*
D03*
X-135240D02*
D03*
X-142240D02*
D03*
X-149240D02*
D03*
X-156241D02*
D03*
X-163241D02*
D03*
X-170238D02*
D03*
X-177239D02*
D03*
X-184239D02*
D03*
X-191239D02*
D03*
X-198239D02*
D03*
X-205240D02*
D03*
X-212240D02*
D03*
X-219240D02*
D03*
X-226240D02*
D03*
X-233241D02*
D03*
X-240241D02*
D03*
X-247239D02*
D03*
X-254239D02*
D03*
X-261239D02*
D03*
X-268239D02*
D03*
X-275240D02*
D03*
X-282240D02*
D03*
X-289240D02*
D03*
X-296240D02*
D03*
X-303240D02*
D03*
X-310241Y220160D02*
D03*
D64*
X-207029Y279329D02*
D03*
X-206962Y265138D02*
D03*
D65*
X-436961Y145250D02*
X-436942Y145269D01*
Y181800D02*
Y182080D01*
Y182580D02*
X-436752Y182770D01*
X-436942Y182080D02*
Y182580D01*
Y181800D02*
X-436752Y181610D01*
X-436942Y145269D02*
Y163006D01*
Y163054D02*
Y181800D01*
Y207480D02*
Y237428D01*
X-436966Y244310D02*
X-436880Y244224D01*
Y237490D02*
Y244224D01*
X-436942Y237428D02*
X-436880Y237490D01*
X-436752Y207010D02*
X-403860D01*
X-436942Y207200D02*
X-436752Y207010D01*
X-436942Y207200D02*
Y207480D01*
X-436752Y181610D02*
X-403860D01*
X-265430Y-117640D02*
Y-95964D01*
X-240030Y-117640D02*
Y-95964D01*
X-429260Y-123190D02*
X-403240D01*
M02*
