G04*
G04 #@! TF.GenerationSoftware,Altium Limited,Altium Designer,22.11.1 (43)*
G04*
G04 Layer_Physical_Order=3*
G04 Layer_Color=16440176*
%FSLAX44Y44*%
%MOMM*%
G71*
G04*
G04 #@! TF.SameCoordinates,30CB15ED-5B5F-4030-944F-8374E8F7CEFA*
G04*
G04*
G04 #@! TF.FilePolarity,Positive*
G04*
G01*
G75*
%ADD46C,0.6350*%
G04:AMPARAMS|DCode=50|XSize=2mm|YSize=5mm|CornerRadius=0.25mm|HoleSize=0mm|Usage=FLASHONLY|Rotation=90.000|XOffset=0mm|YOffset=0mm|HoleType=Round|Shape=RoundedRectangle|*
%AMROUNDEDRECTD50*
21,1,2.0000,4.5000,0,0,90.0*
21,1,1.5000,5.0000,0,0,90.0*
1,1,0.5000,2.2500,0.7500*
1,1,0.5000,2.2500,-0.7500*
1,1,0.5000,-2.2500,-0.7500*
1,1,0.5000,-2.2500,0.7500*
%
%ADD50ROUNDEDRECTD50*%
%ADD51R,1.5000X1.5000*%
%ADD52C,1.5000*%
%ADD53C,1.8000*%
%ADD54R,1.8009X1.8009*%
%ADD55C,3.8000*%
%ADD56R,1.6000X2.6000*%
%ADD57R,1.5000X1.5000*%
%ADD58C,0.5080*%
%ADD59C,3.0000*%
%ADD60C,0.7620*%
%ADD61C,1.2700*%
%ADD62C,1.0160*%
G36*
X-448932Y264366D02*
X-448831Y263137D01*
X-448742Y262591D01*
X-448628Y262091D01*
X-448488Y261636D01*
X-448323Y261227D01*
X-448132Y260864D01*
X-447916Y260547D01*
X-447675Y260275D01*
X-456565D01*
X-456324Y260547D01*
X-456108Y260864D01*
X-455917Y261227D01*
X-455752Y261636D01*
X-455612Y262091D01*
X-455498Y262591D01*
X-455409Y263137D01*
X-455346Y263729D01*
X-455295Y265049D01*
X-448945D01*
X-448932Y264366D01*
D02*
G37*
G36*
X-447916Y129013D02*
X-448132Y128696D01*
X-448323Y128333D01*
X-448488Y127924D01*
X-448628Y127469D01*
X-448742Y126969D01*
X-448831Y126423D01*
X-448894Y125831D01*
X-448945Y124511D01*
X-455295D01*
X-455308Y125194D01*
X-455409Y126423D01*
X-455498Y126969D01*
X-455612Y127469D01*
X-455752Y127924D01*
X-455917Y128333D01*
X-456108Y128696D01*
X-456324Y129013D01*
X-456565Y129285D01*
X-447675D01*
X-447916Y129013D01*
D02*
G37*
G36*
X-698106Y38843D02*
X-698322Y38526D01*
X-698513Y38163D01*
X-698678Y37754D01*
X-698818Y37299D01*
X-698932Y36799D01*
X-699021Y36253D01*
X-699084Y35661D01*
X-699135Y34341D01*
X-705485D01*
X-705498Y35024D01*
X-705599Y36253D01*
X-705688Y36799D01*
X-705803Y37299D01*
X-705942Y37754D01*
X-706107Y38163D01*
X-706298Y38526D01*
X-706514Y38843D01*
X-706755Y39115D01*
X-697865D01*
X-698106Y38843D01*
D02*
G37*
G36*
X-618490Y239230D02*
Y-27940D01*
X-623570Y-33020D01*
X-652780D01*
X-657912Y-27888D01*
X-657912Y209602D01*
X-671830Y223520D01*
X-700570D01*
X-708660Y231610D01*
Y255740D01*
X-700240Y264160D01*
X-643420Y264160D01*
X-618490Y239230D01*
D02*
G37*
G36*
X-739140Y207010D02*
X-736400Y204270D01*
Y195780D01*
X-739140Y193040D01*
X-828260D01*
X-840643Y180657D01*
Y101173D01*
X-749630Y10160D01*
X-717550D01*
X-712470Y5080D01*
Y-24560D01*
X-712795D01*
X-714476Y-25255D01*
X-715762Y-26542D01*
X-716458Y-28222D01*
Y-30041D01*
X-715762Y-31721D01*
X-714476Y-33007D01*
X-712795Y-33703D01*
X-712470D01*
Y-52070D01*
X-706120Y-58420D01*
X-663971D01*
X-663131Y-59690D01*
X-663702Y-61068D01*
Y-63392D01*
X-662813Y-65539D01*
X-661169Y-67183D01*
X-659022Y-68072D01*
X-656698D01*
X-654551Y-67183D01*
X-652907Y-65539D01*
X-652780Y-65232D01*
X-651510D01*
X-651383Y-65539D01*
X-649739Y-67183D01*
X-648205Y-67818D01*
X-648458Y-69088D01*
X-650132D01*
X-652279Y-69977D01*
X-653923Y-71621D01*
X-654812Y-73768D01*
Y-76092D01*
X-653923Y-78239D01*
X-652279Y-79883D01*
X-650132Y-80772D01*
X-647808D01*
X-645661Y-79883D01*
X-644017Y-78239D01*
X-643128Y-76092D01*
Y-73768D01*
X-644017Y-71621D01*
X-645661Y-69977D01*
X-647195Y-69342D01*
X-646942Y-68072D01*
X-645268D01*
X-643121Y-67183D01*
X-641477Y-65539D01*
X-640588Y-63392D01*
Y-61068D01*
X-641159Y-59690D01*
X-640319Y-58420D01*
X-125730D01*
X-88900Y-21590D01*
X-88900Y69850D01*
X-81280Y77470D01*
X-57150D01*
X-48260Y68580D01*
Y-91398D01*
X-121755Y-171450D01*
X-716471D01*
X-748856Y-139065D01*
X-864870Y-23051D01*
X-864870Y121120D01*
X-873760Y130010D01*
X-886930Y130010D01*
X-890270Y133350D01*
Y144780D01*
X-887260Y147790D01*
X-873510D01*
X-864870Y156430D01*
X-864870Y187960D01*
X-845820Y207010D01*
X-806450D01*
X-739140Y207010D01*
D02*
G37*
%LPC*%
G36*
X-791571Y29972D02*
X-793389D01*
X-795070Y29276D01*
X-795655Y28691D01*
X-796240Y29276D01*
X-797921Y29972D01*
X-799739D01*
X-801420Y29276D01*
X-802706Y27990D01*
X-803402Y26309D01*
Y24491D01*
X-802706Y22810D01*
X-801486Y21590D01*
X-802706Y20370D01*
X-803402Y18689D01*
Y16871D01*
X-802706Y15190D01*
X-801486Y13970D01*
X-802706Y12750D01*
X-803402Y11069D01*
Y9251D01*
X-802706Y7570D01*
X-801420Y6284D01*
X-799739Y5588D01*
X-797921D01*
X-796240Y6284D01*
X-795655Y6869D01*
X-795070Y6284D01*
X-793389Y5588D01*
X-791571D01*
X-789890Y6284D01*
X-788604Y7570D01*
X-787908Y9251D01*
Y11069D01*
X-788604Y12750D01*
X-789824Y13970D01*
X-788604Y15190D01*
X-787908Y16871D01*
Y18689D01*
X-788604Y20370D01*
X-789824Y21590D01*
X-788604Y22810D01*
X-787908Y24491D01*
Y26309D01*
X-788604Y27990D01*
X-789890Y29276D01*
X-791571Y29972D01*
D02*
G37*
G36*
X-60318Y46832D02*
X-79382D01*
Y27768D01*
X-60318D01*
Y46832D01*
D02*
G37*
G36*
X-759626Y-53848D02*
X-761833D01*
X-763965Y-54419D01*
X-765877Y-55523D01*
X-767437Y-57083D01*
X-768541Y-58995D01*
X-769112Y-61126D01*
Y-63334D01*
X-768541Y-65465D01*
X-767437Y-67377D01*
X-765877Y-68937D01*
X-763965Y-70041D01*
X-761833Y-70612D01*
X-759626D01*
X-757495Y-70041D01*
X-755583Y-68937D01*
X-754023Y-67377D01*
X-752919Y-65465D01*
X-752348Y-63334D01*
Y-61126D01*
X-752919Y-58995D01*
X-754023Y-57083D01*
X-755583Y-55523D01*
X-757495Y-54419D01*
X-759626Y-53848D01*
D02*
G37*
G36*
X-685653Y-77216D02*
X-687471D01*
X-689152Y-77912D01*
X-689229Y-77989D01*
X-689306Y-77912D01*
X-690987Y-77216D01*
X-692805D01*
X-694486Y-77912D01*
X-695772Y-79198D01*
X-696468Y-80879D01*
Y-82697D01*
X-695772Y-84378D01*
X-694486Y-85664D01*
X-692805Y-86360D01*
X-690987D01*
X-689306Y-85664D01*
X-689229Y-85587D01*
X-689152Y-85664D01*
X-687471Y-86360D01*
X-685653D01*
X-683972Y-85664D01*
X-682686Y-84378D01*
X-681990Y-82697D01*
Y-80879D01*
X-682686Y-79198D01*
X-683972Y-77912D01*
X-685653Y-77216D01*
D02*
G37*
G36*
X-724654D02*
X-726473D01*
X-728154Y-77912D01*
X-728231Y-77989D01*
X-728308Y-77912D01*
X-729988Y-77216D01*
X-731807D01*
X-733487Y-77912D01*
X-734774Y-79198D01*
X-735470Y-80879D01*
Y-82697D01*
X-734774Y-84378D01*
X-733487Y-85664D01*
X-731807Y-86360D01*
X-729988D01*
X-728308Y-85664D01*
X-728231Y-85587D01*
X-728154Y-85664D01*
X-726473Y-86360D01*
X-724654D01*
X-722974Y-85664D01*
X-721688Y-84378D01*
X-720992Y-82697D01*
Y-80879D01*
X-721688Y-79198D01*
X-722974Y-77912D01*
X-724654Y-77216D01*
D02*
G37*
G36*
X-402408Y-61358D02*
X-405312D01*
X-408118Y-62110D01*
X-410634Y-63562D01*
X-412688Y-65616D01*
X-414140Y-68132D01*
X-414892Y-70938D01*
Y-73842D01*
X-414140Y-76648D01*
X-412688Y-79164D01*
X-410634Y-81218D01*
X-408118Y-82670D01*
X-405312Y-83422D01*
X-402408D01*
X-399602Y-82670D01*
X-397086Y-81218D01*
X-395032Y-79164D01*
X-393580Y-76648D01*
X-392828Y-73842D01*
Y-70938D01*
X-393580Y-68132D01*
X-395032Y-65616D01*
X-397086Y-63562D01*
X-399602Y-62110D01*
X-402408Y-61358D01*
D02*
G37*
G36*
Y-86758D02*
X-405312D01*
X-408118Y-87510D01*
X-410634Y-88962D01*
X-412688Y-91016D01*
X-414140Y-93532D01*
X-414892Y-96338D01*
Y-99242D01*
X-414140Y-102048D01*
X-412688Y-104564D01*
X-410634Y-106618D01*
X-408118Y-108070D01*
X-405312Y-108822D01*
X-402408D01*
X-399602Y-108070D01*
X-397086Y-106618D01*
X-395032Y-104564D01*
X-393580Y-102048D01*
X-392828Y-99242D01*
Y-96338D01*
X-393580Y-93532D01*
X-395032Y-91016D01*
X-397086Y-88962D01*
X-399602Y-87510D01*
X-402408Y-86758D01*
D02*
G37*
G36*
X-580208D02*
X-583112D01*
X-585918Y-87510D01*
X-588434Y-88962D01*
X-590488Y-91016D01*
X-591940Y-93532D01*
X-592692Y-96338D01*
Y-99242D01*
X-591940Y-102048D01*
X-590488Y-104564D01*
X-588434Y-106618D01*
X-585918Y-108070D01*
X-583112Y-108822D01*
X-580208D01*
X-577402Y-108070D01*
X-574886Y-106618D01*
X-572832Y-104564D01*
X-571380Y-102048D01*
X-570628Y-99242D01*
Y-96338D01*
X-571380Y-93532D01*
X-572832Y-91016D01*
X-574886Y-88962D01*
X-577402Y-87510D01*
X-580208Y-86758D01*
D02*
G37*
G36*
X-441832Y-103703D02*
X-444039D01*
X-446171Y-104274D01*
X-448082Y-105378D01*
X-449643Y-106938D01*
X-450746Y-108850D01*
X-451317Y-110982D01*
Y-113189D01*
X-450746Y-115320D01*
X-449643Y-117232D01*
X-448082Y-118792D01*
X-446171Y-119896D01*
X-444039Y-120467D01*
X-441832D01*
X-439700Y-119896D01*
X-437789Y-118792D01*
X-436228Y-117232D01*
X-435125Y-115320D01*
X-434553Y-113189D01*
Y-110982D01*
X-435125Y-108850D01*
X-436228Y-106938D01*
X-437789Y-105378D01*
X-439700Y-104274D01*
X-441832Y-103703D01*
D02*
G37*
G36*
X-137175Y-108108D02*
X-139685D01*
X-142109Y-108758D01*
X-144283Y-110013D01*
X-146058Y-111787D01*
X-147312Y-113961D01*
X-147962Y-116385D01*
Y-118895D01*
X-147312Y-121319D01*
X-146058Y-123493D01*
X-144283Y-125267D01*
X-142109Y-126522D01*
X-139685Y-127172D01*
X-137175D01*
X-134751Y-126522D01*
X-132577Y-125267D01*
X-130802Y-123493D01*
X-129548Y-121319D01*
X-128898Y-118895D01*
Y-116385D01*
X-129548Y-113961D01*
X-130802Y-111787D01*
X-132577Y-110013D01*
X-134751Y-108758D01*
X-137175Y-108108D01*
D02*
G37*
G36*
X-162575D02*
X-165085D01*
X-167509Y-108758D01*
X-169683Y-110013D01*
X-171458Y-111787D01*
X-172712Y-113961D01*
X-173362Y-116385D01*
Y-118895D01*
X-172712Y-121319D01*
X-171458Y-123493D01*
X-169683Y-125267D01*
X-167509Y-126522D01*
X-165085Y-127172D01*
X-162575D01*
X-160151Y-126522D01*
X-157977Y-125267D01*
X-156202Y-123493D01*
X-154948Y-121319D01*
X-154298Y-118895D01*
Y-116385D01*
X-154948Y-113961D01*
X-156202Y-111787D01*
X-157977Y-110013D01*
X-160151Y-108758D01*
X-162575Y-108108D01*
D02*
G37*
G36*
X-187975D02*
X-190485D01*
X-192909Y-108758D01*
X-195083Y-110013D01*
X-196857Y-111787D01*
X-198112Y-113961D01*
X-198762Y-116385D01*
Y-118895D01*
X-198112Y-121319D01*
X-196857Y-123493D01*
X-195083Y-125267D01*
X-192909Y-126522D01*
X-190485Y-127172D01*
X-187975D01*
X-185551Y-126522D01*
X-183377Y-125267D01*
X-181602Y-123493D01*
X-180348Y-121319D01*
X-179698Y-118895D01*
Y-116385D01*
X-180348Y-113961D01*
X-181602Y-111787D01*
X-183377Y-110013D01*
X-185551Y-108758D01*
X-187975Y-108108D01*
D02*
G37*
G36*
X-213375D02*
X-215885D01*
X-218309Y-108758D01*
X-220483Y-110013D01*
X-222257Y-111787D01*
X-223512Y-113961D01*
X-224162Y-116385D01*
Y-118895D01*
X-223512Y-121319D01*
X-222257Y-123493D01*
X-220483Y-125267D01*
X-218309Y-126522D01*
X-215885Y-127172D01*
X-213375D01*
X-210951Y-126522D01*
X-208777Y-125267D01*
X-207003Y-123493D01*
X-205748Y-121319D01*
X-205098Y-118895D01*
Y-116385D01*
X-205748Y-113961D01*
X-207003Y-111787D01*
X-208777Y-110013D01*
X-210951Y-108758D01*
X-213375Y-108108D01*
D02*
G37*
G36*
X-238775D02*
X-241285D01*
X-243709Y-108758D01*
X-245883Y-110013D01*
X-247658Y-111787D01*
X-248912Y-113961D01*
X-249562Y-116385D01*
Y-118895D01*
X-248912Y-121319D01*
X-247658Y-123493D01*
X-245883Y-125267D01*
X-243709Y-126522D01*
X-241285Y-127172D01*
X-238775D01*
X-236351Y-126522D01*
X-234177Y-125267D01*
X-232402Y-123493D01*
X-231148Y-121319D01*
X-230498Y-118895D01*
Y-116385D01*
X-231148Y-113961D01*
X-232402Y-111787D01*
X-234177Y-110013D01*
X-236351Y-108758D01*
X-238775Y-108108D01*
D02*
G37*
G36*
X-264175D02*
X-266685D01*
X-269109Y-108758D01*
X-271283Y-110013D01*
X-273057Y-111787D01*
X-274312Y-113961D01*
X-274962Y-116385D01*
Y-118895D01*
X-274312Y-121319D01*
X-273057Y-123493D01*
X-271283Y-125267D01*
X-269109Y-126522D01*
X-266685Y-127172D01*
X-264175D01*
X-261751Y-126522D01*
X-259577Y-125267D01*
X-257803Y-123493D01*
X-256548Y-121319D01*
X-255898Y-118895D01*
Y-116385D01*
X-256548Y-113961D01*
X-257803Y-111787D01*
X-259577Y-110013D01*
X-261751Y-108758D01*
X-264175Y-108108D01*
D02*
G37*
G36*
X-289575D02*
X-292085D01*
X-294509Y-108758D01*
X-296683Y-110013D01*
X-298458Y-111787D01*
X-299712Y-113961D01*
X-300362Y-116385D01*
Y-118895D01*
X-299712Y-121319D01*
X-298458Y-123493D01*
X-296683Y-125267D01*
X-294509Y-126522D01*
X-292085Y-127172D01*
X-289575D01*
X-287151Y-126522D01*
X-284977Y-125267D01*
X-283202Y-123493D01*
X-281948Y-121319D01*
X-281298Y-118895D01*
Y-116385D01*
X-281948Y-113961D01*
X-283202Y-111787D01*
X-284977Y-110013D01*
X-287151Y-108758D01*
X-289575Y-108108D01*
D02*
G37*
G36*
X-402408Y-112158D02*
X-405312D01*
X-408118Y-112910D01*
X-410634Y-114362D01*
X-412688Y-116416D01*
X-414140Y-118932D01*
X-414892Y-121738D01*
Y-124642D01*
X-414140Y-127448D01*
X-412688Y-129964D01*
X-410634Y-132018D01*
X-408118Y-133470D01*
X-405312Y-134222D01*
X-402408D01*
X-399602Y-133470D01*
X-397086Y-132018D01*
X-395032Y-129964D01*
X-393580Y-127448D01*
X-392828Y-124642D01*
Y-121738D01*
X-393580Y-118932D01*
X-395032Y-116416D01*
X-397086Y-114362D01*
X-399602Y-112910D01*
X-402408Y-112158D01*
D02*
G37*
G36*
X-580208D02*
X-583112D01*
X-585918Y-112910D01*
X-588434Y-114362D01*
X-590488Y-116416D01*
X-591940Y-118932D01*
X-592692Y-121738D01*
Y-124642D01*
X-591940Y-127448D01*
X-590488Y-129964D01*
X-588434Y-132018D01*
X-585918Y-133470D01*
X-583112Y-134222D01*
X-580208D01*
X-577402Y-133470D01*
X-574886Y-132018D01*
X-572832Y-129964D01*
X-571380Y-127448D01*
X-570628Y-124642D01*
Y-121738D01*
X-571380Y-118932D01*
X-572832Y-116416D01*
X-574886Y-114362D01*
X-577402Y-112910D01*
X-580208Y-112158D01*
D02*
G37*
%LPD*%
D46*
X-621030Y360680D02*
X-598170Y383540D01*
X-533400D01*
X-452120Y302260D01*
Y255740D02*
Y302260D01*
Y57150D02*
Y133820D01*
X-581660Y-72390D02*
X-452120Y57150D01*
X-668815Y252935D02*
X-651305D01*
X-621030Y283210D02*
Y360680D01*
X-675640Y246110D02*
X-668815Y252935D01*
X-651305D02*
X-621030Y283210D01*
X-697230Y28410D02*
X-656590D01*
X-702310Y33490D02*
X-697230Y28410D01*
X-702310Y33490D02*
Y43650D01*
D50*
X-675640Y246110D02*
D03*
Y295110D02*
D03*
D51*
X-316230Y-117640D02*
D03*
D52*
X-138430D02*
D03*
X-163830D02*
D03*
X-189230D02*
D03*
X-214630D02*
D03*
X-240030D02*
D03*
X-265430D02*
D03*
X-290830D02*
D03*
X-881380Y138900D02*
D03*
Y113500D02*
D03*
Y88100D02*
D03*
Y62700D02*
D03*
Y37300D02*
D03*
X-69850Y62700D02*
D03*
Y88100D02*
D03*
Y113500D02*
D03*
Y138900D02*
D03*
Y164300D02*
D03*
D53*
X-581660Y-123190D02*
D03*
Y-97790D02*
D03*
Y-72390D02*
D03*
Y-46990D02*
D03*
Y-21590D02*
D03*
Y3810D02*
D03*
Y29210D02*
D03*
Y54610D02*
D03*
Y80010D02*
D03*
Y105410D02*
D03*
Y130810D02*
D03*
Y156210D02*
D03*
Y181610D02*
D03*
Y207010D02*
D03*
Y232410D02*
D03*
Y257810D02*
D03*
Y283210D02*
D03*
Y308610D02*
D03*
Y334010D02*
D03*
X-403860Y-97790D02*
D03*
Y-72390D02*
D03*
Y-46990D02*
D03*
Y-21590D02*
D03*
Y3810D02*
D03*
Y29210D02*
D03*
Y54610D02*
D03*
Y80010D02*
D03*
Y105410D02*
D03*
Y130810D02*
D03*
Y156210D02*
D03*
Y181610D02*
D03*
Y207010D02*
D03*
Y232410D02*
D03*
Y257810D02*
D03*
Y283210D02*
D03*
Y308610D02*
D03*
Y334010D02*
D03*
Y-123190D02*
D03*
Y359410D02*
D03*
D54*
X-581660D02*
D03*
D55*
X-868040Y236380D02*
D03*
X-796040D02*
D03*
D56*
X-899540Y296380D02*
D03*
X-764540D02*
D03*
D57*
X-881380Y164300D02*
D03*
X-69850Y37300D02*
D03*
D58*
X-157480Y387350D02*
D03*
X-119380D02*
D03*
X-81280D02*
D03*
X-43180D02*
D03*
X-386080D02*
D03*
X-347980D02*
D03*
X-462280D02*
D03*
X-424180D02*
D03*
X-271780D02*
D03*
X-233680D02*
D03*
X-195580D02*
D03*
X-309880D02*
D03*
X-958650Y90D02*
D03*
Y-38010D02*
D03*
Y-76110D02*
D03*
Y-114210D02*
D03*
Y228690D02*
D03*
Y190590D02*
D03*
Y304890D02*
D03*
Y266790D02*
D03*
Y114390D02*
D03*
Y76290D02*
D03*
Y38190D02*
D03*
Y152490D02*
D03*
X-21590Y0D02*
D03*
Y-38100D02*
D03*
Y-76200D02*
D03*
Y-114300D02*
D03*
Y228600D02*
D03*
Y190500D02*
D03*
Y304800D02*
D03*
Y266700D02*
D03*
Y38100D02*
D03*
Y152400D02*
D03*
X10160D02*
D03*
Y38100D02*
D03*
Y76200D02*
D03*
Y114300D02*
D03*
Y266700D02*
D03*
Y304800D02*
D03*
Y190500D02*
D03*
Y228600D02*
D03*
Y-114300D02*
D03*
Y-76200D02*
D03*
Y-38100D02*
D03*
Y0D02*
D03*
X-711886Y-29132D02*
D03*
X-706120Y5080D02*
D03*
X-718820D02*
D03*
X-691896Y-81788D02*
D03*
X-686562D02*
D03*
X-730898D02*
D03*
X-725564D02*
D03*
X-805020Y-129230D02*
D03*
X-797400D02*
D03*
X-805020Y-135580D02*
D03*
X-789780Y-129230D02*
D03*
X-797400Y-135580D02*
D03*
X-789780D02*
D03*
X-846930Y-129230D02*
D03*
Y-135580D02*
D03*
X-835660Y55080D02*
D03*
Y61430D02*
D03*
X-829310Y55080D02*
D03*
X-839310Y-129230D02*
D03*
Y-135580D02*
D03*
X-822960Y55080D02*
D03*
Y61430D02*
D03*
X-831690Y-129230D02*
D03*
Y-135580D02*
D03*
X-816610Y55080D02*
D03*
Y61430D02*
D03*
X-824070Y-135580D02*
D03*
X-812640D02*
D03*
X-824070Y-129230D02*
D03*
X-812640D02*
D03*
X-798830Y10160D02*
D03*
X-792480D02*
D03*
X-798830Y17780D02*
D03*
X-792480D02*
D03*
X-798830Y25400D02*
D03*
X-792480D02*
D03*
X-810260Y55080D02*
D03*
Y61430D02*
D03*
X-829310D02*
D03*
X-788539Y64168D02*
D03*
X-782908Y64115D02*
D03*
X-720090Y108420D02*
D03*
X-708660D02*
D03*
X-697230D02*
D03*
X-720090Y117310D02*
D03*
X-708660D02*
D03*
X-697230D02*
D03*
X-720090Y126200D02*
D03*
X-708660D02*
D03*
X-697230D02*
D03*
X-137160Y198590D02*
D03*
X-127635D02*
D03*
X-108585D02*
D03*
X-165735D02*
D03*
X-156210D02*
D03*
X-118110D02*
D03*
X-146685D02*
D03*
X-777277Y64090D02*
D03*
D59*
X-303676Y108D02*
D03*
X-151746D02*
D03*
X-940360Y-165190D02*
D03*
Y364810D02*
D03*
X-10360Y-165190D02*
D03*
Y364810D02*
D03*
D60*
X-648970Y-74930D02*
D03*
X-646430Y-62230D02*
D03*
X-657860D02*
D03*
X-191242Y189255D02*
D03*
X-314960Y287490D02*
D03*
X-302664Y251654D02*
D03*
X-295910Y287490D02*
D03*
X-280670Y251415D02*
D03*
X-276860Y287490D02*
D03*
X-271780Y242031D02*
D03*
X-259080Y287490D02*
D03*
X-254239Y251138D02*
D03*
X-180340Y198590D02*
D03*
X-240030Y243040D02*
D03*
X-207010Y244310D02*
D03*
X-240030Y287490D02*
D03*
X-109220D02*
D03*
X-146050D02*
D03*
X-128270D02*
D03*
X-160020Y307810D02*
D03*
X-128270D02*
D03*
D61*
X-760730Y-62230D02*
D03*
X-744220Y199390D02*
D03*
X-462280Y163030D02*
D03*
Y182080D02*
D03*
X-452120Y133820D02*
D03*
X-750570Y43650D02*
D03*
X-702310D02*
D03*
X-685800D02*
D03*
X-697445Y181025D02*
D03*
X-462280Y207480D02*
D03*
X-442935Y-112085D02*
D03*
X-265430Y-69380D02*
D03*
X-240030D02*
D03*
X-462280Y226530D02*
D03*
X-452120Y255740D02*
D03*
X-679450Y143980D02*
D03*
D62*
X-651510Y-26670D02*
D03*
Y-17780D02*
D03*
X-633730D02*
D03*
X-624840D02*
D03*
X-642620D02*
D03*
X-624840Y-26670D02*
D03*
X-633730D02*
D03*
X-642620D02*
D03*
M02*
