G04*
G04 #@! TF.GenerationSoftware,Altium Limited,Altium Designer,22.11.1 (43)*
G04*
G04 Layer_Physical_Order=1*
G04 Layer_Color=255*
%FSLAX44Y44*%
%MOMM*%
G71*
G04*
G04 #@! TF.SameCoordinates,30CB15ED-5B5F-4030-944F-8374E8F7CEFA*
G04*
G04*
G04 #@! TF.FilePolarity,Positive*
G04*
G01*
G75*
%ADD11C,0.2540*%
%ADD14O,0.3080X1.3240*%
%ADD15R,0.8640X0.8065*%
%ADD16R,0.9000X0.8000*%
%ADD17R,2.3760X1.9000*%
%ADD18R,2.8000X1.1000*%
%ADD19R,1.1000X2.5000*%
%ADD20R,3.6000X2.3400*%
%ADD21R,2.4240X3.4200*%
%ADD22R,0.8065X0.8640*%
%ADD23R,1.4850X1.7280*%
%ADD24R,0.8000X0.9000*%
%ADD25R,3.1000X2.2000*%
%ADD26O,0.6300X1.8650*%
%ADD27R,1.1000X1.0000*%
%ADD28R,1.7280X1.4850*%
%ADD46C,0.6350*%
%ADD47C,1.0160*%
%ADD48C,0.3810*%
%ADD49C,0.5080*%
G04:AMPARAMS|DCode=50|XSize=2mm|YSize=5mm|CornerRadius=0.25mm|HoleSize=0mm|Usage=FLASHONLY|Rotation=90.000|XOffset=0mm|YOffset=0mm|HoleType=Round|Shape=RoundedRectangle|*
%AMROUNDEDRECTD50*
21,1,2.0000,4.5000,0,0,90.0*
21,1,1.5000,5.0000,0,0,90.0*
1,1,0.5000,2.2500,0.7500*
1,1,0.5000,2.2500,-0.7500*
1,1,0.5000,-2.2500,-0.7500*
1,1,0.5000,-2.2500,0.7500*
%
%ADD50ROUNDEDRECTD50*%
%ADD51R,1.5000X1.5000*%
%ADD52C,1.5000*%
%ADD53C,1.8000*%
%ADD54R,1.8009X1.8009*%
%ADD55C,3.8000*%
%ADD56R,1.6000X2.6000*%
%ADD57R,1.5000X1.5000*%
%ADD58C,0.5080*%
%ADD59C,3.0000*%
%ADD60C,0.7620*%
%ADD61C,1.2700*%
%ADD62C,1.0160*%
G36*
X-157498Y304926D02*
X-157627Y304736D01*
X-157742Y304518D01*
X-157841Y304272D01*
X-157924Y304000D01*
X-157993Y303699D01*
X-158046Y303372D01*
X-158084Y303017D01*
X-158115Y302224D01*
X-161925D01*
X-161933Y302634D01*
X-161994Y303372D01*
X-162047Y303699D01*
X-162115Y304000D01*
X-162199Y304272D01*
X-162298Y304518D01*
X-162413Y304736D01*
X-162542Y304926D01*
X-162687Y305089D01*
X-157353D01*
X-157498Y304926D01*
D02*
G37*
G36*
X-312438Y284606D02*
X-312567Y284415D01*
X-312682Y284198D01*
X-312781Y283952D01*
X-312864Y283680D01*
X-312933Y283379D01*
X-312986Y283052D01*
X-313025Y282697D01*
X-313055Y281904D01*
X-316865D01*
X-316873Y282314D01*
X-316934Y283052D01*
X-316987Y283379D01*
X-317055Y283680D01*
X-317139Y283952D01*
X-317238Y284198D01*
X-317353Y284415D01*
X-317482Y284606D01*
X-317627Y284769D01*
X-312293D01*
X-312438Y284606D01*
D02*
G37*
G36*
X-293656Y284418D02*
X-293825Y284273D01*
X-293977Y284098D01*
X-294110Y283895D01*
X-294226Y283661D01*
X-294324Y283399D01*
X-294404Y283107D01*
X-294466Y282786D01*
X-294510Y282435D01*
X-294537Y282056D01*
X-294546Y281646D01*
X-298356Y282283D01*
X-298362Y282696D01*
X-298449Y283770D01*
X-298501Y284073D01*
X-298565Y284348D01*
X-298640Y284596D01*
X-298727Y284817D01*
X-298826Y285010D01*
X-298936Y285175D01*
X-293656Y284418D01*
D02*
G37*
G36*
X-304398Y256771D02*
X-303575Y256076D01*
X-303323Y255900D01*
X-303081Y255752D01*
X-302850Y255632D01*
X-302630Y255540D01*
X-302420Y255475D01*
X-302221Y255439D01*
X-306439Y252173D01*
X-306425Y252395D01*
X-306445Y252626D01*
X-306497Y252865D01*
X-306583Y253111D01*
X-306701Y253366D01*
X-306852Y253629D01*
X-307036Y253901D01*
X-307253Y254180D01*
X-307504Y254467D01*
X-307787Y254763D01*
X-304694Y257058D01*
X-304398Y256771D01*
D02*
G37*
G36*
X-282550Y256513D02*
X-281989Y256025D01*
X-281724Y255824D01*
X-281468Y255651D01*
X-281223Y255506D01*
X-280988Y255390D01*
X-280763Y255301D01*
X-280548Y255242D01*
X-280343Y255210D01*
X-284459Y251817D01*
X-284452Y252039D01*
X-284477Y252270D01*
X-284534Y252508D01*
X-284624Y252755D01*
X-284746Y253010D01*
X-284900Y253273D01*
X-285087Y253544D01*
X-285306Y253823D01*
X-285557Y254110D01*
X-285840Y254406D01*
X-282846Y256800D01*
X-282550Y256513D01*
D02*
G37*
G36*
X-394848Y256526D02*
X-394672Y254361D01*
X-394508Y253390D01*
X-394295Y252493D01*
X-394031Y251670D01*
X-393717Y250921D01*
X-393353Y250246D01*
X-392939Y249645D01*
X-392475Y249119D01*
X-395169Y246425D01*
X-395695Y246889D01*
X-396296Y247303D01*
X-396971Y247667D01*
X-397720Y247981D01*
X-398543Y248245D01*
X-399440Y248458D01*
X-400411Y248622D01*
X-401457Y248735D01*
X-403770Y248810D01*
X-394860Y257720D01*
X-394848Y256526D01*
D02*
G37*
G36*
X-204126Y246832D02*
X-203936Y246703D01*
X-203718Y246588D01*
X-203472Y246489D01*
X-203200Y246406D01*
X-202899Y246337D01*
X-202572Y246284D01*
X-202217Y246245D01*
X-201424Y246215D01*
Y242405D01*
X-201834Y242397D01*
X-202572Y242336D01*
X-202899Y242283D01*
X-203200Y242215D01*
X-203472Y242131D01*
X-203718Y242032D01*
X-203936Y241917D01*
X-204126Y241788D01*
X-204289Y241643D01*
Y246977D01*
X-204126Y246832D01*
D02*
G37*
G36*
X-394848Y231126D02*
X-394672Y228961D01*
X-394508Y227990D01*
X-394295Y227093D01*
X-394031Y226270D01*
X-393717Y225521D01*
X-393353Y224846D01*
X-392939Y224245D01*
X-392475Y223719D01*
X-395169Y221025D01*
X-395695Y221489D01*
X-396296Y221903D01*
X-396971Y222267D01*
X-397720Y222581D01*
X-398543Y222845D01*
X-399440Y223058D01*
X-400411Y223222D01*
X-401457Y223335D01*
X-403770Y223410D01*
X-394860Y232320D01*
X-394848Y231126D01*
D02*
G37*
G36*
X-645160Y306540D02*
Y281140D01*
X-652780Y273520D01*
X-702310D01*
X-763270Y212560D01*
X-814070D01*
X-821690Y220180D01*
Y253200D01*
X-814070Y260820D01*
X-767080D01*
X-713776Y314124D01*
X-652744D01*
X-645160Y306540D01*
D02*
G37*
G36*
X-737829Y202572D02*
X-737641Y202509D01*
X-737146Y202385D01*
X-736605Y202289D01*
X-736016Y202220D01*
X-734698Y202165D01*
X-735162Y195815D01*
X-735847Y195804D01*
X-737081Y195712D01*
X-737630Y195632D01*
X-737829Y195591D01*
Y193620D01*
X-737889Y194037D01*
X-738069Y194410D01*
X-738368Y194740D01*
X-738788Y195025D01*
X-739148Y195186D01*
X-739374Y195081D01*
X-739697Y194886D01*
X-739974Y194668D01*
X-739925Y195446D01*
X-739986Y195464D01*
X-740765Y195618D01*
X-741663Y195727D01*
X-742682Y195793D01*
X-743820Y195815D01*
Y202165D01*
X-742682Y202179D01*
X-739986Y202388D01*
X-739481Y202484D01*
X-739414Y203540D01*
X-739153Y203279D01*
X-738845Y203045D01*
X-738491Y202839D01*
X-738441Y202817D01*
X-738368Y202848D01*
X-738069Y203057D01*
X-737889Y203295D01*
X-737829Y203559D01*
Y202572D01*
D02*
G37*
G36*
X-581750Y198010D02*
X-583109Y198003D01*
X-585530Y197859D01*
X-586592Y197722D01*
X-587554Y197541D01*
X-588418Y197318D01*
X-589182Y197052D01*
X-589847Y196742D01*
X-590414Y196389D01*
X-590881Y195993D01*
X-592677Y197789D01*
X-592281Y198256D01*
X-591928Y198823D01*
X-591618Y199488D01*
X-591352Y200252D01*
X-591129Y201116D01*
X-590948Y202078D01*
X-590812Y203140D01*
X-590667Y205561D01*
X-590660Y206920D01*
X-581750Y198010D01*
D02*
G37*
G36*
X-183061Y195923D02*
X-183224Y196068D01*
X-183414Y196197D01*
X-183632Y196312D01*
X-183878Y196411D01*
X-184151Y196495D01*
X-184451Y196563D01*
X-184778Y196616D01*
X-185133Y196654D01*
X-185926Y196685D01*
Y200495D01*
X-185516Y200503D01*
X-184778Y200564D01*
X-184451Y200617D01*
X-184151Y200686D01*
X-183878Y200769D01*
X-183632Y200868D01*
X-183414Y200983D01*
X-183224Y201112D01*
X-183061Y201257D01*
Y195923D01*
D02*
G37*
G36*
X-193963Y186588D02*
X-194126Y186733D01*
X-194317Y186862D01*
X-194535Y186977D01*
X-194780Y187076D01*
X-195053Y187160D01*
X-195353Y187228D01*
X-195681Y187281D01*
X-196036Y187320D01*
X-196828Y187350D01*
Y191160D01*
X-196418Y191168D01*
X-195681Y191229D01*
X-195353Y191282D01*
X-195053Y191350D01*
X-194780Y191434D01*
X-194535Y191533D01*
X-194317Y191648D01*
X-194126Y191777D01*
X-193963Y191922D01*
Y186588D01*
D02*
G37*
G36*
X-692586Y193557D02*
X-692940Y193367D01*
X-693251Y193049D01*
X-693522Y192605D01*
X-693751Y192033D01*
X-693938Y191334D01*
X-694083Y190509D01*
X-694187Y189557D01*
X-694206Y189031D01*
X-694156Y188422D01*
X-694067Y187876D01*
X-693953Y187376D01*
X-693813Y186922D01*
X-693648Y186513D01*
X-693457Y186149D01*
X-693242Y185832D01*
X-693000Y185560D01*
X-701890D01*
X-701649Y185832D01*
X-701433Y186149D01*
X-701243Y186513D01*
X-701077Y186922D01*
X-700938Y187376D01*
X-700824Y187876D01*
X-700735Y188422D01*
X-700685Y188881D01*
X-700846Y190509D01*
X-701022Y191334D01*
X-701248Y192033D01*
X-701524Y192605D01*
X-701850Y193049D01*
X-702226Y193367D01*
X-702653Y193557D01*
X-703130Y193620D01*
X-692191D01*
X-692586Y193557D01*
D02*
G37*
G36*
X-702037Y184326D02*
X-701754Y184282D01*
X-699976Y184140D01*
X-697690Y184093D01*
Y177743D01*
X-698897Y177729D01*
X-701754Y177518D01*
X-701921Y177488D01*
X-701904Y176504D01*
X-702178Y176739D01*
X-702497Y176950D01*
X-702862Y177136D01*
X-703072Y177218D01*
X-703469Y177056D01*
X-703786Y176845D01*
X-703977Y176607D01*
X-704040Y176341D01*
Y177502D01*
X-704230Y177544D01*
X-704777Y177631D01*
X-705370Y177693D01*
X-706691Y177743D01*
X-706815Y184093D01*
X-706133Y184106D01*
X-704905Y184210D01*
X-704360Y184301D01*
X-704040Y184376D01*
Y185280D01*
X-703977Y185054D01*
X-703786Y184852D01*
X-703469Y184674D01*
X-703287Y184611D01*
X-703001Y184730D01*
X-702639Y184925D01*
X-702324Y185146D01*
X-702055Y185393D01*
X-702037Y184326D01*
D02*
G37*
G36*
X-650240Y255270D02*
Y146520D01*
X-651510Y145250D01*
X-668020D01*
X-670560Y147790D01*
Y157950D01*
X-671830Y159220D01*
X-694690D01*
X-697230Y156680D01*
X-697230Y135090D01*
X-698500Y133820D01*
X-706120Y133820D01*
X-707390Y135090D01*
Y163030D01*
X-699770Y170650D01*
X-690880Y170650D01*
X-685734Y175796D01*
Y220914D01*
X-702486Y237666D01*
Y255094D01*
X-698500Y259080D01*
X-654050D01*
X-650240Y255270D01*
D02*
G37*
G36*
X-581750Y172610D02*
X-583109Y172603D01*
X-585530Y172458D01*
X-586592Y172321D01*
X-587554Y172141D01*
X-588418Y171918D01*
X-589182Y171652D01*
X-589847Y171342D01*
X-590414Y170989D01*
X-590881Y170593D01*
X-592677Y172389D01*
X-592281Y172856D01*
X-591928Y173423D01*
X-591618Y174088D01*
X-591352Y174852D01*
X-591129Y175716D01*
X-590948Y176678D01*
X-590812Y177740D01*
X-590667Y180161D01*
X-590660Y181520D01*
X-581750Y172610D01*
D02*
G37*
G36*
X-874481Y156831D02*
X-875271Y157405D01*
X-876205Y157693D01*
X-877283D01*
X-878504Y157405D01*
X-879869Y156831D01*
X-881378Y155968D01*
X-883030Y154819D01*
X-884826Y153382D01*
X-888849Y149646D01*
X-896034Y156831D01*
X-894022Y158914D01*
X-890861Y162650D01*
X-889712Y164302D01*
X-888849Y165811D01*
X-888275Y167176D01*
X-887987Y168397D01*
Y169475D01*
X-888275Y170409D01*
X-888849Y171199D01*
X-874481Y156831D01*
D02*
G37*
G36*
X-62319Y164148D02*
X-62224Y164012D01*
X-62066Y163818D01*
X-61208Y162881D01*
X-59174Y160809D01*
X-66359Y153624D01*
X-69775Y156800D01*
X-62350Y164225D01*
X-62319Y164148D01*
D02*
G37*
G36*
X-581750Y147210D02*
X-583109Y147203D01*
X-585530Y147058D01*
X-586592Y146922D01*
X-587554Y146741D01*
X-588418Y146518D01*
X-589182Y146252D01*
X-589847Y145942D01*
X-590414Y145589D01*
X-590881Y145193D01*
X-592677Y146989D01*
X-592281Y147456D01*
X-591928Y148023D01*
X-591618Y148688D01*
X-591352Y149452D01*
X-591129Y150316D01*
X-590948Y151278D01*
X-590812Y152340D01*
X-590667Y154761D01*
X-590660Y156120D01*
X-581750Y147210D01*
D02*
G37*
G36*
X-394838Y155258D02*
X-394754Y154422D01*
X-394607Y153613D01*
X-394398Y152830D01*
X-394128Y152073D01*
X-393795Y151342D01*
X-393400Y150638D01*
X-392943Y149959D01*
X-392423Y149307D01*
X-391842Y148682D01*
X-396332Y144192D01*
X-396958Y144773D01*
X-397609Y145293D01*
X-398288Y145750D01*
X-398992Y146145D01*
X-399723Y146478D01*
X-400480Y146749D01*
X-401263Y146957D01*
X-402072Y147104D01*
X-402908Y147188D01*
X-403770Y147210D01*
X-394860Y156120D01*
X-394838Y155258D01*
D02*
G37*
G36*
X-686444Y149801D02*
X-686253Y149262D01*
X-685933Y148786D01*
X-685486Y148374D01*
X-684911Y148025D01*
X-684688Y147935D01*
X-684536Y148013D01*
X-684224Y148220D01*
X-683959Y148452D01*
X-683968Y147676D01*
X-683376Y147518D01*
X-682417Y147359D01*
X-681329Y147264D01*
X-680114Y147233D01*
Y140883D01*
X-681331Y140851D01*
X-682421Y140756D01*
X-683382Y140597D01*
X-684056Y140417D01*
X-684066Y139620D01*
X-684328Y139860D01*
X-684637Y140074D01*
X-684777Y140148D01*
X-684921Y140090D01*
X-685498Y139741D01*
X-685948Y139329D01*
X-686269Y138853D01*
X-686462Y138314D01*
X-686527Y137711D01*
X-686522Y140709D01*
X-686888Y140769D01*
X-687480Y140832D01*
X-688803Y140883D01*
X-688714Y147233D01*
X-688028Y147245D01*
X-686796Y147342D01*
X-686512Y147387D01*
X-686507Y150403D01*
X-686444Y149801D01*
D02*
G37*
G36*
X-717550Y184620D02*
Y169380D01*
X-711200Y163030D01*
X-711200Y135090D01*
X-712470Y133820D01*
X-717550D01*
X-718820Y135090D01*
Y152870D01*
X-722630Y156680D01*
X-737870D01*
X-741680Y152870D01*
X-741680Y141675D01*
X-742522Y140834D01*
X-767080Y140834D01*
Y175074D01*
X-728366D01*
X-726440Y177000D01*
Y184620D01*
X-725170Y185890D01*
X-718820D01*
X-717550Y184620D01*
D02*
G37*
G36*
X-394889Y132107D02*
X-394318Y130499D01*
X-393976Y129735D01*
X-393596Y128999D01*
X-393178Y128289D01*
X-392723Y127607D01*
X-392230Y126952D01*
X-391700Y126325D01*
X-391131Y125724D01*
X-394382Y119994D01*
X-395026Y120588D01*
X-395686Y121096D01*
X-396362Y121520D01*
X-397054Y121859D01*
X-397762Y122114D01*
X-398486Y122283D01*
X-399227Y122368D01*
X-399983Y122368D01*
X-400755Y122283D01*
X-401544Y122113D01*
X-395119Y132952D01*
X-394889Y132107D01*
D02*
G37*
G36*
X-75206Y108250D02*
X-75631Y108644D01*
X-76094Y108997D01*
X-76595Y109308D01*
X-77133Y109578D01*
X-77708Y109806D01*
X-78320Y109993D01*
X-78970Y110138D01*
X-79658Y110242D01*
X-80382Y110304D01*
X-81145Y110325D01*
Y116675D01*
X-80382Y116696D01*
X-79658Y116758D01*
X-78970Y116862D01*
X-78320Y117007D01*
X-77708Y117194D01*
X-77133Y117422D01*
X-76595Y117692D01*
X-76094Y118003D01*
X-75631Y118356D01*
X-75206Y118750D01*
Y108250D01*
D02*
G37*
G36*
X-723676Y99306D02*
Y81974D01*
X-725170Y80480D01*
X-732790D01*
X-735330Y77940D01*
Y66510D01*
X-736600Y65240D01*
X-744220D01*
X-745490Y66510D01*
Y89370D01*
X-744220Y90640D01*
X-734060Y90640D01*
X-731520Y93180D01*
X-731520Y99530D01*
X-730250Y100800D01*
X-725170D01*
X-723676Y99306D01*
D02*
G37*
G36*
X-75206Y82850D02*
X-75631Y83244D01*
X-76094Y83597D01*
X-76595Y83908D01*
X-77133Y84178D01*
X-77708Y84406D01*
X-78320Y84593D01*
X-78970Y84738D01*
X-79658Y84842D01*
X-80382Y84904D01*
X-81145Y84925D01*
Y91275D01*
X-80382Y91296D01*
X-79658Y91358D01*
X-78970Y91462D01*
X-78320Y91607D01*
X-77708Y91794D01*
X-77133Y92022D01*
X-76595Y92292D01*
X-76094Y92603D01*
X-75631Y92956D01*
X-75206Y93350D01*
Y82850D01*
D02*
G37*
G36*
X-581750Y71010D02*
X-583109Y71003D01*
X-585530Y70858D01*
X-586592Y70722D01*
X-587554Y70541D01*
X-588418Y70318D01*
X-589182Y70052D01*
X-589847Y69742D01*
X-590414Y69389D01*
X-590881Y68993D01*
X-592677Y70789D01*
X-592281Y71256D01*
X-591928Y71823D01*
X-591618Y72488D01*
X-591352Y73252D01*
X-591129Y74116D01*
X-590948Y75078D01*
X-590812Y76140D01*
X-590667Y78561D01*
X-590660Y79920D01*
X-581750Y71010D01*
D02*
G37*
G36*
X-752381Y66030D02*
X-752776Y66318D01*
X-753243Y66462D01*
X-753782D01*
X-754393Y66318D01*
X-755075Y66030D01*
X-755830Y65599D01*
X-756656Y65025D01*
X-757554Y64306D01*
X-759566Y62438D01*
X-763158Y66030D01*
X-762152Y67072D01*
X-760571Y68940D01*
X-759997Y69766D01*
X-759566Y70521D01*
X-759278Y71203D01*
X-759135Y71814D01*
Y72353D01*
X-759278Y72819D01*
X-759566Y73215D01*
X-752381Y66030D01*
D02*
G37*
G36*
X-697230Y99530D02*
Y65875D01*
X-698500Y64605D01*
X-706120D01*
X-707390Y65875D01*
Y99530D01*
X-706120Y100800D01*
X-698500D01*
X-697230Y99530D01*
D02*
G37*
G36*
X-685800D02*
Y79210D01*
X-680720Y74130D01*
Y65240D01*
X-681990Y63970D01*
X-692150D01*
X-693420Y65240D01*
X-693420Y80480D01*
Y99530D01*
X-692150Y100800D01*
X-687070D01*
X-685800Y99530D01*
D02*
G37*
G36*
X-711200D02*
Y63970D01*
X-712470Y62700D01*
X-722630D01*
X-723900Y63970D01*
Y74130D01*
X-718820Y79210D01*
Y99530D01*
X-717550Y100800D01*
X-712470D01*
X-711200Y99530D01*
D02*
G37*
G36*
X-723900Y152870D02*
Y132550D01*
X-722630Y131280D01*
X-654050D01*
X-651510Y128740D01*
Y105880D01*
X-654050Y103340D01*
X-745490D01*
X-750570Y98260D01*
Y81750D01*
X-751840Y80480D01*
X-771672D01*
X-774700Y77452D01*
Y62700D01*
X-775970Y61430D01*
X-789940Y61430D01*
X-791210Y62700D01*
Y114770D01*
X-784860Y121120D01*
X-740410D01*
X-731520Y130010D01*
Y152870D01*
X-730250Y154140D01*
X-725170D01*
X-723900Y152870D01*
D02*
G37*
G36*
X-731351Y58975D02*
X-731161Y58623D01*
X-730843Y58312D01*
X-730398Y58042D01*
X-729827Y57814D01*
X-729128Y57627D01*
X-728303Y57482D01*
X-727398Y57383D01*
X-724877Y57571D01*
X-724305Y57692D01*
X-723861Y57836D01*
X-723543Y58002D01*
X-723353Y58189D01*
X-723289Y58399D01*
Y50460D01*
X-723353Y50552D01*
X-723543Y50635D01*
X-723861Y50707D01*
X-724305Y50770D01*
X-725575Y50867D01*
X-727076Y50896D01*
X-731414Y50790D01*
Y59370D01*
X-731351Y58975D01*
D02*
G37*
G36*
X-747352Y52934D02*
X-747339Y52251D01*
X-747239Y51021D01*
X-747202Y50790D01*
X-746482D01*
X-746647Y50727D01*
X-746795Y50536D01*
X-746926Y50219D01*
X-747010Y49885D01*
X-746899Y49519D01*
X-746736Y49110D01*
X-746547Y48745D01*
X-746333Y48427D01*
X-746094Y48155D01*
X-747233Y48162D01*
X-747317Y46726D01*
X-747352Y44440D01*
X-753702D01*
X-753710Y45647D01*
X-753880Y48207D01*
X-754984Y48215D01*
X-754740Y48486D01*
X-754522Y48802D01*
X-754330Y49165D01*
X-754163Y49573D01*
X-754034Y49991D01*
X-754086Y50219D01*
X-754203Y50536D01*
X-754337Y50727D01*
X-754485Y50790D01*
X-753864D01*
X-753817Y51073D01*
X-753753Y51664D01*
X-753702Y52984D01*
X-747352Y52934D01*
D02*
G37*
G36*
X-582648Y45664D02*
X-583942Y45782D01*
X-586262Y45840D01*
X-587289Y45780D01*
X-588226Y45660D01*
X-589074Y45481D01*
X-589833Y45243D01*
X-590502Y44945D01*
X-591083Y44587D01*
X-591574Y44170D01*
X-593188Y46148D01*
X-592820Y46583D01*
X-592477Y47127D01*
X-592159Y47780D01*
X-591866Y48543D01*
X-591597Y49415D01*
X-591353Y50397D01*
X-590939Y52689D01*
X-590624Y55418D01*
X-582648Y45664D01*
D02*
G37*
G36*
X-682612Y52276D02*
X-682511Y51047D01*
X-682422Y50501D01*
X-682412Y50460D01*
X-681330D01*
X-681576Y50397D01*
X-681796Y50206D01*
X-681991Y49889D01*
X-682143Y49486D01*
X-682003Y49137D01*
X-681812Y48774D01*
X-681596Y48457D01*
X-681355Y48185D01*
X-682416D01*
X-682418Y48174D01*
X-682508Y47349D01*
X-682612Y45317D01*
X-682625Y44110D01*
X-688975D01*
X-688988Y45317D01*
X-689182Y48174D01*
X-689184Y48185D01*
X-690245D01*
X-690004Y48457D01*
X-689788Y48774D01*
X-689597Y49137D01*
X-689457Y49486D01*
X-689609Y49889D01*
X-689803Y50206D01*
X-690024Y50397D01*
X-690269Y50460D01*
X-689187D01*
X-689178Y50501D01*
X-689089Y51047D01*
X-689026Y51639D01*
X-688975Y52959D01*
X-682625D01*
X-682612Y52276D01*
D02*
G37*
G36*
X-699122D02*
X-699021Y51047D01*
X-698932Y50501D01*
X-698818Y50001D01*
X-698785Y49894D01*
X-698020D01*
X-698232Y49832D01*
X-698422Y49645D01*
X-698589Y49332D01*
X-698590Y49329D01*
X-698513Y49137D01*
X-698322Y48774D01*
X-698106Y48457D01*
X-697865Y48185D01*
X-698878D01*
X-698957Y47646D01*
X-699090Y45898D01*
X-699135Y43650D01*
X-705485D01*
X-705496Y44837D01*
X-705752Y48185D01*
X-706755D01*
X-706514Y48457D01*
X-706298Y48774D01*
X-706107Y49137D01*
X-706030Y49329D01*
X-706031Y49332D01*
X-706198Y49645D01*
X-706388Y49832D01*
X-706600Y49894D01*
X-705835D01*
X-705803Y50001D01*
X-705688Y50501D01*
X-705599Y51047D01*
X-705536Y51639D01*
X-705485Y52959D01*
X-699135D01*
X-699122Y52276D01*
D02*
G37*
G36*
X-876162Y31867D02*
X-876191Y31704D01*
X-876217Y31454D01*
X-876273Y30186D01*
X-876300Y27282D01*
X-886460D01*
X-886630Y31944D01*
X-876130D01*
X-876162Y31867D01*
D02*
G37*
G36*
X-574266Y34554D02*
X-572453Y32945D01*
X-571605Y32291D01*
X-570797Y31737D01*
X-570028Y31285D01*
X-569299Y30933D01*
X-568610Y30681D01*
X-567960Y30530D01*
X-567350Y30480D01*
Y27940D01*
X-567960Y27890D01*
X-568610Y27739D01*
X-569299Y27487D01*
X-570028Y27135D01*
X-570797Y26683D01*
X-571605Y26129D01*
X-572453Y25475D01*
X-574266Y23866D01*
X-575233Y22910D01*
Y35510D01*
X-574266Y34554D01*
D02*
G37*
G36*
X-62835Y29729D02*
X-63241Y29424D01*
X-63599Y28916D01*
X-63910Y28205D01*
X-64173Y27290D01*
X-64388Y26173D01*
X-64555Y24852D01*
X-64746Y21601D01*
X-64770Y19670D01*
X-74930D01*
X-74954Y21601D01*
X-75312Y26173D01*
X-75527Y27290D01*
X-75790Y28205D01*
X-76101Y28916D01*
X-76459Y29424D01*
X-76866Y29729D01*
X-77319Y29831D01*
X-62380D01*
X-62835Y29729D01*
D02*
G37*
G36*
X-704844Y3453D02*
X-704829Y3266D01*
X-704342D01*
X-704438Y3157D01*
X-704525Y3030D01*
X-704601Y2885D01*
X-704667Y2722D01*
X-704723Y2540D01*
X-704728Y2516D01*
X-704697Y2400D01*
X-704630Y2230D01*
X-704551Y2099D01*
X-704459Y2005D01*
X-704355Y1948D01*
X-704240Y1929D01*
X-704825D01*
X-704830Y1884D01*
X-704850Y1356D01*
X-707390D01*
X-707395Y1629D01*
X-707420Y1929D01*
X-708000D01*
X-707885Y1948D01*
X-707781Y2005D01*
X-707689Y2099D01*
X-707610Y2230D01*
X-707543Y2400D01*
X-707512Y2516D01*
X-707517Y2540D01*
X-707573Y2722D01*
X-707639Y2885D01*
X-707715Y3030D01*
X-707802Y3157D01*
X-707898Y3266D01*
X-707410D01*
X-707390Y3810D01*
X-704850D01*
X-704844Y3453D01*
D02*
G37*
G36*
X-717544D02*
X-717529Y3266D01*
X-717042D01*
X-717139Y3157D01*
X-717225Y3030D01*
X-717301Y2885D01*
X-717367Y2722D01*
X-717423Y2540D01*
X-717428Y2516D01*
X-717397Y2400D01*
X-717330Y2230D01*
X-717251Y2099D01*
X-717159Y2005D01*
X-717056Y1948D01*
X-716939Y1929D01*
X-717525D01*
X-717530Y1884D01*
X-717550Y1356D01*
X-720090D01*
X-720095Y1629D01*
X-720120Y1929D01*
X-720701D01*
X-720584Y1948D01*
X-720481Y2005D01*
X-720389Y2099D01*
X-720310Y2230D01*
X-720243Y2400D01*
X-720212Y2516D01*
X-720217Y2540D01*
X-720273Y2722D01*
X-720339Y2885D01*
X-720415Y3030D01*
X-720501Y3157D01*
X-720598Y3266D01*
X-720110D01*
X-720090Y3810D01*
X-717550D01*
X-717544Y3453D01*
D02*
G37*
G36*
X-574266Y9154D02*
X-572453Y7545D01*
X-571605Y6891D01*
X-570797Y6338D01*
X-570028Y5885D01*
X-569299Y5533D01*
X-568610Y5281D01*
X-567960Y5130D01*
X-567350Y5080D01*
Y2540D01*
X-567960Y2490D01*
X-568610Y2339D01*
X-569299Y2087D01*
X-570028Y1735D01*
X-570797Y1283D01*
X-571605Y729D01*
X-572453Y75D01*
X-574266Y-1534D01*
X-575233Y-2490D01*
Y10110D01*
X-574266Y9154D01*
D02*
G37*
G36*
X-704106Y-5240D02*
X-704119Y-5367D01*
X-704141Y-5846D01*
X-704151Y-6979D01*
X-702899D01*
X-703141Y-7005D01*
X-703356Y-7082D01*
X-703547Y-7210D01*
X-703712Y-7390D01*
X-703852Y-7622D01*
X-703966Y-7904D01*
X-704055Y-8239D01*
X-704118Y-8624D01*
X-704157Y-9061D01*
X-704169Y-9549D01*
X-706709D01*
X-706722Y-9061D01*
X-706760Y-8624D01*
X-706824Y-8239D01*
X-706913Y-7904D01*
X-707027Y-7622D01*
X-707167Y-7390D01*
X-707332Y-7210D01*
X-707522Y-7082D01*
X-707738Y-7005D01*
X-707979Y-6979D01*
X-706751D01*
X-706787Y-5187D01*
X-704091D01*
X-704106Y-5240D01*
D02*
G37*
G36*
X-716112Y-7005D02*
X-716328Y-7082D01*
X-716519Y-7210D01*
X-716684Y-7390D01*
X-716824Y-7622D01*
X-716938Y-7904D01*
X-717027Y-8239D01*
X-717090Y-8624D01*
X-717128Y-9061D01*
X-717141Y-9549D01*
X-719681D01*
X-719694Y-9061D01*
X-719732Y-8624D01*
X-719795Y-8239D01*
X-719884Y-7904D01*
X-719999Y-7622D01*
X-720138Y-7390D01*
X-720303Y-7210D01*
X-720494Y-7082D01*
X-720710Y-7005D01*
X-720951Y-6979D01*
X-715871D01*
X-716112Y-7005D01*
D02*
G37*
G36*
X-697487Y-14120D02*
X-700331D01*
X-700302Y-14052D01*
X-700276Y-13937D01*
X-700253Y-13776D01*
X-700217Y-13314D01*
X-700181Y-11838D01*
X-700179Y-11353D01*
X-697639D01*
X-697487Y-14120D01*
D02*
G37*
G36*
X-704167Y-11792D02*
X-704022Y-14043D01*
X-703987Y-14120D01*
X-706831D01*
X-706808Y-14060D01*
X-706787Y-13953D01*
X-706769Y-13799D01*
X-706740Y-13349D01*
X-706709Y-11398D01*
X-704169Y-11307D01*
X-704167Y-11792D01*
D02*
G37*
G36*
X-716989Y-14120D02*
X-719833D01*
X-719804Y-14052D01*
X-719778Y-13937D01*
X-719755Y-13776D01*
X-719719Y-13314D01*
X-719683Y-11838D01*
X-719681Y-11353D01*
X-717141D01*
X-716989Y-14120D01*
D02*
G37*
G36*
X-729989D02*
X-732833D01*
X-732804Y-14052D01*
X-732778Y-13937D01*
X-732755Y-13776D01*
X-732719Y-13314D01*
X-732682Y-11838D01*
X-732681Y-11353D01*
X-730141D01*
X-729989Y-14120D01*
D02*
G37*
G36*
X-736489D02*
X-739333D01*
X-739304Y-14052D01*
X-739278Y-13937D01*
X-739255Y-13776D01*
X-739219Y-13314D01*
X-739182Y-11838D01*
X-739181Y-11353D01*
X-736641D01*
X-736489Y-14120D01*
D02*
G37*
G36*
X-590414Y-10969D02*
X-589847Y-11322D01*
X-589182Y-11632D01*
X-588418Y-11898D01*
X-587554Y-12121D01*
X-586592Y-12301D01*
X-585530Y-12438D01*
X-583109Y-12583D01*
X-581750Y-12590D01*
X-590660Y-21500D01*
X-590667Y-20141D01*
X-590812Y-17720D01*
X-590948Y-16658D01*
X-591129Y-15696D01*
X-591352Y-14832D01*
X-591618Y-14068D01*
X-591928Y-13403D01*
X-592281Y-12836D01*
X-592677Y-12369D01*
X-590881Y-10573D01*
X-590414Y-10969D01*
D02*
G37*
G36*
X-710626Y-25458D02*
X-710487D01*
X-710513Y-25523D01*
X-710537Y-25635D01*
X-710558Y-25794D01*
X-710584Y-26136D01*
X-710581Y-26166D01*
X-710545Y-26384D01*
X-710499Y-26584D01*
X-710443Y-26766D01*
X-710377Y-26929D01*
X-710300Y-27074D01*
X-710213Y-27201D01*
X-710116Y-27310D01*
X-710611Y-27312D01*
X-710627Y-28208D01*
X-713167Y-28242D01*
X-713169Y-27757D01*
X-713194Y-27323D01*
X-713672Y-27325D01*
X-713576Y-27217D01*
X-713490Y-27089D01*
X-713415Y-26944D01*
X-713349Y-26780D01*
X-713293Y-26598D01*
X-713249Y-26400D01*
X-713300Y-25530D01*
X-713331Y-25458D01*
X-713169D01*
X-713167Y-25414D01*
X-710627Y-25401D01*
X-710626Y-25458D01*
D02*
G37*
G36*
X-790609Y29216D02*
X-788830Y27436D01*
Y-32410D01*
X-790237Y-33817D01*
X-803773D01*
X-805180Y-32410D01*
Y7620D01*
X-812136Y14576D01*
X-830667D01*
X-832010Y15919D01*
Y27773D01*
X-830567Y29216D01*
X-790609Y29216D01*
D02*
G37*
G36*
X-617220Y-15240D02*
Y-48260D01*
X-619760Y-50800D01*
X-645160Y-50800D01*
X-652780Y-43180D01*
X-764540Y-43180D01*
X-767080Y-40640D01*
Y-17780D01*
X-762000Y-12700D01*
X-743609D01*
X-742394Y-13916D01*
Y-27226D01*
X-735330Y-34290D01*
X-688340Y-34290D01*
X-681990Y-27940D01*
X-681990Y-13970D01*
X-680720Y-12700D01*
X-619760Y-12700D01*
X-617220Y-15240D01*
D02*
G37*
G36*
X-807720Y140887D02*
X-824258D01*
X-825451Y139694D01*
X-825451Y90591D01*
X-821690Y86830D01*
X-807720Y86830D01*
X-806450Y85560D01*
Y53810D01*
X-808990Y51270D01*
X-813393D01*
X-835660Y29004D01*
Y-33551D01*
X-836930Y-34821D01*
X-860858Y-34822D01*
X-864870Y-30810D01*
Y27206D01*
X-840740Y51270D01*
D01*
Y170650D01*
X-836349Y175041D01*
X-807720Y175042D01*
Y140887D01*
D02*
G37*
G36*
X-757542Y-53604D02*
X-757441Y-54833D01*
X-757352Y-55379D01*
X-757343Y-55420D01*
X-756261D01*
X-756506Y-55483D01*
X-756727Y-55674D01*
X-756921Y-55991D01*
X-757073Y-56394D01*
X-756933Y-56743D01*
X-756742Y-57106D01*
X-756526Y-57423D01*
X-756285Y-57695D01*
X-757346D01*
X-757348Y-57706D01*
X-757439Y-58531D01*
X-757542Y-60563D01*
X-757555Y-61770D01*
X-763905D01*
X-763918Y-60563D01*
X-764112Y-57706D01*
X-764114Y-57695D01*
X-765175D01*
X-764934Y-57423D01*
X-764718Y-57106D01*
X-764527Y-56743D01*
X-764387Y-56394D01*
X-764539Y-55991D01*
X-764734Y-55674D01*
X-764954Y-55483D01*
X-765200Y-55420D01*
X-764118D01*
X-764108Y-55379D01*
X-764019Y-54833D01*
X-763956Y-54241D01*
X-763905Y-52921D01*
X-757555D01*
X-757542Y-53604D01*
D02*
G37*
G36*
X-632460Y-68580D02*
X-619760D01*
X-618490Y-69850D01*
Y-87630D01*
X-619760Y-88900D01*
X-642620D01*
X-662940Y-68580D01*
Y-48260D01*
X-661670Y-46990D01*
X-654050D01*
X-632460Y-68580D01*
D02*
G37*
G36*
X-670463Y-84568D02*
X-670463Y-97693D01*
X-671830Y-99060D01*
X-680406D01*
X-681774Y-97693D01*
X-681760Y-84435D01*
X-680623Y-83298D01*
X-671733D01*
X-670463Y-84568D01*
D02*
G37*
G36*
X-696462D02*
X-696462Y-97693D01*
X-697829Y-99060D01*
X-706406D01*
X-707773Y-97693D01*
X-707760Y-84435D01*
X-706622Y-83298D01*
X-697732D01*
X-696462Y-84568D01*
D02*
G37*
G36*
X-709793Y-84239D02*
X-709831Y-84433D01*
Y-84435D01*
X-709831Y-84435D01*
X-709831Y-84435D01*
X-709845Y-97691D01*
X-709845Y-97691D01*
X-709845Y-97693D01*
X-709782Y-98010D01*
X-710832Y-99060D01*
X-719408D01*
X-720775Y-97693D01*
X-720762Y-84435D01*
X-719624Y-83298D01*
X-710734D01*
X-709793Y-84239D01*
D02*
G37*
G36*
X-735464Y-84568D02*
X-735464Y-97693D01*
X-736831Y-99060D01*
X-745407D01*
X-746775Y-97693D01*
X-746761Y-84435D01*
X-745624Y-83298D01*
X-736734D01*
X-735464Y-84568D01*
D02*
G37*
G36*
X-683768Y-80772D02*
Y-84113D01*
X-683832Y-84433D01*
Y-84435D01*
X-683832Y-84435D01*
X-683832Y-84435D01*
X-683846Y-97691D01*
X-683845Y-97691D01*
X-683846Y-97693D01*
X-683817Y-97838D01*
X-685038Y-99060D01*
X-693420Y-99060D01*
X-694456Y-98024D01*
X-694390Y-97693D01*
X-694390Y-97692D01*
X-694390Y-84568D01*
X-694390Y-84568D01*
X-694548Y-83775D01*
X-694690Y-83562D01*
Y-80772D01*
X-692404Y-78486D01*
X-686054Y-78486D01*
X-683768Y-80772D01*
D02*
G37*
G36*
X-722770D02*
Y-84113D01*
X-722834Y-84433D01*
Y-84435D01*
X-722834Y-84435D01*
X-722834Y-84435D01*
X-722847Y-97691D01*
X-722847Y-97691D01*
X-722847Y-97693D01*
X-722818Y-97838D01*
X-724040Y-99060D01*
X-732422Y-99060D01*
X-733458Y-98024D01*
X-733392Y-97693D01*
X-733392Y-97692D01*
X-733392Y-84568D01*
X-733392Y-84568D01*
X-733550Y-83775D01*
X-733692Y-83562D01*
Y-80772D01*
X-731406Y-78486D01*
X-725056Y-78486D01*
X-722770Y-80772D01*
D02*
G37*
G36*
X-272531Y-108687D02*
X-272047Y-109002D01*
X-271489Y-109278D01*
X-270857Y-109517D01*
X-270150Y-109717D01*
X-269370Y-109878D01*
X-268515Y-110001D01*
X-266583Y-110132D01*
X-265505Y-110140D01*
X-272930Y-117565D01*
X-272938Y-116488D01*
X-273069Y-114555D01*
X-273192Y-113700D01*
X-273354Y-112920D01*
X-273553Y-112213D01*
X-273792Y-111581D01*
X-274068Y-111023D01*
X-274383Y-110539D01*
X-274737Y-110129D01*
X-272941Y-108333D01*
X-272531Y-108687D01*
D02*
G37*
G36*
X-240105Y-125140D02*
X-241182Y-125148D01*
X-243115Y-125279D01*
X-243970Y-125402D01*
X-244750Y-125563D01*
X-245457Y-125763D01*
X-246089Y-126002D01*
X-246647Y-126278D01*
X-247131Y-126593D01*
X-247541Y-126947D01*
X-249337Y-125151D01*
X-248983Y-124741D01*
X-248668Y-124257D01*
X-248392Y-123699D01*
X-248153Y-123067D01*
X-247953Y-122360D01*
X-247792Y-121580D01*
X-247669Y-120725D01*
X-247538Y-118792D01*
X-247530Y-117715D01*
X-240105Y-125140D01*
D02*
G37*
G36*
X-785970Y-112720D02*
Y-136850D01*
X-788510Y-139390D01*
X-815180D01*
X-817720Y-136850D01*
Y-113110D01*
X-814790Y-110180D01*
X-788510D01*
X-785970Y-112720D01*
D02*
G37*
G36*
X-813910Y-7780D02*
Y-53500D01*
X-799940Y-67470D01*
X-799940Y-92400D01*
X-820260Y-112720D01*
Y-136850D01*
X-822800Y-139390D01*
X-848200D01*
X-850740Y-136850D01*
Y-77310D01*
X-826610Y-53180D01*
Y-7922D01*
X-825038Y-6350D01*
X-815340D01*
X-813910Y-7780D01*
D02*
G37*
D11*
X-725736Y26670D02*
X-674370D01*
X-737911Y-19789D02*
Y14495D01*
X-725736Y26670D01*
X-724141Y19050D02*
X-669290D01*
X-731411Y11780D02*
X-724141Y19050D01*
X-731411Y-19789D02*
Y11780D01*
X-726326Y-11544D02*
Y7772D01*
X-721397Y12700D02*
X-664210D01*
X-726326Y7772D02*
X-721397Y12700D01*
X-726326Y-11544D02*
X-725014Y-12856D01*
Y-19686D02*
Y-12856D01*
X-698909Y-10879D02*
X-682950Y5080D01*
X-656590D01*
X-698909Y-19789D02*
Y-10879D01*
X-692409Y-19789D02*
Y-12160D01*
X-681519Y-1270D02*
X-638810D01*
X-692409Y-12160D02*
X-681519Y-1270D01*
X-685806Y-19686D02*
Y-12851D01*
X-680575Y-7620D02*
X-595630D01*
X-685806Y-12851D02*
X-680575Y-7620D01*
X-674370Y26670D02*
X-633730Y67310D01*
X-617220Y146050D02*
X-581660Y181610D01*
X-617220Y71120D02*
Y146050D01*
X-669290Y19050D02*
X-617220Y71120D01*
X-656590Y5080D02*
X-581660Y80010D01*
X-711897Y-29120D02*
Y-19800D01*
Y-29120D02*
X-711886Y-29132D01*
X-711909Y-19789D02*
X-711897Y-19800D01*
X-600710Y76200D02*
Y137160D01*
X-664210Y12700D02*
X-600710Y76200D01*
X-633730Y67310D02*
Y154940D01*
X-600710Y137160D02*
X-581660Y156210D01*
X-633730Y154940D02*
X-581770Y206900D01*
X-638810Y-1270D02*
X-582930Y54610D01*
X-581660D01*
X-595630Y-7620D02*
X-581660Y-21590D01*
X-725014Y-19686D02*
X-724911Y-19789D01*
X-685909D02*
X-685806Y-19686D01*
X-585648Y3810D02*
X-495300D01*
X-431800Y-59690D01*
X-402590D01*
X-488480Y29210D02*
X-424980Y-34290D01*
X-581660Y29210D02*
X-488480D01*
X-388620Y-34290D02*
X-336733Y-86177D01*
X-296893D01*
X-424980Y-34290D02*
X-388620D01*
X-394970Y-59690D02*
X-320510Y-134150D01*
X-402590Y-59690D02*
X-394970D01*
X-402590Y-59690D02*
X-402590Y-59690D01*
X-320510Y-134150D02*
X-256540D01*
X-296149Y-86921D02*
X-265430Y-117640D01*
X-296893Y-86177D02*
X-296149Y-86921D01*
X-706120Y-3160D02*
Y3810D01*
Y-3160D02*
X-705470Y-3810D01*
X-719470D02*
X-718820Y-3160D01*
Y3810D01*
X-705439Y-19759D02*
Y-3841D01*
X-719470Y-3810D02*
X-718411Y-4869D01*
Y-19789D02*
Y-4869D01*
X-256540Y-134150D02*
X-240030Y-117640D01*
D14*
X-744410Y-91031D02*
D03*
X-737911D02*
D03*
X-731411D02*
D03*
X-724911D02*
D03*
X-718411D02*
D03*
X-711909D02*
D03*
X-705409D02*
D03*
X-698909D02*
D03*
X-692409D02*
D03*
X-685909D02*
D03*
X-679409D02*
D03*
X-672909D02*
D03*
X-744410Y-19789D02*
D03*
X-737911D02*
D03*
X-731411D02*
D03*
X-724911D02*
D03*
X-718411D02*
D03*
X-711909D02*
D03*
X-705409D02*
D03*
X-698909D02*
D03*
X-692409D02*
D03*
X-685909D02*
D03*
X-679409D02*
D03*
X-672909D02*
D03*
D15*
X-702310Y53896D02*
D03*
Y68964D02*
D03*
D16*
X-657860Y-51450D02*
D03*
Y-37450D02*
D03*
X-760730D02*
D03*
Y-51450D02*
D03*
X-718820Y54430D02*
D03*
Y68430D02*
D03*
X-685800Y54430D02*
D03*
Y68430D02*
D03*
D17*
X-631190Y-78677D02*
D03*
Y-40704D02*
D03*
D18*
X-802383Y-119070D02*
D03*
X-835596D02*
D03*
X-849726Y21590D02*
D03*
X-816514D02*
D03*
D19*
X-797420Y-21100D02*
D03*
X-820420D02*
D03*
X-843420D02*
D03*
D20*
X-820420Y-80500D02*
D03*
D21*
X-820181Y157950D02*
D03*
X-754619D02*
D03*
D22*
X-740496Y70320D02*
D03*
X-755564D02*
D03*
X-735416Y55080D02*
D03*
X-750484D02*
D03*
X-740496Y85560D02*
D03*
X-755564D02*
D03*
D23*
X-782904Y76670D02*
D03*
X-814756D02*
D03*
D24*
X-704200Y-2540D02*
D03*
X-718200D02*
D03*
X-722010Y180810D02*
D03*
X-708010D02*
D03*
D25*
X-708660Y117310D02*
D03*
D26*
X-689610Y144135D02*
D03*
X-702310D02*
D03*
X-715010D02*
D03*
X-727710D02*
D03*
X-689610Y90485D02*
D03*
X-702310D02*
D03*
X-715010D02*
D03*
X-727710D02*
D03*
D27*
X-732359Y198590D02*
D03*
X-697661D02*
D03*
D28*
X-660400Y121704D02*
D03*
Y153556D02*
D03*
D46*
X-760730Y-62230D02*
Y-51450D01*
X-361150Y113500D02*
X-69850D01*
X-403860Y156210D02*
X-361150Y113500D01*
X-400708Y130810D02*
X-357998Y88100D01*
X-69850D01*
X-403860Y130810D02*
X-400708D01*
X-732759Y198990D02*
X-732359Y198590D01*
X-743820Y198990D02*
X-732759D01*
X-744220Y199390D02*
X-743820Y198990D01*
X-733280Y54120D02*
X-719130D01*
X-750570Y43650D02*
X-750527Y43693D01*
Y55037D01*
X-750484Y55080D01*
X-719130Y54120D02*
X-718820Y54430D01*
X-702310Y43650D02*
Y53896D01*
X-685800Y43650D02*
Y54430D01*
X-708010Y180810D02*
X-707902Y180918D01*
X-697553D01*
X-697661Y198590D02*
X-697445Y198375D01*
X-697553Y180918D02*
X-697445Y181025D01*
Y198375D01*
X-689610Y144082D02*
Y144135D01*
Y144082D02*
X-689585Y144058D01*
X-679528D01*
X-679450Y143980D01*
D47*
X-657860Y-173990D02*
X-112230D01*
X-40640Y-102400D01*
X-702118Y-129732D02*
X-657860Y-173990D01*
X-676118Y-120172D02*
X-643890Y-152400D01*
X-124930D01*
X-69850Y-97320D01*
X-702118Y-129732D02*
Y-99060D01*
X-676118Y-120172D02*
Y-99060D01*
X-875030Y-180340D02*
X-769620D01*
X-916940Y-138430D02*
X-875030Y-180340D01*
X-769620D02*
X-715010Y-125730D01*
X-916940Y-138430D02*
Y128740D01*
X-715010Y-125730D02*
Y-99170D01*
X-881380Y-132080D02*
X-857250Y-156210D01*
X-779780D01*
X-741119Y-117549D01*
X-881380Y-132080D02*
Y37300D01*
X-741119Y-117549D02*
Y-99060D01*
X-40640Y-102400D02*
Y135090D01*
X-715120Y-99060D02*
X-715010Y-99170D01*
X-916940Y128740D02*
X-881380Y164300D01*
X-69850Y-97320D02*
Y37300D01*
Y164300D02*
X-40640Y135090D01*
D48*
X-360705Y189255D02*
X-191242D01*
X-406827Y235377D02*
X-360705Y189255D01*
X-344640Y198590D02*
X-180340D01*
X-403860Y257810D02*
X-344640Y198590D01*
X-705470Y-3810D02*
X-705439Y-3841D01*
X-314960Y264630D02*
Y287490D01*
Y264630D02*
X-302664Y252334D01*
Y251654D02*
Y252334D01*
X-296451Y267711D02*
Y286949D01*
X-295910Y287490D01*
X-296451Y267711D02*
X-280670Y251930D01*
Y251415D02*
Y251930D01*
X-207010Y244310D02*
X-193040D01*
X-160020Y277330D01*
Y307810D01*
D49*
X-810260Y55080D02*
X-808992Y53812D01*
X-771784D01*
X-755564Y70032D01*
Y70320D01*
D50*
X-675640Y246110D02*
D03*
Y295110D02*
D03*
D51*
X-316230Y-117640D02*
D03*
D52*
X-138430D02*
D03*
X-163830D02*
D03*
X-189230D02*
D03*
X-214630D02*
D03*
X-240030D02*
D03*
X-265430D02*
D03*
X-290830D02*
D03*
X-881380Y138900D02*
D03*
Y113500D02*
D03*
Y88100D02*
D03*
Y62700D02*
D03*
Y37300D02*
D03*
X-69850Y62700D02*
D03*
Y88100D02*
D03*
Y113500D02*
D03*
Y138900D02*
D03*
Y164300D02*
D03*
D53*
X-581660Y-123190D02*
D03*
Y-97790D02*
D03*
Y-72390D02*
D03*
Y-46990D02*
D03*
Y-21590D02*
D03*
Y3810D02*
D03*
Y29210D02*
D03*
Y54610D02*
D03*
Y80010D02*
D03*
Y105410D02*
D03*
Y130810D02*
D03*
Y156210D02*
D03*
Y181610D02*
D03*
Y207010D02*
D03*
Y232410D02*
D03*
Y257810D02*
D03*
Y283210D02*
D03*
Y308610D02*
D03*
Y334010D02*
D03*
X-403860Y-97790D02*
D03*
Y-72390D02*
D03*
Y-46990D02*
D03*
Y-21590D02*
D03*
Y3810D02*
D03*
Y29210D02*
D03*
Y54610D02*
D03*
Y80010D02*
D03*
Y105410D02*
D03*
Y130810D02*
D03*
Y156210D02*
D03*
Y181610D02*
D03*
Y207010D02*
D03*
Y232410D02*
D03*
Y257810D02*
D03*
Y283210D02*
D03*
Y308610D02*
D03*
Y334010D02*
D03*
Y-123190D02*
D03*
Y359410D02*
D03*
D54*
X-581660D02*
D03*
D55*
X-868040Y236380D02*
D03*
X-796040D02*
D03*
D56*
X-899540Y296380D02*
D03*
X-764540D02*
D03*
D57*
X-881380Y164300D02*
D03*
X-69850Y37300D02*
D03*
D58*
X-157480Y387350D02*
D03*
X-119380D02*
D03*
X-81280D02*
D03*
X-43180D02*
D03*
X-386080D02*
D03*
X-347980D02*
D03*
X-462280D02*
D03*
X-424180D02*
D03*
X-271780D02*
D03*
X-233680D02*
D03*
X-195580D02*
D03*
X-309880D02*
D03*
X-958650Y90D02*
D03*
Y-38010D02*
D03*
Y-76110D02*
D03*
Y-114210D02*
D03*
Y228690D02*
D03*
Y190590D02*
D03*
Y304890D02*
D03*
Y266790D02*
D03*
Y114390D02*
D03*
Y76290D02*
D03*
Y38190D02*
D03*
Y152490D02*
D03*
X-21590Y0D02*
D03*
Y-38100D02*
D03*
Y-76200D02*
D03*
Y-114300D02*
D03*
Y228600D02*
D03*
Y190500D02*
D03*
Y304800D02*
D03*
Y266700D02*
D03*
Y38100D02*
D03*
Y152400D02*
D03*
X10160D02*
D03*
Y38100D02*
D03*
Y76200D02*
D03*
Y114300D02*
D03*
Y266700D02*
D03*
Y304800D02*
D03*
Y190500D02*
D03*
Y228600D02*
D03*
Y-114300D02*
D03*
Y-76200D02*
D03*
Y-38100D02*
D03*
Y0D02*
D03*
X-711886Y-29132D02*
D03*
X-706120Y5080D02*
D03*
X-718820D02*
D03*
X-691896Y-81788D02*
D03*
X-686562D02*
D03*
X-730898D02*
D03*
X-725564D02*
D03*
X-805020Y-129230D02*
D03*
X-797400D02*
D03*
X-805020Y-135580D02*
D03*
X-789780Y-129230D02*
D03*
X-797400Y-135580D02*
D03*
X-789780D02*
D03*
X-846930Y-129230D02*
D03*
Y-135580D02*
D03*
X-835660Y55080D02*
D03*
Y61430D02*
D03*
X-829310Y55080D02*
D03*
X-839310Y-129230D02*
D03*
Y-135580D02*
D03*
X-822960Y55080D02*
D03*
Y61430D02*
D03*
X-831690Y-129230D02*
D03*
Y-135580D02*
D03*
X-816610Y55080D02*
D03*
Y61430D02*
D03*
X-824070Y-135580D02*
D03*
X-812640D02*
D03*
X-824070Y-129230D02*
D03*
X-812640D02*
D03*
X-798830Y10160D02*
D03*
X-792480D02*
D03*
X-798830Y17780D02*
D03*
X-792480D02*
D03*
X-798830Y25400D02*
D03*
X-792480D02*
D03*
X-810260Y55080D02*
D03*
Y61430D02*
D03*
X-829310D02*
D03*
X-788539Y64168D02*
D03*
X-782908Y64115D02*
D03*
X-720090Y108420D02*
D03*
X-708660D02*
D03*
X-697230D02*
D03*
X-720090Y117310D02*
D03*
X-708660D02*
D03*
X-697230D02*
D03*
X-720090Y126200D02*
D03*
X-708660D02*
D03*
X-697230D02*
D03*
X-137160Y198590D02*
D03*
X-127635D02*
D03*
X-108585D02*
D03*
X-165735D02*
D03*
X-156210D02*
D03*
X-118110D02*
D03*
X-146685D02*
D03*
X-777277Y64090D02*
D03*
D59*
X-303676Y108D02*
D03*
X-151746D02*
D03*
X-940360Y-165190D02*
D03*
Y364810D02*
D03*
X-10360Y-165190D02*
D03*
Y364810D02*
D03*
D60*
X-648970Y-74930D02*
D03*
X-646430Y-62230D02*
D03*
X-657860D02*
D03*
X-191242Y189255D02*
D03*
X-314960Y287490D02*
D03*
X-302664Y251654D02*
D03*
X-295910Y287490D02*
D03*
X-280670Y251415D02*
D03*
X-276860Y287490D02*
D03*
X-271780Y242031D02*
D03*
X-259080Y287490D02*
D03*
X-254239Y251138D02*
D03*
X-180340Y198590D02*
D03*
X-240030Y243040D02*
D03*
X-207010Y244310D02*
D03*
X-240030Y287490D02*
D03*
X-109220D02*
D03*
X-146050D02*
D03*
X-128270D02*
D03*
X-160020Y307810D02*
D03*
X-128270D02*
D03*
D61*
X-760730Y-62230D02*
D03*
X-744220Y199390D02*
D03*
X-462280Y163030D02*
D03*
Y182080D02*
D03*
X-452120Y133820D02*
D03*
X-750570Y43650D02*
D03*
X-702310D02*
D03*
X-685800D02*
D03*
X-697445Y181025D02*
D03*
X-462280Y207480D02*
D03*
X-442935Y-112085D02*
D03*
X-265430Y-69380D02*
D03*
X-240030D02*
D03*
X-462280Y226530D02*
D03*
X-452120Y255740D02*
D03*
X-679450Y143980D02*
D03*
D62*
X-651510Y-26670D02*
D03*
Y-17780D02*
D03*
X-633730D02*
D03*
X-624840D02*
D03*
X-642620D02*
D03*
X-624840Y-26670D02*
D03*
X-633730D02*
D03*
X-642620D02*
D03*
M02*
