G04*
G04 #@! TF.GenerationSoftware,Altium Limited,Altium Designer,22.11.1 (43)*
G04*
G04 Layer_Color=128*
%FSLAX44Y44*%
%MOMM*%
G71*
G04*
G04 #@! TF.SameCoordinates,30CB15ED-5B5F-4030-944F-8374E8F7CEFA*
G04*
G04*
G04 #@! TF.FilePolarity,Positive*
G04*
G01*
G75*
%ADD15R,0.8640X0.8065*%
%ADD16R,0.9000X0.8000*%
%ADD22R,0.8065X0.8640*%
%ADD24R,0.8000X0.9000*%
%ADD63R,0.3505X3.0000*%
%ADD64R,0.4826X0.6096*%
G36*
X-432050Y149250D02*
Y141250D01*
X-432550Y140750D01*
X-440550D01*
X-441050Y141250D01*
Y143530D01*
X-437350D01*
Y146830D01*
X-441050D01*
Y149250D01*
X-440550Y149750D01*
X-432550D01*
X-432050Y149250D01*
D02*
G37*
G36*
X-448050D02*
Y146830D01*
X-451850D01*
Y143530D01*
X-448050D01*
Y141250D01*
X-448550Y140750D01*
X-456450D01*
X-456950Y141250D01*
Y149250D01*
X-456450Y149750D01*
X-448550D01*
X-448050Y149250D01*
D02*
G37*
G36*
X-235530Y-76480D02*
Y-84480D01*
X-236030Y-84980D01*
X-238310D01*
Y-81280D01*
X-241610D01*
Y-84980D01*
X-244030D01*
X-244530Y-84480D01*
Y-76480D01*
X-244030Y-75980D01*
X-236030D01*
X-235530Y-76480D01*
D02*
G37*
G36*
X-260930D02*
Y-84480D01*
X-261430Y-84980D01*
X-263710D01*
Y-81280D01*
X-267010D01*
Y-84980D01*
X-269430D01*
X-269930Y-84480D01*
Y-76480D01*
X-269430Y-75980D01*
X-261430D01*
X-260930Y-76480D01*
D02*
G37*
G36*
X-235530Y-92480D02*
Y-100380D01*
X-236030Y-100880D01*
X-244030D01*
X-244530Y-100380D01*
Y-92480D01*
X-244030Y-91980D01*
X-241610D01*
Y-95780D01*
X-238310D01*
Y-91980D01*
X-236030D01*
X-235530Y-92480D01*
D02*
G37*
G36*
X-260930D02*
Y-100380D01*
X-261430Y-100880D01*
X-269430D01*
X-269930Y-100380D01*
Y-92480D01*
X-269430Y-91980D01*
X-267010D01*
Y-95780D01*
X-263710D01*
Y-91980D01*
X-261430D01*
X-260930Y-92480D01*
D02*
G37*
G36*
X-432050Y248310D02*
Y240310D01*
X-432550Y239810D01*
X-440550D01*
X-441050Y240310D01*
Y242590D01*
X-437350D01*
Y245890D01*
X-441050D01*
Y248310D01*
X-440550Y248810D01*
X-432550D01*
X-432050Y248310D01*
D02*
G37*
G36*
X-448050D02*
Y245890D01*
X-451850D01*
Y242590D01*
X-448050D01*
Y240310D01*
X-448550Y239810D01*
X-456450D01*
X-456950Y240310D01*
Y248310D01*
X-456450Y248810D01*
X-448550D01*
X-448050Y248310D01*
D02*
G37*
G36*
X-432050Y230530D02*
Y222530D01*
X-432550Y222030D01*
X-440450D01*
X-440950Y222530D01*
Y224950D01*
X-437150D01*
Y228250D01*
X-440950D01*
Y230530D01*
X-440450Y231030D01*
X-432550D01*
X-432050Y230530D01*
D02*
G37*
G36*
X-447950D02*
Y228250D01*
X-451650D01*
Y224950D01*
X-447950D01*
Y222530D01*
X-448450Y222030D01*
X-456450D01*
X-456950Y222530D01*
Y230530D01*
X-456450Y231030D01*
X-448450D01*
X-447950Y230530D01*
D02*
G37*
G36*
X-432050Y167030D02*
Y159030D01*
X-432550Y158530D01*
X-440450D01*
X-440950Y159030D01*
Y161450D01*
X-437150D01*
Y164750D01*
X-440950D01*
Y167030D01*
X-440450Y167530D01*
X-432550D01*
X-432050Y167030D01*
D02*
G37*
G36*
X-447950D02*
Y164750D01*
X-451650D01*
Y161450D01*
X-447950D01*
Y159030D01*
X-448450Y158530D01*
X-456450D01*
X-456950Y159030D01*
Y167030D01*
X-456450Y167530D01*
X-448450D01*
X-447950Y167030D01*
D02*
G37*
G36*
X-132330Y311810D02*
Y303810D01*
X-132830Y303310D01*
X-140830D01*
X-141330Y303810D01*
Y306090D01*
X-137630D01*
Y309390D01*
X-141330D01*
Y311810D01*
X-140830Y312310D01*
X-132830D01*
X-132330Y311810D01*
D02*
G37*
G36*
X-148330D02*
Y309390D01*
X-152130D01*
Y306090D01*
X-148330D01*
Y303810D01*
X-148830Y303310D01*
X-156730D01*
X-157230Y303810D01*
Y311810D01*
X-156730Y312310D01*
X-148830D01*
X-148330Y311810D01*
D02*
G37*
G36*
X-162810D02*
Y303810D01*
X-163310Y303310D01*
X-171310D01*
X-171810Y303810D01*
Y306090D01*
X-168110D01*
Y309390D01*
X-171810D01*
Y311810D01*
X-171310Y312310D01*
X-163310D01*
X-162810Y311810D01*
D02*
G37*
G36*
X-178810D02*
Y309390D01*
X-182610D01*
Y306090D01*
X-178810D01*
Y303810D01*
X-179310Y303310D01*
X-187210D01*
X-187710Y303810D01*
Y311810D01*
X-187210Y312310D01*
X-179310D01*
X-178810Y311810D01*
D02*
G37*
G36*
X-141550Y284200D02*
Y276300D01*
X-142050Y275800D01*
X-144470D01*
Y279600D01*
X-147770D01*
Y275800D01*
X-150050D01*
X-150550Y276300D01*
Y284200D01*
X-150050Y284700D01*
X-142050D01*
X-141550Y284200D01*
D02*
G37*
G36*
X-217750D02*
Y276300D01*
X-218250Y275800D01*
X-220670D01*
Y279600D01*
X-223970D01*
Y275800D01*
X-226250D01*
X-226750Y276300D01*
Y284200D01*
X-226250Y284700D01*
X-218250D01*
X-217750Y284200D01*
D02*
G37*
G36*
X-170760Y284200D02*
Y276200D01*
X-171260Y275700D01*
X-173540D01*
Y279400D01*
X-176840D01*
Y275700D01*
X-179260D01*
X-179760Y276200D01*
Y284200D01*
X-179260Y284700D01*
X-171260D01*
X-170760Y284200D01*
D02*
G37*
G36*
X-187270D02*
Y276200D01*
X-187770Y275700D01*
X-190050D01*
Y279400D01*
X-193350D01*
Y275700D01*
X-195770D01*
X-196270Y276200D01*
Y284200D01*
X-195770Y284700D01*
X-187770D01*
X-187270Y284200D01*
D02*
G37*
G36*
X-141550Y268300D02*
Y260300D01*
X-142050Y259800D01*
X-150050D01*
X-150550Y260300D01*
Y268300D01*
X-150050Y268800D01*
X-147770D01*
Y265100D01*
X-144470D01*
Y268800D01*
X-142050D01*
X-141550Y268300D01*
D02*
G37*
G36*
X-217750D02*
Y260300D01*
X-218250Y259800D01*
X-226250D01*
X-226750Y260300D01*
Y268300D01*
X-226250Y268800D01*
X-223970D01*
Y265100D01*
X-220670D01*
Y268800D01*
X-218250D01*
X-217750Y268300D01*
D02*
G37*
G36*
X-170760Y268200D02*
Y260300D01*
X-171260Y259800D01*
X-179260D01*
X-179760Y260300D01*
Y268200D01*
X-179260Y268700D01*
X-176840D01*
Y264900D01*
X-173540D01*
Y268700D01*
X-171260D01*
X-170760Y268200D01*
D02*
G37*
G36*
X-187270D02*
Y260300D01*
X-187770Y259800D01*
X-195770D01*
X-196270Y260300D01*
Y268200D01*
X-195770Y268700D01*
X-193350D01*
Y264900D01*
X-190050D01*
Y268700D01*
X-187770D01*
X-187270Y268200D01*
D02*
G37*
D15*
X-265430Y-80896D02*
D03*
Y-95964D02*
D03*
X-240030Y-80896D02*
D03*
Y-95964D02*
D03*
X-191770Y279784D02*
D03*
Y264716D02*
D03*
X-222250Y279784D02*
D03*
Y264716D02*
D03*
X-175260Y279784D02*
D03*
Y264716D02*
D03*
X-146050D02*
D03*
Y279784D02*
D03*
D16*
X-277495Y279250D02*
D03*
Y265250D02*
D03*
X-258762Y279250D02*
D03*
Y265250D02*
D03*
X-240030Y279250D02*
D03*
Y265250D02*
D03*
X-128270Y279250D02*
D03*
Y265250D02*
D03*
X-109220Y279250D02*
D03*
Y265250D02*
D03*
X-314960Y279250D02*
D03*
Y265250D02*
D03*
X-296227Y279250D02*
D03*
Y265250D02*
D03*
D22*
X-452034Y145250D02*
D03*
X-436966D02*
D03*
Y163030D02*
D03*
X-452034D02*
D03*
X-167726Y307810D02*
D03*
X-182794D02*
D03*
X-137246D02*
D03*
X-152314D02*
D03*
X-436966Y226530D02*
D03*
X-452034D02*
D03*
Y244310D02*
D03*
X-436966D02*
D03*
D24*
X-436942Y182080D02*
D03*
X-450942D02*
D03*
X-429260Y-123190D02*
D03*
X-443260D02*
D03*
X-436942Y207480D02*
D03*
X-450942D02*
D03*
D63*
X-107239Y220205D02*
D03*
X-114239D02*
D03*
X-121239Y220195D02*
D03*
X-128239Y220180D02*
D03*
X-135240D02*
D03*
X-142240D02*
D03*
X-149240D02*
D03*
X-156241D02*
D03*
X-163241D02*
D03*
X-170238D02*
D03*
X-177239D02*
D03*
X-184239D02*
D03*
X-191239D02*
D03*
X-198239D02*
D03*
X-205240D02*
D03*
X-212240D02*
D03*
X-219240D02*
D03*
X-226240D02*
D03*
X-233241D02*
D03*
X-240241D02*
D03*
X-247239D02*
D03*
X-254239D02*
D03*
X-261239D02*
D03*
X-268239D02*
D03*
X-275240D02*
D03*
X-282240D02*
D03*
X-289240D02*
D03*
X-296240D02*
D03*
X-303240D02*
D03*
X-310241Y220160D02*
D03*
D64*
X-207029Y279329D02*
D03*
X-206962Y265138D02*
D03*
M02*
